  0
SECTION
  2
BLOCKS
  0
ENDSEC
  0
SECTION
  2
ENTITIES
  0
LINE
  8
0
 10
-307.825
 20
0.0917969
 11
-307.258
 21
0.148438
  0
LINE
  8
0
 10
-307.258
 20
0.148438
 11
-306.695
 21
0.244141
  0
LINE
  8
0
 10
-306.695
 20
0.244141
 11
-306.141
 21
0.376953
  0
LINE
  8
0
 10
-306.141
 20
0.376953
 11
-305.596
 21
0.546875
  0
LINE
  8
0
 10
-305.596
 20
0.546875
 11
-305.063
 21
0.75293
  0
LINE
  8
0
 10
-305.063
 20
0.75293
 11
-304.547
 21
0.994141
  0
LINE
  8
0
 10
-304.547
 20
0.994141
 11
-304.047
 21
1.26855
  0
LINE
  8
0
 10
-304.047
 20
1.26855
 11
-303.566
 21
1.57715
  0
LINE
  8
0
 10
-303.566
 20
1.57715
 11
-303.108
 21
1.91699
  0
LINE
  8
0
 10
-303.108
 20
1.91699
 11
-302.674
 21
2.28613
  0
LINE
  8
0
 10
-302.674
 20
2.28613
 11
-302.265
 21
2.68457
  0
LINE
  8
0
 10
-302.265
 20
2.68457
 11
-301.884
 21
3.1084
  0
LINE
  8
0
 10
-301.884
 20
3.1084
 11
-299.827
 21
6.12793
  0
LINE
  8
0
 10
-299.827
 20
6.12793
 11
-299.446
 21
6.55273
  0
LINE
  8
0
 10
-299.446
 20
6.55273
 11
-299.037
 21
6.95117
  0
LINE
  8
0
 10
-299.037
 20
6.95117
 11
-298.603
 21
7.32031
  0
LINE
  8
0
 10
-298.603
 20
7.32031
 11
-298.145
 21
7.66016
  0
LINE
  8
0
 10
-298.145
 20
7.66016
 11
-297.664
 21
7.96777
  0
LINE
  8
0
 10
-297.664
 20
7.96777
 11
-297.164
 21
8.24316
  0
LINE
  8
0
 10
-297.164
 20
8.24316
 11
-296.647
 21
8.48438
  0
LINE
  8
0
 10
-296.647
 20
8.48438
 11
-296.115
 21
8.69043
  0
LINE
  8
0
 10
-296.115
 20
8.69043
 11
-295.57
 21
8.86035
  0
LINE
  8
0
 10
-295.57
 20
8.86035
 11
-295.016
 21
8.99316
  0
LINE
  8
0
 10
-295.016
 20
8.99316
 11
-294.453
 21
9.08789
  0
LINE
  8
0
 10
-294.453
 20
9.08789
 11
-293.886
 21
9.14551
  0
LINE
  8
0
 10
-293.886
 20
9.14551
 11
-293.315
 21
9.16504
  0
LINE
  8
0
 10
-293.315
 20
9.16504
 11
-45.3477
 21
9.16504
  0
LINE
  8
0
 10
-45.3477
 20
9.16504
 11
-44.7773
 21
9.14551
  0
LINE
  8
0
 10
-44.7773
 20
9.14551
 11
-44.21
 21
9.08789
  0
LINE
  8
0
 10
-44.21
 20
9.08789
 11
-43.6475
 21
8.99316
  0
LINE
  8
0
 10
-43.6475
 20
8.99316
 11
-43.0928
 21
8.86035
  0
LINE
  8
0
 10
-43.0928
 20
8.86035
 11
-42.5479
 21
8.69043
  0
LINE
  8
0
 10
-42.5479
 20
8.69043
 11
-42.0156
 21
8.48438
  0
LINE
  8
0
 10
-42.0156
 20
8.48438
 11
-41.499
 21
8.24316
  0
LINE
  8
0
 10
-41.499
 20
8.24316
 11
-40.999
 21
7.96777
  0
LINE
  8
0
 10
-40.999
 20
7.96777
 11
-40.5186
 21
7.66016
  0
LINE
  8
0
 10
-40.5186
 20
7.66016
 11
-40.0605
 21
7.32031
  0
LINE
  8
0
 10
-40.0605
 20
7.32031
 11
-39.626
 21
6.95117
  0
LINE
  8
0
 10
-39.626
 20
6.95117
 11
-39.2168
 21
6.55273
  0
LINE
  8
0
 10
-39.2168
 20
6.55273
 11
-38.8359
 21
6.12793
  0
LINE
  8
0
 10
-38.8359
 20
6.12793
 11
-36.7793
 21
3.1084
  0
LINE
  8
0
 10
-36.7793
 20
3.1084
 11
-36.4043
 21
2.68652
  0
LINE
  8
0
 10
-36.4043
 20
2.68652
 11
-36.002
 21
2.29102
  0
LINE
  8
0
 10
-36.002
 20
2.29102
 11
-35.5742
 21
1.92383
  0
LINE
  8
0
 10
-35.5742
 20
1.92383
 11
-35.123
 21
1.58496
  0
LINE
  8
0
 10
-35.123
 20
1.58496
 11
-34.6504
 21
1.27832
  0
LINE
  8
0
 10
-34.6504
 20
1.27832
 11
-34.1572
 21
1.00293
  0
LINE
  8
0
 10
-34.1572
 20
1.00293
 11
-33.6475
 21
0.762695
  0
LINE
  8
0
 10
-33.6475
 20
0.762695
 11
-33.1221
 21
0.555664
  0
LINE
  8
0
 10
-33.1221
 20
0.555664
 11
-32.584
 21
0.385742
  0
LINE
  8
0
 10
-32.584
 20
0.385742
 11
-32.0361
 21
0.250977
  0
LINE
  8
0
 10
-32.0361
 20
0.250977
 11
-31.4805
 21
0.154297
  0
LINE
  8
0
 10
-31.4805
 20
0.154297
 11
-30.9199
 21
0.0947266
  0
LINE
  8
0
 10
-30.9199
 20
0.0947266
 11
-30.3555
 21
0.0722656
  0
LINE
  8
0
 10
-30.3555
 20
0.0722656
 11
-7.24805
 21
0.0722656
  0
LINE
  8
0
 10
-7.24805
 20
0.0722656
 11
-7.17676
 21
0.0761719
  0
LINE
  8
0
 10
-7.17676
 20
0.0761719
 11
-7.10645
 21
0.0849609
  0
LINE
  8
0
 10
-7.10645
 20
0.0849609
 11
-7.03613
 21
0.0996094
  0
LINE
  8
0
 10
-7.03613
 20
0.0996094
 11
-6.96777
 21
0.118164
  0
LINE
  8
0
 10
-6.96777
 20
0.118164
 11
-6.90039
 21
0.141602
  0
LINE
  8
0
 10
-6.90039
 20
0.141602
 11
-6.83398
 21
0.168945
  0
LINE
  8
0
 10
-6.83398
 20
0.168945
 11
-6.77051
 21
0.201172
  0
LINE
  8
0
 10
-6.77051
 20
0.201172
 11
-6.70898
 21
0.238281
  0
LINE
  8
0
 10
-6.70898
 20
0.238281
 11
-6.65039
 21
0.27832
  0
LINE
  8
0
 10
-6.65039
 20
0.27832
 11
-6.59473
 21
0.323242
  0
LINE
  8
0
 10
-6.59473
 20
0.323242
 11
-6.54297
 21
0.37207
  0
LINE
  8
0
 10
-6.54297
 20
0.37207
 11
-6.49316
 21
0.423828
  0
LINE
  8
0
 10
-6.49316
 20
0.423828
 11
-6.44824
 21
0.478516
  0
LINE
  8
0
 10
-6.44824
 20
0.478516
 11
-6.40625
 21
0.536133
  0
LINE
  8
0
 10
-6.40625
 20
0.536133
 11
-6.36914
 21
0.59668
  0
LINE
  8
0
 10
-6.36914
 20
0.59668
 11
-6.33594
 21
0.660156
  0
LINE
  8
0
 10
-6.33594
 20
0.660156
 11
-6.30664
 21
0.725586
  0
LINE
  8
0
 10
-6.30664
 20
0.725586
 11
-6.28223
 21
0.791992
  0
LINE
  8
0
 10
-6.28223
 20
0.791992
 11
-6.2627
 21
0.861328
  0
LINE
  8
0
 10
-6.2627
 20
0.861328
 11
-6.24707
 21
0.930664
  0
LINE
  8
0
 10
-6.24707
 20
0.930664
 11
-6.2373
 21
1.00098
  0
LINE
  8
0
 10
-6.2373
 20
1.00098
 11
-6.23145
 21
1.07227
  0
LINE
  8
0
 10
-6.23145
 20
1.07227
 11
-6.23145
 21
55.1143
  0
LINE
  8
0
 10
-6.23145
 20
55.1143
 11
-0.231445
 21
55.1143
  0
LINE
  8
0
 10
-0.231445
 20
55.1143
 11
-0.231445
 21
65.1143
  0
LINE
  8
0
 10
-0.231445
 20
65.1143
 11
-6.23145
 21
65.1143
  0
LINE
  8
0
 10
-6.23145
 20
65.1143
 11
-6.23145
 21
105.104
  0
LINE
  8
0
 10
-6.23145
 20
105.104
 11
-0.231445
 21
105.104
  0
LINE
  8
0
 10
-0.231445
 20
105.104
 11
-0.231445
 21
115.104
  0
LINE
  8
0
 10
-0.231445
 20
115.104
 11
-6.23145
 21
115.104
  0
LINE
  8
0
 10
-6.23145
 20
115.104
 11
-6.23145
 21
186.834
  0
LINE
  8
0
 10
-6.23145
 20
186.834
 11
-0.231445
 21
186.834
  0
LINE
  8
0
 10
-0.231445
 20
186.834
 11
-0.231445
 21
196.808
  0
LINE
  8
0
 10
-0.231445
 20
196.808
 11
-6.23145
 21
196.808
  0
LINE
  8
0
 10
-6.23145
 20
196.808
 11
-6.23145
 21
236.836
  0
LINE
  8
0
 10
-6.23145
 20
236.836
 11
-0.231445
 21
236.836
  0
LINE
  8
0
 10
-0.231445
 20
236.836
 11
-0.231445
 21
246.81
  0
LINE
  8
0
 10
-0.231445
 20
246.81
 11
-6.23145
 21
246.81
  0
LINE
  8
0
 10
-6.23145
 20
246.81
 11
-6.23145
 21
320.973
  0
LINE
  8
0
 10
-6.23145
 20
320.973
 11
-0.231445
 21
320.973
  0
LINE
  8
0
 10
-0.231445
 20
320.973
 11
-0.231445
 21
330.973
  0
LINE
  8
0
 10
-0.231445
 20
330.973
 11
-6.23145
 21
330.973
  0
LINE
  8
0
 10
-6.23145
 20
330.973
 11
-6.23145
 21
370.982
  0
LINE
  8
0
 10
-6.23145
 20
370.982
 11
-0.231445
 21
370.982
  0
LINE
  8
0
 10
-0.231445
 20
370.982
 11
-0.231445
 21
380.982
  0
LINE
  8
0
 10
-0.231445
 20
380.982
 11
-6.23145
 21
380.982
  0
LINE
  8
0
 10
-6.23145
 20
380.982
 11
-6.23145
 21
420.973
  0
LINE
  8
0
 10
-6.23145
 20
420.973
 11
-0.231445
 21
420.973
  0
LINE
  8
0
 10
-0.231445
 20
420.973
 11
-0.231445
 21
430.973
  0
LINE
  8
0
 10
-0.231445
 20
430.973
 11
-6.23145
 21
430.973
  0
LINE
  8
0
 10
-6.23145
 20
430.973
 11
-6.23145
 21
470.982
  0
LINE
  8
0
 10
-6.23145
 20
470.982
 11
-0.231445
 21
470.982
  0
LINE
  8
0
 10
-0.231445
 20
470.982
 11
-0.231445
 21
480.982
  0
LINE
  8
0
 10
-0.231445
 20
480.982
 11
-6.23145
 21
480.982
  0
LINE
  8
0
 10
-6.23145
 20
480.982
 11
-6.23145
 21
492.384
  0
LINE
  8
0
 10
-6.23145
 20
492.384
 11
-6.2334
 21
492.449
  0
LINE
  8
0
 10
-6.2334
 20
492.449
 11
-6.24023
 21
492.514
  0
LINE
  8
0
 10
-6.24023
 20
492.514
 11
-6.25098
 21
492.578
  0
LINE
  8
0
 10
-6.25098
 20
492.578
 11
-6.26562
 21
492.643
  0
LINE
  8
0
 10
-6.26562
 20
492.643
 11
-6.28418
 21
492.705
  0
LINE
  8
0
 10
-6.28418
 20
492.705
 11
-6.30762
 21
492.767
  0
LINE
  8
0
 10
-6.30762
 20
492.767
 11
-6.33496
 21
492.826
  0
LINE
  8
0
 10
-6.33496
 20
492.826
 11
-6.36523
 21
492.884
  0
LINE
  8
0
 10
-6.36523
 20
492.884
 11
-6.40039
 21
492.939
  0
LINE
  8
0
 10
-6.40039
 20
492.939
 11
-6.43848
 21
492.992
  0
LINE
  8
0
 10
-6.43848
 20
492.992
 11
-6.47949
 21
493.043
  0
LINE
  8
0
 10
-6.47949
 20
493.043
 11
-6.52441
 21
493.091
  0
LINE
  8
0
 10
-6.52441
 20
493.091
 11
-6.57227
 21
493.136
  0
LINE
  8
0
 10
-6.57227
 20
493.136
 11
-6.62305
 21
493.177
  0
LINE
  8
0
 10
-6.62305
 20
493.177
 11
-6.67578
 21
493.215
  0
LINE
  8
0
 10
-6.67578
 20
493.215
 11
-6.73145
 21
493.249
  0
LINE
  8
0
 10
-6.73145
 20
493.249
 11
-6.78906
 21
493.28
  0
LINE
  8
0
 10
-6.78906
 20
493.28
 11
-6.84863
 21
493.308
  0
LINE
  8
0
 10
-6.84863
 20
493.308
 11
-6.91016
 21
493.33
  0
LINE
  8
0
 10
-6.91016
 20
493.33
 11
-6.97266
 21
493.35
  0
LINE
  8
0
 10
-6.97266
 20
493.35
 11
-7.03613
 21
493.364
  0
LINE
  8
0
 10
-7.03613
 20
493.364
 11
-7.10059
 21
493.375
  0
LINE
  8
0
 10
-7.10059
 20
493.375
 11
-7.16602
 21
493.381
  0
LINE
  8
0
 10
-7.16602
 20
493.381
 11
-7.23145
 21
493.384
  0
LINE
  8
0
 10
-7.23145
 20
493.384
 11
-29.4883
 21
493.384
  0
LINE
  8
0
 10
-29.4883
 20
493.384
 11
-30.0752
 21
493.403
  0
LINE
  8
0
 10
-30.0752
 20
493.403
 11
-30.6602
 21
493.465
  0
LINE
  8
0
 10
-30.6602
 20
493.465
 11
-31.2393
 21
493.565
  0
LINE
  8
0
 10
-31.2393
 20
493.565
 11
-31.8096
 21
493.706
  0
LINE
  8
0
 10
-31.8096
 20
493.706
 11
-32.3682
 21
493.887
  0
LINE
  8
0
 10
-32.3682
 20
493.887
 11
-32.9141
 21
494.104
  0
LINE
  8
0
 10
-32.9141
 20
494.104
 11
-33.4434
 21
494.359
  0
LINE
  8
0
 10
-33.4434
 20
494.359
 11
-33.9541
 21
494.65
  0
LINE
  8
0
 10
-33.9541
 20
494.65
 11
-34.4424
 21
494.977
  0
LINE
  8
0
 10
-34.4424
 20
494.977
 11
-34.9082
 21
495.335
  0
LINE
  8
0
 10
-34.9082
 20
495.335
 11
-35.3477
 21
495.726
  0
LINE
  8
0
 10
-35.3477
 20
495.726
 11
-35.7588
 21
496.145
  0
LINE
  8
0
 10
-35.7588
 20
496.145
 11
-39.8564
 21
500.622
  0
LINE
  8
0
 10
-39.8564
 20
500.622
 11
-40.2676
 21
501.042
  0
LINE
  8
0
 10
-40.2676
 20
501.042
 11
-40.707
 21
501.432
  0
LINE
  8
0
 10
-40.707
 20
501.432
 11
-41.1729
 21
501.79
  0
LINE
  8
0
 10
-41.1729
 20
501.79
 11
-41.6621
 21
502.116
  0
LINE
  8
0
 10
-41.6621
 20
502.116
 11
-42.1719
 21
502.407
  0
LINE
  8
0
 10
-42.1719
 20
502.407
 11
-42.7012
 21
502.662
  0
LINE
  8
0
 10
-42.7012
 20
502.662
 11
-43.2471
 21
502.881
  0
LINE
  8
0
 10
-43.2471
 20
502.881
 11
-43.8066
 21
503.061
  0
LINE
  8
0
 10
-43.8066
 20
503.061
 11
-44.377
 21
503.201
  0
LINE
  8
0
 10
-44.377
 20
503.201
 11
-44.9551
 21
503.303
  0
LINE
  8
0
 10
-44.9551
 20
503.303
 11
-45.54
 21
503.363
  0
LINE
  8
0
 10
-45.54
 20
503.363
 11
-46.127
 21
503.384
  0
LINE
  8
0
 10
-46.127
 20
503.384
 11
-292.536
 21
503.384
  0
LINE
  8
0
 10
-292.536
 20
503.384
 11
-293.123
 21
503.363
  0
LINE
  8
0
 10
-293.123
 20
503.363
 11
-293.708
 21
503.303
  0
LINE
  8
0
 10
-293.708
 20
503.303
 11
-294.286
 21
503.201
  0
LINE
  8
0
 10
-294.286
 20
503.201
 11
-294.857
 21
503.061
  0
LINE
  8
0
 10
-294.857
 20
503.061
 11
-295.416
 21
502.881
  0
LINE
  8
0
 10
-295.416
 20
502.881
 11
-295.962
 21
502.662
  0
LINE
  8
0
 10
-295.962
 20
502.662
 11
-296.491
 21
502.407
  0
LINE
  8
0
 10
-296.491
 20
502.407
 11
-297.001
 21
502.116
  0
LINE
  8
0
 10
-297.001
 20
502.116
 11
-297.49
 21
501.79
  0
LINE
  8
0
 10
-297.49
 20
501.79
 11
-297.956
 21
501.432
  0
LINE
  8
0
 10
-297.956
 20
501.432
 11
-298.396
 21
501.042
  0
LINE
  8
0
 10
-298.396
 20
501.042
 11
-298.807
 21
500.622
  0
LINE
  8
0
 10
-298.807
 20
500.622
 11
-302.904
 21
496.145
  0
LINE
  8
0
 10
-302.904
 20
496.145
 11
-303.315
 21
495.726
  0
LINE
  8
0
 10
-303.315
 20
495.726
 11
-303.755
 21
495.335
  0
LINE
  8
0
 10
-303.755
 20
495.335
 11
-304.221
 21
494.977
  0
LINE
  8
0
 10
-304.221
 20
494.977
 11
-304.71
 21
494.65
  0
LINE
  8
0
 10
-304.71
 20
494.65
 11
-305.22
 21
494.359
  0
LINE
  8
0
 10
-305.22
 20
494.359
 11
-305.749
 21
494.104
  0
LINE
  8
0
 10
-305.749
 20
494.104
 11
-306.295
 21
493.887
  0
LINE
  8
0
 10
-306.295
 20
493.887
 11
-306.854
 21
493.706
  0
LINE
  8
0
 10
-306.854
 20
493.706
 11
-307.425
 21
493.565
  0
LINE
  8
0
 10
-307.425
 20
493.565
 11
-308.003
 21
493.465
  0
LINE
  8
0
 10
-308.003
 20
493.465
 11
-308.588
 21
493.403
  0
LINE
  8
0
 10
-308.588
 20
493.403
 11
-309.175
 21
493.384
  0
LINE
  8
0
 10
-309.175
 20
493.384
 11
-331.607
 21
493.384
  0
LINE
  8
0
 10
-331.607
 20
493.384
 11
-331.667
 21
493.376
  0
LINE
  8
0
 10
-331.667
 20
493.376
 11
-331.726
 21
493.364
  0
LINE
  8
0
 10
-331.726
 20
493.364
 11
-331.784
 21
493.349
  0
LINE
  8
0
 10
-331.784
 20
493.349
 11
-331.841
 21
493.33
  0
LINE
  8
0
 10
-331.841
 20
493.33
 11
-331.896
 21
493.307
  0
LINE
  8
0
 10
-331.896
 20
493.307
 11
-331.95
 21
493.28
  0
LINE
  8
0
 10
-331.95
 20
493.28
 11
-332.002
 21
493.25
  0
LINE
  8
0
 10
-332.002
 20
493.25
 11
-332.052
 21
493.217
  0
LINE
  8
0
 10
-332.052
 20
493.217
 11
-332.1
 21
493.181
  0
LINE
  8
0
 10
-332.1
 20
493.181
 11
-332.145
 21
493.142
  0
LINE
  8
0
 10
-332.145
 20
493.142
 11
-332.188
 21
493.099
  0
LINE
  8
0
 10
-332.188
 20
493.099
 11
-332.227
 21
493.054
  0
LINE
  8
0
 10
-332.227
 20
493.054
 11
-332.264
 21
493.007
  0
LINE
  8
0
 10
-332.264
 20
493.007
 11
-332.297
 21
492.957
  0
LINE
  8
0
 10
-332.297
 20
492.957
 11
-332.327
 21
492.905
  0
LINE
  8
0
 10
-332.327
 20
492.905
 11
-332.354
 21
492.852
  0
LINE
  8
0
 10
-332.354
 20
492.852
 11
-332.376
 21
492.796
  0
LINE
  8
0
 10
-332.376
 20
492.796
 11
-332.396
 21
492.739
  0
LINE
  8
0
 10
-332.396
 20
492.739
 11
-332.411
 21
492.682
  0
LINE
  8
0
 10
-332.411
 20
492.682
 11
-332.423
 21
492.622
  0
LINE
  8
0
 10
-332.423
 20
492.622
 11
-332.432
 21
492.563
  0
LINE
  8
0
 10
-332.432
 20
492.563
 11
-332.436
 21
492.503
  0
LINE
  8
0
 10
-332.436
 20
492.503
 11
-332.436
 21
492.443
  0
LINE
  8
0
 10
-332.436
 20
492.443
 11
-332.432
 21
492.384
  0
LINE
  8
0
 10
-332.432
 20
492.384
 11
-332.432
 21
481.125
  0
LINE
  8
0
 10
-332.432
 20
481.125
 11
-338.432
 21
481.125
  0
LINE
  8
0
 10
-338.432
 20
481.125
 11
-338.432
 21
470.982
  0
LINE
  8
0
 10
-338.432
 20
470.982
 11
-332.432
 21
470.982
  0
LINE
  8
0
 10
-332.432
 20
470.982
 11
-332.432
 21
430.973
  0
LINE
  8
0
 10
-332.432
 20
430.973
 11
-338.607
 21
430.973
  0
LINE
  8
0
 10
-338.607
 20
430.973
 11
-338.607
 21
420.973
  0
LINE
  8
0
 10
-338.607
 20
420.973
 11
-332.432
 21
420.973
  0
LINE
  8
0
 10
-332.432
 20
420.973
 11
-332.432
 21
381.125
  0
LINE
  8
0
 10
-332.432
 20
381.125
 11
-338.432
 21
381.125
  0
LINE
  8
0
 10
-338.432
 20
381.125
 11
-338.432
 21
370.982
  0
LINE
  8
0
 10
-338.432
 20
370.982
 11
-332.432
 21
370.982
  0
LINE
  8
0
 10
-332.432
 20
370.982
 11
-332.432
 21
330.973
  0
LINE
  8
0
 10
-332.432
 20
330.973
 11
-338.607
 21
330.973
  0
LINE
  8
0
 10
-338.607
 20
330.973
 11
-338.607
 21
320.973
  0
LINE
  8
0
 10
-338.607
 20
320.973
 11
-332.432
 21
320.973
  0
LINE
  8
0
 10
-332.432
 20
320.973
 11
-332.432
 21
246.81
  0
LINE
  8
0
 10
-332.432
 20
246.81
 11
-338.432
 21
246.81
  0
LINE
  8
0
 10
-338.432
 20
246.81
 11
-338.432
 21
236.836
  0
LINE
  8
0
 10
-338.432
 20
236.836
 11
-332.432
 21
236.836
  0
LINE
  8
0
 10
-332.432
 20
236.836
 11
-332.432
 21
196.808
  0
LINE
  8
0
 10
-332.432
 20
196.808
 11
-338.432
 21
196.808
  0
LINE
  8
0
 10
-338.432
 20
196.808
 11
-338.432
 21
186.834
  0
LINE
  8
0
 10
-338.432
 20
186.834
 11
-332.432
 21
186.834
  0
LINE
  8
0
 10
-332.432
 20
186.834
 11
-332.432
 21
115.104
  0
LINE
  8
0
 10
-332.432
 20
115.104
 11
-338.432
 21
115.104
  0
LINE
  8
0
 10
-338.432
 20
115.104
 11
-338.432
 21
105.104
  0
LINE
  8
0
 10
-338.432
 20
105.104
 11
-332.432
 21
105.104
  0
LINE
  8
0
 10
-332.432
 20
105.104
 11
-332.432
 21
65.1143
  0
LINE
  8
0
 10
-332.432
 20
65.1143
 11
-338.432
 21
65.1143
  0
LINE
  8
0
 10
-338.432
 20
65.1143
 11
-338.432
 21
55.0215
  0
LINE
  8
0
 10
-338.432
 20
55.0215
 11
-332.432
 21
55.0215
  0
LINE
  8
0
 10
-332.432
 20
55.0215
 11
-332.432
 21
1.07227
  0
LINE
  8
0
 10
-332.432
 20
1.07227
 11
-332.433
 21
1.00684
  0
LINE
  8
0
 10
-332.433
 20
1.00684
 11
-332.429
 21
0.941406
  0
LINE
  8
0
 10
-332.429
 20
0.941406
 11
-332.421
 21
0.876953
  0
LINE
  8
0
 10
-332.421
 20
0.876953
 11
-332.408
 21
0.8125
  0
LINE
  8
0
 10
-332.408
 20
0.8125
 11
-332.392
 21
0.75
  0
LINE
  8
0
 10
-332.392
 20
0.75
 11
-332.37
 21
0.6875
  0
LINE
  8
0
 10
-332.37
 20
0.6875
 11
-332.345
 21
0.62793
  0
LINE
  8
0
 10
-332.345
 20
0.62793
 11
-332.315
 21
0.569336
  0
LINE
  8
0
 10
-332.315
 20
0.569336
 11
-332.282
 21
0.512695
  0
LINE
  8
0
 10
-332.282
 20
0.512695
 11
-332.245
 21
0.458984
  0
LINE
  8
0
 10
-332.245
 20
0.458984
 11
-332.204
 21
0.408203
  0
LINE
  8
0
 10
-332.204
 20
0.408203
 11
-332.16
 21
0.359375
  0
LINE
  8
0
 10
-332.16
 20
0.359375
 11
-332.113
 21
0.314453
  0
LINE
  8
0
 10
-332.113
 20
0.314453
 11
-332.062
 21
0.272461
  0
LINE
  8
0
 10
-332.062
 20
0.272461
 11
-332.01
 21
0.234375
  0
LINE
  8
0
 10
-332.01
 20
0.234375
 11
-331.954
 21
0.200195
  0
LINE
  8
0
 10
-331.954
 20
0.200195
 11
-331.896
 21
0.168945
  0
LINE
  8
0
 10
-331.896
 20
0.168945
 11
-331.837
 21
0.142578
  0
LINE
  8
0
 10
-331.837
 20
0.142578
 11
-331.776
 21
0.120117
  0
LINE
  8
0
 10
-331.776
 20
0.120117
 11
-331.713
 21
0.101562
  0
LINE
  8
0
 10
-331.713
 20
0.101562
 11
-331.649
 21
0.0869141
  0
LINE
  8
0
 10
-331.649
 20
0.0869141
 11
-331.585
 21
0.0771484
  0
LINE
  8
0
 10
-331.585
 20
0.0771484
 11
-331.52
 21
0.0722656
  0
LINE
  8
0
 10
-331.52
 20
0.0722656
 11
-308.396
 21
0.0722656
  0
LINE
  8
0
 10
-308.396
 20
0.0722656
 11
-307.825
 21
0.0917969
  0
LINE
  8
0
 10
-52.6357
 20
494.737
 11
-52.7402
 21
494.747
  0
LINE
  8
0
 10
-52.7402
 20
494.747
 11
-52.8438
 21
494.765
  0
LINE
  8
0
 10
-52.8438
 20
494.765
 11
-52.9453
 21
494.788
  0
LINE
  8
0
 10
-52.9453
 20
494.788
 11
-53.0459
 21
494.818
  0
LINE
  8
0
 10
-53.0459
 20
494.818
 11
-53.1436
 21
494.855
  0
LINE
  8
0
 10
-53.1436
 20
494.855
 11
-53.2393
 21
494.898
  0
LINE
  8
0
 10
-53.2393
 20
494.898
 11
-53.332
 21
494.948
  0
LINE
  8
0
 10
-53.332
 20
494.948
 11
-53.4209
 21
495.003
  0
LINE
  8
0
 10
-53.4209
 20
495.003
 11
-53.5059
 21
495.064
  0
LINE
  8
0
 10
-53.5059
 20
495.064
 11
-53.5869
 21
495.131
  0
LINE
  8
0
 10
-53.5869
 20
495.131
 11
-53.6631
 21
495.202
  0
LINE
  8
0
 10
-53.6631
 20
495.202
 11
-53.7344
 21
495.278
  0
LINE
  8
0
 10
-53.7344
 20
495.278
 11
-53.8008
 21
495.359
  0
LINE
  8
0
 10
-53.8008
 20
495.359
 11
-53.8623
 21
495.444
  0
LINE
  8
0
 10
-53.8623
 20
495.444
 11
-53.917
 21
495.533
  0
LINE
  8
0
 10
-53.917
 20
495.533
 11
-53.9668
 21
495.626
  0
LINE
  8
0
 10
-53.9668
 20
495.626
 11
-54.0098
 21
495.721
  0
LINE
  8
0
 10
-54.0098
 20
495.721
 11
-54.0469
 21
495.819
  0
LINE
  8
0
 10
-54.0469
 20
495.819
 11
-54.0771
 21
495.919
  0
LINE
  8
0
 10
-54.0771
 20
495.919
 11
-54.1006
 21
496.021
  0
LINE
  8
0
 10
-54.1006
 20
496.021
 11
-54.1182
 21
496.125
  0
LINE
  8
0
 10
-54.1182
 20
496.125
 11
-54.1279
 21
496.229
  0
LINE
  8
0
 10
-54.1279
 20
496.229
 11
-54.1318
 21
496.333
  0
LINE
  8
0
 10
-54.1318
 20
496.333
 11
-54.1279
 21
496.438
  0
LINE
  8
0
 10
-54.1279
 20
496.438
 11
-54.1182
 21
496.542
  0
LINE
  8
0
 10
-54.1182
 20
496.542
 11
-54.1006
 21
496.646
  0
LINE
  8
0
 10
-54.1006
 20
496.646
 11
-54.0771
 21
496.748
  0
LINE
  8
0
 10
-54.0771
 20
496.748
 11
-54.0469
 21
496.848
  0
LINE
  8
0
 10
-54.0469
 20
496.848
 11
-54.0098
 21
496.945
  0
LINE
  8
0
 10
-54.0098
 20
496.945
 11
-53.9668
 21
497.041
  0
LINE
  8
0
 10
-53.9668
 20
497.041
 11
-53.917
 21
497.134
  0
LINE
  8
0
 10
-53.917
 20
497.134
 11
-53.8623
 21
497.223
  0
LINE
  8
0
 10
-53.8623
 20
497.223
 11
-53.8008
 21
497.308
  0
LINE
  8
0
 10
-53.8008
 20
497.308
 11
-53.7344
 21
497.389
  0
LINE
  8
0
 10
-53.7344
 20
497.389
 11
-53.6631
 21
497.465
  0
LINE
  8
0
 10
-53.6631
 20
497.465
 11
-53.5869
 21
497.536
  0
LINE
  8
0
 10
-53.5869
 20
497.536
 11
-53.5059
 21
497.603
  0
LINE
  8
0
 10
-53.5059
 20
497.603
 11
-53.4209
 21
497.664
  0
LINE
  8
0
 10
-53.4209
 20
497.664
 11
-53.332
 21
497.719
  0
LINE
  8
0
 10
-53.332
 20
497.719
 11
-53.2393
 21
497.769
  0
LINE
  8
0
 10
-53.2393
 20
497.769
 11
-53.1436
 21
497.812
  0
LINE
  8
0
 10
-53.1436
 20
497.812
 11
-53.0459
 21
497.849
  0
LINE
  8
0
 10
-53.0459
 20
497.849
 11
-52.9453
 21
497.879
  0
LINE
  8
0
 10
-52.9453
 20
497.879
 11
-52.8438
 21
497.902
  0
LINE
  8
0
 10
-52.8438
 20
497.902
 11
-52.7402
 21
497.92
  0
LINE
  8
0
 10
-52.7402
 20
497.92
 11
-52.6357
 21
497.93
  0
LINE
  8
0
 10
-52.6357
 20
497.93
 11
-52.5312
 21
497.934
  0
LINE
  8
0
 10
-52.5312
 20
497.934
 11
-52.4268
 21
497.93
  0
LINE
  8
0
 10
-52.4268
 20
497.93
 11
-52.3223
 21
497.92
  0
LINE
  8
0
 10
-52.3223
 20
497.92
 11
-52.2197
 21
497.902
  0
LINE
  8
0
 10
-52.2197
 20
497.902
 11
-52.1172
 21
497.879
  0
LINE
  8
0
 10
-52.1172
 20
497.879
 11
-52.0176
 21
497.849
  0
LINE
  8
0
 10
-52.0176
 20
497.849
 11
-51.9189
 21
497.812
  0
LINE
  8
0
 10
-51.9189
 20
497.812
 11
-51.8242
 21
497.769
  0
LINE
  8
0
 10
-51.8242
 20
497.769
 11
-51.7314
 21
497.719
  0
LINE
  8
0
 10
-51.7314
 20
497.719
 11
-51.6426
 21
497.664
  0
LINE
  8
0
 10
-51.6426
 20
497.664
 11
-51.5576
 21
497.603
  0
LINE
  8
0
 10
-51.5576
 20
497.603
 11
-51.4766
 21
497.536
  0
LINE
  8
0
 10
-51.4766
 20
497.536
 11
-51.4004
 21
497.465
  0
LINE
  8
0
 10
-51.4004
 20
497.465
 11
-51.3291
 21
497.389
  0
LINE
  8
0
 10
-51.3291
 20
497.389
 11
-51.2617
 21
497.308
  0
LINE
  8
0
 10
-51.2617
 20
497.308
 11
-51.2012
 21
497.223
  0
LINE
  8
0
 10
-51.2012
 20
497.223
 11
-51.1455
 21
497.134
  0
LINE
  8
0
 10
-51.1455
 20
497.134
 11
-51.0967
 21
497.041
  0
LINE
  8
0
 10
-51.0967
 20
497.041
 11
-51.0537
 21
496.945
  0
LINE
  8
0
 10
-51.0537
 20
496.945
 11
-51.0166
 21
496.848
  0
LINE
  8
0
 10
-51.0166
 20
496.848
 11
-50.9863
 21
496.748
  0
LINE
  8
0
 10
-50.9863
 20
496.748
 11
-50.9619
 21
496.646
  0
LINE
  8
0
 10
-50.9619
 20
496.646
 11
-50.9453
 21
496.542
  0
LINE
  8
0
 10
-50.9453
 20
496.542
 11
-50.9346
 21
496.438
  0
LINE
  8
0
 10
-50.9346
 20
496.438
 11
-50.9316
 21
496.333
  0
LINE
  8
0
 10
-50.9316
 20
496.333
 11
-50.9346
 21
496.229
  0
LINE
  8
0
 10
-50.9346
 20
496.229
 11
-50.9453
 21
496.125
  0
LINE
  8
0
 10
-50.9453
 20
496.125
 11
-50.9619
 21
496.021
  0
LINE
  8
0
 10
-50.9619
 20
496.021
 11
-50.9863
 21
495.919
  0
LINE
  8
0
 10
-50.9863
 20
495.919
 11
-51.0166
 21
495.819
  0
LINE
  8
0
 10
-51.0166
 20
495.819
 11
-51.0537
 21
495.721
  0
LINE
  8
0
 10
-51.0537
 20
495.721
 11
-51.0967
 21
495.626
  0
LINE
  8
0
 10
-51.0967
 20
495.626
 11
-51.1455
 21
495.533
  0
LINE
  8
0
 10
-51.1455
 20
495.533
 11
-51.2012
 21
495.444
  0
LINE
  8
0
 10
-51.2012
 20
495.444
 11
-51.2617
 21
495.359
  0
LINE
  8
0
 10
-51.2617
 20
495.359
 11
-51.3291
 21
495.278
  0
LINE
  8
0
 10
-51.3291
 20
495.278
 11
-51.4004
 21
495.202
  0
LINE
  8
0
 10
-51.4004
 20
495.202
 11
-51.4766
 21
495.131
  0
LINE
  8
0
 10
-51.4766
 20
495.131
 11
-51.5576
 21
495.064
  0
LINE
  8
0
 10
-51.5576
 20
495.064
 11
-51.6426
 21
495.003
  0
LINE
  8
0
 10
-51.6426
 20
495.003
 11
-51.7314
 21
494.948
  0
LINE
  8
0
 10
-51.7314
 20
494.948
 11
-51.8242
 21
494.898
  0
LINE
  8
0
 10
-51.8242
 20
494.898
 11
-51.9189
 21
494.855
  0
LINE
  8
0
 10
-51.9189
 20
494.855
 11
-52.0176
 21
494.818
  0
LINE
  8
0
 10
-52.0176
 20
494.818
 11
-52.1172
 21
494.788
  0
LINE
  8
0
 10
-52.1172
 20
494.788
 11
-52.2197
 21
494.765
  0
LINE
  8
0
 10
-52.2197
 20
494.765
 11
-52.3223
 21
494.747
  0
LINE
  8
0
 10
-52.3223
 20
494.747
 11
-52.4268
 21
494.737
  0
LINE
  8
0
 10
-52.4268
 20
494.737
 11
-52.5312
 21
494.733
  0
LINE
  8
0
 10
-52.5312
 20
494.733
 11
-52.6357
 21
494.737
  0
LINE
  8
0
 10
-286.236
 20
494.737
 11
-286.341
 21
494.747
  0
LINE
  8
0
 10
-286.341
 20
494.747
 11
-286.443
 21
494.765
  0
LINE
  8
0
 10
-286.443
 20
494.765
 11
-286.546
 21
494.788
  0
LINE
  8
0
 10
-286.546
 20
494.788
 11
-286.646
 21
494.818
  0
LINE
  8
0
 10
-286.646
 20
494.818
 11
-286.744
 21
494.855
  0
LINE
  8
0
 10
-286.744
 20
494.855
 11
-286.839
 21
494.898
  0
LINE
  8
0
 10
-286.839
 20
494.898
 11
-286.932
 21
494.948
  0
LINE
  8
0
 10
-286.932
 20
494.948
 11
-287.021
 21
495.003
  0
LINE
  8
0
 10
-287.021
 20
495.003
 11
-287.105
 21
495.064
  0
LINE
  8
0
 10
-287.105
 20
495.064
 11
-287.187
 21
495.131
  0
LINE
  8
0
 10
-287.187
 20
495.131
 11
-287.263
 21
495.202
  0
LINE
  8
0
 10
-287.263
 20
495.202
 11
-287.335
 21
495.278
  0
LINE
  8
0
 10
-287.335
 20
495.278
 11
-287.401
 21
495.359
  0
LINE
  8
0
 10
-287.401
 20
495.359
 11
-287.462
 21
495.444
  0
LINE
  8
0
 10
-287.462
 20
495.444
 11
-287.518
 21
495.533
  0
LINE
  8
0
 10
-287.518
 20
495.533
 11
-287.566
 21
495.626
  0
LINE
  8
0
 10
-287.566
 20
495.626
 11
-287.609
 21
495.721
  0
LINE
  8
0
 10
-287.609
 20
495.721
 11
-287.646
 21
495.819
  0
LINE
  8
0
 10
-287.646
 20
495.819
 11
-287.677
 21
495.919
  0
LINE
  8
0
 10
-287.677
 20
495.919
 11
-287.701
 21
496.021
  0
LINE
  8
0
 10
-287.701
 20
496.021
 11
-287.718
 21
496.125
  0
LINE
  8
0
 10
-287.718
 20
496.125
 11
-287.729
 21
496.229
  0
LINE
  8
0
 10
-287.729
 20
496.229
 11
-287.731
 21
496.333
  0
LINE
  8
0
 10
-287.731
 20
496.333
 11
-287.729
 21
496.438
  0
LINE
  8
0
 10
-287.729
 20
496.438
 11
-287.718
 21
496.542
  0
LINE
  8
0
 10
-287.718
 20
496.542
 11
-287.701
 21
496.646
  0
LINE
  8
0
 10
-287.701
 20
496.646
 11
-287.677
 21
496.748
  0
LINE
  8
0
 10
-287.677
 20
496.748
 11
-287.646
 21
496.848
  0
LINE
  8
0
 10
-287.646
 20
496.848
 11
-287.609
 21
496.945
  0
LINE
  8
0
 10
-287.609
 20
496.945
 11
-287.566
 21
497.041
  0
LINE
  8
0
 10
-287.566
 20
497.041
 11
-287.518
 21
497.134
  0
LINE
  8
0
 10
-287.518
 20
497.134
 11
-287.462
 21
497.223
  0
LINE
  8
0
 10
-287.462
 20
497.223
 11
-287.401
 21
497.308
  0
LINE
  8
0
 10
-287.401
 20
497.308
 11
-287.335
 21
497.389
  0
LINE
  8
0
 10
-287.335
 20
497.389
 11
-287.263
 21
497.465
  0
LINE
  8
0
 10
-287.263
 20
497.465
 11
-287.187
 21
497.536
  0
LINE
  8
0
 10
-287.187
 20
497.536
 11
-287.105
 21
497.603
  0
LINE
  8
0
 10
-287.105
 20
497.603
 11
-287.021
 21
497.664
  0
LINE
  8
0
 10
-287.021
 20
497.664
 11
-286.932
 21
497.719
  0
LINE
  8
0
 10
-286.932
 20
497.719
 11
-286.839
 21
497.769
  0
LINE
  8
0
 10
-286.839
 20
497.769
 11
-286.744
 21
497.812
  0
LINE
  8
0
 10
-286.744
 20
497.812
 11
-286.646
 21
497.849
  0
LINE
  8
0
 10
-286.646
 20
497.849
 11
-286.546
 21
497.879
  0
LINE
  8
0
 10
-286.546
 20
497.879
 11
-286.443
 21
497.902
  0
LINE
  8
0
 10
-286.443
 20
497.902
 11
-286.341
 21
497.92
  0
LINE
  8
0
 10
-286.341
 20
497.92
 11
-286.236
 21
497.93
  0
LINE
  8
0
 10
-286.236
 20
497.93
 11
-286.132
 21
497.934
  0
LINE
  8
0
 10
-286.132
 20
497.934
 11
-286.027
 21
497.93
  0
LINE
  8
0
 10
-286.027
 20
497.93
 11
-285.923
 21
497.92
  0
LINE
  8
0
 10
-285.923
 20
497.92
 11
-285.819
 21
497.902
  0
LINE
  8
0
 10
-285.819
 20
497.902
 11
-285.718
 21
497.879
  0
LINE
  8
0
 10
-285.718
 20
497.879
 11
-285.617
 21
497.849
  0
LINE
  8
0
 10
-285.617
 20
497.849
 11
-285.52
 21
497.812
  0
LINE
  8
0
 10
-285.52
 20
497.812
 11
-285.424
 21
497.769
  0
LINE
  8
0
 10
-285.424
 20
497.769
 11
-285.332
 21
497.719
  0
LINE
  8
0
 10
-285.332
 20
497.719
 11
-285.242
 21
497.664
  0
LINE
  8
0
 10
-285.242
 20
497.664
 11
-285.157
 21
497.603
  0
LINE
  8
0
 10
-285.157
 20
497.603
 11
-285.076
 21
497.536
  0
LINE
  8
0
 10
-285.076
 20
497.536
 11
-285
 21
497.465
  0
LINE
  8
0
 10
-285
 20
497.465
 11
-284.929
 21
497.389
  0
LINE
  8
0
 10
-284.929
 20
497.389
 11
-284.862
 21
497.308
  0
LINE
  8
0
 10
-284.862
 20
497.308
 11
-284.801
 21
497.223
  0
LINE
  8
0
 10
-284.801
 20
497.223
 11
-284.746
 21
497.134
  0
LINE
  8
0
 10
-284.746
 20
497.134
 11
-284.696
 21
497.041
  0
LINE
  8
0
 10
-284.696
 20
497.041
 11
-284.653
 21
496.945
  0
LINE
  8
0
 10
-284.653
 20
496.945
 11
-284.616
 21
496.848
  0
LINE
  8
0
 10
-284.616
 20
496.848
 11
-284.586
 21
496.748
  0
LINE
  8
0
 10
-284.586
 20
496.748
 11
-284.562
 21
496.646
  0
LINE
  8
0
 10
-284.562
 20
496.646
 11
-284.545
 21
496.542
  0
LINE
  8
0
 10
-284.545
 20
496.542
 11
-284.535
 21
496.438
  0
LINE
  8
0
 10
-284.535
 20
496.438
 11
-284.531
 21
496.333
  0
LINE
  8
0
 10
-284.531
 20
496.333
 11
-284.535
 21
496.229
  0
LINE
  8
0
 10
-284.535
 20
496.229
 11
-284.545
 21
496.125
  0
LINE
  8
0
 10
-284.545
 20
496.125
 11
-284.562
 21
496.021
  0
LINE
  8
0
 10
-284.562
 20
496.021
 11
-284.586
 21
495.919
  0
LINE
  8
0
 10
-284.586
 20
495.919
 11
-284.616
 21
495.819
  0
LINE
  8
0
 10
-284.616
 20
495.819
 11
-284.653
 21
495.721
  0
LINE
  8
0
 10
-284.653
 20
495.721
 11
-284.696
 21
495.626
  0
LINE
  8
0
 10
-284.696
 20
495.626
 11
-284.746
 21
495.533
  0
LINE
  8
0
 10
-284.746
 20
495.533
 11
-284.801
 21
495.444
  0
LINE
  8
0
 10
-284.801
 20
495.444
 11
-284.862
 21
495.359
  0
LINE
  8
0
 10
-284.862
 20
495.359
 11
-284.929
 21
495.278
  0
LINE
  8
0
 10
-284.929
 20
495.278
 11
-285
 21
495.202
  0
LINE
  8
0
 10
-285
 20
495.202
 11
-285.076
 21
495.131
  0
LINE
  8
0
 10
-285.076
 20
495.131
 11
-285.157
 21
495.064
  0
LINE
  8
0
 10
-285.157
 20
495.064
 11
-285.242
 21
495.003
  0
LINE
  8
0
 10
-285.242
 20
495.003
 11
-285.332
 21
494.948
  0
LINE
  8
0
 10
-285.332
 20
494.948
 11
-285.424
 21
494.898
  0
LINE
  8
0
 10
-285.424
 20
494.898
 11
-285.52
 21
494.855
  0
LINE
  8
0
 10
-285.52
 20
494.855
 11
-285.617
 21
494.818
  0
LINE
  8
0
 10
-285.617
 20
494.818
 11
-285.718
 21
494.788
  0
LINE
  8
0
 10
-285.718
 20
494.788
 11
-285.819
 21
494.765
  0
LINE
  8
0
 10
-285.819
 20
494.765
 11
-285.923
 21
494.747
  0
LINE
  8
0
 10
-285.923
 20
494.747
 11
-286.027
 21
494.737
  0
LINE
  8
0
 10
-286.027
 20
494.737
 11
-286.132
 21
494.733
  0
LINE
  8
0
 10
-286.132
 20
494.733
 11
-286.236
 21
494.737
  0
LINE
  8
0
 10
-169.477
 20
494.737
 11
-169.58
 21
494.747
  0
LINE
  8
0
 10
-169.58
 20
494.747
 11
-169.684
 21
494.765
  0
LINE
  8
0
 10
-169.684
 20
494.765
 11
-169.785
 21
494.788
  0
LINE
  8
0
 10
-169.785
 20
494.788
 11
-169.886
 21
494.818
  0
LINE
  8
0
 10
-169.886
 20
494.818
 11
-169.983
 21
494.855
  0
LINE
  8
0
 10
-169.983
 20
494.855
 11
-170.079
 21
494.898
  0
LINE
  8
0
 10
-170.079
 20
494.898
 11
-170.172
 21
494.948
  0
LINE
  8
0
 10
-170.172
 20
494.948
 11
-170.261
 21
495.003
  0
LINE
  8
0
 10
-170.261
 20
495.003
 11
-170.346
 21
495.064
  0
LINE
  8
0
 10
-170.346
 20
495.064
 11
-170.427
 21
495.131
  0
LINE
  8
0
 10
-170.427
 20
495.131
 11
-170.503
 21
495.202
  0
LINE
  8
0
 10
-170.503
 20
495.202
 11
-170.574
 21
495.278
  0
LINE
  8
0
 10
-170.574
 20
495.278
 11
-170.641
 21
495.359
  0
LINE
  8
0
 10
-170.641
 20
495.359
 11
-170.702
 21
495.444
  0
LINE
  8
0
 10
-170.702
 20
495.444
 11
-170.757
 21
495.533
  0
LINE
  8
0
 10
-170.757
 20
495.533
 11
-170.807
 21
495.626
  0
LINE
  8
0
 10
-170.807
 20
495.626
 11
-170.85
 21
495.721
  0
LINE
  8
0
 10
-170.85
 20
495.721
 11
-170.887
 21
495.819
  0
LINE
  8
0
 10
-170.887
 20
495.819
 11
-170.917
 21
495.919
  0
LINE
  8
0
 10
-170.917
 20
495.919
 11
-170.94
 21
496.021
  0
LINE
  8
0
 10
-170.94
 20
496.021
 11
-170.958
 21
496.125
  0
LINE
  8
0
 10
-170.958
 20
496.125
 11
-170.968
 21
496.229
  0
LINE
  8
0
 10
-170.968
 20
496.229
 11
-170.972
 21
496.333
  0
LINE
  8
0
 10
-170.972
 20
496.333
 11
-170.968
 21
496.438
  0
LINE
  8
0
 10
-170.968
 20
496.438
 11
-170.958
 21
496.542
  0
LINE
  8
0
 10
-170.958
 20
496.542
 11
-170.94
 21
496.646
  0
LINE
  8
0
 10
-170.94
 20
496.646
 11
-170.917
 21
496.748
  0
LINE
  8
0
 10
-170.917
 20
496.748
 11
-170.887
 21
496.848
  0
LINE
  8
0
 10
-170.887
 20
496.848
 11
-170.85
 21
496.945
  0
LINE
  8
0
 10
-170.85
 20
496.945
 11
-170.807
 21
497.041
  0
LINE
  8
0
 10
-170.807
 20
497.041
 11
-170.757
 21
497.134
  0
LINE
  8
0
 10
-170.757
 20
497.134
 11
-170.702
 21
497.223
  0
LINE
  8
0
 10
-170.702
 20
497.223
 11
-170.641
 21
497.308
  0
LINE
  8
0
 10
-170.641
 20
497.308
 11
-170.574
 21
497.389
  0
LINE
  8
0
 10
-170.574
 20
497.389
 11
-170.503
 21
497.465
  0
LINE
  8
0
 10
-170.503
 20
497.465
 11
-170.427
 21
497.536
  0
LINE
  8
0
 10
-170.427
 20
497.536
 11
-170.346
 21
497.603
  0
LINE
  8
0
 10
-170.346
 20
497.603
 11
-170.261
 21
497.664
  0
LINE
  8
0
 10
-170.261
 20
497.664
 11
-170.172
 21
497.719
  0
LINE
  8
0
 10
-170.172
 20
497.719
 11
-170.079
 21
497.769
  0
LINE
  8
0
 10
-170.079
 20
497.769
 11
-169.983
 21
497.812
  0
LINE
  8
0
 10
-169.983
 20
497.812
 11
-169.886
 21
497.849
  0
LINE
  8
0
 10
-169.886
 20
497.849
 11
-169.785
 21
497.879
  0
LINE
  8
0
 10
-169.785
 20
497.879
 11
-169.684
 21
497.902
  0
LINE
  8
0
 10
-169.684
 20
497.902
 11
-169.58
 21
497.92
  0
LINE
  8
0
 10
-169.58
 20
497.92
 11
-169.477
 21
497.93
  0
LINE
  8
0
 10
-169.477
 20
497.93
 11
-169.371
 21
497.934
  0
LINE
  8
0
 10
-169.371
 20
497.934
 11
-169.267
 21
497.93
  0
LINE
  8
0
 10
-169.267
 20
497.93
 11
-169.163
 21
497.92
  0
LINE
  8
0
 10
-169.163
 20
497.92
 11
-169.06
 21
497.902
  0
LINE
  8
0
 10
-169.06
 20
497.902
 11
-168.957
 21
497.879
  0
LINE
  8
0
 10
-168.957
 20
497.879
 11
-168.857
 21
497.849
  0
LINE
  8
0
 10
-168.857
 20
497.849
 11
-168.759
 21
497.812
  0
LINE
  8
0
 10
-168.759
 20
497.812
 11
-168.664
 21
497.769
  0
LINE
  8
0
 10
-168.664
 20
497.769
 11
-168.571
 21
497.719
  0
LINE
  8
0
 10
-168.571
 20
497.719
 11
-168.482
 21
497.664
  0
LINE
  8
0
 10
-168.482
 20
497.664
 11
-168.397
 21
497.603
  0
LINE
  8
0
 10
-168.397
 20
497.603
 11
-168.316
 21
497.536
  0
LINE
  8
0
 10
-168.316
 20
497.536
 11
-168.24
 21
497.465
  0
LINE
  8
0
 10
-168.24
 20
497.465
 11
-168.169
 21
497.389
  0
LINE
  8
0
 10
-168.169
 20
497.389
 11
-168.103
 21
497.308
  0
LINE
  8
0
 10
-168.103
 20
497.308
 11
-168.041
 21
497.223
  0
LINE
  8
0
 10
-168.041
 20
497.223
 11
-167.986
 21
497.134
  0
LINE
  8
0
 10
-167.986
 20
497.134
 11
-167.937
 21
497.041
  0
LINE
  8
0
 10
-167.937
 20
497.041
 11
-167.894
 21
496.945
  0
LINE
  8
0
 10
-167.894
 20
496.945
 11
-167.856
 21
496.848
  0
LINE
  8
0
 10
-167.856
 20
496.848
 11
-167.826
 21
496.748
  0
LINE
  8
0
 10
-167.826
 20
496.748
 11
-167.803
 21
496.646
  0
LINE
  8
0
 10
-167.803
 20
496.646
 11
-167.785
 21
496.542
  0
LINE
  8
0
 10
-167.785
 20
496.542
 11
-167.775
 21
496.438
  0
LINE
  8
0
 10
-167.775
 20
496.438
 11
-167.771
 21
496.333
  0
LINE
  8
0
 10
-167.771
 20
496.333
 11
-167.775
 21
496.229
  0
LINE
  8
0
 10
-167.775
 20
496.229
 11
-167.785
 21
496.125
  0
LINE
  8
0
 10
-167.785
 20
496.125
 11
-167.803
 21
496.021
  0
LINE
  8
0
 10
-167.803
 20
496.021
 11
-167.826
 21
495.919
  0
LINE
  8
0
 10
-167.826
 20
495.919
 11
-167.856
 21
495.819
  0
LINE
  8
0
 10
-167.856
 20
495.819
 11
-167.894
 21
495.721
  0
LINE
  8
0
 10
-167.894
 20
495.721
 11
-167.937
 21
495.626
  0
LINE
  8
0
 10
-167.937
 20
495.626
 11
-167.986
 21
495.533
  0
LINE
  8
0
 10
-167.986
 20
495.533
 11
-168.041
 21
495.444
  0
LINE
  8
0
 10
-168.041
 20
495.444
 11
-168.103
 21
495.359
  0
LINE
  8
0
 10
-168.103
 20
495.359
 11
-168.169
 21
495.278
  0
LINE
  8
0
 10
-168.169
 20
495.278
 11
-168.24
 21
495.202
  0
LINE
  8
0
 10
-168.24
 20
495.202
 11
-168.316
 21
495.131
  0
LINE
  8
0
 10
-168.316
 20
495.131
 11
-168.397
 21
495.064
  0
LINE
  8
0
 10
-168.397
 20
495.064
 11
-168.482
 21
495.003
  0
LINE
  8
0
 10
-168.482
 20
495.003
 11
-168.571
 21
494.948
  0
LINE
  8
0
 10
-168.571
 20
494.948
 11
-168.664
 21
494.898
  0
LINE
  8
0
 10
-168.664
 20
494.898
 11
-168.759
 21
494.855
  0
LINE
  8
0
 10
-168.759
 20
494.855
 11
-168.857
 21
494.818
  0
LINE
  8
0
 10
-168.857
 20
494.818
 11
-168.957
 21
494.788
  0
LINE
  8
0
 10
-168.957
 20
494.788
 11
-169.06
 21
494.765
  0
LINE
  8
0
 10
-169.06
 20
494.765
 11
-169.163
 21
494.747
  0
LINE
  8
0
 10
-169.163
 20
494.747
 11
-169.267
 21
494.737
  0
LINE
  8
0
 10
-169.267
 20
494.737
 11
-169.371
 21
494.733
  0
LINE
  8
0
 10
-169.371
 20
494.733
 11
-169.477
 21
494.737
  0
LINE
  8
0
 10
-290.81
 20
94.165
 11
-291.333
 21
94.1816
  0
LINE
  8
0
 10
-291.333
 20
94.1816
 11
-291.854
 21
94.2334
  0
LINE
  8
0
 10
-291.854
 20
94.2334
 11
-292.371
 21
94.3184
  0
LINE
  8
0
 10
-292.371
 20
94.3184
 11
-292.881
 21
94.4375
  0
LINE
  8
0
 10
-292.881
 20
94.4375
 11
-293.382
 21
94.5889
  0
LINE
  8
0
 10
-293.382
 20
94.5889
 11
-293.871
 21
94.7734
  0
LINE
  8
0
 10
-293.871
 20
94.7734
 11
-294.349
 21
94.9893
  0
LINE
  8
0
 10
-294.349
 20
94.9893
 11
-294.81
 21
95.2363
  0
LINE
  8
0
 10
-294.81
 20
95.2363
 11
-295.255
 21
95.5127
  0
LINE
  8
0
 10
-295.255
 20
95.5127
 11
-295.68
 21
95.8174
  0
LINE
  8
0
 10
-295.68
 20
95.8174
 11
-296.085
 21
96.1504
  0
LINE
  8
0
 10
-296.085
 20
96.1504
 11
-296.467
 21
96.5078
  0
LINE
  8
0
 10
-296.467
 20
96.5078
 11
-296.824
 21
96.8896
  0
LINE
  8
0
 10
-296.824
 20
96.8896
 11
-297.157
 21
97.2949
  0
LINE
  8
0
 10
-297.157
 20
97.2949
 11
-297.462
 21
97.7197
  0
LINE
  8
0
 10
-297.462
 20
97.7197
 11
-297.738
 21
98.165
  0
LINE
  8
0
 10
-297.738
 20
98.165
 11
-297.985
 21
98.626
  0
LINE
  8
0
 10
-297.985
 20
98.626
 11
-298.201
 21
99.1035
  0
LINE
  8
0
 10
-298.201
 20
99.1035
 11
-298.386
 21
99.5928
  0
LINE
  8
0
 10
-298.386
 20
99.5928
 11
-298.537
 21
100.094
  0
LINE
  8
0
 10
-298.537
 20
100.094
 11
-298.656
 21
100.604
  0
LINE
  8
0
 10
-298.656
 20
100.604
 11
-298.741
 21
101.12
  0
LINE
  8
0
 10
-298.741
 20
101.12
 11
-298.793
 21
101.642
  0
LINE
  8
0
 10
-298.793
 20
101.642
 11
-298.81
 21
102.165
  0
LINE
  8
0
 10
-298.81
 20
102.165
 11
-298.81
 21
459.965
  0
LINE
  8
0
 10
-298.81
 20
459.965
 11
-298.791
 21
460.511
  0
LINE
  8
0
 10
-298.791
 20
460.511
 11
-298.735
 21
461.054
  0
LINE
  8
0
 10
-298.735
 20
461.054
 11
-298.643
 21
461.593
  0
LINE
  8
0
 10
-298.643
 20
461.593
 11
-298.514
 21
462.123
  0
LINE
  8
0
 10
-298.514
 20
462.123
 11
-298.348
 21
462.644
  0
LINE
  8
0
 10
-298.348
 20
462.644
 11
-298.147
 21
463.152
  0
LINE
  8
0
 10
-298.147
 20
463.152
 11
-297.913
 21
463.646
  0
LINE
  8
0
 10
-297.913
 20
463.646
 11
-297.646
 21
464.121
  0
LINE
  8
0
 10
-297.646
 20
464.121
 11
-297.346
 21
464.578
  0
LINE
  8
0
 10
-297.346
 20
464.578
 11
-297.016
 21
465.014
  0
LINE
  8
0
 10
-297.016
 20
465.014
 11
-296.656
 21
465.425
  0
LINE
  8
0
 10
-296.656
 20
465.425
 11
-296.271
 21
465.812
  0
LINE
  8
0
 10
-296.271
 20
465.812
 11
-295.858
 21
466.171
  0
LINE
  8
0
 10
-295.858
 20
466.171
 11
-295.424
 21
466.501
  0
LINE
  8
0
 10
-295.424
 20
466.501
 11
-294.967
 21
466.8
  0
LINE
  8
0
 10
-294.967
 20
466.8
 11
-294.49
 21
467.067
  0
LINE
  8
0
 10
-294.49
 20
467.067
 11
-293.997
 21
467.303
  0
LINE
  8
0
 10
-293.997
 20
467.303
 11
-293.489
 21
467.503
  0
LINE
  8
0
 10
-293.489
 20
467.503
 11
-292.969
 21
467.668
  0
LINE
  8
0
 10
-292.969
 20
467.668
 11
-292.438
 21
467.798
  0
LINE
  8
0
 10
-292.438
 20
467.798
 11
-291.899
 21
467.891
  0
LINE
  8
0
 10
-291.899
 20
467.891
 11
-291.355
 21
467.946
  0
LINE
  8
0
 10
-291.355
 20
467.946
 11
-290.81
 21
467.965
  0
LINE
  8
0
 10
-290.81
 20
467.965
 11
-47.7168
 21
467.965
  0
LINE
  8
0
 10
-47.7168
 20
467.965
 11
-47.1934
 21
467.947
  0
LINE
  8
0
 10
-47.1934
 20
467.947
 11
-46.6729
 21
467.896
  0
LINE
  8
0
 10
-46.6729
 20
467.896
 11
-46.1562
 21
467.812
  0
LINE
  8
0
 10
-46.1562
 20
467.812
 11
-45.6465
 21
467.692
  0
LINE
  8
0
 10
-45.6465
 20
467.692
 11
-45.1455
 21
467.54
  0
LINE
  8
0
 10
-45.1455
 20
467.54
 11
-44.6553
 21
467.355
  0
LINE
  8
0
 10
-44.6553
 20
467.355
 11
-44.1787
 21
467.14
  0
LINE
  8
0
 10
-44.1787
 20
467.14
 11
-43.7168
 21
466.893
  0
LINE
  8
0
 10
-43.7168
 20
466.893
 11
-43.2725
 21
466.616
  0
LINE
  8
0
 10
-43.2725
 20
466.616
 11
-42.8467
 21
466.312
  0
LINE
  8
0
 10
-42.8467
 20
466.312
 11
-42.4424
 21
465.979
  0
LINE
  8
0
 10
-42.4424
 20
465.979
 11
-42.0605
 21
465.622
  0
LINE
  8
0
 10
-42.0605
 20
465.622
 11
-41.7021
 21
465.239
  0
LINE
  8
0
 10
-41.7021
 20
465.239
 11
-41.3701
 21
464.835
  0
LINE
  8
0
 10
-41.3701
 20
464.835
 11
-41.0654
 21
464.409
  0
LINE
  8
0
 10
-41.0654
 20
464.409
 11
-40.7891
 21
463.965
  0
LINE
  8
0
 10
-40.7891
 20
463.965
 11
-40.542
 21
463.503
  0
LINE
  8
0
 10
-40.542
 20
463.503
 11
-40.3262
 21
463.026
  0
LINE
  8
0
 10
-40.3262
 20
463.026
 11
-40.1416
 21
462.536
  0
LINE
  8
0
 10
-40.1416
 20
462.536
 11
-39.9893
 21
462.035
  0
LINE
  8
0
 10
-39.9893
 20
462.035
 11
-39.8711
 21
461.525
  0
LINE
  8
0
 10
-39.8711
 20
461.525
 11
-39.7852
 21
461.009
  0
LINE
  8
0
 10
-39.7852
 20
461.009
 11
-39.7344
 21
460.488
  0
LINE
  8
0
 10
-39.7344
 20
460.488
 11
-39.7168
 21
459.965
  0
LINE
  8
0
 10
-39.7168
 20
459.965
 11
-39.7168
 21
102.165
  0
LINE
  8
0
 10
-39.7168
 20
102.165
 11
-39.7344
 21
101.642
  0
LINE
  8
0
 10
-39.7344
 20
101.642
 11
-39.7852
 21
101.12
  0
LINE
  8
0
 10
-39.7852
 20
101.12
 11
-39.8711
 21
100.604
  0
LINE
  8
0
 10
-39.8711
 20
100.604
 11
-39.9893
 21
100.094
  0
LINE
  8
0
 10
-39.9893
 20
100.094
 11
-40.1416
 21
99.5928
  0
LINE
  8
0
 10
-40.1416
 20
99.5928
 11
-40.3262
 21
99.1035
  0
LINE
  8
0
 10
-40.3262
 20
99.1035
 11
-40.542
 21
98.626
  0
LINE
  8
0
 10
-40.542
 20
98.626
 11
-40.7891
 21
98.165
  0
LINE
  8
0
 10
-40.7891
 20
98.165
 11
-41.0654
 21
97.7197
  0
LINE
  8
0
 10
-41.0654
 20
97.7197
 11
-41.3701
 21
97.2949
  0
LINE
  8
0
 10
-41.3701
 20
97.2949
 11
-41.7021
 21
96.8896
  0
LINE
  8
0
 10
-41.7021
 20
96.8896
 11
-42.0605
 21
96.5078
  0
LINE
  8
0
 10
-42.0605
 20
96.5078
 11
-42.4424
 21
96.1504
  0
LINE
  8
0
 10
-42.4424
 20
96.1504
 11
-42.8467
 21
95.8174
  0
LINE
  8
0
 10
-42.8467
 20
95.8174
 11
-43.2725
 21
95.5127
  0
LINE
  8
0
 10
-43.2725
 20
95.5127
 11
-43.7168
 21
95.2363
  0
LINE
  8
0
 10
-43.7168
 20
95.2363
 11
-44.1787
 21
94.9893
  0
LINE
  8
0
 10
-44.1787
 20
94.9893
 11
-44.6553
 21
94.7734
  0
LINE
  8
0
 10
-44.6553
 20
94.7734
 11
-45.1455
 21
94.5889
  0
LINE
  8
0
 10
-45.1455
 20
94.5889
 11
-45.6465
 21
94.4375
  0
LINE
  8
0
 10
-45.6465
 20
94.4375
 11
-46.1562
 21
94.3184
  0
LINE
  8
0
 10
-46.1562
 20
94.3184
 11
-46.6729
 21
94.2334
  0
LINE
  8
0
 10
-46.6729
 20
94.2334
 11
-47.1934
 21
94.1816
  0
LINE
  8
0
 10
-47.1934
 20
94.1816
 11
-47.7168
 21
94.165
  0
LINE
  8
0
 10
-47.7168
 20
94.165
 11
-290.81
 21
94.165
  0
LINE
  8
0
 10
-240.887
 20
340.037
 11
-240.369
 21
340.088
  0
LINE
  8
0
 10
-240.369
 20
340.088
 11
-239.856
 21
340.173
  0
LINE
  8
0
 10
-239.856
 20
340.173
 11
-239.35
 21
340.291
  0
LINE
  8
0
 10
-239.35
 20
340.291
 11
-238.853
 21
340.442
  0
LINE
  8
0
 10
-238.853
 20
340.442
 11
-238.366
 21
340.625
  0
LINE
  8
0
 10
-238.366
 20
340.625
 11
-237.893
 21
340.84
  0
LINE
  8
0
 10
-237.893
 20
340.84
 11
-237.434
 21
341.085
  0
LINE
  8
0
 10
-237.434
 20
341.085
 11
-236.992
 21
341.359
  0
LINE
  8
0
 10
-236.992
 20
341.359
 11
-236.569
 21
341.662
  0
LINE
  8
0
 10
-236.569
 20
341.662
 11
-236.168
 21
341.992
  0
LINE
  8
0
 10
-236.168
 20
341.992
 11
-235.788
 21
342.348
  0
LINE
  8
0
 10
-235.788
 20
342.348
 11
-235.434
 21
342.727
  0
LINE
  8
0
 10
-235.434
 20
342.727
 11
-235.104
 21
343.129
  0
LINE
  8
0
 10
-235.104
 20
343.129
 11
-234.801
 21
343.551
  0
LINE
  8
0
 10
-234.801
 20
343.551
 11
-234.526
 21
343.992
  0
LINE
  8
0
 10
-234.526
 20
343.992
 11
-234.281
 21
344.451
  0
LINE
  8
0
 10
-234.281
 20
344.451
 11
-234.066
 21
344.925
  0
LINE
  8
0
 10
-234.066
 20
344.925
 11
-233.883
 21
345.411
  0
LINE
  8
0
 10
-233.883
 20
345.411
 11
-233.732
 21
345.908
  0
LINE
  8
0
 10
-233.732
 20
345.908
 11
-233.614
 21
346.415
  0
LINE
  8
0
 10
-233.614
 20
346.415
 11
-233.529
 21
346.928
  0
LINE
  8
0
 10
-233.529
 20
346.928
 11
-233.479
 21
347.445
  0
LINE
  8
0
 10
-233.479
 20
347.445
 11
-233.462
 21
347.965
  0
LINE
  8
0
 10
-233.462
 20
347.965
 11
-233.479
 21
348.484
  0
LINE
  8
0
 10
-233.479
 20
348.484
 11
-233.529
 21
349.002
  0
LINE
  8
0
 10
-233.529
 20
349.002
 11
-233.614
 21
349.515
  0
LINE
  8
0
 10
-233.614
 20
349.515
 11
-233.732
 21
350.021
  0
LINE
  8
0
 10
-233.732
 20
350.021
 11
-233.883
 21
350.519
  0
LINE
  8
0
 10
-233.883
 20
350.519
 11
-234.066
 21
351.005
  0
LINE
  8
0
 10
-234.066
 20
351.005
 11
-234.281
 21
351.479
  0
LINE
  8
0
 10
-234.281
 20
351.479
 11
-234.526
 21
351.937
  0
LINE
  8
0
 10
-234.526
 20
351.937
 11
-234.801
 21
352.378
  0
LINE
  8
0
 10
-234.801
 20
352.378
 11
-235.104
 21
352.801
  0
LINE
  8
0
 10
-235.104
 20
352.801
 11
-235.434
 21
353.203
  0
LINE
  8
0
 10
-235.434
 20
353.203
 11
-235.788
 21
353.582
  0
LINE
  8
0
 10
-235.788
 20
353.582
 11
-236.168
 21
353.938
  0
LINE
  8
0
 10
-236.168
 20
353.938
 11
-236.569
 21
354.268
  0
LINE
  8
0
 10
-236.569
 20
354.268
 11
-236.992
 21
354.57
  0
LINE
  8
0
 10
-236.992
 20
354.57
 11
-237.434
 21
354.845
  0
LINE
  8
0
 10
-237.434
 20
354.845
 11
-237.893
 21
355.09
  0
LINE
  8
0
 10
-237.893
 20
355.09
 11
-238.366
 21
355.305
  0
LINE
  8
0
 10
-238.366
 20
355.305
 11
-238.853
 21
355.487
  0
LINE
  8
0
 10
-238.853
 20
355.487
 11
-239.35
 21
355.639
  0
LINE
  8
0
 10
-239.35
 20
355.639
 11
-239.856
 21
355.757
  0
LINE
  8
0
 10
-239.856
 20
355.757
 11
-240.369
 21
355.841
  0
LINE
  8
0
 10
-240.369
 20
355.841
 11
-240.887
 21
355.893
  0
LINE
  8
0
 10
-240.887
 20
355.893
 11
-241.406
 21
355.909
  0
LINE
  8
0
 10
-241.406
 20
355.909
 11
-277.361
 21
355.909
  0
LINE
  8
0
 10
-277.361
 20
355.909
 11
-277.881
 21
355.893
  0
LINE
  8
0
 10
-277.881
 20
355.893
 11
-278.398
 21
355.842
  0
LINE
  8
0
 10
-278.398
 20
355.842
 11
-278.911
 21
355.757
  0
LINE
  8
0
 10
-278.911
 20
355.757
 11
-279.418
 21
355.639
  0
LINE
  8
0
 10
-279.418
 20
355.639
 11
-279.915
 21
355.487
  0
LINE
  8
0
 10
-279.915
 20
355.487
 11
-280.401
 21
355.305
  0
LINE
  8
0
 10
-280.401
 20
355.305
 11
-280.875
 21
355.09
  0
LINE
  8
0
 10
-280.875
 20
355.09
 11
-281.334
 21
354.845
  0
LINE
  8
0
 10
-281.334
 20
354.845
 11
-281.775
 21
354.57
  0
LINE
  8
0
 10
-281.775
 20
354.57
 11
-282.198
 21
354.268
  0
LINE
  8
0
 10
-282.198
 20
354.268
 11
-282.6
 21
353.938
  0
LINE
  8
0
 10
-282.6
 20
353.938
 11
-282.979
 21
353.582
  0
LINE
  8
0
 10
-282.979
 20
353.582
 11
-283.335
 21
353.203
  0
LINE
  8
0
 10
-283.335
 20
353.203
 11
-283.664
 21
352.801
  0
LINE
  8
0
 10
-283.664
 20
352.801
 11
-283.967
 21
352.379
  0
LINE
  8
0
 10
-283.967
 20
352.379
 11
-284.241
 21
351.938
  0
LINE
  8
0
 10
-284.241
 20
351.938
 11
-284.486
 21
351.479
  0
LINE
  8
0
 10
-284.486
 20
351.479
 11
-284.701
 21
351.005
  0
LINE
  8
0
 10
-284.701
 20
351.005
 11
-284.885
 21
350.519
  0
LINE
  8
0
 10
-284.885
 20
350.519
 11
-285.035
 21
350.021
  0
LINE
  8
0
 10
-285.035
 20
350.021
 11
-285.153
 21
349.515
  0
LINE
  8
0
 10
-285.153
 20
349.515
 11
-285.238
 21
349.002
  0
LINE
  8
0
 10
-285.238
 20
349.002
 11
-285.289
 21
348.484
  0
LINE
  8
0
 10
-285.289
 20
348.484
 11
-285.306
 21
347.965
  0
LINE
  8
0
 10
-285.306
 20
347.965
 11
-285.289
 21
347.445
  0
LINE
  8
0
 10
-285.289
 20
347.445
 11
-285.238
 21
346.928
  0
LINE
  8
0
 10
-285.238
 20
346.928
 11
-285.153
 21
346.415
  0
LINE
  8
0
 10
-285.153
 20
346.415
 11
-285.035
 21
345.909
  0
LINE
  8
0
 10
-285.035
 20
345.909
 11
-284.885
 21
345.411
  0
LINE
  8
0
 10
-284.885
 20
345.411
 11
-284.701
 21
344.925
  0
LINE
  8
0
 10
-284.701
 20
344.925
 11
-284.486
 21
344.451
  0
LINE
  8
0
 10
-284.486
 20
344.451
 11
-284.241
 21
343.992
  0
LINE
  8
0
 10
-284.241
 20
343.992
 11
-283.967
 21
343.551
  0
LINE
  8
0
 10
-283.967
 20
343.551
 11
-283.664
 21
343.129
  0
LINE
  8
0
 10
-283.664
 20
343.129
 11
-283.335
 21
342.727
  0
LINE
  8
0
 10
-283.335
 20
342.727
 11
-282.979
 21
342.348
  0
LINE
  8
0
 10
-282.979
 20
342.348
 11
-282.6
 21
341.992
  0
LINE
  8
0
 10
-282.6
 20
341.992
 11
-282.198
 21
341.662
  0
LINE
  8
0
 10
-282.198
 20
341.662
 11
-281.775
 21
341.359
  0
LINE
  8
0
 10
-281.775
 20
341.359
 11
-281.334
 21
341.085
  0
LINE
  8
0
 10
-281.334
 20
341.085
 11
-280.875
 21
340.84
  0
LINE
  8
0
 10
-280.875
 20
340.84
 11
-280.401
 21
340.625
  0
LINE
  8
0
 10
-280.401
 20
340.625
 11
-279.915
 21
340.442
  0
LINE
  8
0
 10
-279.915
 20
340.442
 11
-279.418
 21
340.291
  0
LINE
  8
0
 10
-279.418
 20
340.291
 11
-278.911
 21
340.173
  0
LINE
  8
0
 10
-278.911
 20
340.173
 11
-278.398
 21
340.088
  0
LINE
  8
0
 10
-278.398
 20
340.088
 11
-277.881
 21
340.037
  0
LINE
  8
0
 10
-277.881
 20
340.037
 11
-277.361
 21
340.021
  0
LINE
  8
0
 10
-277.361
 20
340.021
 11
-241.406
 21
340.021
  0
LINE
  8
0
 10
-241.406
 20
340.021
 11
-240.887
 21
340.037
  0
LINE
  8
0
 10
-277.46
 20
346.468
 11
-277.558
 21
346.478
  0
LINE
  8
0
 10
-277.558
 20
346.478
 11
-277.654
 21
346.494
  0
LINE
  8
0
 10
-277.654
 20
346.494
 11
-277.75
 21
346.516
  0
LINE
  8
0
 10
-277.75
 20
346.516
 11
-277.844
 21
346.545
  0
LINE
  8
0
 10
-277.844
 20
346.545
 11
-277.936
 21
346.579
  0
LINE
  8
0
 10
-277.936
 20
346.579
 11
-278.025
 21
346.619
  0
LINE
  8
0
 10
-278.025
 20
346.619
 11
-278.111
 21
346.666
  0
LINE
  8
0
 10
-278.111
 20
346.666
 11
-278.195
 21
346.718
  0
LINE
  8
0
 10
-278.195
 20
346.718
 11
-278.274
 21
346.774
  0
LINE
  8
0
 10
-278.274
 20
346.774
 11
-278.351
 21
346.837
  0
LINE
  8
0
 10
-278.351
 20
346.837
 11
-278.422
 21
346.904
  0
LINE
  8
0
 10
-278.422
 20
346.904
 11
-278.489
 21
346.976
  0
LINE
  8
0
 10
-278.489
 20
346.976
 11
-278.552
 21
347.052
  0
LINE
  8
0
 10
-278.552
 20
347.052
 11
-278.608
 21
347.132
  0
LINE
  8
0
 10
-278.608
 20
347.132
 11
-278.66
 21
347.215
  0
LINE
  8
0
 10
-278.66
 20
347.215
 11
-278.707
 21
347.302
  0
LINE
  8
0
 10
-278.707
 20
347.302
 11
-278.747
 21
347.391
  0
LINE
  8
0
 10
-278.747
 20
347.391
 11
-278.782
 21
347.482
  0
LINE
  8
0
 10
-278.782
 20
347.482
 11
-278.811
 21
347.576
  0
LINE
  8
0
 10
-278.811
 20
347.576
 11
-278.833
 21
347.672
  0
LINE
  8
0
 10
-278.833
 20
347.672
 11
-278.849
 21
347.77
  0
LINE
  8
0
 10
-278.849
 20
347.77
 11
-278.858
 21
347.867
  0
LINE
  8
0
 10
-278.858
 20
347.867
 11
-278.861
 21
347.965
  0
LINE
  8
0
 10
-278.861
 20
347.965
 11
-278.858
 21
348.062
  0
LINE
  8
0
 10
-278.858
 20
348.062
 11
-278.849
 21
348.161
  0
LINE
  8
0
 10
-278.849
 20
348.161
 11
-278.833
 21
348.258
  0
LINE
  8
0
 10
-278.833
 20
348.258
 11
-278.811
 21
348.354
  0
LINE
  8
0
 10
-278.811
 20
348.354
 11
-278.782
 21
348.447
  0
LINE
  8
0
 10
-278.782
 20
348.447
 11
-278.747
 21
348.539
  0
LINE
  8
0
 10
-278.747
 20
348.539
 11
-278.707
 21
348.628
  0
LINE
  8
0
 10
-278.707
 20
348.628
 11
-278.66
 21
348.715
  0
LINE
  8
0
 10
-278.66
 20
348.715
 11
-278.608
 21
348.798
  0
LINE
  8
0
 10
-278.608
 20
348.798
 11
-278.552
 21
348.878
  0
LINE
  8
0
 10
-278.552
 20
348.878
 11
-278.489
 21
348.954
  0
LINE
  8
0
 10
-278.489
 20
348.954
 11
-278.422
 21
349.025
  0
LINE
  8
0
 10
-278.422
 20
349.025
 11
-278.351
 21
349.093
  0
LINE
  8
0
 10
-278.351
 20
349.093
 11
-278.274
 21
349.155
  0
LINE
  8
0
 10
-278.274
 20
349.155
 11
-278.195
 21
349.212
  0
LINE
  8
0
 10
-278.195
 20
349.212
 11
-278.111
 21
349.264
  0
LINE
  8
0
 10
-278.111
 20
349.264
 11
-278.025
 21
349.311
  0
LINE
  8
0
 10
-278.025
 20
349.311
 11
-277.936
 21
349.351
  0
LINE
  8
0
 10
-277.936
 20
349.351
 11
-277.844
 21
349.386
  0
LINE
  8
0
 10
-277.844
 20
349.386
 11
-277.75
 21
349.414
  0
LINE
  8
0
 10
-277.75
 20
349.414
 11
-277.654
 21
349.437
  0
LINE
  8
0
 10
-277.654
 20
349.437
 11
-277.558
 21
349.452
  0
LINE
  8
0
 10
-277.558
 20
349.452
 11
-277.46
 21
349.462
  0
LINE
  8
0
 10
-277.46
 20
349.462
 11
-277.361
 21
349.465
  0
LINE
  8
0
 10
-277.361
 20
349.465
 11
-277.264
 21
349.462
  0
LINE
  8
0
 10
-277.264
 20
349.462
 11
-277.166
 21
349.452
  0
LINE
  8
0
 10
-277.166
 20
349.452
 11
-277.069
 21
349.437
  0
LINE
  8
0
 10
-277.069
 20
349.437
 11
-276.974
 21
349.414
  0
LINE
  8
0
 10
-276.974
 20
349.414
 11
-276.879
 21
349.386
  0
LINE
  8
0
 10
-276.879
 20
349.386
 11
-276.787
 21
349.351
  0
LINE
  8
0
 10
-276.787
 20
349.351
 11
-276.698
 21
349.311
  0
LINE
  8
0
 10
-276.698
 20
349.311
 11
-276.611
 21
349.264
  0
LINE
  8
0
 10
-276.611
 20
349.264
 11
-276.528
 21
349.212
  0
LINE
  8
0
 10
-276.528
 20
349.212
 11
-276.448
 21
349.155
  0
LINE
  8
0
 10
-276.448
 20
349.155
 11
-276.372
 21
349.093
  0
LINE
  8
0
 10
-276.372
 20
349.093
 11
-276.301
 21
349.025
  0
LINE
  8
0
 10
-276.301
 20
349.025
 11
-276.233
 21
348.954
  0
LINE
  8
0
 10
-276.233
 20
348.954
 11
-276.172
 21
348.878
  0
LINE
  8
0
 10
-276.172
 20
348.878
 11
-276.114
 21
348.798
  0
LINE
  8
0
 10
-276.114
 20
348.798
 11
-276.062
 21
348.715
  0
LINE
  8
0
 10
-276.062
 20
348.715
 11
-276.017
 21
348.628
  0
LINE
  8
0
 10
-276.017
 20
348.628
 11
-275.976
 21
348.539
  0
LINE
  8
0
 10
-275.976
 20
348.539
 11
-275.941
 21
348.447
  0
LINE
  8
0
 10
-275.941
 20
348.447
 11
-275.913
 21
348.354
  0
LINE
  8
0
 10
-275.913
 20
348.354
 11
-275.891
 21
348.258
  0
LINE
  8
0
 10
-275.891
 20
348.258
 11
-275.874
 21
348.161
  0
LINE
  8
0
 10
-275.874
 20
348.161
 11
-275.864
 21
348.062
  0
LINE
  8
0
 10
-275.864
 20
348.062
 11
-275.861
 21
347.965
  0
LINE
  8
0
 10
-275.861
 20
347.965
 11
-275.864
 21
347.867
  0
LINE
  8
0
 10
-275.864
 20
347.867
 11
-275.874
 21
347.77
  0
LINE
  8
0
 10
-275.874
 20
347.77
 11
-275.891
 21
347.672
  0
LINE
  8
0
 10
-275.891
 20
347.672
 11
-275.913
 21
347.576
  0
LINE
  8
0
 10
-275.913
 20
347.576
 11
-275.941
 21
347.482
  0
LINE
  8
0
 10
-275.941
 20
347.482
 11
-275.976
 21
347.391
  0
LINE
  8
0
 10
-275.976
 20
347.391
 11
-276.017
 21
347.302
  0
LINE
  8
0
 10
-276.017
 20
347.302
 11
-276.062
 21
347.215
  0
LINE
  8
0
 10
-276.062
 20
347.215
 11
-276.114
 21
347.132
  0
LINE
  8
0
 10
-276.114
 20
347.132
 11
-276.172
 21
347.052
  0
LINE
  8
0
 10
-276.172
 20
347.052
 11
-276.233
 21
346.976
  0
LINE
  8
0
 10
-276.233
 20
346.976
 11
-276.301
 21
346.904
  0
LINE
  8
0
 10
-276.301
 20
346.904
 11
-276.372
 21
346.837
  0
LINE
  8
0
 10
-276.372
 20
346.837
 11
-276.448
 21
346.774
  0
LINE
  8
0
 10
-276.448
 20
346.774
 11
-276.528
 21
346.718
  0
LINE
  8
0
 10
-276.528
 20
346.718
 11
-276.611
 21
346.666
  0
LINE
  8
0
 10
-276.611
 20
346.666
 11
-276.698
 21
346.619
  0
LINE
  8
0
 10
-276.698
 20
346.619
 11
-276.787
 21
346.579
  0
LINE
  8
0
 10
-276.787
 20
346.579
 11
-276.879
 21
346.545
  0
LINE
  8
0
 10
-276.879
 20
346.545
 11
-276.974
 21
346.516
  0
LINE
  8
0
 10
-276.974
 20
346.516
 11
-277.069
 21
346.494
  0
LINE
  8
0
 10
-277.069
 20
346.494
 11
-277.166
 21
346.478
  0
LINE
  8
0
 10
-277.166
 20
346.478
 11
-277.264
 21
346.468
  0
LINE
  8
0
 10
-277.264
 20
346.468
 11
-277.361
 21
346.465
  0
LINE
  8
0
 10
-277.361
 20
346.465
 11
-277.46
 21
346.468
  0
LINE
  8
0
 10
-241.504
 20
346.432
 11
-241.602
 21
346.441
  0
LINE
  8
0
 10
-241.602
 20
346.441
 11
-241.698
 21
346.457
  0
LINE
  8
0
 10
-241.698
 20
346.457
 11
-241.794
 21
346.479
  0
LINE
  8
0
 10
-241.794
 20
346.479
 11
-241.888
 21
346.508
  0
LINE
  8
0
 10
-241.888
 20
346.508
 11
-241.98
 21
346.543
  0
LINE
  8
0
 10
-241.98
 20
346.543
 11
-242.069
 21
346.583
  0
LINE
  8
0
 10
-242.069
 20
346.583
 11
-242.156
 21
346.63
  0
LINE
  8
0
 10
-242.156
 20
346.63
 11
-242.239
 21
346.682
  0
LINE
  8
0
 10
-242.239
 20
346.682
 11
-242.319
 21
346.738
  0
LINE
  8
0
 10
-242.319
 20
346.738
 11
-242.396
 21
346.801
  0
LINE
  8
0
 10
-242.396
 20
346.801
 11
-242.467
 21
346.868
  0
LINE
  8
0
 10
-242.467
 20
346.868
 11
-242.534
 21
346.939
  0
LINE
  8
0
 10
-242.534
 20
346.939
 11
-242.596
 21
347.016
  0
LINE
  8
0
 10
-242.596
 20
347.016
 11
-242.653
 21
347.096
  0
LINE
  8
0
 10
-242.653
 20
347.096
 11
-242.705
 21
347.179
  0
LINE
  8
0
 10
-242.705
 20
347.179
 11
-242.751
 21
347.266
  0
LINE
  8
0
 10
-242.751
 20
347.266
 11
-242.792
 21
347.354
  0
LINE
  8
0
 10
-242.792
 20
347.354
 11
-242.826
 21
347.446
  0
LINE
  8
0
 10
-242.826
 20
347.446
 11
-242.854
 21
347.54
  0
LINE
  8
0
 10
-242.854
 20
347.54
 11
-242.877
 21
347.636
  0
LINE
  8
0
 10
-242.877
 20
347.636
 11
-242.894
 21
347.732
  0
LINE
  8
0
 10
-242.894
 20
347.732
 11
-242.902
 21
347.83
  0
LINE
  8
0
 10
-242.902
 20
347.83
 11
-242.906
 21
347.929
  0
LINE
  8
0
 10
-242.906
 20
347.929
 11
-242.902
 21
348.026
  0
LINE
  8
0
 10
-242.902
 20
348.026
 11
-242.894
 21
348.124
  0
LINE
  8
0
 10
-242.894
 20
348.124
 11
-242.877
 21
348.222
  0
LINE
  8
0
 10
-242.877
 20
348.222
 11
-242.854
 21
348.316
  0
LINE
  8
0
 10
-242.854
 20
348.316
 11
-242.826
 21
348.411
  0
LINE
  8
0
 10
-242.826
 20
348.411
 11
-242.792
 21
348.503
  0
LINE
  8
0
 10
-242.792
 20
348.503
 11
-242.751
 21
348.592
  0
LINE
  8
0
 10
-242.751
 20
348.592
 11
-242.705
 21
348.679
  0
LINE
  8
0
 10
-242.705
 20
348.679
 11
-242.653
 21
348.762
  0
LINE
  8
0
 10
-242.653
 20
348.762
 11
-242.596
 21
348.842
  0
LINE
  8
0
 10
-242.596
 20
348.842
 11
-242.534
 21
348.918
  0
LINE
  8
0
 10
-242.534
 20
348.918
 11
-242.467
 21
348.989
  0
LINE
  8
0
 10
-242.467
 20
348.989
 11
-242.396
 21
349.057
  0
LINE
  8
0
 10
-242.396
 20
349.057
 11
-242.319
 21
349.118
  0
LINE
  8
0
 10
-242.319
 20
349.118
 11
-242.239
 21
349.176
  0
LINE
  8
0
 10
-242.239
 20
349.176
 11
-242.156
 21
349.228
  0
LINE
  8
0
 10
-242.156
 20
349.228
 11
-242.069
 21
349.273
  0
LINE
  8
0
 10
-242.069
 20
349.273
 11
-241.98
 21
349.314
  0
LINE
  8
0
 10
-241.98
 20
349.314
 11
-241.888
 21
349.349
  0
LINE
  8
0
 10
-241.888
 20
349.349
 11
-241.794
 21
349.378
  0
LINE
  8
0
 10
-241.794
 20
349.378
 11
-241.698
 21
349.399
  0
LINE
  8
0
 10
-241.698
 20
349.399
 11
-241.602
 21
349.416
  0
LINE
  8
0
 10
-241.602
 20
349.416
 11
-241.504
 21
349.426
  0
LINE
  8
0
 10
-241.504
 20
349.426
 11
-241.406
 21
349.429
  0
LINE
  8
0
 10
-241.406
 20
349.429
 11
-241.308
 21
349.426
  0
LINE
  8
0
 10
-241.308
 20
349.426
 11
-241.21
 21
349.416
  0
LINE
  8
0
 10
-241.21
 20
349.416
 11
-241.113
 21
349.399
  0
LINE
  8
0
 10
-241.113
 20
349.399
 11
-241.018
 21
349.378
  0
LINE
  8
0
 10
-241.018
 20
349.378
 11
-240.924
 21
349.349
  0
LINE
  8
0
 10
-240.924
 20
349.349
 11
-240.832
 21
349.314
  0
LINE
  8
0
 10
-240.832
 20
349.314
 11
-240.742
 21
349.273
  0
LINE
  8
0
 10
-240.742
 20
349.273
 11
-240.656
 21
349.228
  0
LINE
  8
0
 10
-240.656
 20
349.228
 11
-240.572
 21
349.176
  0
LINE
  8
0
 10
-240.572
 20
349.176
 11
-240.493
 21
349.118
  0
LINE
  8
0
 10
-240.493
 20
349.118
 11
-240.417
 21
349.057
  0
LINE
  8
0
 10
-240.417
 20
349.057
 11
-240.346
 21
348.989
  0
LINE
  8
0
 10
-240.346
 20
348.989
 11
-240.278
 21
348.918
  0
LINE
  8
0
 10
-240.278
 20
348.918
 11
-240.216
 21
348.842
  0
LINE
  8
0
 10
-240.216
 20
348.842
 11
-240.159
 21
348.762
  0
LINE
  8
0
 10
-240.159
 20
348.762
 11
-240.107
 21
348.679
  0
LINE
  8
0
 10
-240.107
 20
348.679
 11
-240.061
 21
348.592
  0
LINE
  8
0
 10
-240.061
 20
348.592
 11
-240.021
 21
348.503
  0
LINE
  8
0
 10
-240.021
 20
348.503
 11
-239.985
 21
348.411
  0
LINE
  8
0
 10
-239.985
 20
348.411
 11
-239.957
 21
348.316
  0
LINE
  8
0
 10
-239.957
 20
348.316
 11
-239.935
 21
348.222
  0
LINE
  8
0
 10
-239.935
 20
348.222
 11
-239.919
 21
348.124
  0
LINE
  8
0
 10
-239.919
 20
348.124
 11
-239.909
 21
348.026
  0
LINE
  8
0
 10
-239.909
 20
348.026
 11
-239.906
 21
347.929
  0
LINE
  8
0
 10
-239.906
 20
347.929
 11
-239.909
 21
347.83
  0
LINE
  8
0
 10
-239.909
 20
347.83
 11
-239.919
 21
347.732
  0
LINE
  8
0
 10
-239.919
 20
347.732
 11
-239.935
 21
347.636
  0
LINE
  8
0
 10
-239.935
 20
347.636
 11
-239.957
 21
347.54
  0
LINE
  8
0
 10
-239.957
 20
347.54
 11
-239.985
 21
347.446
  0
LINE
  8
0
 10
-239.985
 20
347.446
 11
-240.021
 21
347.354
  0
LINE
  8
0
 10
-240.021
 20
347.354
 11
-240.061
 21
347.266
  0
LINE
  8
0
 10
-240.061
 20
347.266
 11
-240.107
 21
347.179
  0
LINE
  8
0
 10
-240.107
 20
347.179
 11
-240.159
 21
347.096
  0
LINE
  8
0
 10
-240.159
 20
347.096
 11
-240.216
 21
347.016
  0
LINE
  8
0
 10
-240.216
 20
347.016
 11
-240.278
 21
346.939
  0
LINE
  8
0
 10
-240.278
 20
346.939
 11
-240.346
 21
346.868
  0
LINE
  8
0
 10
-240.346
 20
346.868
 11
-240.417
 21
346.801
  0
LINE
  8
0
 10
-240.417
 20
346.801
 11
-240.493
 21
346.738
  0
LINE
  8
0
 10
-240.493
 20
346.738
 11
-240.572
 21
346.682
  0
LINE
  8
0
 10
-240.572
 20
346.682
 11
-240.656
 21
346.63
  0
LINE
  8
0
 10
-240.656
 20
346.63
 11
-240.742
 21
346.583
  0
LINE
  8
0
 10
-240.742
 20
346.583
 11
-240.832
 21
346.543
  0
LINE
  8
0
 10
-240.832
 20
346.543
 11
-240.924
 21
346.508
  0
LINE
  8
0
 10
-240.924
 20
346.508
 11
-241.018
 21
346.479
  0
LINE
  8
0
 10
-241.018
 20
346.479
 11
-241.113
 21
346.457
  0
LINE
  8
0
 10
-241.113
 20
346.457
 11
-241.21
 21
346.441
  0
LINE
  8
0
 10
-241.21
 20
346.441
 11
-241.308
 21
346.432
  0
LINE
  8
0
 10
-241.308
 20
346.432
 11
-241.406
 21
346.429
  0
LINE
  8
0
 10
-241.406
 20
346.429
 11
-241.504
 21
346.432
  0
LINE
  8
0
 10
-240.887
 20
321.037
 11
-240.369
 21
321.088
  0
LINE
  8
0
 10
-240.369
 20
321.088
 11
-239.856
 21
321.173
  0
LINE
  8
0
 10
-239.856
 20
321.173
 11
-239.35
 21
321.291
  0
LINE
  8
0
 10
-239.35
 20
321.291
 11
-238.853
 21
321.442
  0
LINE
  8
0
 10
-238.853
 20
321.442
 11
-238.366
 21
321.625
  0
LINE
  8
0
 10
-238.366
 20
321.625
 11
-237.893
 21
321.84
  0
LINE
  8
0
 10
-237.893
 20
321.84
 11
-237.434
 21
322.085
  0
LINE
  8
0
 10
-237.434
 20
322.085
 11
-236.992
 21
322.359
  0
LINE
  8
0
 10
-236.992
 20
322.359
 11
-236.569
 21
322.662
  0
LINE
  8
0
 10
-236.569
 20
322.662
 11
-236.168
 21
322.992
  0
LINE
  8
0
 10
-236.168
 20
322.992
 11
-235.788
 21
323.348
  0
LINE
  8
0
 10
-235.788
 20
323.348
 11
-235.434
 21
323.727
  0
LINE
  8
0
 10
-235.434
 20
323.727
 11
-235.104
 21
324.129
  0
LINE
  8
0
 10
-235.104
 20
324.129
 11
-234.801
 21
324.551
  0
LINE
  8
0
 10
-234.801
 20
324.551
 11
-234.526
 21
324.992
  0
LINE
  8
0
 10
-234.526
 20
324.992
 11
-234.281
 21
325.451
  0
LINE
  8
0
 10
-234.281
 20
325.451
 11
-234.066
 21
325.925
  0
LINE
  8
0
 10
-234.066
 20
325.925
 11
-233.883
 21
326.411
  0
LINE
  8
0
 10
-233.883
 20
326.411
 11
-233.732
 21
326.908
  0
LINE
  8
0
 10
-233.732
 20
326.908
 11
-233.614
 21
327.415
  0
LINE
  8
0
 10
-233.614
 20
327.415
 11
-233.529
 21
327.928
  0
LINE
  8
0
 10
-233.529
 20
327.928
 11
-233.479
 21
328.445
  0
LINE
  8
0
 10
-233.479
 20
328.445
 11
-233.462
 21
328.965
  0
LINE
  8
0
 10
-233.462
 20
328.965
 11
-233.479
 21
329.484
  0
LINE
  8
0
 10
-233.479
 20
329.484
 11
-233.529
 21
330.002
  0
LINE
  8
0
 10
-233.529
 20
330.002
 11
-233.614
 21
330.515
  0
LINE
  8
0
 10
-233.614
 20
330.515
 11
-233.732
 21
331.021
  0
LINE
  8
0
 10
-233.732
 20
331.021
 11
-233.883
 21
331.519
  0
LINE
  8
0
 10
-233.883
 20
331.519
 11
-234.066
 21
332.005
  0
LINE
  8
0
 10
-234.066
 20
332.005
 11
-234.281
 21
332.479
  0
LINE
  8
0
 10
-234.281
 20
332.479
 11
-234.526
 21
332.937
  0
LINE
  8
0
 10
-234.526
 20
332.937
 11
-234.801
 21
333.378
  0
LINE
  8
0
 10
-234.801
 20
333.378
 11
-235.104
 21
333.801
  0
LINE
  8
0
 10
-235.104
 20
333.801
 11
-235.434
 21
334.203
  0
LINE
  8
0
 10
-235.434
 20
334.203
 11
-235.788
 21
334.582
  0
LINE
  8
0
 10
-235.788
 20
334.582
 11
-236.168
 21
334.938
  0
LINE
  8
0
 10
-236.168
 20
334.938
 11
-236.569
 21
335.268
  0
LINE
  8
0
 10
-236.569
 20
335.268
 11
-236.992
 21
335.57
  0
LINE
  8
0
 10
-236.992
 20
335.57
 11
-237.434
 21
335.845
  0
LINE
  8
0
 10
-237.434
 20
335.845
 11
-237.893
 21
336.09
  0
LINE
  8
0
 10
-237.893
 20
336.09
 11
-238.366
 21
336.305
  0
LINE
  8
0
 10
-238.366
 20
336.305
 11
-238.853
 21
336.487
  0
LINE
  8
0
 10
-238.853
 20
336.487
 11
-239.35
 21
336.639
  0
LINE
  8
0
 10
-239.35
 20
336.639
 11
-239.856
 21
336.757
  0
LINE
  8
0
 10
-239.856
 20
336.757
 11
-240.369
 21
336.841
  0
LINE
  8
0
 10
-240.369
 20
336.841
 11
-240.887
 21
336.893
  0
LINE
  8
0
 10
-240.887
 20
336.893
 11
-241.406
 21
336.909
  0
LINE
  8
0
 10
-241.406
 20
336.909
 11
-277.361
 21
336.909
  0
LINE
  8
0
 10
-277.361
 20
336.909
 11
-277.881
 21
336.893
  0
LINE
  8
0
 10
-277.881
 20
336.893
 11
-278.398
 21
336.842
  0
LINE
  8
0
 10
-278.398
 20
336.842
 11
-278.911
 21
336.757
  0
LINE
  8
0
 10
-278.911
 20
336.757
 11
-279.418
 21
336.639
  0
LINE
  8
0
 10
-279.418
 20
336.639
 11
-279.915
 21
336.487
  0
LINE
  8
0
 10
-279.915
 20
336.487
 11
-280.401
 21
336.305
  0
LINE
  8
0
 10
-280.401
 20
336.305
 11
-280.875
 21
336.09
  0
LINE
  8
0
 10
-280.875
 20
336.09
 11
-281.334
 21
335.845
  0
LINE
  8
0
 10
-281.334
 20
335.845
 11
-281.775
 21
335.57
  0
LINE
  8
0
 10
-281.775
 20
335.57
 11
-282.198
 21
335.268
  0
LINE
  8
0
 10
-282.198
 20
335.268
 11
-282.6
 21
334.938
  0
LINE
  8
0
 10
-282.6
 20
334.938
 11
-282.979
 21
334.582
  0
LINE
  8
0
 10
-282.979
 20
334.582
 11
-283.335
 21
334.203
  0
LINE
  8
0
 10
-283.335
 20
334.203
 11
-283.664
 21
333.801
  0
LINE
  8
0
 10
-283.664
 20
333.801
 11
-283.967
 21
333.379
  0
LINE
  8
0
 10
-283.967
 20
333.379
 11
-284.241
 21
332.938
  0
LINE
  8
0
 10
-284.241
 20
332.938
 11
-284.486
 21
332.479
  0
LINE
  8
0
 10
-284.486
 20
332.479
 11
-284.701
 21
332.005
  0
LINE
  8
0
 10
-284.701
 20
332.005
 11
-284.885
 21
331.519
  0
LINE
  8
0
 10
-284.885
 20
331.519
 11
-285.035
 21
331.021
  0
LINE
  8
0
 10
-285.035
 20
331.021
 11
-285.153
 21
330.515
  0
LINE
  8
0
 10
-285.153
 20
330.515
 11
-285.238
 21
330.002
  0
LINE
  8
0
 10
-285.238
 20
330.002
 11
-285.289
 21
329.484
  0
LINE
  8
0
 10
-285.289
 20
329.484
 11
-285.306
 21
328.965
  0
LINE
  8
0
 10
-285.306
 20
328.965
 11
-285.289
 21
328.445
  0
LINE
  8
0
 10
-285.289
 20
328.445
 11
-285.238
 21
327.928
  0
LINE
  8
0
 10
-285.238
 20
327.928
 11
-285.153
 21
327.415
  0
LINE
  8
0
 10
-285.153
 20
327.415
 11
-285.035
 21
326.909
  0
LINE
  8
0
 10
-285.035
 20
326.909
 11
-284.885
 21
326.411
  0
LINE
  8
0
 10
-284.885
 20
326.411
 11
-284.701
 21
325.925
  0
LINE
  8
0
 10
-284.701
 20
325.925
 11
-284.486
 21
325.451
  0
LINE
  8
0
 10
-284.486
 20
325.451
 11
-284.241
 21
324.992
  0
LINE
  8
0
 10
-284.241
 20
324.992
 11
-283.967
 21
324.551
  0
LINE
  8
0
 10
-283.967
 20
324.551
 11
-283.664
 21
324.129
  0
LINE
  8
0
 10
-283.664
 20
324.129
 11
-283.335
 21
323.727
  0
LINE
  8
0
 10
-283.335
 20
323.727
 11
-282.979
 21
323.348
  0
LINE
  8
0
 10
-282.979
 20
323.348
 11
-282.6
 21
322.992
  0
LINE
  8
0
 10
-282.6
 20
322.992
 11
-282.198
 21
322.662
  0
LINE
  8
0
 10
-282.198
 20
322.662
 11
-281.775
 21
322.359
  0
LINE
  8
0
 10
-281.775
 20
322.359
 11
-281.334
 21
322.085
  0
LINE
  8
0
 10
-281.334
 20
322.085
 11
-280.875
 21
321.84
  0
LINE
  8
0
 10
-280.875
 20
321.84
 11
-280.401
 21
321.625
  0
LINE
  8
0
 10
-280.401
 20
321.625
 11
-279.915
 21
321.442
  0
LINE
  8
0
 10
-279.915
 20
321.442
 11
-279.418
 21
321.291
  0
LINE
  8
0
 10
-279.418
 20
321.291
 11
-278.911
 21
321.173
  0
LINE
  8
0
 10
-278.911
 20
321.173
 11
-278.398
 21
321.088
  0
LINE
  8
0
 10
-278.398
 20
321.088
 11
-277.881
 21
321.037
  0
LINE
  8
0
 10
-277.881
 20
321.037
 11
-277.361
 21
321.021
  0
LINE
  8
0
 10
-277.361
 20
321.021
 11
-241.406
 21
321.021
  0
LINE
  8
0
 10
-241.406
 20
321.021
 11
-240.887
 21
321.037
  0
LINE
  8
0
 10
-277.46
 20
327.468
 11
-277.558
 21
327.478
  0
LINE
  8
0
 10
-277.558
 20
327.478
 11
-277.654
 21
327.494
  0
LINE
  8
0
 10
-277.654
 20
327.494
 11
-277.75
 21
327.516
  0
LINE
  8
0
 10
-277.75
 20
327.516
 11
-277.844
 21
327.545
  0
LINE
  8
0
 10
-277.844
 20
327.545
 11
-277.936
 21
327.579
  0
LINE
  8
0
 10
-277.936
 20
327.579
 11
-278.025
 21
327.619
  0
LINE
  8
0
 10
-278.025
 20
327.619
 11
-278.111
 21
327.666
  0
LINE
  8
0
 10
-278.111
 20
327.666
 11
-278.195
 21
327.718
  0
LINE
  8
0
 10
-278.195
 20
327.718
 11
-278.274
 21
327.774
  0
LINE
  8
0
 10
-278.274
 20
327.774
 11
-278.351
 21
327.837
  0
LINE
  8
0
 10
-278.351
 20
327.837
 11
-278.422
 21
327.904
  0
LINE
  8
0
 10
-278.422
 20
327.904
 11
-278.489
 21
327.976
  0
LINE
  8
0
 10
-278.489
 20
327.976
 11
-278.552
 21
328.052
  0
LINE
  8
0
 10
-278.552
 20
328.052
 11
-278.608
 21
328.132
  0
LINE
  8
0
 10
-278.608
 20
328.132
 11
-278.66
 21
328.215
  0
LINE
  8
0
 10
-278.66
 20
328.215
 11
-278.707
 21
328.302
  0
LINE
  8
0
 10
-278.707
 20
328.302
 11
-278.747
 21
328.391
  0
LINE
  8
0
 10
-278.747
 20
328.391
 11
-278.782
 21
328.482
  0
LINE
  8
0
 10
-278.782
 20
328.482
 11
-278.811
 21
328.576
  0
LINE
  8
0
 10
-278.811
 20
328.576
 11
-278.833
 21
328.672
  0
LINE
  8
0
 10
-278.833
 20
328.672
 11
-278.849
 21
328.77
  0
LINE
  8
0
 10
-278.849
 20
328.77
 11
-278.858
 21
328.867
  0
LINE
  8
0
 10
-278.858
 20
328.867
 11
-278.861
 21
328.965
  0
LINE
  8
0
 10
-278.861
 20
328.965
 11
-278.858
 21
329.062
  0
LINE
  8
0
 10
-278.858
 20
329.062
 11
-278.849
 21
329.161
  0
LINE
  8
0
 10
-278.849
 20
329.161
 11
-278.833
 21
329.258
  0
LINE
  8
0
 10
-278.833
 20
329.258
 11
-278.811
 21
329.354
  0
LINE
  8
0
 10
-278.811
 20
329.354
 11
-278.782
 21
329.447
  0
LINE
  8
0
 10
-278.782
 20
329.447
 11
-278.747
 21
329.539
  0
LINE
  8
0
 10
-278.747
 20
329.539
 11
-278.707
 21
329.628
  0
LINE
  8
0
 10
-278.707
 20
329.628
 11
-278.66
 21
329.715
  0
LINE
  8
0
 10
-278.66
 20
329.715
 11
-278.608
 21
329.798
  0
LINE
  8
0
 10
-278.608
 20
329.798
 11
-278.552
 21
329.878
  0
LINE
  8
0
 10
-278.552
 20
329.878
 11
-278.489
 21
329.954
  0
LINE
  8
0
 10
-278.489
 20
329.954
 11
-278.422
 21
330.025
  0
LINE
  8
0
 10
-278.422
 20
330.025
 11
-278.351
 21
330.093
  0
LINE
  8
0
 10
-278.351
 20
330.093
 11
-278.274
 21
330.155
  0
LINE
  8
0
 10
-278.274
 20
330.155
 11
-278.195
 21
330.212
  0
LINE
  8
0
 10
-278.195
 20
330.212
 11
-278.111
 21
330.264
  0
LINE
  8
0
 10
-278.111
 20
330.264
 11
-278.025
 21
330.311
  0
LINE
  8
0
 10
-278.025
 20
330.311
 11
-277.936
 21
330.351
  0
LINE
  8
0
 10
-277.936
 20
330.351
 11
-277.844
 21
330.386
  0
LINE
  8
0
 10
-277.844
 20
330.386
 11
-277.75
 21
330.414
  0
LINE
  8
0
 10
-277.75
 20
330.414
 11
-277.654
 21
330.437
  0
LINE
  8
0
 10
-277.654
 20
330.437
 11
-277.558
 21
330.452
  0
LINE
  8
0
 10
-277.558
 20
330.452
 11
-277.46
 21
330.462
  0
LINE
  8
0
 10
-277.46
 20
330.462
 11
-277.361
 21
330.465
  0
LINE
  8
0
 10
-277.361
 20
330.465
 11
-277.264
 21
330.462
  0
LINE
  8
0
 10
-277.264
 20
330.462
 11
-277.166
 21
330.452
  0
LINE
  8
0
 10
-277.166
 20
330.452
 11
-277.069
 21
330.437
  0
LINE
  8
0
 10
-277.069
 20
330.437
 11
-276.974
 21
330.414
  0
LINE
  8
0
 10
-276.974
 20
330.414
 11
-276.879
 21
330.386
  0
LINE
  8
0
 10
-276.879
 20
330.386
 11
-276.787
 21
330.351
  0
LINE
  8
0
 10
-276.787
 20
330.351
 11
-276.698
 21
330.311
  0
LINE
  8
0
 10
-276.698
 20
330.311
 11
-276.611
 21
330.264
  0
LINE
  8
0
 10
-276.611
 20
330.264
 11
-276.528
 21
330.212
  0
LINE
  8
0
 10
-276.528
 20
330.212
 11
-276.448
 21
330.155
  0
LINE
  8
0
 10
-276.448
 20
330.155
 11
-276.372
 21
330.093
  0
LINE
  8
0
 10
-276.372
 20
330.093
 11
-276.301
 21
330.025
  0
LINE
  8
0
 10
-276.301
 20
330.025
 11
-276.233
 21
329.954
  0
LINE
  8
0
 10
-276.233
 20
329.954
 11
-276.172
 21
329.878
  0
LINE
  8
0
 10
-276.172
 20
329.878
 11
-276.114
 21
329.798
  0
LINE
  8
0
 10
-276.114
 20
329.798
 11
-276.062
 21
329.715
  0
LINE
  8
0
 10
-276.062
 20
329.715
 11
-276.017
 21
329.628
  0
LINE
  8
0
 10
-276.017
 20
329.628
 11
-275.976
 21
329.539
  0
LINE
  8
0
 10
-275.976
 20
329.539
 11
-275.941
 21
329.447
  0
LINE
  8
0
 10
-275.941
 20
329.447
 11
-275.913
 21
329.354
  0
LINE
  8
0
 10
-275.913
 20
329.354
 11
-275.891
 21
329.258
  0
LINE
  8
0
 10
-275.891
 20
329.258
 11
-275.874
 21
329.161
  0
LINE
  8
0
 10
-275.874
 20
329.161
 11
-275.864
 21
329.062
  0
LINE
  8
0
 10
-275.864
 20
329.062
 11
-275.861
 21
328.965
  0
LINE
  8
0
 10
-275.861
 20
328.965
 11
-275.864
 21
328.867
  0
LINE
  8
0
 10
-275.864
 20
328.867
 11
-275.874
 21
328.77
  0
LINE
  8
0
 10
-275.874
 20
328.77
 11
-275.891
 21
328.672
  0
LINE
  8
0
 10
-275.891
 20
328.672
 11
-275.913
 21
328.576
  0
LINE
  8
0
 10
-275.913
 20
328.576
 11
-275.941
 21
328.482
  0
LINE
  8
0
 10
-275.941
 20
328.482
 11
-275.976
 21
328.391
  0
LINE
  8
0
 10
-275.976
 20
328.391
 11
-276.017
 21
328.302
  0
LINE
  8
0
 10
-276.017
 20
328.302
 11
-276.062
 21
328.215
  0
LINE
  8
0
 10
-276.062
 20
328.215
 11
-276.114
 21
328.132
  0
LINE
  8
0
 10
-276.114
 20
328.132
 11
-276.172
 21
328.052
  0
LINE
  8
0
 10
-276.172
 20
328.052
 11
-276.233
 21
327.976
  0
LINE
  8
0
 10
-276.233
 20
327.976
 11
-276.301
 21
327.904
  0
LINE
  8
0
 10
-276.301
 20
327.904
 11
-276.372
 21
327.837
  0
LINE
  8
0
 10
-276.372
 20
327.837
 11
-276.448
 21
327.774
  0
LINE
  8
0
 10
-276.448
 20
327.774
 11
-276.528
 21
327.718
  0
LINE
  8
0
 10
-276.528
 20
327.718
 11
-276.611
 21
327.666
  0
LINE
  8
0
 10
-276.611
 20
327.666
 11
-276.698
 21
327.619
  0
LINE
  8
0
 10
-276.698
 20
327.619
 11
-276.787
 21
327.579
  0
LINE
  8
0
 10
-276.787
 20
327.579
 11
-276.879
 21
327.545
  0
LINE
  8
0
 10
-276.879
 20
327.545
 11
-276.974
 21
327.516
  0
LINE
  8
0
 10
-276.974
 20
327.516
 11
-277.069
 21
327.494
  0
LINE
  8
0
 10
-277.069
 20
327.494
 11
-277.166
 21
327.478
  0
LINE
  8
0
 10
-277.166
 20
327.478
 11
-277.264
 21
327.468
  0
LINE
  8
0
 10
-277.264
 20
327.468
 11
-277.361
 21
327.465
  0
LINE
  8
0
 10
-277.361
 20
327.465
 11
-277.46
 21
327.468
  0
LINE
  8
0
 10
-241.504
 20
327.432
 11
-241.602
 21
327.441
  0
LINE
  8
0
 10
-241.602
 20
327.441
 11
-241.698
 21
327.457
  0
LINE
  8
0
 10
-241.698
 20
327.457
 11
-241.794
 21
327.479
  0
LINE
  8
0
 10
-241.794
 20
327.479
 11
-241.888
 21
327.508
  0
LINE
  8
0
 10
-241.888
 20
327.508
 11
-241.98
 21
327.543
  0
LINE
  8
0
 10
-241.98
 20
327.543
 11
-242.069
 21
327.583
  0
LINE
  8
0
 10
-242.069
 20
327.583
 11
-242.156
 21
327.63
  0
LINE
  8
0
 10
-242.156
 20
327.63
 11
-242.239
 21
327.682
  0
LINE
  8
0
 10
-242.239
 20
327.682
 11
-242.319
 21
327.738
  0
LINE
  8
0
 10
-242.319
 20
327.738
 11
-242.396
 21
327.801
  0
LINE
  8
0
 10
-242.396
 20
327.801
 11
-242.467
 21
327.868
  0
LINE
  8
0
 10
-242.467
 20
327.868
 11
-242.534
 21
327.939
  0
LINE
  8
0
 10
-242.534
 20
327.939
 11
-242.596
 21
328.016
  0
LINE
  8
0
 10
-242.596
 20
328.016
 11
-242.653
 21
328.096
  0
LINE
  8
0
 10
-242.653
 20
328.096
 11
-242.705
 21
328.179
  0
LINE
  8
0
 10
-242.705
 20
328.179
 11
-242.751
 21
328.266
  0
LINE
  8
0
 10
-242.751
 20
328.266
 11
-242.792
 21
328.354
  0
LINE
  8
0
 10
-242.792
 20
328.354
 11
-242.826
 21
328.446
  0
LINE
  8
0
 10
-242.826
 20
328.446
 11
-242.854
 21
328.54
  0
LINE
  8
0
 10
-242.854
 20
328.54
 11
-242.877
 21
328.636
  0
LINE
  8
0
 10
-242.877
 20
328.636
 11
-242.894
 21
328.732
  0
LINE
  8
0
 10
-242.894
 20
328.732
 11
-242.902
 21
328.83
  0
LINE
  8
0
 10
-242.902
 20
328.83
 11
-242.906
 21
328.929
  0
LINE
  8
0
 10
-242.906
 20
328.929
 11
-242.902
 21
329.026
  0
LINE
  8
0
 10
-242.902
 20
329.026
 11
-242.894
 21
329.124
  0
LINE
  8
0
 10
-242.894
 20
329.124
 11
-242.877
 21
329.222
  0
LINE
  8
0
 10
-242.877
 20
329.222
 11
-242.854
 21
329.316
  0
LINE
  8
0
 10
-242.854
 20
329.316
 11
-242.826
 21
329.411
  0
LINE
  8
0
 10
-242.826
 20
329.411
 11
-242.792
 21
329.503
  0
LINE
  8
0
 10
-242.792
 20
329.503
 11
-242.751
 21
329.592
  0
LINE
  8
0
 10
-242.751
 20
329.592
 11
-242.705
 21
329.679
  0
LINE
  8
0
 10
-242.705
 20
329.679
 11
-242.653
 21
329.762
  0
LINE
  8
0
 10
-242.653
 20
329.762
 11
-242.596
 21
329.842
  0
LINE
  8
0
 10
-242.596
 20
329.842
 11
-242.534
 21
329.918
  0
LINE
  8
0
 10
-242.534
 20
329.918
 11
-242.467
 21
329.989
  0
LINE
  8
0
 10
-242.467
 20
329.989
 11
-242.396
 21
330.057
  0
LINE
  8
0
 10
-242.396
 20
330.057
 11
-242.319
 21
330.118
  0
LINE
  8
0
 10
-242.319
 20
330.118
 11
-242.239
 21
330.176
  0
LINE
  8
0
 10
-242.239
 20
330.176
 11
-242.156
 21
330.228
  0
LINE
  8
0
 10
-242.156
 20
330.228
 11
-242.069
 21
330.273
  0
LINE
  8
0
 10
-242.069
 20
330.273
 11
-241.98
 21
330.314
  0
LINE
  8
0
 10
-241.98
 20
330.314
 11
-241.888
 21
330.349
  0
LINE
  8
0
 10
-241.888
 20
330.349
 11
-241.794
 21
330.378
  0
LINE
  8
0
 10
-241.794
 20
330.378
 11
-241.698
 21
330.399
  0
LINE
  8
0
 10
-241.698
 20
330.399
 11
-241.602
 21
330.416
  0
LINE
  8
0
 10
-241.602
 20
330.416
 11
-241.504
 21
330.426
  0
LINE
  8
0
 10
-241.504
 20
330.426
 11
-241.406
 21
330.429
  0
LINE
  8
0
 10
-241.406
 20
330.429
 11
-241.308
 21
330.426
  0
LINE
  8
0
 10
-241.308
 20
330.426
 11
-241.21
 21
330.416
  0
LINE
  8
0
 10
-241.21
 20
330.416
 11
-241.113
 21
330.399
  0
LINE
  8
0
 10
-241.113
 20
330.399
 11
-241.018
 21
330.378
  0
LINE
  8
0
 10
-241.018
 20
330.378
 11
-240.924
 21
330.349
  0
LINE
  8
0
 10
-240.924
 20
330.349
 11
-240.832
 21
330.314
  0
LINE
  8
0
 10
-240.832
 20
330.314
 11
-240.742
 21
330.273
  0
LINE
  8
0
 10
-240.742
 20
330.273
 11
-240.656
 21
330.228
  0
LINE
  8
0
 10
-240.656
 20
330.228
 11
-240.572
 21
330.176
  0
LINE
  8
0
 10
-240.572
 20
330.176
 11
-240.493
 21
330.118
  0
LINE
  8
0
 10
-240.493
 20
330.118
 11
-240.417
 21
330.057
  0
LINE
  8
0
 10
-240.417
 20
330.057
 11
-240.346
 21
329.989
  0
LINE
  8
0
 10
-240.346
 20
329.989
 11
-240.278
 21
329.918
  0
LINE
  8
0
 10
-240.278
 20
329.918
 11
-240.216
 21
329.842
  0
LINE
  8
0
 10
-240.216
 20
329.842
 11
-240.159
 21
329.762
  0
LINE
  8
0
 10
-240.159
 20
329.762
 11
-240.107
 21
329.679
  0
LINE
  8
0
 10
-240.107
 20
329.679
 11
-240.061
 21
329.592
  0
LINE
  8
0
 10
-240.061
 20
329.592
 11
-240.021
 21
329.503
  0
LINE
  8
0
 10
-240.021
 20
329.503
 11
-239.985
 21
329.411
  0
LINE
  8
0
 10
-239.985
 20
329.411
 11
-239.957
 21
329.316
  0
LINE
  8
0
 10
-239.957
 20
329.316
 11
-239.935
 21
329.222
  0
LINE
  8
0
 10
-239.935
 20
329.222
 11
-239.919
 21
329.124
  0
LINE
  8
0
 10
-239.919
 20
329.124
 11
-239.909
 21
329.026
  0
LINE
  8
0
 10
-239.909
 20
329.026
 11
-239.906
 21
328.929
  0
LINE
  8
0
 10
-239.906
 20
328.929
 11
-239.909
 21
328.83
  0
LINE
  8
0
 10
-239.909
 20
328.83
 11
-239.919
 21
328.732
  0
LINE
  8
0
 10
-239.919
 20
328.732
 11
-239.935
 21
328.636
  0
LINE
  8
0
 10
-239.935
 20
328.636
 11
-239.957
 21
328.54
  0
LINE
  8
0
 10
-239.957
 20
328.54
 11
-239.985
 21
328.446
  0
LINE
  8
0
 10
-239.985
 20
328.446
 11
-240.021
 21
328.354
  0
LINE
  8
0
 10
-240.021
 20
328.354
 11
-240.061
 21
328.266
  0
LINE
  8
0
 10
-240.061
 20
328.266
 11
-240.107
 21
328.179
  0
LINE
  8
0
 10
-240.107
 20
328.179
 11
-240.159
 21
328.096
  0
LINE
  8
0
 10
-240.159
 20
328.096
 11
-240.216
 21
328.016
  0
LINE
  8
0
 10
-240.216
 20
328.016
 11
-240.278
 21
327.939
  0
LINE
  8
0
 10
-240.278
 20
327.939
 11
-240.346
 21
327.868
  0
LINE
  8
0
 10
-240.346
 20
327.868
 11
-240.417
 21
327.801
  0
LINE
  8
0
 10
-240.417
 20
327.801
 11
-240.493
 21
327.738
  0
LINE
  8
0
 10
-240.493
 20
327.738
 11
-240.572
 21
327.682
  0
LINE
  8
0
 10
-240.572
 20
327.682
 11
-240.656
 21
327.63
  0
LINE
  8
0
 10
-240.656
 20
327.63
 11
-240.742
 21
327.583
  0
LINE
  8
0
 10
-240.742
 20
327.583
 11
-240.832
 21
327.543
  0
LINE
  8
0
 10
-240.832
 20
327.543
 11
-240.924
 21
327.508
  0
LINE
  8
0
 10
-240.924
 20
327.508
 11
-241.018
 21
327.479
  0
LINE
  8
0
 10
-241.018
 20
327.479
 11
-241.113
 21
327.457
  0
LINE
  8
0
 10
-241.113
 20
327.457
 11
-241.21
 21
327.441
  0
LINE
  8
0
 10
-241.21
 20
327.441
 11
-241.308
 21
327.432
  0
LINE
  8
0
 10
-241.308
 20
327.432
 11
-241.406
 21
327.429
  0
LINE
  8
0
 10
-241.406
 20
327.429
 11
-241.504
 21
327.432
  0
LINE
  8
0
 10
-240.887
 20
302.037
 11
-240.369
 21
302.088
  0
LINE
  8
0
 10
-240.369
 20
302.088
 11
-239.856
 21
302.173
  0
LINE
  8
0
 10
-239.856
 20
302.173
 11
-239.35
 21
302.291
  0
LINE
  8
0
 10
-239.35
 20
302.291
 11
-238.853
 21
302.442
  0
LINE
  8
0
 10
-238.853
 20
302.442
 11
-238.366
 21
302.625
  0
LINE
  8
0
 10
-238.366
 20
302.625
 11
-237.893
 21
302.84
  0
LINE
  8
0
 10
-237.893
 20
302.84
 11
-237.434
 21
303.085
  0
LINE
  8
0
 10
-237.434
 20
303.085
 11
-236.992
 21
303.359
  0
LINE
  8
0
 10
-236.992
 20
303.359
 11
-236.569
 21
303.662
  0
LINE
  8
0
 10
-236.569
 20
303.662
 11
-236.168
 21
303.992
  0
LINE
  8
0
 10
-236.168
 20
303.992
 11
-235.788
 21
304.348
  0
LINE
  8
0
 10
-235.788
 20
304.348
 11
-235.434
 21
304.727
  0
LINE
  8
0
 10
-235.434
 20
304.727
 11
-235.104
 21
305.129
  0
LINE
  8
0
 10
-235.104
 20
305.129
 11
-234.801
 21
305.551
  0
LINE
  8
0
 10
-234.801
 20
305.551
 11
-234.526
 21
305.992
  0
LINE
  8
0
 10
-234.526
 20
305.992
 11
-234.281
 21
306.451
  0
LINE
  8
0
 10
-234.281
 20
306.451
 11
-234.066
 21
306.925
  0
LINE
  8
0
 10
-234.066
 20
306.925
 11
-233.883
 21
307.411
  0
LINE
  8
0
 10
-233.883
 20
307.411
 11
-233.732
 21
307.908
  0
LINE
  8
0
 10
-233.732
 20
307.908
 11
-233.614
 21
308.415
  0
LINE
  8
0
 10
-233.614
 20
308.415
 11
-233.529
 21
308.928
  0
LINE
  8
0
 10
-233.529
 20
308.928
 11
-233.479
 21
309.445
  0
LINE
  8
0
 10
-233.479
 20
309.445
 11
-233.462
 21
309.965
  0
LINE
  8
0
 10
-233.462
 20
309.965
 11
-233.479
 21
310.484
  0
LINE
  8
0
 10
-233.479
 20
310.484
 11
-233.529
 21
311.002
  0
LINE
  8
0
 10
-233.529
 20
311.002
 11
-233.614
 21
311.515
  0
LINE
  8
0
 10
-233.614
 20
311.515
 11
-233.732
 21
312.021
  0
LINE
  8
0
 10
-233.732
 20
312.021
 11
-233.883
 21
312.519
  0
LINE
  8
0
 10
-233.883
 20
312.519
 11
-234.066
 21
313.005
  0
LINE
  8
0
 10
-234.066
 20
313.005
 11
-234.281
 21
313.479
  0
LINE
  8
0
 10
-234.281
 20
313.479
 11
-234.526
 21
313.937
  0
LINE
  8
0
 10
-234.526
 20
313.937
 11
-234.801
 21
314.378
  0
LINE
  8
0
 10
-234.801
 20
314.378
 11
-235.104
 21
314.801
  0
LINE
  8
0
 10
-235.104
 20
314.801
 11
-235.434
 21
315.203
  0
LINE
  8
0
 10
-235.434
 20
315.203
 11
-235.788
 21
315.582
  0
LINE
  8
0
 10
-235.788
 20
315.582
 11
-236.168
 21
315.938
  0
LINE
  8
0
 10
-236.168
 20
315.938
 11
-236.569
 21
316.268
  0
LINE
  8
0
 10
-236.569
 20
316.268
 11
-236.992
 21
316.57
  0
LINE
  8
0
 10
-236.992
 20
316.57
 11
-237.434
 21
316.845
  0
LINE
  8
0
 10
-237.434
 20
316.845
 11
-237.893
 21
317.09
  0
LINE
  8
0
 10
-237.893
 20
317.09
 11
-238.366
 21
317.305
  0
LINE
  8
0
 10
-238.366
 20
317.305
 11
-238.853
 21
317.487
  0
LINE
  8
0
 10
-238.853
 20
317.487
 11
-239.35
 21
317.639
  0
LINE
  8
0
 10
-239.35
 20
317.639
 11
-239.856
 21
317.757
  0
LINE
  8
0
 10
-239.856
 20
317.757
 11
-240.369
 21
317.841
  0
LINE
  8
0
 10
-240.369
 20
317.841
 11
-240.887
 21
317.893
  0
LINE
  8
0
 10
-240.887
 20
317.893
 11
-241.406
 21
317.909
  0
LINE
  8
0
 10
-241.406
 20
317.909
 11
-277.361
 21
317.909
  0
LINE
  8
0
 10
-277.361
 20
317.909
 11
-277.881
 21
317.893
  0
LINE
  8
0
 10
-277.881
 20
317.893
 11
-278.398
 21
317.842
  0
LINE
  8
0
 10
-278.398
 20
317.842
 11
-278.911
 21
317.757
  0
LINE
  8
0
 10
-278.911
 20
317.757
 11
-279.418
 21
317.639
  0
LINE
  8
0
 10
-279.418
 20
317.639
 11
-279.915
 21
317.487
  0
LINE
  8
0
 10
-279.915
 20
317.487
 11
-280.401
 21
317.305
  0
LINE
  8
0
 10
-280.401
 20
317.305
 11
-280.875
 21
317.09
  0
LINE
  8
0
 10
-280.875
 20
317.09
 11
-281.334
 21
316.845
  0
LINE
  8
0
 10
-281.334
 20
316.845
 11
-281.775
 21
316.57
  0
LINE
  8
0
 10
-281.775
 20
316.57
 11
-282.198
 21
316.268
  0
LINE
  8
0
 10
-282.198
 20
316.268
 11
-282.6
 21
315.938
  0
LINE
  8
0
 10
-282.6
 20
315.938
 11
-282.979
 21
315.582
  0
LINE
  8
0
 10
-282.979
 20
315.582
 11
-283.335
 21
315.203
  0
LINE
  8
0
 10
-283.335
 20
315.203
 11
-283.664
 21
314.801
  0
LINE
  8
0
 10
-283.664
 20
314.801
 11
-283.967
 21
314.379
  0
LINE
  8
0
 10
-283.967
 20
314.379
 11
-284.241
 21
313.938
  0
LINE
  8
0
 10
-284.241
 20
313.938
 11
-284.486
 21
313.479
  0
LINE
  8
0
 10
-284.486
 20
313.479
 11
-284.701
 21
313.005
  0
LINE
  8
0
 10
-284.701
 20
313.005
 11
-284.885
 21
312.519
  0
LINE
  8
0
 10
-284.885
 20
312.519
 11
-285.035
 21
312.021
  0
LINE
  8
0
 10
-285.035
 20
312.021
 11
-285.153
 21
311.515
  0
LINE
  8
0
 10
-285.153
 20
311.515
 11
-285.238
 21
311.002
  0
LINE
  8
0
 10
-285.238
 20
311.002
 11
-285.289
 21
310.484
  0
LINE
  8
0
 10
-285.289
 20
310.484
 11
-285.306
 21
309.965
  0
LINE
  8
0
 10
-285.306
 20
309.965
 11
-285.289
 21
309.445
  0
LINE
  8
0
 10
-285.289
 20
309.445
 11
-285.238
 21
308.928
  0
LINE
  8
0
 10
-285.238
 20
308.928
 11
-285.153
 21
308.415
  0
LINE
  8
0
 10
-285.153
 20
308.415
 11
-285.035
 21
307.909
  0
LINE
  8
0
 10
-285.035
 20
307.909
 11
-284.885
 21
307.411
  0
LINE
  8
0
 10
-284.885
 20
307.411
 11
-284.701
 21
306.925
  0
LINE
  8
0
 10
-284.701
 20
306.925
 11
-284.486
 21
306.451
  0
LINE
  8
0
 10
-284.486
 20
306.451
 11
-284.241
 21
305.992
  0
LINE
  8
0
 10
-284.241
 20
305.992
 11
-283.967
 21
305.551
  0
LINE
  8
0
 10
-283.967
 20
305.551
 11
-283.664
 21
305.129
  0
LINE
  8
0
 10
-283.664
 20
305.129
 11
-283.335
 21
304.727
  0
LINE
  8
0
 10
-283.335
 20
304.727
 11
-282.979
 21
304.348
  0
LINE
  8
0
 10
-282.979
 20
304.348
 11
-282.6
 21
303.992
  0
LINE
  8
0
 10
-282.6
 20
303.992
 11
-282.198
 21
303.662
  0
LINE
  8
0
 10
-282.198
 20
303.662
 11
-281.775
 21
303.359
  0
LINE
  8
0
 10
-281.775
 20
303.359
 11
-281.334
 21
303.085
  0
LINE
  8
0
 10
-281.334
 20
303.085
 11
-280.875
 21
302.84
  0
LINE
  8
0
 10
-280.875
 20
302.84
 11
-280.401
 21
302.625
  0
LINE
  8
0
 10
-280.401
 20
302.625
 11
-279.915
 21
302.442
  0
LINE
  8
0
 10
-279.915
 20
302.442
 11
-279.418
 21
302.291
  0
LINE
  8
0
 10
-279.418
 20
302.291
 11
-278.911
 21
302.173
  0
LINE
  8
0
 10
-278.911
 20
302.173
 11
-278.398
 21
302.088
  0
LINE
  8
0
 10
-278.398
 20
302.088
 11
-277.881
 21
302.037
  0
LINE
  8
0
 10
-277.881
 20
302.037
 11
-277.361
 21
302.021
  0
LINE
  8
0
 10
-277.361
 20
302.021
 11
-241.406
 21
302.021
  0
LINE
  8
0
 10
-241.406
 20
302.021
 11
-240.887
 21
302.037
  0
LINE
  8
0
 10
-277.46
 20
308.468
 11
-277.558
 21
308.478
  0
LINE
  8
0
 10
-277.558
 20
308.478
 11
-277.654
 21
308.494
  0
LINE
  8
0
 10
-277.654
 20
308.494
 11
-277.75
 21
308.516
  0
LINE
  8
0
 10
-277.75
 20
308.516
 11
-277.844
 21
308.545
  0
LINE
  8
0
 10
-277.844
 20
308.545
 11
-277.936
 21
308.579
  0
LINE
  8
0
 10
-277.936
 20
308.579
 11
-278.025
 21
308.619
  0
LINE
  8
0
 10
-278.025
 20
308.619
 11
-278.111
 21
308.666
  0
LINE
  8
0
 10
-278.111
 20
308.666
 11
-278.195
 21
308.718
  0
LINE
  8
0
 10
-278.195
 20
308.718
 11
-278.274
 21
308.774
  0
LINE
  8
0
 10
-278.274
 20
308.774
 11
-278.351
 21
308.837
  0
LINE
  8
0
 10
-278.351
 20
308.837
 11
-278.422
 21
308.904
  0
LINE
  8
0
 10
-278.422
 20
308.904
 11
-278.489
 21
308.976
  0
LINE
  8
0
 10
-278.489
 20
308.976
 11
-278.552
 21
309.052
  0
LINE
  8
0
 10
-278.552
 20
309.052
 11
-278.608
 21
309.132
  0
LINE
  8
0
 10
-278.608
 20
309.132
 11
-278.66
 21
309.215
  0
LINE
  8
0
 10
-278.66
 20
309.215
 11
-278.707
 21
309.302
  0
LINE
  8
0
 10
-278.707
 20
309.302
 11
-278.747
 21
309.391
  0
LINE
  8
0
 10
-278.747
 20
309.391
 11
-278.782
 21
309.482
  0
LINE
  8
0
 10
-278.782
 20
309.482
 11
-278.811
 21
309.576
  0
LINE
  8
0
 10
-278.811
 20
309.576
 11
-278.833
 21
309.672
  0
LINE
  8
0
 10
-278.833
 20
309.672
 11
-278.849
 21
309.77
  0
LINE
  8
0
 10
-278.849
 20
309.77
 11
-278.858
 21
309.867
  0
LINE
  8
0
 10
-278.858
 20
309.867
 11
-278.861
 21
309.965
  0
LINE
  8
0
 10
-278.861
 20
309.965
 11
-278.858
 21
310.062
  0
LINE
  8
0
 10
-278.858
 20
310.062
 11
-278.849
 21
310.161
  0
LINE
  8
0
 10
-278.849
 20
310.161
 11
-278.833
 21
310.258
  0
LINE
  8
0
 10
-278.833
 20
310.258
 11
-278.811
 21
310.354
  0
LINE
  8
0
 10
-278.811
 20
310.354
 11
-278.782
 21
310.447
  0
LINE
  8
0
 10
-278.782
 20
310.447
 11
-278.747
 21
310.539
  0
LINE
  8
0
 10
-278.747
 20
310.539
 11
-278.707
 21
310.628
  0
LINE
  8
0
 10
-278.707
 20
310.628
 11
-278.66
 21
310.715
  0
LINE
  8
0
 10
-278.66
 20
310.715
 11
-278.608
 21
310.798
  0
LINE
  8
0
 10
-278.608
 20
310.798
 11
-278.552
 21
310.878
  0
LINE
  8
0
 10
-278.552
 20
310.878
 11
-278.489
 21
310.954
  0
LINE
  8
0
 10
-278.489
 20
310.954
 11
-278.422
 21
311.025
  0
LINE
  8
0
 10
-278.422
 20
311.025
 11
-278.351
 21
311.093
  0
LINE
  8
0
 10
-278.351
 20
311.093
 11
-278.274
 21
311.155
  0
LINE
  8
0
 10
-278.274
 20
311.155
 11
-278.195
 21
311.212
  0
LINE
  8
0
 10
-278.195
 20
311.212
 11
-278.111
 21
311.264
  0
LINE
  8
0
 10
-278.111
 20
311.264
 11
-278.025
 21
311.311
  0
LINE
  8
0
 10
-278.025
 20
311.311
 11
-277.936
 21
311.351
  0
LINE
  8
0
 10
-277.936
 20
311.351
 11
-277.844
 21
311.386
  0
LINE
  8
0
 10
-277.844
 20
311.386
 11
-277.75
 21
311.414
  0
LINE
  8
0
 10
-277.75
 20
311.414
 11
-277.654
 21
311.437
  0
LINE
  8
0
 10
-277.654
 20
311.437
 11
-277.558
 21
311.452
  0
LINE
  8
0
 10
-277.558
 20
311.452
 11
-277.46
 21
311.462
  0
LINE
  8
0
 10
-277.46
 20
311.462
 11
-277.361
 21
311.465
  0
LINE
  8
0
 10
-277.361
 20
311.465
 11
-277.264
 21
311.462
  0
LINE
  8
0
 10
-277.264
 20
311.462
 11
-277.166
 21
311.452
  0
LINE
  8
0
 10
-277.166
 20
311.452
 11
-277.069
 21
311.437
  0
LINE
  8
0
 10
-277.069
 20
311.437
 11
-276.974
 21
311.414
  0
LINE
  8
0
 10
-276.974
 20
311.414
 11
-276.879
 21
311.386
  0
LINE
  8
0
 10
-276.879
 20
311.386
 11
-276.787
 21
311.351
  0
LINE
  8
0
 10
-276.787
 20
311.351
 11
-276.698
 21
311.311
  0
LINE
  8
0
 10
-276.698
 20
311.311
 11
-276.611
 21
311.264
  0
LINE
  8
0
 10
-276.611
 20
311.264
 11
-276.528
 21
311.212
  0
LINE
  8
0
 10
-276.528
 20
311.212
 11
-276.448
 21
311.155
  0
LINE
  8
0
 10
-276.448
 20
311.155
 11
-276.372
 21
311.093
  0
LINE
  8
0
 10
-276.372
 20
311.093
 11
-276.301
 21
311.025
  0
LINE
  8
0
 10
-276.301
 20
311.025
 11
-276.233
 21
310.954
  0
LINE
  8
0
 10
-276.233
 20
310.954
 11
-276.172
 21
310.878
  0
LINE
  8
0
 10
-276.172
 20
310.878
 11
-276.114
 21
310.798
  0
LINE
  8
0
 10
-276.114
 20
310.798
 11
-276.062
 21
310.715
  0
LINE
  8
0
 10
-276.062
 20
310.715
 11
-276.017
 21
310.628
  0
LINE
  8
0
 10
-276.017
 20
310.628
 11
-275.976
 21
310.539
  0
LINE
  8
0
 10
-275.976
 20
310.539
 11
-275.941
 21
310.447
  0
LINE
  8
0
 10
-275.941
 20
310.447
 11
-275.913
 21
310.354
  0
LINE
  8
0
 10
-275.913
 20
310.354
 11
-275.891
 21
310.258
  0
LINE
  8
0
 10
-275.891
 20
310.258
 11
-275.874
 21
310.161
  0
LINE
  8
0
 10
-275.874
 20
310.161
 11
-275.864
 21
310.062
  0
LINE
  8
0
 10
-275.864
 20
310.062
 11
-275.861
 21
309.965
  0
LINE
  8
0
 10
-275.861
 20
309.965
 11
-275.864
 21
309.867
  0
LINE
  8
0
 10
-275.864
 20
309.867
 11
-275.874
 21
309.77
  0
LINE
  8
0
 10
-275.874
 20
309.77
 11
-275.891
 21
309.672
  0
LINE
  8
0
 10
-275.891
 20
309.672
 11
-275.913
 21
309.576
  0
LINE
  8
0
 10
-275.913
 20
309.576
 11
-275.941
 21
309.482
  0
LINE
  8
0
 10
-275.941
 20
309.482
 11
-275.976
 21
309.391
  0
LINE
  8
0
 10
-275.976
 20
309.391
 11
-276.017
 21
309.302
  0
LINE
  8
0
 10
-276.017
 20
309.302
 11
-276.062
 21
309.215
  0
LINE
  8
0
 10
-276.062
 20
309.215
 11
-276.114
 21
309.132
  0
LINE
  8
0
 10
-276.114
 20
309.132
 11
-276.172
 21
309.052
  0
LINE
  8
0
 10
-276.172
 20
309.052
 11
-276.233
 21
308.976
  0
LINE
  8
0
 10
-276.233
 20
308.976
 11
-276.301
 21
308.904
  0
LINE
  8
0
 10
-276.301
 20
308.904
 11
-276.372
 21
308.837
  0
LINE
  8
0
 10
-276.372
 20
308.837
 11
-276.448
 21
308.774
  0
LINE
  8
0
 10
-276.448
 20
308.774
 11
-276.528
 21
308.718
  0
LINE
  8
0
 10
-276.528
 20
308.718
 11
-276.611
 21
308.666
  0
LINE
  8
0
 10
-276.611
 20
308.666
 11
-276.698
 21
308.619
  0
LINE
  8
0
 10
-276.698
 20
308.619
 11
-276.787
 21
308.579
  0
LINE
  8
0
 10
-276.787
 20
308.579
 11
-276.879
 21
308.545
  0
LINE
  8
0
 10
-276.879
 20
308.545
 11
-276.974
 21
308.516
  0
LINE
  8
0
 10
-276.974
 20
308.516
 11
-277.069
 21
308.494
  0
LINE
  8
0
 10
-277.069
 20
308.494
 11
-277.166
 21
308.478
  0
LINE
  8
0
 10
-277.166
 20
308.478
 11
-277.264
 21
308.468
  0
LINE
  8
0
 10
-277.264
 20
308.468
 11
-277.361
 21
308.465
  0
LINE
  8
0
 10
-277.361
 20
308.465
 11
-277.46
 21
308.468
  0
LINE
  8
0
 10
-241.504
 20
308.432
 11
-241.602
 21
308.441
  0
LINE
  8
0
 10
-241.602
 20
308.441
 11
-241.698
 21
308.457
  0
LINE
  8
0
 10
-241.698
 20
308.457
 11
-241.794
 21
308.479
  0
LINE
  8
0
 10
-241.794
 20
308.479
 11
-241.888
 21
308.508
  0
LINE
  8
0
 10
-241.888
 20
308.508
 11
-241.98
 21
308.543
  0
LINE
  8
0
 10
-241.98
 20
308.543
 11
-242.069
 21
308.583
  0
LINE
  8
0
 10
-242.069
 20
308.583
 11
-242.156
 21
308.63
  0
LINE
  8
0
 10
-242.156
 20
308.63
 11
-242.239
 21
308.682
  0
LINE
  8
0
 10
-242.239
 20
308.682
 11
-242.319
 21
308.738
  0
LINE
  8
0
 10
-242.319
 20
308.738
 11
-242.396
 21
308.801
  0
LINE
  8
0
 10
-242.396
 20
308.801
 11
-242.467
 21
308.868
  0
LINE
  8
0
 10
-242.467
 20
308.868
 11
-242.534
 21
308.939
  0
LINE
  8
0
 10
-242.534
 20
308.939
 11
-242.596
 21
309.016
  0
LINE
  8
0
 10
-242.596
 20
309.016
 11
-242.653
 21
309.096
  0
LINE
  8
0
 10
-242.653
 20
309.096
 11
-242.705
 21
309.179
  0
LINE
  8
0
 10
-242.705
 20
309.179
 11
-242.751
 21
309.266
  0
LINE
  8
0
 10
-242.751
 20
309.266
 11
-242.792
 21
309.354
  0
LINE
  8
0
 10
-242.792
 20
309.354
 11
-242.826
 21
309.446
  0
LINE
  8
0
 10
-242.826
 20
309.446
 11
-242.854
 21
309.54
  0
LINE
  8
0
 10
-242.854
 20
309.54
 11
-242.877
 21
309.636
  0
LINE
  8
0
 10
-242.877
 20
309.636
 11
-242.894
 21
309.732
  0
LINE
  8
0
 10
-242.894
 20
309.732
 11
-242.902
 21
309.83
  0
LINE
  8
0
 10
-242.902
 20
309.83
 11
-242.906
 21
309.929
  0
LINE
  8
0
 10
-242.906
 20
309.929
 11
-242.902
 21
310.026
  0
LINE
  8
0
 10
-242.902
 20
310.026
 11
-242.894
 21
310.124
  0
LINE
  8
0
 10
-242.894
 20
310.124
 11
-242.877
 21
310.222
  0
LINE
  8
0
 10
-242.877
 20
310.222
 11
-242.854
 21
310.316
  0
LINE
  8
0
 10
-242.854
 20
310.316
 11
-242.826
 21
310.411
  0
LINE
  8
0
 10
-242.826
 20
310.411
 11
-242.792
 21
310.503
  0
LINE
  8
0
 10
-242.792
 20
310.503
 11
-242.751
 21
310.592
  0
LINE
  8
0
 10
-242.751
 20
310.592
 11
-242.705
 21
310.679
  0
LINE
  8
0
 10
-242.705
 20
310.679
 11
-242.653
 21
310.762
  0
LINE
  8
0
 10
-242.653
 20
310.762
 11
-242.596
 21
310.842
  0
LINE
  8
0
 10
-242.596
 20
310.842
 11
-242.534
 21
310.918
  0
LINE
  8
0
 10
-242.534
 20
310.918
 11
-242.467
 21
310.989
  0
LINE
  8
0
 10
-242.467
 20
310.989
 11
-242.396
 21
311.057
  0
LINE
  8
0
 10
-242.396
 20
311.057
 11
-242.319
 21
311.118
  0
LINE
  8
0
 10
-242.319
 20
311.118
 11
-242.239
 21
311.176
  0
LINE
  8
0
 10
-242.239
 20
311.176
 11
-242.156
 21
311.228
  0
LINE
  8
0
 10
-242.156
 20
311.228
 11
-242.069
 21
311.273
  0
LINE
  8
0
 10
-242.069
 20
311.273
 11
-241.98
 21
311.314
  0
LINE
  8
0
 10
-241.98
 20
311.314
 11
-241.888
 21
311.349
  0
LINE
  8
0
 10
-241.888
 20
311.349
 11
-241.794
 21
311.378
  0
LINE
  8
0
 10
-241.794
 20
311.378
 11
-241.698
 21
311.399
  0
LINE
  8
0
 10
-241.698
 20
311.399
 11
-241.602
 21
311.416
  0
LINE
  8
0
 10
-241.602
 20
311.416
 11
-241.504
 21
311.426
  0
LINE
  8
0
 10
-241.504
 20
311.426
 11
-241.406
 21
311.429
  0
LINE
  8
0
 10
-241.406
 20
311.429
 11
-241.308
 21
311.426
  0
LINE
  8
0
 10
-241.308
 20
311.426
 11
-241.21
 21
311.416
  0
LINE
  8
0
 10
-241.21
 20
311.416
 11
-241.113
 21
311.399
  0
LINE
  8
0
 10
-241.113
 20
311.399
 11
-241.018
 21
311.378
  0
LINE
  8
0
 10
-241.018
 20
311.378
 11
-240.924
 21
311.349
  0
LINE
  8
0
 10
-240.924
 20
311.349
 11
-240.832
 21
311.314
  0
LINE
  8
0
 10
-240.832
 20
311.314
 11
-240.742
 21
311.273
  0
LINE
  8
0
 10
-240.742
 20
311.273
 11
-240.656
 21
311.228
  0
LINE
  8
0
 10
-240.656
 20
311.228
 11
-240.572
 21
311.176
  0
LINE
  8
0
 10
-240.572
 20
311.176
 11
-240.493
 21
311.118
  0
LINE
  8
0
 10
-240.493
 20
311.118
 11
-240.417
 21
311.057
  0
LINE
  8
0
 10
-240.417
 20
311.057
 11
-240.346
 21
310.989
  0
LINE
  8
0
 10
-240.346
 20
310.989
 11
-240.278
 21
310.918
  0
LINE
  8
0
 10
-240.278
 20
310.918
 11
-240.216
 21
310.842
  0
LINE
  8
0
 10
-240.216
 20
310.842
 11
-240.159
 21
310.762
  0
LINE
  8
0
 10
-240.159
 20
310.762
 11
-240.107
 21
310.679
  0
LINE
  8
0
 10
-240.107
 20
310.679
 11
-240.061
 21
310.592
  0
LINE
  8
0
 10
-240.061
 20
310.592
 11
-240.021
 21
310.503
  0
LINE
  8
0
 10
-240.021
 20
310.503
 11
-239.985
 21
310.411
  0
LINE
  8
0
 10
-239.985
 20
310.411
 11
-239.957
 21
310.316
  0
LINE
  8
0
 10
-239.957
 20
310.316
 11
-239.935
 21
310.222
  0
LINE
  8
0
 10
-239.935
 20
310.222
 11
-239.919
 21
310.124
  0
LINE
  8
0
 10
-239.919
 20
310.124
 11
-239.909
 21
310.026
  0
LINE
  8
0
 10
-239.909
 20
310.026
 11
-239.906
 21
309.929
  0
LINE
  8
0
 10
-239.906
 20
309.929
 11
-239.909
 21
309.83
  0
LINE
  8
0
 10
-239.909
 20
309.83
 11
-239.919
 21
309.732
  0
LINE
  8
0
 10
-239.919
 20
309.732
 11
-239.935
 21
309.636
  0
LINE
  8
0
 10
-239.935
 20
309.636
 11
-239.957
 21
309.54
  0
LINE
  8
0
 10
-239.957
 20
309.54
 11
-239.985
 21
309.446
  0
LINE
  8
0
 10
-239.985
 20
309.446
 11
-240.021
 21
309.354
  0
LINE
  8
0
 10
-240.021
 20
309.354
 11
-240.061
 21
309.266
  0
LINE
  8
0
 10
-240.061
 20
309.266
 11
-240.107
 21
309.179
  0
LINE
  8
0
 10
-240.107
 20
309.179
 11
-240.159
 21
309.096
  0
LINE
  8
0
 10
-240.159
 20
309.096
 11
-240.216
 21
309.016
  0
LINE
  8
0
 10
-240.216
 20
309.016
 11
-240.278
 21
308.939
  0
LINE
  8
0
 10
-240.278
 20
308.939
 11
-240.346
 21
308.868
  0
LINE
  8
0
 10
-240.346
 20
308.868
 11
-240.417
 21
308.801
  0
LINE
  8
0
 10
-240.417
 20
308.801
 11
-240.493
 21
308.738
  0
LINE
  8
0
 10
-240.493
 20
308.738
 11
-240.572
 21
308.682
  0
LINE
  8
0
 10
-240.572
 20
308.682
 11
-240.656
 21
308.63
  0
LINE
  8
0
 10
-240.656
 20
308.63
 11
-240.742
 21
308.583
  0
LINE
  8
0
 10
-240.742
 20
308.583
 11
-240.832
 21
308.543
  0
LINE
  8
0
 10
-240.832
 20
308.543
 11
-240.924
 21
308.508
  0
LINE
  8
0
 10
-240.924
 20
308.508
 11
-241.018
 21
308.479
  0
LINE
  8
0
 10
-241.018
 20
308.479
 11
-241.113
 21
308.457
  0
LINE
  8
0
 10
-241.113
 20
308.457
 11
-241.21
 21
308.441
  0
LINE
  8
0
 10
-241.21
 20
308.441
 11
-241.308
 21
308.432
  0
LINE
  8
0
 10
-241.308
 20
308.432
 11
-241.406
 21
308.429
  0
LINE
  8
0
 10
-241.406
 20
308.429
 11
-241.504
 21
308.432
  0
LINE
  8
0
 10
-240.887
 20
283.037
 11
-240.369
 21
283.088
  0
LINE
  8
0
 10
-240.369
 20
283.088
 11
-239.856
 21
283.173
  0
LINE
  8
0
 10
-239.856
 20
283.173
 11
-239.35
 21
283.291
  0
LINE
  8
0
 10
-239.35
 20
283.291
 11
-238.853
 21
283.442
  0
LINE
  8
0
 10
-238.853
 20
283.442
 11
-238.366
 21
283.625
  0
LINE
  8
0
 10
-238.366
 20
283.625
 11
-237.893
 21
283.84
  0
LINE
  8
0
 10
-237.893
 20
283.84
 11
-237.434
 21
284.085
  0
LINE
  8
0
 10
-237.434
 20
284.085
 11
-236.992
 21
284.359
  0
LINE
  8
0
 10
-236.992
 20
284.359
 11
-236.569
 21
284.662
  0
LINE
  8
0
 10
-236.569
 20
284.662
 11
-236.168
 21
284.992
  0
LINE
  8
0
 10
-236.168
 20
284.992
 11
-235.788
 21
285.348
  0
LINE
  8
0
 10
-235.788
 20
285.348
 11
-235.434
 21
285.727
  0
LINE
  8
0
 10
-235.434
 20
285.727
 11
-235.104
 21
286.129
  0
LINE
  8
0
 10
-235.104
 20
286.129
 11
-234.801
 21
286.551
  0
LINE
  8
0
 10
-234.801
 20
286.551
 11
-234.526
 21
286.992
  0
LINE
  8
0
 10
-234.526
 20
286.992
 11
-234.281
 21
287.451
  0
LINE
  8
0
 10
-234.281
 20
287.451
 11
-234.066
 21
287.925
  0
LINE
  8
0
 10
-234.066
 20
287.925
 11
-233.883
 21
288.411
  0
LINE
  8
0
 10
-233.883
 20
288.411
 11
-233.732
 21
288.908
  0
LINE
  8
0
 10
-233.732
 20
288.908
 11
-233.614
 21
289.415
  0
LINE
  8
0
 10
-233.614
 20
289.415
 11
-233.529
 21
289.928
  0
LINE
  8
0
 10
-233.529
 20
289.928
 11
-233.479
 21
290.445
  0
LINE
  8
0
 10
-233.479
 20
290.445
 11
-233.462
 21
290.965
  0
LINE
  8
0
 10
-233.462
 20
290.965
 11
-233.479
 21
291.484
  0
LINE
  8
0
 10
-233.479
 20
291.484
 11
-233.529
 21
292.002
  0
LINE
  8
0
 10
-233.529
 20
292.002
 11
-233.614
 21
292.515
  0
LINE
  8
0
 10
-233.614
 20
292.515
 11
-233.732
 21
293.021
  0
LINE
  8
0
 10
-233.732
 20
293.021
 11
-233.883
 21
293.519
  0
LINE
  8
0
 10
-233.883
 20
293.519
 11
-234.066
 21
294.005
  0
LINE
  8
0
 10
-234.066
 20
294.005
 11
-234.281
 21
294.479
  0
LINE
  8
0
 10
-234.281
 20
294.479
 11
-234.526
 21
294.937
  0
LINE
  8
0
 10
-234.526
 20
294.937
 11
-234.801
 21
295.378
  0
LINE
  8
0
 10
-234.801
 20
295.378
 11
-235.104
 21
295.801
  0
LINE
  8
0
 10
-235.104
 20
295.801
 11
-235.434
 21
296.203
  0
LINE
  8
0
 10
-235.434
 20
296.203
 11
-235.788
 21
296.582
  0
LINE
  8
0
 10
-235.788
 20
296.582
 11
-236.168
 21
296.938
  0
LINE
  8
0
 10
-236.168
 20
296.938
 11
-236.569
 21
297.268
  0
LINE
  8
0
 10
-236.569
 20
297.268
 11
-236.992
 21
297.57
  0
LINE
  8
0
 10
-236.992
 20
297.57
 11
-237.434
 21
297.845
  0
LINE
  8
0
 10
-237.434
 20
297.845
 11
-237.893
 21
298.09
  0
LINE
  8
0
 10
-237.893
 20
298.09
 11
-238.366
 21
298.305
  0
LINE
  8
0
 10
-238.366
 20
298.305
 11
-238.853
 21
298.487
  0
LINE
  8
0
 10
-238.853
 20
298.487
 11
-239.35
 21
298.639
  0
LINE
  8
0
 10
-239.35
 20
298.639
 11
-239.856
 21
298.757
  0
LINE
  8
0
 10
-239.856
 20
298.757
 11
-240.369
 21
298.841
  0
LINE
  8
0
 10
-240.369
 20
298.841
 11
-240.887
 21
298.893
  0
LINE
  8
0
 10
-240.887
 20
298.893
 11
-241.406
 21
298.909
  0
LINE
  8
0
 10
-241.406
 20
298.909
 11
-277.361
 21
298.909
  0
LINE
  8
0
 10
-277.361
 20
298.909
 11
-277.881
 21
298.893
  0
LINE
  8
0
 10
-277.881
 20
298.893
 11
-278.398
 21
298.842
  0
LINE
  8
0
 10
-278.398
 20
298.842
 11
-278.911
 21
298.757
  0
LINE
  8
0
 10
-278.911
 20
298.757
 11
-279.418
 21
298.639
  0
LINE
  8
0
 10
-279.418
 20
298.639
 11
-279.915
 21
298.487
  0
LINE
  8
0
 10
-279.915
 20
298.487
 11
-280.401
 21
298.305
  0
LINE
  8
0
 10
-280.401
 20
298.305
 11
-280.875
 21
298.09
  0
LINE
  8
0
 10
-280.875
 20
298.09
 11
-281.334
 21
297.845
  0
LINE
  8
0
 10
-281.334
 20
297.845
 11
-281.775
 21
297.57
  0
LINE
  8
0
 10
-281.775
 20
297.57
 11
-282.198
 21
297.268
  0
LINE
  8
0
 10
-282.198
 20
297.268
 11
-282.6
 21
296.938
  0
LINE
  8
0
 10
-282.6
 20
296.938
 11
-282.979
 21
296.582
  0
LINE
  8
0
 10
-282.979
 20
296.582
 11
-283.335
 21
296.203
  0
LINE
  8
0
 10
-283.335
 20
296.203
 11
-283.664
 21
295.801
  0
LINE
  8
0
 10
-283.664
 20
295.801
 11
-283.967
 21
295.379
  0
LINE
  8
0
 10
-283.967
 20
295.379
 11
-284.241
 21
294.938
  0
LINE
  8
0
 10
-284.241
 20
294.938
 11
-284.486
 21
294.479
  0
LINE
  8
0
 10
-284.486
 20
294.479
 11
-284.701
 21
294.005
  0
LINE
  8
0
 10
-284.701
 20
294.005
 11
-284.885
 21
293.519
  0
LINE
  8
0
 10
-284.885
 20
293.519
 11
-285.035
 21
293.021
  0
LINE
  8
0
 10
-285.035
 20
293.021
 11
-285.153
 21
292.515
  0
LINE
  8
0
 10
-285.153
 20
292.515
 11
-285.238
 21
292.002
  0
LINE
  8
0
 10
-285.238
 20
292.002
 11
-285.289
 21
291.484
  0
LINE
  8
0
 10
-285.289
 20
291.484
 11
-285.306
 21
290.965
  0
LINE
  8
0
 10
-285.306
 20
290.965
 11
-285.289
 21
290.445
  0
LINE
  8
0
 10
-285.289
 20
290.445
 11
-285.238
 21
289.928
  0
LINE
  8
0
 10
-285.238
 20
289.928
 11
-285.153
 21
289.415
  0
LINE
  8
0
 10
-285.153
 20
289.415
 11
-285.035
 21
288.909
  0
LINE
  8
0
 10
-285.035
 20
288.909
 11
-284.885
 21
288.411
  0
LINE
  8
0
 10
-284.885
 20
288.411
 11
-284.701
 21
287.925
  0
LINE
  8
0
 10
-284.701
 20
287.925
 11
-284.486
 21
287.451
  0
LINE
  8
0
 10
-284.486
 20
287.451
 11
-284.241
 21
286.992
  0
LINE
  8
0
 10
-284.241
 20
286.992
 11
-283.967
 21
286.551
  0
LINE
  8
0
 10
-283.967
 20
286.551
 11
-283.664
 21
286.129
  0
LINE
  8
0
 10
-283.664
 20
286.129
 11
-283.335
 21
285.727
  0
LINE
  8
0
 10
-283.335
 20
285.727
 11
-282.979
 21
285.348
  0
LINE
  8
0
 10
-282.979
 20
285.348
 11
-282.6
 21
284.992
  0
LINE
  8
0
 10
-282.6
 20
284.992
 11
-282.198
 21
284.662
  0
LINE
  8
0
 10
-282.198
 20
284.662
 11
-281.775
 21
284.359
  0
LINE
  8
0
 10
-281.775
 20
284.359
 11
-281.334
 21
284.085
  0
LINE
  8
0
 10
-281.334
 20
284.085
 11
-280.875
 21
283.84
  0
LINE
  8
0
 10
-280.875
 20
283.84
 11
-280.401
 21
283.625
  0
LINE
  8
0
 10
-280.401
 20
283.625
 11
-279.915
 21
283.442
  0
LINE
  8
0
 10
-279.915
 20
283.442
 11
-279.418
 21
283.291
  0
LINE
  8
0
 10
-279.418
 20
283.291
 11
-278.911
 21
283.173
  0
LINE
  8
0
 10
-278.911
 20
283.173
 11
-278.398
 21
283.088
  0
LINE
  8
0
 10
-278.398
 20
283.088
 11
-277.881
 21
283.037
  0
LINE
  8
0
 10
-277.881
 20
283.037
 11
-277.361
 21
283.021
  0
LINE
  8
0
 10
-277.361
 20
283.021
 11
-241.406
 21
283.021
  0
LINE
  8
0
 10
-241.406
 20
283.021
 11
-240.887
 21
283.037
  0
LINE
  8
0
 10
-277.46
 20
289.468
 11
-277.558
 21
289.478
  0
LINE
  8
0
 10
-277.558
 20
289.478
 11
-277.654
 21
289.494
  0
LINE
  8
0
 10
-277.654
 20
289.494
 11
-277.75
 21
289.516
  0
LINE
  8
0
 10
-277.75
 20
289.516
 11
-277.844
 21
289.545
  0
LINE
  8
0
 10
-277.844
 20
289.545
 11
-277.936
 21
289.579
  0
LINE
  8
0
 10
-277.936
 20
289.579
 11
-278.025
 21
289.619
  0
LINE
  8
0
 10
-278.025
 20
289.619
 11
-278.111
 21
289.666
  0
LINE
  8
0
 10
-278.111
 20
289.666
 11
-278.195
 21
289.718
  0
LINE
  8
0
 10
-278.195
 20
289.718
 11
-278.274
 21
289.774
  0
LINE
  8
0
 10
-278.274
 20
289.774
 11
-278.351
 21
289.837
  0
LINE
  8
0
 10
-278.351
 20
289.837
 11
-278.422
 21
289.904
  0
LINE
  8
0
 10
-278.422
 20
289.904
 11
-278.489
 21
289.976
  0
LINE
  8
0
 10
-278.489
 20
289.976
 11
-278.552
 21
290.052
  0
LINE
  8
0
 10
-278.552
 20
290.052
 11
-278.608
 21
290.132
  0
LINE
  8
0
 10
-278.608
 20
290.132
 11
-278.66
 21
290.215
  0
LINE
  8
0
 10
-278.66
 20
290.215
 11
-278.707
 21
290.302
  0
LINE
  8
0
 10
-278.707
 20
290.302
 11
-278.747
 21
290.391
  0
LINE
  8
0
 10
-278.747
 20
290.391
 11
-278.782
 21
290.482
  0
LINE
  8
0
 10
-278.782
 20
290.482
 11
-278.811
 21
290.576
  0
LINE
  8
0
 10
-278.811
 20
290.576
 11
-278.833
 21
290.672
  0
LINE
  8
0
 10
-278.833
 20
290.672
 11
-278.849
 21
290.77
  0
LINE
  8
0
 10
-278.849
 20
290.77
 11
-278.858
 21
290.867
  0
LINE
  8
0
 10
-278.858
 20
290.867
 11
-278.861
 21
290.965
  0
LINE
  8
0
 10
-278.861
 20
290.965
 11
-278.858
 21
291.062
  0
LINE
  8
0
 10
-278.858
 20
291.062
 11
-278.849
 21
291.161
  0
LINE
  8
0
 10
-278.849
 20
291.161
 11
-278.833
 21
291.258
  0
LINE
  8
0
 10
-278.833
 20
291.258
 11
-278.811
 21
291.354
  0
LINE
  8
0
 10
-278.811
 20
291.354
 11
-278.782
 21
291.447
  0
LINE
  8
0
 10
-278.782
 20
291.447
 11
-278.747
 21
291.539
  0
LINE
  8
0
 10
-278.747
 20
291.539
 11
-278.707
 21
291.628
  0
LINE
  8
0
 10
-278.707
 20
291.628
 11
-278.66
 21
291.715
  0
LINE
  8
0
 10
-278.66
 20
291.715
 11
-278.608
 21
291.798
  0
LINE
  8
0
 10
-278.608
 20
291.798
 11
-278.552
 21
291.878
  0
LINE
  8
0
 10
-278.552
 20
291.878
 11
-278.489
 21
291.954
  0
LINE
  8
0
 10
-278.489
 20
291.954
 11
-278.422
 21
292.025
  0
LINE
  8
0
 10
-278.422
 20
292.025
 11
-278.351
 21
292.093
  0
LINE
  8
0
 10
-278.351
 20
292.093
 11
-278.274
 21
292.155
  0
LINE
  8
0
 10
-278.274
 20
292.155
 11
-278.195
 21
292.212
  0
LINE
  8
0
 10
-278.195
 20
292.212
 11
-278.111
 21
292.264
  0
LINE
  8
0
 10
-278.111
 20
292.264
 11
-278.025
 21
292.311
  0
LINE
  8
0
 10
-278.025
 20
292.311
 11
-277.936
 21
292.351
  0
LINE
  8
0
 10
-277.936
 20
292.351
 11
-277.844
 21
292.386
  0
LINE
  8
0
 10
-277.844
 20
292.386
 11
-277.75
 21
292.414
  0
LINE
  8
0
 10
-277.75
 20
292.414
 11
-277.654
 21
292.437
  0
LINE
  8
0
 10
-277.654
 20
292.437
 11
-277.558
 21
292.452
  0
LINE
  8
0
 10
-277.558
 20
292.452
 11
-277.46
 21
292.462
  0
LINE
  8
0
 10
-277.46
 20
292.462
 11
-277.361
 21
292.465
  0
LINE
  8
0
 10
-277.361
 20
292.465
 11
-277.264
 21
292.462
  0
LINE
  8
0
 10
-277.264
 20
292.462
 11
-277.166
 21
292.452
  0
LINE
  8
0
 10
-277.166
 20
292.452
 11
-277.069
 21
292.437
  0
LINE
  8
0
 10
-277.069
 20
292.437
 11
-276.974
 21
292.414
  0
LINE
  8
0
 10
-276.974
 20
292.414
 11
-276.879
 21
292.386
  0
LINE
  8
0
 10
-276.879
 20
292.386
 11
-276.787
 21
292.351
  0
LINE
  8
0
 10
-276.787
 20
292.351
 11
-276.698
 21
292.311
  0
LINE
  8
0
 10
-276.698
 20
292.311
 11
-276.611
 21
292.264
  0
LINE
  8
0
 10
-276.611
 20
292.264
 11
-276.528
 21
292.212
  0
LINE
  8
0
 10
-276.528
 20
292.212
 11
-276.448
 21
292.155
  0
LINE
  8
0
 10
-276.448
 20
292.155
 11
-276.372
 21
292.093
  0
LINE
  8
0
 10
-276.372
 20
292.093
 11
-276.301
 21
292.025
  0
LINE
  8
0
 10
-276.301
 20
292.025
 11
-276.233
 21
291.954
  0
LINE
  8
0
 10
-276.233
 20
291.954
 11
-276.172
 21
291.878
  0
LINE
  8
0
 10
-276.172
 20
291.878
 11
-276.114
 21
291.798
  0
LINE
  8
0
 10
-276.114
 20
291.798
 11
-276.062
 21
291.715
  0
LINE
  8
0
 10
-276.062
 20
291.715
 11
-276.017
 21
291.628
  0
LINE
  8
0
 10
-276.017
 20
291.628
 11
-275.976
 21
291.539
  0
LINE
  8
0
 10
-275.976
 20
291.539
 11
-275.941
 21
291.447
  0
LINE
  8
0
 10
-275.941
 20
291.447
 11
-275.913
 21
291.354
  0
LINE
  8
0
 10
-275.913
 20
291.354
 11
-275.891
 21
291.258
  0
LINE
  8
0
 10
-275.891
 20
291.258
 11
-275.874
 21
291.161
  0
LINE
  8
0
 10
-275.874
 20
291.161
 11
-275.864
 21
291.062
  0
LINE
  8
0
 10
-275.864
 20
291.062
 11
-275.861
 21
290.965
  0
LINE
  8
0
 10
-275.861
 20
290.965
 11
-275.864
 21
290.867
  0
LINE
  8
0
 10
-275.864
 20
290.867
 11
-275.874
 21
290.77
  0
LINE
  8
0
 10
-275.874
 20
290.77
 11
-275.891
 21
290.672
  0
LINE
  8
0
 10
-275.891
 20
290.672
 11
-275.913
 21
290.576
  0
LINE
  8
0
 10
-275.913
 20
290.576
 11
-275.941
 21
290.482
  0
LINE
  8
0
 10
-275.941
 20
290.482
 11
-275.976
 21
290.391
  0
LINE
  8
0
 10
-275.976
 20
290.391
 11
-276.017
 21
290.302
  0
LINE
  8
0
 10
-276.017
 20
290.302
 11
-276.062
 21
290.215
  0
LINE
  8
0
 10
-276.062
 20
290.215
 11
-276.114
 21
290.132
  0
LINE
  8
0
 10
-276.114
 20
290.132
 11
-276.172
 21
290.052
  0
LINE
  8
0
 10
-276.172
 20
290.052
 11
-276.233
 21
289.976
  0
LINE
  8
0
 10
-276.233
 20
289.976
 11
-276.301
 21
289.904
  0
LINE
  8
0
 10
-276.301
 20
289.904
 11
-276.372
 21
289.837
  0
LINE
  8
0
 10
-276.372
 20
289.837
 11
-276.448
 21
289.774
  0
LINE
  8
0
 10
-276.448
 20
289.774
 11
-276.528
 21
289.718
  0
LINE
  8
0
 10
-276.528
 20
289.718
 11
-276.611
 21
289.666
  0
LINE
  8
0
 10
-276.611
 20
289.666
 11
-276.698
 21
289.619
  0
LINE
  8
0
 10
-276.698
 20
289.619
 11
-276.787
 21
289.579
  0
LINE
  8
0
 10
-276.787
 20
289.579
 11
-276.879
 21
289.545
  0
LINE
  8
0
 10
-276.879
 20
289.545
 11
-276.974
 21
289.516
  0
LINE
  8
0
 10
-276.974
 20
289.516
 11
-277.069
 21
289.494
  0
LINE
  8
0
 10
-277.069
 20
289.494
 11
-277.166
 21
289.478
  0
LINE
  8
0
 10
-277.166
 20
289.478
 11
-277.264
 21
289.468
  0
LINE
  8
0
 10
-277.264
 20
289.468
 11
-277.361
 21
289.465
  0
LINE
  8
0
 10
-277.361
 20
289.465
 11
-277.46
 21
289.468
  0
LINE
  8
0
 10
-241.504
 20
289.432
 11
-241.602
 21
289.441
  0
LINE
  8
0
 10
-241.602
 20
289.441
 11
-241.698
 21
289.457
  0
LINE
  8
0
 10
-241.698
 20
289.457
 11
-241.794
 21
289.479
  0
LINE
  8
0
 10
-241.794
 20
289.479
 11
-241.888
 21
289.508
  0
LINE
  8
0
 10
-241.888
 20
289.508
 11
-241.98
 21
289.543
  0
LINE
  8
0
 10
-241.98
 20
289.543
 11
-242.069
 21
289.583
  0
LINE
  8
0
 10
-242.069
 20
289.583
 11
-242.156
 21
289.63
  0
LINE
  8
0
 10
-242.156
 20
289.63
 11
-242.239
 21
289.682
  0
LINE
  8
0
 10
-242.239
 20
289.682
 11
-242.319
 21
289.738
  0
LINE
  8
0
 10
-242.319
 20
289.738
 11
-242.396
 21
289.801
  0
LINE
  8
0
 10
-242.396
 20
289.801
 11
-242.467
 21
289.868
  0
LINE
  8
0
 10
-242.467
 20
289.868
 11
-242.534
 21
289.939
  0
LINE
  8
0
 10
-242.534
 20
289.939
 11
-242.596
 21
290.016
  0
LINE
  8
0
 10
-242.596
 20
290.016
 11
-242.653
 21
290.096
  0
LINE
  8
0
 10
-242.653
 20
290.096
 11
-242.705
 21
290.179
  0
LINE
  8
0
 10
-242.705
 20
290.179
 11
-242.751
 21
290.266
  0
LINE
  8
0
 10
-242.751
 20
290.266
 11
-242.792
 21
290.354
  0
LINE
  8
0
 10
-242.792
 20
290.354
 11
-242.826
 21
290.446
  0
LINE
  8
0
 10
-242.826
 20
290.446
 11
-242.854
 21
290.54
  0
LINE
  8
0
 10
-242.854
 20
290.54
 11
-242.877
 21
290.636
  0
LINE
  8
0
 10
-242.877
 20
290.636
 11
-242.894
 21
290.732
  0
LINE
  8
0
 10
-242.894
 20
290.732
 11
-242.902
 21
290.83
  0
LINE
  8
0
 10
-242.902
 20
290.83
 11
-242.906
 21
290.929
  0
LINE
  8
0
 10
-242.906
 20
290.929
 11
-242.902
 21
291.026
  0
LINE
  8
0
 10
-242.902
 20
291.026
 11
-242.894
 21
291.124
  0
LINE
  8
0
 10
-242.894
 20
291.124
 11
-242.877
 21
291.222
  0
LINE
  8
0
 10
-242.877
 20
291.222
 11
-242.854
 21
291.316
  0
LINE
  8
0
 10
-242.854
 20
291.316
 11
-242.826
 21
291.411
  0
LINE
  8
0
 10
-242.826
 20
291.411
 11
-242.792
 21
291.503
  0
LINE
  8
0
 10
-242.792
 20
291.503
 11
-242.751
 21
291.592
  0
LINE
  8
0
 10
-242.751
 20
291.592
 11
-242.705
 21
291.679
  0
LINE
  8
0
 10
-242.705
 20
291.679
 11
-242.653
 21
291.762
  0
LINE
  8
0
 10
-242.653
 20
291.762
 11
-242.596
 21
291.842
  0
LINE
  8
0
 10
-242.596
 20
291.842
 11
-242.534
 21
291.918
  0
LINE
  8
0
 10
-242.534
 20
291.918
 11
-242.467
 21
291.989
  0
LINE
  8
0
 10
-242.467
 20
291.989
 11
-242.396
 21
292.057
  0
LINE
  8
0
 10
-242.396
 20
292.057
 11
-242.319
 21
292.118
  0
LINE
  8
0
 10
-242.319
 20
292.118
 11
-242.239
 21
292.176
  0
LINE
  8
0
 10
-242.239
 20
292.176
 11
-242.156
 21
292.228
  0
LINE
  8
0
 10
-242.156
 20
292.228
 11
-242.069
 21
292.273
  0
LINE
  8
0
 10
-242.069
 20
292.273
 11
-241.98
 21
292.314
  0
LINE
  8
0
 10
-241.98
 20
292.314
 11
-241.888
 21
292.349
  0
LINE
  8
0
 10
-241.888
 20
292.349
 11
-241.794
 21
292.378
  0
LINE
  8
0
 10
-241.794
 20
292.378
 11
-241.698
 21
292.399
  0
LINE
  8
0
 10
-241.698
 20
292.399
 11
-241.602
 21
292.416
  0
LINE
  8
0
 10
-241.602
 20
292.416
 11
-241.504
 21
292.426
  0
LINE
  8
0
 10
-241.504
 20
292.426
 11
-241.406
 21
292.429
  0
LINE
  8
0
 10
-241.406
 20
292.429
 11
-241.308
 21
292.426
  0
LINE
  8
0
 10
-241.308
 20
292.426
 11
-241.21
 21
292.416
  0
LINE
  8
0
 10
-241.21
 20
292.416
 11
-241.113
 21
292.399
  0
LINE
  8
0
 10
-241.113
 20
292.399
 11
-241.018
 21
292.378
  0
LINE
  8
0
 10
-241.018
 20
292.378
 11
-240.924
 21
292.349
  0
LINE
  8
0
 10
-240.924
 20
292.349
 11
-240.832
 21
292.314
  0
LINE
  8
0
 10
-240.832
 20
292.314
 11
-240.742
 21
292.273
  0
LINE
  8
0
 10
-240.742
 20
292.273
 11
-240.656
 21
292.228
  0
LINE
  8
0
 10
-240.656
 20
292.228
 11
-240.572
 21
292.176
  0
LINE
  8
0
 10
-240.572
 20
292.176
 11
-240.493
 21
292.118
  0
LINE
  8
0
 10
-240.493
 20
292.118
 11
-240.417
 21
292.057
  0
LINE
  8
0
 10
-240.417
 20
292.057
 11
-240.346
 21
291.989
  0
LINE
  8
0
 10
-240.346
 20
291.989
 11
-240.278
 21
291.918
  0
LINE
  8
0
 10
-240.278
 20
291.918
 11
-240.216
 21
291.842
  0
LINE
  8
0
 10
-240.216
 20
291.842
 11
-240.159
 21
291.762
  0
LINE
  8
0
 10
-240.159
 20
291.762
 11
-240.107
 21
291.679
  0
LINE
  8
0
 10
-240.107
 20
291.679
 11
-240.061
 21
291.592
  0
LINE
  8
0
 10
-240.061
 20
291.592
 11
-240.021
 21
291.503
  0
LINE
  8
0
 10
-240.021
 20
291.503
 11
-239.985
 21
291.411
  0
LINE
  8
0
 10
-239.985
 20
291.411
 11
-239.957
 21
291.316
  0
LINE
  8
0
 10
-239.957
 20
291.316
 11
-239.935
 21
291.222
  0
LINE
  8
0
 10
-239.935
 20
291.222
 11
-239.919
 21
291.124
  0
LINE
  8
0
 10
-239.919
 20
291.124
 11
-239.909
 21
291.026
  0
LINE
  8
0
 10
-239.909
 20
291.026
 11
-239.906
 21
290.929
  0
LINE
  8
0
 10
-239.906
 20
290.929
 11
-239.909
 21
290.83
  0
LINE
  8
0
 10
-239.909
 20
290.83
 11
-239.919
 21
290.732
  0
LINE
  8
0
 10
-239.919
 20
290.732
 11
-239.935
 21
290.636
  0
LINE
  8
0
 10
-239.935
 20
290.636
 11
-239.957
 21
290.54
  0
LINE
  8
0
 10
-239.957
 20
290.54
 11
-239.985
 21
290.446
  0
LINE
  8
0
 10
-239.985
 20
290.446
 11
-240.021
 21
290.354
  0
LINE
  8
0
 10
-240.021
 20
290.354
 11
-240.061
 21
290.266
  0
LINE
  8
0
 10
-240.061
 20
290.266
 11
-240.107
 21
290.179
  0
LINE
  8
0
 10
-240.107
 20
290.179
 11
-240.159
 21
290.096
  0
LINE
  8
0
 10
-240.159
 20
290.096
 11
-240.216
 21
290.016
  0
LINE
  8
0
 10
-240.216
 20
290.016
 11
-240.278
 21
289.939
  0
LINE
  8
0
 10
-240.278
 20
289.939
 11
-240.346
 21
289.868
  0
LINE
  8
0
 10
-240.346
 20
289.868
 11
-240.417
 21
289.801
  0
LINE
  8
0
 10
-240.417
 20
289.801
 11
-240.493
 21
289.738
  0
LINE
  8
0
 10
-240.493
 20
289.738
 11
-240.572
 21
289.682
  0
LINE
  8
0
 10
-240.572
 20
289.682
 11
-240.656
 21
289.63
  0
LINE
  8
0
 10
-240.656
 20
289.63
 11
-240.742
 21
289.583
  0
LINE
  8
0
 10
-240.742
 20
289.583
 11
-240.832
 21
289.543
  0
LINE
  8
0
 10
-240.832
 20
289.543
 11
-240.924
 21
289.508
  0
LINE
  8
0
 10
-240.924
 20
289.508
 11
-241.018
 21
289.479
  0
LINE
  8
0
 10
-241.018
 20
289.479
 11
-241.113
 21
289.457
  0
LINE
  8
0
 10
-241.113
 20
289.457
 11
-241.21
 21
289.441
  0
LINE
  8
0
 10
-241.21
 20
289.441
 11
-241.308
 21
289.432
  0
LINE
  8
0
 10
-241.308
 20
289.432
 11
-241.406
 21
289.429
  0
LINE
  8
0
 10
-241.406
 20
289.429
 11
-241.504
 21
289.432
  0
LINE
  8
0
 10
-207.522
 20
74.5166
 11
-207.884
 21
74.667
  0
LINE
  8
0
 10
-207.884
 20
74.667
 11
-208.194
 21
74.9062
  0
LINE
  8
0
 10
-208.194
 20
74.9062
 11
-208.432
 21
75.2168
  0
LINE
  8
0
 10
-208.432
 20
75.2168
 11
-208.581
 21
75.5791
  0
LINE
  8
0
 10
-208.581
 20
75.5791
 11
-208.632
 21
75.9678
  0
LINE
  8
0
 10
-208.632
 20
75.9678
 11
-208.58
 21
76.3555
  0
LINE
  8
0
 10
-208.58
 20
76.3555
 11
-208.43
 21
76.7168
  0
LINE
  8
0
 10
-208.43
 20
76.7168
 11
-208.19
 21
77.0273
  0
LINE
  8
0
 10
-208.19
 20
77.0273
 11
-207.879
 21
77.2646
  0
LINE
  8
0
 10
-207.879
 20
77.2646
 11
-207.518
 21
77.4141
  0
LINE
  8
0
 10
-207.518
 20
77.4141
 11
-207.129
 21
77.4648
  0
LINE
  8
0
 10
-207.129
 20
77.4648
 11
-206.741
 21
77.4131
  0
LINE
  8
0
 10
-206.741
 20
77.4131
 11
-206.379
 21
77.2627
  0
LINE
  8
0
 10
-206.379
 20
77.2627
 11
-206.069
 21
77.0234
  0
LINE
  8
0
 10
-206.069
 20
77.0234
 11
-205.831
 21
76.7119
  0
LINE
  8
0
 10
-205.831
 20
76.7119
 11
-205.682
 21
76.3506
  0
LINE
  8
0
 10
-205.682
 20
76.3506
 11
-205.632
 21
75.9619
  0
LINE
  8
0
 10
-205.632
 20
75.9619
 11
-205.684
 21
75.5742
  0
LINE
  8
0
 10
-205.684
 20
75.5742
 11
-205.834
 21
75.2119
  0
LINE
  8
0
 10
-205.834
 20
75.2119
 11
-206.073
 21
74.9023
  0
LINE
  8
0
 10
-206.073
 20
74.9023
 11
-206.384
 21
74.6641
  0
LINE
  8
0
 10
-206.384
 20
74.6641
 11
-206.746
 21
74.5146
  0
LINE
  8
0
 10
-206.746
 20
74.5146
 11
-207.134
 21
74.4648
  0
LINE
  8
0
 10
-207.134
 20
74.4648
 11
-207.522
 21
74.5166
  0
LINE
  8
0
 10
-121.52
 20
74.5156
 11
-121.882
 21
74.666
  0
LINE
  8
0
 10
-121.882
 20
74.666
 11
-122.192
 21
74.9043
  0
LINE
  8
0
 10
-122.192
 20
74.9043
 11
-122.431
 21
75.2148
  0
LINE
  8
0
 10
-122.431
 20
75.2148
 11
-122.58
 21
75.5762
  0
LINE
  8
0
 10
-122.58
 20
75.5762
 11
-122.632
 21
75.9648
  0
LINE
  8
0
 10
-122.632
 20
75.9648
 11
-122.58
 21
76.3525
  0
LINE
  8
0
 10
-122.58
 20
76.3525
 11
-122.431
 21
76.7148
  0
LINE
  8
0
 10
-122.431
 20
76.7148
 11
-122.192
 21
77.0254
  0
LINE
  8
0
 10
-122.192
 20
77.0254
 11
-121.882
 21
77.2637
  0
LINE
  8
0
 10
-121.882
 20
77.2637
 11
-121.52
 21
77.4131
  0
LINE
  8
0
 10
-121.52
 20
77.4131
 11
-121.132
 21
77.4648
  0
LINE
  8
0
 10
-121.132
 20
77.4648
 11
-120.743
 21
77.4131
  0
LINE
  8
0
 10
-120.743
 20
77.4131
 11
-120.382
 21
77.2637
  0
LINE
  8
0
 10
-120.382
 20
77.2637
 11
-120.071
 21
77.0254
  0
LINE
  8
0
 10
-120.071
 20
77.0254
 11
-119.833
 21
76.7148
  0
LINE
  8
0
 10
-119.833
 20
76.7148
 11
-119.683
 21
76.3525
  0
LINE
  8
0
 10
-119.683
 20
76.3525
 11
-119.632
 21
75.9648
  0
LINE
  8
0
 10
-119.632
 20
75.9648
 11
-119.683
 21
75.5762
  0
LINE
  8
0
 10
-119.683
 20
75.5762
 11
-119.833
 21
75.2148
  0
LINE
  8
0
 10
-119.833
 20
75.2148
 11
-120.071
 21
74.9043
  0
LINE
  8
0
 10
-120.071
 20
74.9043
 11
-120.382
 21
74.666
  0
LINE
  8
0
 10
-120.382
 20
74.666
 11
-120.743
 21
74.5156
  0
LINE
  8
0
 10
-120.743
 20
74.5156
 11
-121.132
 21
74.4648
  0
LINE
  8
0
 10
-121.132
 20
74.4648
 11
-121.52
 21
74.5156
  0
LINE
  8
0
 10
-131.699
 20
69.166
 11
-131.882
 21
69.2559
  0
LINE
  8
0
 10
-131.882
 20
69.2559
 11
-131.934
 21
69.2812
  0
LINE
  8
0
 10
-131.934
 20
69.2812
 11
-132.131
 21
69.4521
  0
LINE
  8
0
 10
-132.131
 20
69.4521
 11
-132.24
 21
69.6143
  0
LINE
  8
0
 10
-132.24
 20
69.6143
 11
-132.276
 21
69.6689
  0
LINE
  8
0
 10
-132.276
 20
69.6689
 11
-132.361
 21
69.916
  0
LINE
  8
0
 10
-132.361
 20
69.916
 11
-132.38
 21
70.1758
  0
LINE
  8
0
 10
-132.38
 20
70.1758
 11
-132.33
 21
70.4326
  0
LINE
  8
0
 10
-132.33
 20
70.4326
 11
-132.241
 21
70.6143
  0
LINE
  8
0
 10
-132.241
 20
70.6143
 11
-132.215
 21
70.667
  0
LINE
  8
0
 10
-132.215
 20
70.667
 11
-132.044
 21
70.8643
  0
LINE
  8
0
 10
-132.044
 20
70.8643
 11
-131.882
 21
70.9736
  0
LINE
  8
0
 10
-131.882
 20
70.9736
 11
-131.827
 21
71.0098
  0
LINE
  8
0
 10
-131.827
 20
71.0098
 11
-131.58
 21
71.0947
  0
LINE
  8
0
 10
-131.58
 20
71.0947
 11
-131.32
 21
71.1123
  0
LINE
  8
0
 10
-131.32
 20
71.1123
 11
-131.063
 21
71.0625
  0
LINE
  8
0
 10
-131.063
 20
71.0625
 11
-130.882
 21
70.9736
  0
LINE
  8
0
 10
-130.882
 20
70.9736
 11
-130.829
 21
70.9482
  0
LINE
  8
0
 10
-130.829
 20
70.9482
 11
-130.633
 21
70.7773
  0
LINE
  8
0
 10
-130.633
 20
70.7773
 11
-130.523
 21
70.6143
  0
LINE
  8
0
 10
-130.523
 20
70.6143
 11
-130.486
 21
70.5605
  0
LINE
  8
0
 10
-130.486
 20
70.5605
 11
-130.401
 21
70.3135
  0
LINE
  8
0
 10
-130.401
 20
70.3135
 11
-130.384
 21
70.0527
  0
LINE
  8
0
 10
-130.384
 20
70.0527
 11
-130.434
 21
69.7969
  0
LINE
  8
0
 10
-130.434
 20
69.7969
 11
-130.522
 21
69.6143
  0
LINE
  8
0
 10
-130.522
 20
69.6143
 11
-130.548
 21
69.5625
  0
LINE
  8
0
 10
-130.548
 20
69.5625
 11
-130.72
 21
69.3652
  0
LINE
  8
0
 10
-130.72
 20
69.3652
 11
-130.882
 21
69.2559
  0
LINE
  8
0
 10
-130.882
 20
69.2559
 11
-130.936
 21
69.2197
  0
LINE
  8
0
 10
-130.936
 20
69.2197
 11
-131.183
 21
69.1348
  0
LINE
  8
0
 10
-131.183
 20
69.1348
 11
-131.443
 21
69.1162
  0
LINE
  8
0
 10
-131.443
 20
69.1162
 11
-131.699
 21
69.166
  0
LINE
  8
0
 10
-192.332
 20
39.0645
 11
-192.332
 21
70.0645
  0
LINE
  8
0
 10
-192.332
 20
70.0645
 11
-146.332
 21
70.0645
  0
LINE
  8
0
 10
-146.332
 20
70.0645
 11
-146.332
 21
39.0645
  0
LINE
  8
0
 10
-146.332
 20
39.0645
 11
-192.332
 21
39.0645
  0
LINE
  8
0
 10
-215.932
 20
39.165
 11
-215.932
 21
65.9648
  0
LINE
  8
0
 10
-215.932
 20
65.9648
 11
-212.932
 21
65.9648
  0
LINE
  8
0
 10
-212.932
 20
65.9648
 11
-212.932
 21
39.165
  0
LINE
  8
0
 10
-212.932
 20
39.165
 11
-215.932
 21
39.165
  0
LINE
  8
0
 10
-52.5361
 20
60.7471
 11
-52.6338
 21
60.7568
  0
LINE
  8
0
 10
-52.6338
 20
60.7568
 11
-52.7305
 21
60.7725
  0
LINE
  8
0
 10
-52.7305
 20
60.7725
 11
-52.8262
 21
60.7949
  0
LINE
  8
0
 10
-52.8262
 20
60.7949
 11
-52.9199
 21
60.8232
  0
LINE
  8
0
 10
-52.9199
 20
60.8232
 11
-53.0117
 21
60.8584
  0
LINE
  8
0
 10
-53.0117
 20
60.8584
 11
-53.1016
 21
60.8984
  0
LINE
  8
0
 10
-53.1016
 20
60.8984
 11
-53.1875
 21
60.9453
  0
LINE
  8
0
 10
-53.1875
 20
60.9453
 11
-53.2715
 21
60.9971
  0
LINE
  8
0
 10
-53.2715
 20
60.9971
 11
-53.3506
 21
61.0537
  0
LINE
  8
0
 10
-53.3506
 20
61.0537
 11
-53.4268
 21
61.1162
  0
LINE
  8
0
 10
-53.4268
 20
61.1162
 11
-53.499
 21
61.1836
  0
LINE
  8
0
 10
-53.499
 20
61.1836
 11
-53.5654
 21
61.2549
  0
LINE
  8
0
 10
-53.5654
 20
61.2549
 11
-53.6279
 21
61.3311
  0
LINE
  8
0
 10
-53.6279
 20
61.3311
 11
-53.6855
 21
61.4111
  0
LINE
  8
0
 10
-53.6855
 20
61.4111
 11
-53.7373
 21
61.4941
  0
LINE
  8
0
 10
-53.7373
 20
61.4941
 11
-53.7832
 21
61.5811
  0
LINE
  8
0
 10
-53.7832
 20
61.5811
 11
-53.8242
 21
61.6699
  0
LINE
  8
0
 10
-53.8242
 20
61.6699
 11
-53.8584
 21
61.7617
  0
LINE
  8
0
 10
-53.8584
 20
61.7617
 11
-53.8867
 21
61.8555
  0
LINE
  8
0
 10
-53.8867
 20
61.8555
 11
-53.9092
 21
61.9512
  0
LINE
  8
0
 10
-53.9092
 20
61.9512
 11
-53.9248
 21
62.0479
  0
LINE
  8
0
 10
-53.9248
 20
62.0479
 11
-53.9346
 21
62.1455
  0
LINE
  8
0
 10
-53.9346
 20
62.1455
 11
-53.9375
 21
62.2441
  0
LINE
  8
0
 10
-53.9375
 20
62.2441
 11
-53.9346
 21
62.3418
  0
LINE
  8
0
 10
-53.9346
 20
62.3418
 11
-53.9248
 21
62.4395
  0
LINE
  8
0
 10
-53.9248
 20
62.4395
 11
-53.9092
 21
62.5371
  0
LINE
  8
0
 10
-53.9092
 20
62.5371
 11
-53.8867
 21
62.6318
  0
LINE
  8
0
 10
-53.8867
 20
62.6318
 11
-53.8584
 21
62.7266
  0
LINE
  8
0
 10
-53.8584
 20
62.7266
 11
-53.8242
 21
62.8184
  0
LINE
  8
0
 10
-53.8242
 20
62.8184
 11
-53.7832
 21
62.9072
  0
LINE
  8
0
 10
-53.7832
 20
62.9072
 11
-53.7373
 21
62.9941
  0
LINE
  8
0
 10
-53.7373
 20
62.9941
 11
-53.6855
 21
63.0771
  0
LINE
  8
0
 10
-53.6855
 20
63.0771
 11
-53.6279
 21
63.1572
  0
LINE
  8
0
 10
-53.6279
 20
63.1572
 11
-53.5654
 21
63.2334
  0
LINE
  8
0
 10
-53.5654
 20
63.2334
 11
-53.499
 21
63.3047
  0
LINE
  8
0
 10
-53.499
 20
63.3047
 11
-53.4268
 21
63.3721
  0
LINE
  8
0
 10
-53.4268
 20
63.3721
 11
-53.3506
 21
63.4346
  0
LINE
  8
0
 10
-53.3506
 20
63.4346
 11
-53.2715
 21
63.4912
  0
LINE
  8
0
 10
-53.2715
 20
63.4912
 11
-53.1875
 21
63.543
  0
LINE
  8
0
 10
-53.1875
 20
63.543
 11
-53.1016
 21
63.5898
  0
LINE
  8
0
 10
-53.1016
 20
63.5898
 11
-53.0117
 21
63.6299
  0
LINE
  8
0
 10
-53.0117
 20
63.6299
 11
-52.9199
 21
63.6641
  0
LINE
  8
0
 10
-52.9199
 20
63.6641
 11
-52.8262
 21
63.6934
  0
LINE
  8
0
 10
-52.8262
 20
63.6934
 11
-52.7305
 21
63.7148
  0
LINE
  8
0
 10
-52.7305
 20
63.7148
 11
-52.6338
 21
63.7314
  0
LINE
  8
0
 10
-52.6338
 20
63.7314
 11
-52.5361
 21
63.7412
  0
LINE
  8
0
 10
-52.5361
 20
63.7412
 11
-52.4375
 21
63.7441
  0
LINE
  8
0
 10
-52.4375
 20
63.7441
 11
-52.3398
 21
63.7412
  0
LINE
  8
0
 10
-52.3398
 20
63.7412
 11
-52.2422
 21
63.7314
  0
LINE
  8
0
 10
-52.2422
 20
63.7314
 11
-52.1455
 21
63.7148
  0
LINE
  8
0
 10
-52.1455
 20
63.7148
 11
-52.0498
 21
63.6934
  0
LINE
  8
0
 10
-52.0498
 20
63.6934
 11
-51.9561
 21
63.6641
  0
LINE
  8
0
 10
-51.9561
 20
63.6641
 11
-51.8643
 21
63.6299
  0
LINE
  8
0
 10
-51.8643
 20
63.6299
 11
-51.7744
 21
63.5898
  0
LINE
  8
0
 10
-51.7744
 20
63.5898
 11
-51.6875
 21
63.543
  0
LINE
  8
0
 10
-51.6875
 20
63.543
 11
-51.6045
 21
63.4912
  0
LINE
  8
0
 10
-51.6045
 20
63.4912
 11
-51.5244
 21
63.4346
  0
LINE
  8
0
 10
-51.5244
 20
63.4346
 11
-51.4492
 21
63.3721
  0
LINE
  8
0
 10
-51.4492
 20
63.3721
 11
-51.377
 21
63.3047
  0
LINE
  8
0
 10
-51.377
 20
63.3047
 11
-51.3105
 21
63.2334
  0
LINE
  8
0
 10
-51.3105
 20
63.2334
 11
-51.248
 21
63.1572
  0
LINE
  8
0
 10
-51.248
 20
63.1572
 11
-51.1904
 21
63.0771
  0
LINE
  8
0
 10
-51.1904
 20
63.0771
 11
-51.1387
 21
62.9941
  0
LINE
  8
0
 10
-51.1387
 20
62.9941
 11
-51.0928
 21
62.9072
  0
LINE
  8
0
 10
-51.0928
 20
62.9072
 11
-51.0518
 21
62.8184
  0
LINE
  8
0
 10
-51.0518
 20
62.8184
 11
-51.0176
 21
62.7266
  0
LINE
  8
0
 10
-51.0176
 20
62.7266
 11
-50.9893
 21
62.6318
  0
LINE
  8
0
 10
-50.9893
 20
62.6318
 11
-50.9668
 21
62.5371
  0
LINE
  8
0
 10
-50.9668
 20
62.5371
 11
-50.9512
 21
62.4395
  0
LINE
  8
0
 10
-50.9512
 20
62.4395
 11
-50.9414
 21
62.3418
  0
LINE
  8
0
 10
-50.9414
 20
62.3418
 11
-50.9375
 21
62.2441
  0
LINE
  8
0
 10
-50.9375
 20
62.2441
 11
-50.9414
 21
62.1455
  0
LINE
  8
0
 10
-50.9414
 20
62.1455
 11
-50.9512
 21
62.0479
  0
LINE
  8
0
 10
-50.9512
 20
62.0479
 11
-50.9668
 21
61.9512
  0
LINE
  8
0
 10
-50.9668
 20
61.9512
 11
-50.9893
 21
61.8555
  0
LINE
  8
0
 10
-50.9893
 20
61.8555
 11
-51.0176
 21
61.7617
  0
LINE
  8
0
 10
-51.0176
 20
61.7617
 11
-51.0518
 21
61.6699
  0
LINE
  8
0
 10
-51.0518
 20
61.6699
 11
-51.0928
 21
61.5811
  0
LINE
  8
0
 10
-51.0928
 20
61.5811
 11
-51.1387
 21
61.4941
  0
LINE
  8
0
 10
-51.1387
 20
61.4941
 11
-51.1904
 21
61.4111
  0
LINE
  8
0
 10
-51.1904
 20
61.4111
 11
-51.248
 21
61.3311
  0
LINE
  8
0
 10
-51.248
 20
61.3311
 11
-51.3105
 21
61.2549
  0
LINE
  8
0
 10
-51.3105
 20
61.2549
 11
-51.377
 21
61.1836
  0
LINE
  8
0
 10
-51.377
 20
61.1836
 11
-51.4492
 21
61.1162
  0
LINE
  8
0
 10
-51.4492
 20
61.1162
 11
-51.5244
 21
61.0537
  0
LINE
  8
0
 10
-51.5244
 20
61.0537
 11
-51.6045
 21
60.9971
  0
LINE
  8
0
 10
-51.6045
 20
60.9971
 11
-51.6875
 21
60.9453
  0
LINE
  8
0
 10
-51.6875
 20
60.9453
 11
-51.7744
 21
60.8984
  0
LINE
  8
0
 10
-51.7744
 20
60.8984
 11
-51.8643
 21
60.8584
  0
LINE
  8
0
 10
-51.8643
 20
60.8584
 11
-51.9561
 21
60.8232
  0
LINE
  8
0
 10
-51.9561
 20
60.8232
 11
-52.0498
 21
60.7949
  0
LINE
  8
0
 10
-52.0498
 20
60.7949
 11
-52.1455
 21
60.7725
  0
LINE
  8
0
 10
-52.1455
 20
60.7725
 11
-52.2422
 21
60.7568
  0
LINE
  8
0
 10
-52.2422
 20
60.7568
 11
-52.3398
 21
60.7471
  0
LINE
  8
0
 10
-52.3398
 20
60.7471
 11
-52.4375
 21
60.7441
  0
LINE
  8
0
 10
-52.4375
 20
60.7441
 11
-52.5361
 21
60.7471
  0
LINE
  8
0
 10
-286.126
 20
60.7363
 11
-286.224
 21
60.7461
  0
LINE
  8
0
 10
-286.224
 20
60.7461
 11
-286.32
 21
60.7617
  0
LINE
  8
0
 10
-286.32
 20
60.7617
 11
-286.416
 21
60.7842
  0
LINE
  8
0
 10
-286.416
 20
60.7842
 11
-286.51
 21
60.8125
  0
LINE
  8
0
 10
-286.51
 20
60.8125
 11
-286.602
 21
60.8467
  0
LINE
  8
0
 10
-286.602
 20
60.8467
 11
-286.691
 21
60.8877
  0
LINE
  8
0
 10
-286.691
 20
60.8877
 11
-286.778
 21
60.9336
  0
LINE
  8
0
 10
-286.778
 20
60.9336
 11
-286.861
 21
60.9854
  0
LINE
  8
0
 10
-286.861
 20
60.9854
 11
-286.941
 21
61.043
  0
LINE
  8
0
 10
-286.941
 20
61.043
 11
-287.017
 21
61.1055
  0
LINE
  8
0
 10
-287.017
 20
61.1055
 11
-287.089
 21
61.1719
  0
LINE
  8
0
 10
-287.089
 20
61.1719
 11
-287.155
 21
61.2441
  0
LINE
  8
0
 10
-287.155
 20
61.2441
 11
-287.218
 21
61.3193
  0
LINE
  8
0
 10
-287.218
 20
61.3193
 11
-287.275
 21
61.3994
  0
LINE
  8
0
 10
-287.275
 20
61.3994
 11
-287.327
 21
61.4824
  0
LINE
  8
0
 10
-287.327
 20
61.4824
 11
-287.373
 21
61.5693
  0
LINE
  8
0
 10
-287.373
 20
61.5693
 11
-287.414
 21
61.6592
  0
LINE
  8
0
 10
-287.414
 20
61.6592
 11
-287.448
 21
61.751
  0
LINE
  8
0
 10
-287.448
 20
61.751
 11
-287.477
 21
61.8447
  0
LINE
  8
0
 10
-287.477
 20
61.8447
 11
-287.499
 21
61.9404
  0
LINE
  8
0
 10
-287.499
 20
61.9404
 11
-287.515
 21
62.0371
  0
LINE
  8
0
 10
-287.515
 20
62.0371
 11
-287.524
 21
62.1348
  0
LINE
  8
0
 10
-287.524
 20
62.1348
 11
-287.528
 21
62.2324
  0
LINE
  8
0
 10
-287.528
 20
62.2324
 11
-287.524
 21
62.3311
  0
LINE
  8
0
 10
-287.524
 20
62.3311
 11
-287.515
 21
62.4287
  0
LINE
  8
0
 10
-287.515
 20
62.4287
 11
-287.499
 21
62.5254
  0
LINE
  8
0
 10
-287.499
 20
62.5254
 11
-287.477
 21
62.6211
  0
LINE
  8
0
 10
-287.477
 20
62.6211
 11
-287.448
 21
62.7148
  0
LINE
  8
0
 10
-287.448
 20
62.7148
 11
-287.414
 21
62.8066
  0
LINE
  8
0
 10
-287.414
 20
62.8066
 11
-287.373
 21
62.8965
  0
LINE
  8
0
 10
-287.373
 20
62.8965
 11
-287.327
 21
62.9824
  0
LINE
  8
0
 10
-287.327
 20
62.9824
 11
-287.275
 21
63.0664
  0
LINE
  8
0
 10
-287.275
 20
63.0664
 11
-287.218
 21
63.1465
  0
LINE
  8
0
 10
-287.218
 20
63.1465
 11
-287.155
 21
63.2217
  0
LINE
  8
0
 10
-287.155
 20
63.2217
 11
-287.089
 21
63.2939
  0
LINE
  8
0
 10
-287.089
 20
63.2939
 11
-287.017
 21
63.3604
  0
LINE
  8
0
 10
-287.017
 20
63.3604
 11
-286.941
 21
63.4229
  0
LINE
  8
0
 10
-286.941
 20
63.4229
 11
-286.861
 21
63.4805
  0
LINE
  8
0
 10
-286.861
 20
63.4805
 11
-286.778
 21
63.5322
  0
LINE
  8
0
 10
-286.778
 20
63.5322
 11
-286.691
 21
63.5781
  0
LINE
  8
0
 10
-286.691
 20
63.5781
 11
-286.602
 21
63.6191
  0
LINE
  8
0
 10
-286.602
 20
63.6191
 11
-286.51
 21
63.6533
  0
LINE
  8
0
 10
-286.51
 20
63.6533
 11
-286.416
 21
63.6816
  0
LINE
  8
0
 10
-286.416
 20
63.6816
 11
-286.32
 21
63.7041
  0
LINE
  8
0
 10
-286.32
 20
63.7041
 11
-286.224
 21
63.7197
  0
LINE
  8
0
 10
-286.224
 20
63.7197
 11
-286.126
 21
63.7295
  0
LINE
  8
0
 10
-286.126
 20
63.7295
 11
-286.028
 21
63.7324
  0
LINE
  8
0
 10
-286.028
 20
63.7324
 11
-285.93
 21
63.7295
  0
LINE
  8
0
 10
-285.93
 20
63.7295
 11
-285.832
 21
63.7197
  0
LINE
  8
0
 10
-285.832
 20
63.7197
 11
-285.735
 21
63.7041
  0
LINE
  8
0
 10
-285.735
 20
63.7041
 11
-285.64
 21
63.6816
  0
LINE
  8
0
 10
-285.64
 20
63.6816
 11
-285.546
 21
63.6533
  0
LINE
  8
0
 10
-285.546
 20
63.6533
 11
-285.454
 21
63.6191
  0
LINE
  8
0
 10
-285.454
 20
63.6191
 11
-285.364
 21
63.5781
  0
LINE
  8
0
 10
-285.364
 20
63.5781
 11
-285.278
 21
63.5322
  0
LINE
  8
0
 10
-285.278
 20
63.5322
 11
-285.194
 21
63.4805
  0
LINE
  8
0
 10
-285.194
 20
63.4805
 11
-285.114
 21
63.4229
  0
LINE
  8
0
 10
-285.114
 20
63.4229
 11
-285.039
 21
63.3604
  0
LINE
  8
0
 10
-285.039
 20
63.3604
 11
-284.967
 21
63.2939
  0
LINE
  8
0
 10
-284.967
 20
63.2939
 11
-284.9
 21
63.2217
  0
LINE
  8
0
 10
-284.9
 20
63.2217
 11
-284.838
 21
63.1465
  0
LINE
  8
0
 10
-284.838
 20
63.1465
 11
-284.78
 21
63.0664
  0
LINE
  8
0
 10
-284.78
 20
63.0664
 11
-284.729
 21
62.9824
  0
LINE
  8
0
 10
-284.729
 20
62.9824
 11
-284.683
 21
62.8965
  0
LINE
  8
0
 10
-284.683
 20
62.8965
 11
-284.642
 21
62.8066
  0
LINE
  8
0
 10
-284.642
 20
62.8066
 11
-284.607
 21
62.7148
  0
LINE
  8
0
 10
-284.607
 20
62.7148
 11
-284.579
 21
62.6211
  0
LINE
  8
0
 10
-284.579
 20
62.6211
 11
-284.557
 21
62.5254
  0
LINE
  8
0
 10
-284.557
 20
62.5254
 11
-284.541
 21
62.4287
  0
LINE
  8
0
 10
-284.541
 20
62.4287
 11
-284.531
 21
62.3311
  0
LINE
  8
0
 10
-284.531
 20
62.3311
 11
-284.528
 21
62.2324
  0
LINE
  8
0
 10
-284.528
 20
62.2324
 11
-284.531
 21
62.1348
  0
LINE
  8
0
 10
-284.531
 20
62.1348
 11
-284.541
 21
62.0371
  0
LINE
  8
0
 10
-284.541
 20
62.0371
 11
-284.557
 21
61.9404
  0
LINE
  8
0
 10
-284.557
 20
61.9404
 11
-284.579
 21
61.8447
  0
LINE
  8
0
 10
-284.579
 20
61.8447
 11
-284.607
 21
61.751
  0
LINE
  8
0
 10
-284.607
 20
61.751
 11
-284.642
 21
61.6592
  0
LINE
  8
0
 10
-284.642
 20
61.6592
 11
-284.683
 21
61.5693
  0
LINE
  8
0
 10
-284.683
 20
61.5693
 11
-284.729
 21
61.4824
  0
LINE
  8
0
 10
-284.729
 20
61.4824
 11
-284.78
 21
61.3994
  0
LINE
  8
0
 10
-284.78
 20
61.3994
 11
-284.838
 21
61.3193
  0
LINE
  8
0
 10
-284.838
 20
61.3193
 11
-284.9
 21
61.2441
  0
LINE
  8
0
 10
-284.9
 20
61.2441
 11
-284.967
 21
61.1719
  0
LINE
  8
0
 10
-284.967
 20
61.1719
 11
-285.039
 21
61.1055
  0
LINE
  8
0
 10
-285.039
 20
61.1055
 11
-285.114
 21
61.043
  0
LINE
  8
0
 10
-285.114
 20
61.043
 11
-285.194
 21
60.9854
  0
LINE
  8
0
 10
-285.194
 20
60.9854
 11
-285.278
 21
60.9336
  0
LINE
  8
0
 10
-285.278
 20
60.9336
 11
-285.364
 21
60.8877
  0
LINE
  8
0
 10
-285.364
 20
60.8877
 11
-285.454
 21
60.8467
  0
LINE
  8
0
 10
-285.454
 20
60.8467
 11
-285.546
 21
60.8125
  0
LINE
  8
0
 10
-285.546
 20
60.8125
 11
-285.64
 21
60.7842
  0
LINE
  8
0
 10
-285.64
 20
60.7842
 11
-285.735
 21
60.7617
  0
LINE
  8
0
 10
-285.735
 20
60.7617
 11
-285.832
 21
60.7461
  0
LINE
  8
0
 10
-285.832
 20
60.7461
 11
-285.93
 21
60.7363
  0
LINE
  8
0
 10
-285.93
 20
60.7363
 11
-286.028
 21
60.7324
  0
LINE
  8
0
 10
-286.028
 20
60.7324
 11
-286.126
 21
60.7363
  0
LINE
  8
0
 10
-131.929
 20
49.1582
 11
-132.463
 21
49.2861
  0
LINE
  8
0
 10
-132.463
 20
49.2861
 11
-132.971
 21
49.4961
  0
LINE
  8
0
 10
-132.971
 20
49.4961
 11
-133.438
 21
49.7832
  0
LINE
  8
0
 10
-133.438
 20
49.7832
 11
-133.856
 21
50.1396
  0
LINE
  8
0
 10
-133.856
 20
50.1396
 11
-134.213
 21
50.5576
  0
LINE
  8
0
 10
-134.213
 20
50.5576
 11
-134.5
 21
51.0254
  0
LINE
  8
0
 10
-134.5
 20
51.0254
 11
-134.71
 21
51.5332
  0
LINE
  8
0
 10
-134.71
 20
51.5332
 11
-134.839
 21
52.0674
  0
LINE
  8
0
 10
-134.839
 20
52.0674
 11
-134.882
 21
52.6143
  0
LINE
  8
0
 10
-134.882
 20
52.6143
 11
-134.839
 21
53.1621
  0
LINE
  8
0
 10
-134.839
 20
53.1621
 11
-134.71
 21
53.6963
  0
LINE
  8
0
 10
-134.71
 20
53.6963
 11
-134.5
 21
54.2041
  0
LINE
  8
0
 10
-134.5
 20
54.2041
 11
-134.213
 21
54.6719
  0
LINE
  8
0
 10
-134.213
 20
54.6719
 11
-133.856
 21
55.0898
  0
LINE
  8
0
 10
-133.856
 20
55.0898
 11
-133.438
 21
55.4463
  0
LINE
  8
0
 10
-133.438
 20
55.4463
 11
-132.971
 21
55.7334
  0
LINE
  8
0
 10
-132.971
 20
55.7334
 11
-132.463
 21
55.9434
  0
LINE
  8
0
 10
-132.463
 20
55.9434
 11
-131.929
 21
56.0713
  0
LINE
  8
0
 10
-131.929
 20
56.0713
 11
-131.382
 21
56.1143
  0
LINE
  8
0
 10
-131.382
 20
56.1143
 11
-130.834
 21
56.0713
  0
LINE
  8
0
 10
-130.834
 20
56.0713
 11
-130.3
 21
55.9434
  0
LINE
  8
0
 10
-130.3
 20
55.9434
 11
-129.793
 21
55.7334
  0
LINE
  8
0
 10
-129.793
 20
55.7334
 11
-129.324
 21
55.4463
  0
LINE
  8
0
 10
-129.324
 20
55.4463
 11
-128.906
 21
55.0898
  0
LINE
  8
0
 10
-128.906
 20
55.0898
 11
-128.55
 21
54.6719
  0
LINE
  8
0
 10
-128.55
 20
54.6719
 11
-128.263
 21
54.2041
  0
LINE
  8
0
 10
-128.263
 20
54.2041
 11
-128.053
 21
53.6963
  0
LINE
  8
0
 10
-128.053
 20
53.6963
 11
-127.925
 21
53.1621
  0
LINE
  8
0
 10
-127.925
 20
53.1621
 11
-127.882
 21
52.6143
  0
LINE
  8
0
 10
-127.882
 20
52.6143
 11
-127.925
 21
52.0674
  0
LINE
  8
0
 10
-127.925
 20
52.0674
 11
-128.053
 21
51.5332
  0
LINE
  8
0
 10
-128.053
 20
51.5332
 11
-128.263
 21
51.0254
  0
LINE
  8
0
 10
-128.263
 20
51.0254
 11
-128.55
 21
50.5576
  0
LINE
  8
0
 10
-128.55
 20
50.5576
 11
-128.906
 21
50.1396
  0
LINE
  8
0
 10
-128.906
 20
50.1396
 11
-129.324
 21
49.7832
  0
LINE
  8
0
 10
-129.324
 20
49.7832
 11
-129.793
 21
49.4961
  0
LINE
  8
0
 10
-129.793
 20
49.4961
 11
-130.3
 21
49.2861
  0
LINE
  8
0
 10
-130.3
 20
49.2861
 11
-130.834
 21
49.1582
  0
LINE
  8
0
 10
-130.834
 20
49.1582
 11
-131.382
 21
49.1143
  0
LINE
  8
0
 10
-131.382
 20
49.1143
 11
-131.929
 21
49.1582
  0
LINE
  8
0
 10
-39.1436
 20
32.665
 11
-39.1436
 21
51.665
  0
LINE
  8
0
 10
-39.1436
 20
51.665
 11
-27.1436
 21
51.665
  0
LINE
  8
0
 10
-27.1436
 20
51.665
 11
-27.1436
 21
32.665
  0
LINE
  8
0
 10
-27.1436
 20
32.665
 11
-39.1436
 21
32.665
  0
LINE
  8
0
 10
-131.939
 20
35.002
 11
-132.28
 21
35.1943
  0
LINE
  8
0
 10
-132.28
 20
35.1943
 11
-132.561
 21
35.4678
  0
LINE
  8
0
 10
-132.561
 20
35.4678
 11
-132.761
 21
35.8047
  0
LINE
  8
0
 10
-132.761
 20
35.8047
 11
-132.866
 21
36.1816
  0
LINE
  8
0
 10
-132.866
 20
36.1816
 11
-132.871
 21
36.5732
  0
LINE
  8
0
 10
-132.871
 20
36.5732
 11
-132.774
 21
36.9521
  0
LINE
  8
0
 10
-132.774
 20
36.9521
 11
-132.582
 21
37.2939
  0
LINE
  8
0
 10
-132.582
 20
37.2939
 11
-132.309
 21
37.5742
  0
LINE
  8
0
 10
-132.309
 20
37.5742
 11
-131.972
 21
37.7734
  0
LINE
  8
0
 10
-131.972
 20
37.7734
 11
-131.595
 21
37.8799
  0
LINE
  8
0
 10
-131.595
 20
37.8799
 11
-131.203
 21
37.8838
  0
LINE
  8
0
 10
-131.203
 20
37.8838
 11
-130.824
 21
37.7871
  0
LINE
  8
0
 10
-130.824
 20
37.7871
 11
-130.482
 21
37.5957
  0
LINE
  8
0
 10
-130.482
 20
37.5957
 11
-130.202
 21
37.3223
  0
LINE
  8
0
 10
-130.202
 20
37.3223
 11
-130.003
 21
36.9854
  0
LINE
  8
0
 10
-130.003
 20
36.9854
 11
-129.896
 21
36.6084
  0
LINE
  8
0
 10
-129.896
 20
36.6084
 11
-129.893
 21
36.2168
  0
LINE
  8
0
 10
-129.893
 20
36.2168
 11
-129.989
 21
35.8369
  0
LINE
  8
0
 10
-129.989
 20
35.8369
 11
-130.181
 21
35.4961
  0
LINE
  8
0
 10
-130.181
 20
35.4961
 11
-130.454
 21
35.2158
  0
LINE
  8
0
 10
-130.454
 20
35.2158
 11
-130.791
 21
35.0156
  0
LINE
  8
0
 10
-130.791
 20
35.0156
 11
-131.168
 21
34.9102
  0
LINE
  8
0
 10
-131.168
 20
34.9102
 11
-131.56
 21
34.9053
  0
LINE
  8
0
 10
-131.56
 20
34.9053
 11
-131.939
 21
35.002
  0
LINE
  8
0
 10
-121.429
 20
27.6943
 11
-121.799
 21
27.8213
  0
LINE
  8
0
 10
-121.799
 20
27.8213
 11
-122.124
 21
28.04
  0
LINE
  8
0
 10
-122.124
 20
28.04
 11
-122.381
 21
28.335
  0
LINE
  8
0
 10
-122.381
 20
28.335
 11
-122.554
 21
28.6865
  0
LINE
  8
0
 10
-122.554
 20
28.6865
 11
-122.629
 21
29.0713
  0
LINE
  8
0
 10
-122.629
 20
29.0713
 11
-122.602
 21
29.4619
  0
LINE
  8
0
 10
-122.602
 20
29.4619
 11
-122.475
 21
29.832
  0
LINE
  8
0
 10
-122.475
 20
29.832
 11
-122.256
 21
30.1572
  0
LINE
  8
0
 10
-122.256
 20
30.1572
 11
-121.961
 21
30.4141
  0
LINE
  8
0
 10
-121.961
 20
30.4141
 11
-121.609
 21
30.5869
  0
LINE
  8
0
 10
-121.609
 20
30.5869
 11
-121.225
 21
30.6621
  0
LINE
  8
0
 10
-121.225
 20
30.6621
 11
-120.834
 21
30.6348
  0
LINE
  8
0
 10
-120.834
 20
30.6348
 11
-120.464
 21
30.5078
  0
LINE
  8
0
 10
-120.464
 20
30.5078
 11
-120.139
 21
30.2891
  0
LINE
  8
0
 10
-120.139
 20
30.2891
 11
-119.882
 21
29.9941
  0
LINE
  8
0
 10
-119.882
 20
29.9941
 11
-119.71
 21
29.6426
  0
LINE
  8
0
 10
-119.71
 20
29.6426
 11
-119.635
 21
29.2578
  0
LINE
  8
0
 10
-119.635
 20
29.2578
 11
-119.661
 21
28.8672
  0
LINE
  8
0
 10
-119.661
 20
28.8672
 11
-119.788
 21
28.4971
  0
LINE
  8
0
 10
-119.788
 20
28.4971
 11
-120.007
 21
28.1719
  0
LINE
  8
0
 10
-120.007
 20
28.1719
 11
-120.302
 21
27.915
  0
LINE
  8
0
 10
-120.302
 20
27.915
 11
-120.653
 21
27.7432
  0
LINE
  8
0
 10
-120.653
 20
27.7432
 11
-121.038
 21
27.668
  0
LINE
  8
0
 10
-121.038
 20
27.668
 11
-121.429
 21
27.6943
  0
LINE
  8
0
 10
-207.378
 20
27.6846
 11
-207.752
 21
27.7988
  0
LINE
  8
0
 10
-207.752
 20
27.7988
 11
-208.085
 21
28.0059
  0
LINE
  8
0
 10
-208.085
 20
28.0059
 11
-208.352
 21
28.292
  0
LINE
  8
0
 10
-208.352
 20
28.292
 11
-208.536
 21
28.6377
  0
LINE
  8
0
 10
-208.536
 20
28.6377
 11
-208.625
 21
29.0195
  0
LINE
  8
0
 10
-208.625
 20
29.0195
 11
-208.611
 21
29.4111
  0
LINE
  8
0
 10
-208.611
 20
29.4111
 11
-208.497
 21
29.7852
  0
LINE
  8
0
 10
-208.497
 20
29.7852
 11
-208.29
 21
30.1182
  0
LINE
  8
0
 10
-208.29
 20
30.1182
 11
-208.004
 21
30.3848
  0
LINE
  8
0
 10
-208.004
 20
30.3848
 11
-207.658
 21
30.5693
  0
LINE
  8
0
 10
-207.658
 20
30.5693
 11
-207.276
 21
30.6572
  0
LINE
  8
0
 10
-207.276
 20
30.6572
 11
-206.886
 21
30.6445
  0
LINE
  8
0
 10
-206.886
 20
30.6445
 11
-206.511
 21
30.5303
  0
LINE
  8
0
 10
-206.511
 20
30.5303
 11
-206.179
 21
30.3232
  0
LINE
  8
0
 10
-206.179
 20
30.3232
 11
-205.911
 21
30.0371
  0
LINE
  8
0
 10
-205.911
 20
30.0371
 11
-205.727
 21
29.6914
  0
LINE
  8
0
 10
-205.727
 20
29.6914
 11
-205.639
 21
29.3096
  0
LINE
  8
0
 10
-205.639
 20
29.3096
 11
-205.652
 21
28.9189
  0
LINE
  8
0
 10
-205.652
 20
28.9189
 11
-205.766
 21
28.5439
  0
LINE
  8
0
 10
-205.766
 20
28.5439
 11
-205.974
 21
28.2119
  0
LINE
  8
0
 10
-205.974
 20
28.2119
 11
-206.26
 21
27.9443
  0
LINE
  8
0
 10
-206.26
 20
27.9443
 11
-206.604
 21
27.7598
  0
LINE
  8
0
 10
-206.604
 20
27.7598
 11
-206.986
 21
27.6719
  0
LINE
  8
0
 10
-206.986
 20
27.6719
 11
-207.378
 21
27.6846
  0
ENDSEC
  0
SECTION
  2
OBJECTS
  0
DICTIONARY
  0
ENDSEC
  0
EOF
