  0
SECTION
  2
BLOCKS
  0
ENDSEC
  0
SECTION
  2
ENTITIES
  0
LINE
  8
0
 10
319.499
 20
461.413
 11
319.496
 21
461.527
  0
LINE
  8
0
 10
319.496
 20
461.527
 11
319.491
 21
461.64
  0
LINE
  8
0
 10
319.491
 20
461.64
 11
319.484
 21
461.753
  0
LINE
  8
0
 10
319.484
 20
461.753
 11
319.476
 21
461.866
  0
LINE
  8
0
 10
319.476
 20
461.866
 11
319.465
 21
461.98
  0
LINE
  8
0
 10
319.465
 20
461.98
 11
319.451
 21
462.092
  0
LINE
  8
0
 10
319.451
 20
462.092
 11
319.437
 21
462.204
  0
LINE
  8
0
 10
319.437
 20
462.204
 11
319.42
 21
462.317
  0
LINE
  8
0
 10
319.42
 20
462.317
 11
319.401
 21
462.429
  0
LINE
  8
0
 10
319.401
 20
462.429
 11
319.381
 21
462.54
  0
LINE
  8
0
 10
319.381
 20
462.54
 11
319.358
 21
462.652
  0
LINE
  8
0
 10
319.358
 20
462.652
 11
319.333
 21
462.762
  0
LINE
  8
0
 10
319.333
 20
462.762
 11
319.307
 21
462.872
  0
LINE
  8
0
 10
319.307
 20
462.872
 11
319.278
 21
462.983
  0
LINE
  8
0
 10
319.278
 20
462.983
 11
319.248
 21
463.092
  0
LINE
  8
0
 10
319.248
 20
463.092
 11
319.216
 21
463.2
  0
LINE
  8
0
 10
319.216
 20
463.2
 11
319.182
 21
463.309
  0
LINE
  8
0
 10
319.182
 20
463.309
 11
319.146
 21
463.416
  0
LINE
  8
0
 10
319.146
 20
463.416
 11
319.108
 21
463.523
  0
LINE
  8
0
 10
319.108
 20
463.523
 11
319.068
 21
463.629
  0
LINE
  8
0
 10
319.068
 20
463.629
 11
319.026
 21
463.735
  0
LINE
  8
0
 10
319.026
 20
463.735
 11
318.983
 21
463.84
  0
LINE
  8
0
 10
318.983
 20
463.84
 11
318.938
 21
463.944
  0
LINE
  8
0
 10
318.938
 20
463.944
 11
318.891
 21
464.047
  0
LINE
  8
0
 10
318.891
 20
464.047
 11
318.842
 21
464.15
  0
LINE
  8
0
 10
318.842
 20
464.15
 11
318.792
 21
464.251
  0
LINE
  8
0
 10
318.792
 20
464.251
 11
318.739
 21
464.352
  0
LINE
  8
0
 10
318.739
 20
464.352
 11
318.685
 21
464.451
  0
LINE
  8
0
 10
318.685
 20
464.451
 11
318.629
 21
464.55
  0
LINE
  8
0
 10
318.629
 20
464.55
 11
318.571
 21
464.648
  0
LINE
  8
0
 10
318.571
 20
464.648
 11
318.513
 21
464.744
  0
LINE
  8
0
 10
318.513
 20
464.744
 11
318.451
 21
464.84
  0
LINE
  8
0
 10
318.451
 20
464.84
 11
318.389
 21
464.935
  0
LINE
  8
0
 10
318.389
 20
464.935
 11
318.324
 21
465.029
  0
LINE
  8
0
 10
318.324
 20
465.029
 11
318.259
 21
465.12
  0
LINE
  8
0
 10
318.259
 20
465.12
 11
318.191
 21
465.212
  0
LINE
  8
0
 10
318.191
 20
465.212
 11
318.122
 21
465.302
  0
LINE
  8
0
 10
318.122
 20
465.302
 11
318.052
 21
465.391
  0
LINE
  8
0
 10
318.052
 20
465.391
 11
317.905
 21
465.565
  0
LINE
  8
0
 10
317.905
 20
465.565
 11
317.83
 21
465.65
  0
LINE
  8
0
 10
317.83
 20
465.65
 11
317.754
 21
465.733
  0
LINE
  8
0
 10
317.754
 20
465.733
 11
317.676
 21
465.816
  0
LINE
  8
0
 10
317.676
 20
465.816
 11
317.597
 21
465.897
  0
LINE
  8
0
 10
317.597
 20
465.897
 11
317.516
 21
465.976
  0
LINE
  8
0
 10
317.516
 20
465.976
 11
317.433
 21
466.054
  0
LINE
  8
0
 10
317.433
 20
466.054
 11
317.35
 21
466.13
  0
LINE
  8
0
 10
317.35
 20
466.13
 11
317.265
 21
466.205
  0
LINE
  8
0
 10
317.265
 20
466.205
 11
317.091
 21
466.352
  0
LINE
  8
0
 10
317.091
 20
466.352
 11
317.002
 21
466.422
  0
LINE
  8
0
 10
317.002
 20
466.422
 11
316.912
 21
466.491
  0
LINE
  8
0
 10
316.912
 20
466.491
 11
316.82
 21
466.559
  0
LINE
  8
0
 10
316.82
 20
466.559
 11
316.729
 21
466.624
  0
LINE
  8
0
 10
316.729
 20
466.624
 11
316.635
 21
466.689
  0
LINE
  8
0
 10
316.635
 20
466.689
 11
316.54
 21
466.751
  0
LINE
  8
0
 10
316.54
 20
466.751
 11
316.444
 21
466.813
  0
LINE
  8
0
 10
316.444
 20
466.813
 11
316.348
 21
466.871
  0
LINE
  8
0
 10
316.348
 20
466.871
 11
316.25
 21
466.929
  0
LINE
  8
0
 10
316.25
 20
466.929
 11
316.151
 21
466.985
  0
LINE
  8
0
 10
316.151
 20
466.985
 11
316.052
 21
467.039
  0
LINE
  8
0
 10
316.052
 20
467.039
 11
315.951
 21
467.092
  0
LINE
  8
0
 10
315.951
 20
467.092
 11
315.85
 21
467.142
  0
LINE
  8
0
 10
315.85
 20
467.142
 11
315.747
 21
467.191
  0
LINE
  8
0
 10
315.747
 20
467.191
 11
315.644
 21
467.238
  0
LINE
  8
0
 10
315.644
 20
467.238
 11
315.54
 21
467.283
  0
LINE
  8
0
 10
315.54
 20
467.283
 11
315.435
 21
467.326
  0
LINE
  8
0
 10
315.435
 20
467.326
 11
315.329
 21
467.368
  0
LINE
  8
0
 10
315.329
 20
467.368
 11
315.223
 21
467.408
  0
LINE
  8
0
 10
315.223
 20
467.408
 11
315.116
 21
467.446
  0
LINE
  8
0
 10
315.116
 20
467.446
 11
315.009
 21
467.482
  0
LINE
  8
0
 10
315.009
 20
467.482
 11
314.9
 21
467.516
  0
LINE
  8
0
 10
314.9
 20
467.516
 11
314.792
 21
467.548
  0
LINE
  8
0
 10
314.792
 20
467.548
 11
314.683
 21
467.578
  0
LINE
  8
0
 10
314.683
 20
467.578
 11
314.572
 21
467.607
  0
LINE
  8
0
 10
314.572
 20
467.607
 11
314.352
 21
467.658
  0
LINE
  8
0
 10
314.352
 20
467.658
 11
314.24
 21
467.681
  0
LINE
  8
0
 10
314.24
 20
467.681
 11
314.129
 21
467.701
  0
LINE
  8
0
 10
314.129
 20
467.701
 11
314.017
 21
467.72
  0
LINE
  8
0
 10
314.017
 20
467.72
 11
313.904
 21
467.737
  0
LINE
  8
0
 10
313.904
 20
467.737
 11
313.68
 21
467.765
  0
LINE
  8
0
 10
313.68
 20
467.765
 11
313.566
 21
467.776
  0
LINE
  8
0
 10
313.566
 20
467.776
 11
313.453
 21
467.784
  0
LINE
  8
0
 10
313.453
 20
467.784
 11
313.34
 21
467.791
  0
LINE
  8
0
 10
313.34
 20
467.791
 11
313.227
 21
467.796
  0
LINE
  8
0
 10
313.227
 20
467.796
 11
313.113
 21
467.799
  0
LINE
  8
0
 10
313.113
 20
467.799
 11
313
 21
467.8
  0
LINE
  8
0
 10
313
 20
467.8
 11
66
 21
467.8
  0
LINE
  8
0
 10
66
 20
467.8
 11
65.8867
 21
467.799
  0
LINE
  8
0
 10
65.8867
 20
467.799
 11
65.7734
 21
467.796
  0
LINE
  8
0
 10
65.7734
 20
467.796
 11
65.6602
 21
467.791
  0
LINE
  8
0
 10
65.6602
 20
467.791
 11
65.5469
 21
467.784
  0
LINE
  8
0
 10
65.5469
 20
467.784
 11
65.4336
 21
467.776
  0
LINE
  8
0
 10
65.4336
 20
467.776
 11
65.3203
 21
467.765
  0
LINE
  8
0
 10
65.3203
 20
467.765
 11
65.0957
 21
467.737
  0
LINE
  8
0
 10
65.0957
 20
467.737
 11
64.9834
 21
467.72
  0
LINE
  8
0
 10
64.9834
 20
467.72
 11
64.8711
 21
467.701
  0
LINE
  8
0
 10
64.8711
 20
467.701
 11
64.7598
 21
467.681
  0
LINE
  8
0
 10
64.7598
 20
467.681
 11
64.6484
 21
467.658
  0
LINE
  8
0
 10
64.6484
 20
467.658
 11
64.4277
 21
467.607
  0
LINE
  8
0
 10
64.4277
 20
467.607
 11
64.3174
 21
467.578
  0
LINE
  8
0
 10
64.3174
 20
467.578
 11
64.208
 21
467.548
  0
LINE
  8
0
 10
64.208
 20
467.548
 11
64.0996
 21
467.516
  0
LINE
  8
0
 10
64.0996
 20
467.516
 11
63.9912
 21
467.482
  0
LINE
  8
0
 10
63.9912
 20
467.482
 11
63.8838
 21
467.446
  0
LINE
  8
0
 10
63.8838
 20
467.446
 11
63.7773
 21
467.408
  0
LINE
  8
0
 10
63.7773
 20
467.408
 11
63.6709
 21
467.368
  0
LINE
  8
0
 10
63.6709
 20
467.368
 11
63.5654
 21
467.326
  0
LINE
  8
0
 10
63.5654
 20
467.326
 11
63.46
 21
467.283
  0
LINE
  8
0
 10
63.46
 20
467.283
 11
63.3564
 21
467.238
  0
LINE
  8
0
 10
63.3564
 20
467.238
 11
63.2529
 21
467.191
  0
LINE
  8
0
 10
63.2529
 20
467.191
 11
63.1504
 21
467.142
  0
LINE
  8
0
 10
63.1504
 20
467.142
 11
63.0488
 21
467.092
  0
LINE
  8
0
 10
63.0488
 20
467.092
 11
62.9482
 21
467.039
  0
LINE
  8
0
 10
62.9482
 20
467.039
 11
62.8486
 21
466.985
  0
LINE
  8
0
 10
62.8486
 20
466.985
 11
62.75
 21
466.929
  0
LINE
  8
0
 10
62.75
 20
466.929
 11
62.6523
 21
466.871
  0
LINE
  8
0
 10
62.6523
 20
466.871
 11
62.5557
 21
466.813
  0
LINE
  8
0
 10
62.5557
 20
466.813
 11
62.46
 21
466.751
  0
LINE
  8
0
 10
62.46
 20
466.751
 11
62.3652
 21
466.689
  0
LINE
  8
0
 10
62.3652
 20
466.689
 11
62.2715
 21
466.624
  0
LINE
  8
0
 10
62.2715
 20
466.624
 11
62.1797
 21
466.559
  0
LINE
  8
0
 10
62.1797
 20
466.559
 11
62.0879
 21
466.491
  0
LINE
  8
0
 10
62.0879
 20
466.491
 11
61.998
 21
466.422
  0
LINE
  8
0
 10
61.998
 20
466.422
 11
61.9092
 21
466.352
  0
LINE
  8
0
 10
61.9092
 20
466.352
 11
61.7354
 21
466.205
  0
LINE
  8
0
 10
61.7354
 20
466.205
 11
61.6504
 21
466.13
  0
LINE
  8
0
 10
61.6504
 20
466.13
 11
61.5674
 21
466.054
  0
LINE
  8
0
 10
61.5674
 20
466.054
 11
61.4844
 21
465.976
  0
LINE
  8
0
 10
61.4844
 20
465.976
 11
61.4033
 21
465.897
  0
LINE
  8
0
 10
61.4033
 20
465.897
 11
61.3242
 21
465.816
  0
LINE
  8
0
 10
61.3242
 20
465.816
 11
61.2461
 21
465.733
  0
LINE
  8
0
 10
61.2461
 20
465.733
 11
61.1699
 21
465.65
  0
LINE
  8
0
 10
61.1699
 20
465.65
 11
61.0947
 21
465.565
  0
LINE
  8
0
 10
61.0947
 20
465.565
 11
61.0205
 21
465.478
  0
LINE
  8
0
 10
61.0205
 20
465.478
 11
60.9482
 21
465.391
  0
LINE
  8
0
 10
60.9482
 20
465.391
 11
60.8779
 21
465.302
  0
LINE
  8
0
 10
60.8779
 20
465.302
 11
60.8086
 21
465.212
  0
LINE
  8
0
 10
60.8086
 20
465.212
 11
60.7412
 21
465.12
  0
LINE
  8
0
 10
60.7412
 20
465.12
 11
60.6758
 21
465.029
  0
LINE
  8
0
 10
60.6758
 20
465.029
 11
60.6113
 21
464.935
  0
LINE
  8
0
 10
60.6113
 20
464.935
 11
60.5488
 21
464.84
  0
LINE
  8
0
 10
60.5488
 20
464.84
 11
60.4873
 21
464.744
  0
LINE
  8
0
 10
60.4873
 20
464.744
 11
60.4287
 21
464.648
  0
LINE
  8
0
 10
60.4287
 20
464.648
 11
60.3711
 21
464.55
  0
LINE
  8
0
 10
60.3711
 20
464.55
 11
60.3154
 21
464.451
  0
LINE
  8
0
 10
60.3154
 20
464.451
 11
60.2607
 21
464.352
  0
LINE
  8
0
 10
60.2607
 20
464.352
 11
60.208
 21
464.251
  0
LINE
  8
0
 10
60.208
 20
464.251
 11
60.1582
 21
464.15
  0
LINE
  8
0
 10
60.1582
 20
464.15
 11
60.1094
 21
464.047
  0
LINE
  8
0
 10
60.1094
 20
464.047
 11
60.0615
 21
463.944
  0
LINE
  8
0
 10
60.0615
 20
463.944
 11
60.0166
 21
463.84
  0
LINE
  8
0
 10
60.0166
 20
463.84
 11
59.9736
 21
463.735
  0
LINE
  8
0
 10
59.9736
 20
463.735
 11
59.9316
 21
463.629
  0
LINE
  8
0
 10
59.9316
 20
463.629
 11
59.8916
 21
463.523
  0
LINE
  8
0
 10
59.8916
 20
463.523
 11
59.8545
 21
463.416
  0
LINE
  8
0
 10
59.8545
 20
463.416
 11
59.8184
 21
463.309
  0
LINE
  8
0
 10
59.8184
 20
463.309
 11
59.7842
 21
463.2
  0
LINE
  8
0
 10
59.7842
 20
463.2
 11
59.752
 21
463.092
  0
LINE
  8
0
 10
59.752
 20
463.092
 11
59.7217
 21
462.983
  0
LINE
  8
0
 10
59.7217
 20
462.983
 11
59.6934
 21
462.872
  0
LINE
  8
0
 10
59.6934
 20
462.872
 11
59.667
 21
462.762
  0
LINE
  8
0
 10
59.667
 20
462.762
 11
59.6416
 21
462.652
  0
LINE
  8
0
 10
59.6416
 20
462.652
 11
59.6191
 21
462.54
  0
LINE
  8
0
 10
59.6191
 20
462.54
 11
59.5986
 21
462.429
  0
LINE
  8
0
 10
59.5986
 20
462.429
 11
59.5801
 21
462.317
  0
LINE
  8
0
 10
59.5801
 20
462.317
 11
59.5635
 21
462.204
  0
LINE
  8
0
 10
59.5635
 20
462.204
 11
59.5488
 21
462.092
  0
LINE
  8
0
 10
59.5488
 20
462.092
 11
59.5352
 21
461.98
  0
LINE
  8
0
 10
59.5352
 20
461.98
 11
59.5244
 21
461.866
  0
LINE
  8
0
 10
59.5244
 20
461.866
 11
59.5156
 21
461.753
  0
LINE
  8
0
 10
59.5156
 20
461.753
 11
59.5088
 21
461.64
  0
LINE
  8
0
 10
59.5088
 20
461.64
 11
59.5039
 21
461.527
  0
LINE
  8
0
 10
59.5039
 20
461.527
 11
59.501
 21
461.413
  0
LINE
  8
0
 10
59.501
 20
461.413
 11
59.5
 21
461.3
  0
LINE
  8
0
 10
59.5
 20
461.3
 11
59.5
 21
98.0176
  0
LINE
  8
0
 10
59.5
 20
98.0176
 11
59.502
 21
97.8789
  0
LINE
  8
0
 10
59.502
 20
97.8789
 11
59.5059
 21
97.8105
  0
LINE
  8
0
 10
59.5059
 20
97.8105
 11
59.5098
 21
97.7412
  0
LINE
  8
0
 10
59.5098
 20
97.7412
 11
59.5146
 21
97.6719
  0
LINE
  8
0
 10
59.5146
 20
97.6719
 11
59.5215
 21
97.6035
  0
LINE
  8
0
 10
59.5215
 20
97.6035
 11
59.5293
 21
97.5342
  0
LINE
  8
0
 10
59.5293
 20
97.5342
 11
59.5381
 21
97.4658
  0
LINE
  8
0
 10
59.5381
 20
97.4658
 11
59.5596
 21
97.3291
  0
LINE
  8
0
 10
59.5596
 20
97.3291
 11
59.5723
 21
97.2607
  0
LINE
  8
0
 10
59.5723
 20
97.2607
 11
59.5859
 21
97.1943
  0
LINE
  8
0
 10
59.5859
 20
97.1943
 11
59.6006
 21
97.126
  0
LINE
  8
0
 10
59.6006
 20
97.126
 11
59.6338
 21
96.9912
  0
LINE
  8
0
 10
59.6338
 20
96.9912
 11
59.6523
 21
96.9248
  0
LINE
  8
0
 10
59.6523
 20
96.9248
 11
59.6719
 21
96.8584
  0
LINE
  8
0
 10
59.6719
 20
96.8584
 11
59.6924
 21
96.792
  0
LINE
  8
0
 10
59.6924
 20
96.792
 11
59.7139
 21
96.7266
  0
LINE
  8
0
 10
59.7139
 20
96.7266
 11
59.7373
 21
96.6611
  0
LINE
  8
0
 10
59.7373
 20
96.6611
 11
59.7607
 21
96.5967
  0
LINE
  8
0
 10
59.7607
 20
96.5967
 11
59.7861
 21
96.5322
  0
LINE
  8
0
 10
59.7861
 20
96.5322
 11
59.8125
 21
96.4678
  0
LINE
  8
0
 10
59.8125
 20
96.4678
 11
59.8398
 21
96.4043
  0
LINE
  8
0
 10
59.8398
 20
96.4043
 11
59.8682
 21
96.3408
  0
LINE
  8
0
 10
59.8682
 20
96.3408
 11
59.8975
 21
96.2783
  0
LINE
  8
0
 10
59.8975
 20
96.2783
 11
59.96
 21
96.1553
  0
LINE
  8
0
 10
59.96
 20
96.1553
 11
59.9932
 21
96.0938
  0
LINE
  8
0
 10
59.9932
 20
96.0938
 11
60.0264
 21
96.0342
  0
LINE
  8
0
 10
60.0264
 20
96.0342
 11
60.0615
 21
95.9736
  0
LINE
  8
0
 10
60.0615
 20
95.9736
 11
60.1338
 21
95.8564
  0
LINE
  8
0
 10
60.1338
 20
95.8564
 11
60.1719
 21
95.7988
  0
LINE
  8
0
 10
60.1719
 20
95.7988
 11
60.2109
 21
95.7412
  0
LINE
  8
0
 10
60.2109
 20
95.7412
 11
60.251
 21
95.6846
  0
LINE
  8
0
 10
60.251
 20
95.6846
 11
60.333
 21
95.5732
  0
LINE
  8
0
 10
60.333
 20
95.5732
 11
60.376
 21
95.5195
  0
LINE
  8
0
 10
60.376
 20
95.5195
 11
60.4199
 21
95.4658
  0
LINE
  8
0
 10
60.4199
 20
95.4658
 11
60.5098
 21
95.3604
  0
LINE
  8
0
 10
60.5098
 20
95.3604
 11
60.6035
 21
95.2588
  0
LINE
  8
0
 10
60.6035
 20
95.2588
 11
60.6514
 21
95.209
  0
LINE
  8
0
 10
60.6514
 20
95.209
 11
60.7012
 21
95.1602
  0
LINE
  8
0
 10
60.7012
 20
95.1602
 11
60.751
 21
95.1123
  0
LINE
  8
0
 10
60.751
 20
95.1123
 11
60.8525
 21
95.0186
  0
LINE
  8
0
 10
60.8525
 20
95.0186
 11
60.958
 21
94.9287
  0
LINE
  8
0
 10
60.958
 20
94.9287
 11
61.0117
 21
94.8857
  0
LINE
  8
0
 10
61.0117
 20
94.8857
 11
61.0664
 21
94.8428
  0
LINE
  8
0
 10
61.0664
 20
94.8428
 11
61.1777
 21
94.7607
  0
LINE
  8
0
 10
61.1777
 20
94.7607
 11
61.2344
 21
94.7207
  0
LINE
  8
0
 10
61.2344
 20
94.7207
 11
61.3496
 21
94.6445
  0
LINE
  8
0
 10
61.3496
 20
94.6445
 11
61.4082
 21
94.6084
  0
LINE
  8
0
 10
61.4082
 20
94.6084
 11
61.4678
 21
94.5723
  0
LINE
  8
0
 10
61.4678
 20
94.5723
 11
61.5273
 21
94.5381
  0
LINE
  8
0
 10
61.5273
 20
94.5381
 11
61.5879
 21
94.5039
  0
LINE
  8
0
 10
61.5879
 20
94.5039
 11
61.6494
 21
94.4717
  0
LINE
  8
0
 10
61.6494
 20
94.4717
 11
61.7725
 21
94.4092
  0
LINE
  8
0
 10
61.7725
 20
94.4092
 11
61.8359
 21
94.3799
  0
LINE
  8
0
 10
61.8359
 20
94.3799
 11
61.8984
 21
94.3525
  0
LINE
  8
0
 10
61.8984
 20
94.3525
 11
61.9619
 21
94.3252
  0
LINE
  8
0
 10
61.9619
 20
94.3252
 11
62.0264
 21
94.2988
  0
LINE
  8
0
 10
62.0264
 20
94.2988
 11
62.0908
 21
94.2744
  0
LINE
  8
0
 10
62.0908
 20
94.2744
 11
62.1562
 21
94.25
  0
LINE
  8
0
 10
62.1562
 20
94.25
 11
62.2217
 21
94.2275
  0
LINE
  8
0
 10
62.2217
 20
94.2275
 11
62.2871
 21
94.2061
  0
LINE
  8
0
 10
62.2871
 20
94.2061
 11
62.3535
 21
94.1855
  0
LINE
  8
0
 10
62.3535
 20
94.1855
 11
62.4199
 21
94.166
  0
LINE
  8
0
 10
62.4199
 20
94.166
 11
62.4863
 21
94.1484
  0
LINE
  8
0
 10
62.4863
 20
94.1484
 11
62.5537
 21
94.1309
  0
LINE
  8
0
 10
62.5537
 20
94.1309
 11
62.6211
 21
94.1152
  0
LINE
  8
0
 10
62.6211
 20
94.1152
 11
62.6885
 21
94.1006
  0
LINE
  8
0
 10
62.6885
 20
94.1006
 11
62.7559
 21
94.0869
  0
LINE
  8
0
 10
62.7559
 20
94.0869
 11
62.8242
 21
94.0752
  0
LINE
  8
0
 10
62.8242
 20
94.0752
 11
75.3877
 21
92.0312
  0
LINE
  8
0
 10
75.3877
 20
92.0312
 11
87.9844
 21
90.2021
  0
LINE
  8
0
 10
87.9844
 20
90.2021
 11
100.609
 21
88.5859
  0
LINE
  8
0
 10
100.609
 20
88.5859
 11
113.261
 21
87.1846
  0
LINE
  8
0
 10
113.261
 20
87.1846
 11
125.934
 21
85.998
  0
LINE
  8
0
 10
125.934
 20
85.998
 11
138.625
 21
85.0273
  0
LINE
  8
0
 10
138.625
 20
85.0273
 11
151.331
 21
84.2715
  0
LINE
  8
0
 10
151.331
 20
84.2715
 11
164.048
 21
83.7314
  0
LINE
  8
0
 10
164.048
 20
83.7314
 11
176.772
 21
83.4082
  0
LINE
  8
0
 10
176.772
 20
83.4082
 11
189.5
 21
83.2998
  0
LINE
  8
0
 10
189.5
 20
83.2998
 11
202.228
 21
83.4082
  0
LINE
  8
0
 10
202.228
 20
83.4082
 11
214.952
 21
83.7314
  0
LINE
  8
0
 10
214.952
 20
83.7314
 11
227.669
 21
84.2715
  0
LINE
  8
0
 10
227.669
 20
84.2715
 11
240.375
 21
85.0273
  0
LINE
  8
0
 10
240.375
 20
85.0273
 11
253.066
 21
85.998
  0
LINE
  8
0
 10
253.066
 20
85.998
 11
265.739
 21
87.1846
  0
LINE
  8
0
 10
265.739
 20
87.1846
 11
278.391
 21
88.5859
  0
LINE
  8
0
 10
278.391
 20
88.5859
 11
291.016
 21
90.2021
  0
LINE
  8
0
 10
291.016
 20
90.2021
 11
303.612
 21
92.0312
  0
LINE
  8
0
 10
303.612
 20
92.0312
 11
316.176
 21
94.0752
  0
LINE
  8
0
 10
316.176
 20
94.0752
 11
316.244
 21
94.0869
  0
LINE
  8
0
 10
316.244
 20
94.0869
 11
316.312
 21
94.1006
  0
LINE
  8
0
 10
316.312
 20
94.1006
 11
316.379
 21
94.1152
  0
LINE
  8
0
 10
316.379
 20
94.1152
 11
316.446
 21
94.1309
  0
LINE
  8
0
 10
316.446
 20
94.1309
 11
316.514
 21
94.1484
  0
LINE
  8
0
 10
316.514
 20
94.1484
 11
316.58
 21
94.166
  0
LINE
  8
0
 10
316.58
 20
94.166
 11
316.646
 21
94.1855
  0
LINE
  8
0
 10
316.646
 20
94.1855
 11
316.713
 21
94.2061
  0
LINE
  8
0
 10
316.713
 20
94.2061
 11
316.778
 21
94.2275
  0
LINE
  8
0
 10
316.778
 20
94.2275
 11
316.844
 21
94.25
  0
LINE
  8
0
 10
316.844
 20
94.25
 11
316.909
 21
94.2744
  0
LINE
  8
0
 10
316.909
 20
94.2744
 11
316.974
 21
94.2988
  0
LINE
  8
0
 10
316.974
 20
94.2988
 11
317.038
 21
94.3252
  0
LINE
  8
0
 10
317.038
 20
94.3252
 11
317.102
 21
94.3525
  0
LINE
  8
0
 10
317.102
 20
94.3525
 11
317.164
 21
94.3799
  0
LINE
  8
0
 10
317.164
 20
94.3799
 11
317.228
 21
94.4092
  0
LINE
  8
0
 10
317.228
 20
94.4092
 11
317.351
 21
94.4717
  0
LINE
  8
0
 10
317.351
 20
94.4717
 11
317.412
 21
94.5039
  0
LINE
  8
0
 10
317.412
 20
94.5039
 11
317.473
 21
94.5381
  0
LINE
  8
0
 10
317.473
 20
94.5381
 11
317.532
 21
94.5723
  0
LINE
  8
0
 10
317.532
 20
94.5723
 11
317.592
 21
94.6084
  0
LINE
  8
0
 10
317.592
 20
94.6084
 11
317.65
 21
94.6445
  0
LINE
  8
0
 10
317.65
 20
94.6445
 11
317.766
 21
94.7207
  0
LINE
  8
0
 10
317.766
 20
94.7207
 11
317.822
 21
94.7607
  0
LINE
  8
0
 10
317.822
 20
94.7607
 11
317.934
 21
94.8428
  0
LINE
  8
0
 10
317.934
 20
94.8428
 11
317.988
 21
94.8857
  0
LINE
  8
0
 10
317.988
 20
94.8857
 11
318.042
 21
94.9287
  0
LINE
  8
0
 10
318.042
 20
94.9287
 11
318.147
 21
95.0186
  0
LINE
  8
0
 10
318.147
 20
95.0186
 11
318.249
 21
95.1123
  0
LINE
  8
0
 10
318.249
 20
95.1123
 11
318.299
 21
95.1602
  0
LINE
  8
0
 10
318.299
 20
95.1602
 11
318.349
 21
95.209
  0
LINE
  8
0
 10
318.349
 20
95.209
 11
318.396
 21
95.2588
  0
LINE
  8
0
 10
318.396
 20
95.2588
 11
318.49
 21
95.3604
  0
LINE
  8
0
 10
318.49
 20
95.3604
 11
318.58
 21
95.4658
  0
LINE
  8
0
 10
318.58
 20
95.4658
 11
318.624
 21
95.5195
  0
LINE
  8
0
 10
318.624
 20
95.5195
 11
318.667
 21
95.5732
  0
LINE
  8
0
 10
318.667
 20
95.5732
 11
318.749
 21
95.6846
  0
LINE
  8
0
 10
318.749
 20
95.6846
 11
318.789
 21
95.7412
  0
LINE
  8
0
 10
318.789
 20
95.7412
 11
318.828
 21
95.7988
  0
LINE
  8
0
 10
318.828
 20
95.7988
 11
318.866
 21
95.8564
  0
LINE
  8
0
 10
318.866
 20
95.8564
 11
318.938
 21
95.9736
  0
LINE
  8
0
 10
318.938
 20
95.9736
 11
318.974
 21
96.0342
  0
LINE
  8
0
 10
318.974
 20
96.0342
 11
319.007
 21
96.0938
  0
LINE
  8
0
 10
319.007
 20
96.0938
 11
319.04
 21
96.1553
  0
LINE
  8
0
 10
319.04
 20
96.1553
 11
319.103
 21
96.2783
  0
LINE
  8
0
 10
319.103
 20
96.2783
 11
319.132
 21
96.3408
  0
LINE
  8
0
 10
319.132
 20
96.3408
 11
319.188
 21
96.4678
  0
LINE
  8
0
 10
319.188
 20
96.4678
 11
319.239
 21
96.5967
  0
LINE
  8
0
 10
319.239
 20
96.5967
 11
319.263
 21
96.6611
  0
LINE
  8
0
 10
319.263
 20
96.6611
 11
319.286
 21
96.7266
  0
LINE
  8
0
 10
319.286
 20
96.7266
 11
319.308
 21
96.792
  0
LINE
  8
0
 10
319.308
 20
96.792
 11
319.328
 21
96.8584
  0
LINE
  8
0
 10
319.328
 20
96.8584
 11
319.348
 21
96.9248
  0
LINE
  8
0
 10
319.348
 20
96.9248
 11
319.366
 21
96.9912
  0
LINE
  8
0
 10
319.366
 20
96.9912
 11
319.399
 21
97.126
  0
LINE
  8
0
 10
319.399
 20
97.126
 11
319.414
 21
97.1943
  0
LINE
  8
0
 10
319.414
 20
97.1943
 11
319.428
 21
97.2607
  0
LINE
  8
0
 10
319.428
 20
97.2607
 11
319.44
 21
97.3291
  0
LINE
  8
0
 10
319.44
 20
97.3291
 11
319.462
 21
97.4658
  0
LINE
  8
0
 10
319.462
 20
97.4658
 11
319.471
 21
97.5342
  0
LINE
  8
0
 10
319.471
 20
97.5342
 11
319.479
 21
97.6035
  0
LINE
  8
0
 10
319.479
 20
97.6035
 11
319.485
 21
97.6719
  0
LINE
  8
0
 10
319.485
 20
97.6719
 11
319.49
 21
97.7412
  0
LINE
  8
0
 10
319.49
 20
97.7412
 11
319.494
 21
97.8105
  0
LINE
  8
0
 10
319.494
 20
97.8105
 11
319.498
 21
97.8789
  0
LINE
  8
0
 10
319.498
 20
97.8789
 11
319.5
 21
98.0176
  0
LINE
  8
0
 10
319.5
 20
98.0176
 11
319.5
 21
461.3
  0
LINE
  8
0
 10
319.5
 20
461.3
 11
319.499
 21
461.413
  0
ENDSEC
  0
SECTION
  2
OBJECTS
  0
DICTIONARY
  0
ENDSEC
  0
EOF
