  0
SECTION
  2
BLOCKS
  0
ENDSEC
  0
SECTION
  2
ENTITIES
  0
LINE
  8
0
 10
30.3141
 20
0.00616455
 11
30.6277
 21
0.0246582
  0
LINE
  8
0
 10
30.6277
 20
0.0246582
 11
30.9403
 21
0.0554504
  0
LINE
  8
0
 10
30.9403
 20
0.0554504
 11
31.2515
 21
0.0984802
  0
LINE
  8
0
 10
31.2515
 20
0.0984802
 11
31.5607
 21
0.153717
  0
LINE
  8
0
 10
31.5607
 20
0.153717
 11
31.8676
 21
0.221039
  0
LINE
  8
0
 10
31.8676
 20
0.221039
 11
32.1715
 21
0.300354
  0
LINE
  8
0
 10
32.1715
 20
0.300354
 11
32.4721
 21
0.391541
  0
LINE
  8
0
 10
32.4721
 20
0.391541
 11
32.7689
 21
0.494461
  0
LINE
  8
0
 10
32.7689
 20
0.494461
 11
33.0615
 21
0.608963
  0
LINE
  8
0
 10
33.0615
 20
0.608963
 11
33.3493
 21
0.734848
  0
LINE
  8
0
 10
33.3493
 20
0.734848
 11
33.6319
 21
0.871933
  0
LINE
  8
0
 10
33.6319
 20
0.871933
 11
33.909
 21
1.02002
  0
LINE
  8
0
 10
33.909
 20
1.02002
 11
34.18
 21
1.17886
  0
LINE
  8
0
 10
34.18
 20
1.17886
 11
34.4445
 21
1.34824
  0
LINE
  8
0
 10
34.4445
 20
1.34824
 11
34.7023
 21
1.52786
  0
LINE
  8
0
 10
34.7023
 20
1.52786
 11
34.9527
 21
1.71745
  0
LINE
  8
0
 10
34.9527
 20
1.71745
 11
35.1956
 21
1.91675
  0
LINE
  8
0
 10
35.1956
 20
1.91675
 11
35.4304
 21
2.12541
  0
LINE
  8
0
 10
35.4304
 20
2.12541
 11
35.6568
 21
2.34314
  0
LINE
  8
0
 10
35.6568
 20
2.34314
 11
40.3431
 21
7.65685
  0
LINE
  8
0
 10
40.3431
 20
7.65685
 11
40.5696
 21
7.87457
  0
LINE
  8
0
 10
40.5696
 20
7.87457
 11
40.8044
 21
8.08324
  0
LINE
  8
0
 10
40.8044
 20
8.08324
 11
41.0472
 21
8.28253
  0
LINE
  8
0
 10
41.0472
 20
8.28253
 11
41.2977
 21
8.47212
  0
LINE
  8
0
 10
41.2977
 20
8.47212
 11
41.5554
 21
8.65175
  0
LINE
  8
0
 10
41.5554
 20
8.65175
 11
41.82
 21
8.82112
  0
LINE
  8
0
 10
41.82
 20
8.82112
 11
42.091
 21
8.97997
  0
LINE
  8
0
 10
42.091
 20
8.97997
 11
42.3681
 21
9.12805
  0
LINE
  8
0
 10
42.3681
 20
9.12805
 11
42.6507
 21
9.26514
  0
LINE
  8
0
 10
42.6507
 20
9.26514
 11
42.9385
 21
9.39102
  0
LINE
  8
0
 10
42.9385
 20
9.39102
 11
43.231
 21
9.50552
  0
LINE
  8
0
 10
43.231
 20
9.50552
 11
43.5279
 21
9.60844
  0
LINE
  8
0
 10
43.5279
 20
9.60844
 11
43.8285
 21
9.69963
  0
LINE
  8
0
 10
43.8285
 20
9.69963
 11
44.1324
 21
9.77895
  0
LINE
  8
0
 10
44.1324
 20
9.77895
 11
44.4393
 21
9.84627
  0
LINE
  8
0
 10
44.4393
 20
9.84627
 11
44.7485
 21
9.9015
  0
LINE
  8
0
 10
44.7485
 20
9.9015
 11
45.0597
 21
9.94453
  0
LINE
  8
0
 10
45.0597
 20
9.94453
 11
45.3723
 21
9.97533
  0
LINE
  8
0
 10
45.3723
 20
9.97533
 11
45.6859
 21
9.99382
  0
LINE
  8
0
 10
45.6859
 20
9.99382
 11
46
 21
10
  0
LINE
  8
0
 10
46
 20
10
 11
292
 21
10
  0
LINE
  8
0
 10
292
 20
10
 11
292.314
 21
9.99382
  0
LINE
  8
0
 10
292.314
 20
9.99382
 11
292.628
 21
9.97533
  0
LINE
  8
0
 10
292.628
 20
9.97533
 11
292.94
 21
9.94453
  0
LINE
  8
0
 10
292.94
 20
9.94453
 11
293.251
 21
9.9015
  0
LINE
  8
0
 10
293.251
 20
9.9015
 11
293.561
 21
9.84627
  0
LINE
  8
0
 10
293.561
 20
9.84627
 11
293.868
 21
9.77895
  0
LINE
  8
0
 10
293.868
 20
9.77895
 11
294.172
 21
9.69963
  0
LINE
  8
0
 10
294.172
 20
9.69963
 11
294.472
 21
9.60844
  0
LINE
  8
0
 10
294.472
 20
9.60844
 11
294.769
 21
9.50552
  0
LINE
  8
0
 10
294.769
 20
9.50552
 11
295.061
 21
9.39102
  0
LINE
  8
0
 10
295.061
 20
9.39102
 11
295.349
 21
9.26514
  0
LINE
  8
0
 10
295.349
 20
9.26514
 11
295.632
 21
9.12805
  0
LINE
  8
0
 10
295.632
 20
9.12805
 11
295.909
 21
8.97997
  0
LINE
  8
0
 10
295.909
 20
8.97997
 11
296.18
 21
8.82112
  0
LINE
  8
0
 10
296.18
 20
8.82112
 11
296.445
 21
8.65175
  0
LINE
  8
0
 10
296.445
 20
8.65175
 11
296.702
 21
8.47212
  0
LINE
  8
0
 10
296.702
 20
8.47212
 11
296.953
 21
8.28253
  0
LINE
  8
0
 10
296.953
 20
8.28253
 11
297.196
 21
8.08324
  0
LINE
  8
0
 10
297.196
 20
8.08324
 11
297.43
 21
7.87457
  0
LINE
  8
0
 10
297.43
 20
7.87457
 11
297.657
 21
7.65685
  0
LINE
  8
0
 10
297.657
 20
7.65685
 11
302.343
 21
2.34314
  0
LINE
  8
0
 10
302.343
 20
2.34314
 11
302.57
 21
2.12541
  0
LINE
  8
0
 10
302.57
 20
2.12541
 11
302.804
 21
1.91675
  0
LINE
  8
0
 10
302.804
 20
1.91675
 11
303.047
 21
1.71745
  0
LINE
  8
0
 10
303.047
 20
1.71745
 11
303.298
 21
1.52786
  0
LINE
  8
0
 10
303.298
 20
1.52786
 11
303.555
 21
1.34824
  0
LINE
  8
0
 10
303.555
 20
1.34824
 11
303.82
 21
1.17886
  0
LINE
  8
0
 10
303.82
 20
1.17886
 11
304.091
 21
1.02002
  0
LINE
  8
0
 10
304.091
 20
1.02002
 11
304.368
 21
0.871933
  0
LINE
  8
0
 10
304.368
 20
0.871933
 11
304.651
 21
0.734848
  0
LINE
  8
0
 10
304.651
 20
0.734848
 11
304.939
 21
0.608963
  0
LINE
  8
0
 10
304.939
 20
0.608963
 11
305.231
 21
0.494461
  0
LINE
  8
0
 10
305.231
 20
0.494461
 11
305.528
 21
0.391541
  0
LINE
  8
0
 10
305.528
 20
0.391541
 11
305.828
 21
0.300354
  0
LINE
  8
0
 10
305.828
 20
0.300354
 11
306.132
 21
0.221039
  0
LINE
  8
0
 10
306.132
 20
0.221039
 11
306.439
 21
0.153717
  0
LINE
  8
0
 10
306.439
 20
0.153717
 11
306.749
 21
0.0984802
  0
LINE
  8
0
 10
306.749
 20
0.0984802
 11
307.06
 21
0.0554504
  0
LINE
  8
0
 10
307.06
 20
0.0554504
 11
307.372
 21
0.0246582
  0
LINE
  8
0
 10
307.372
 20
0.0246582
 11
307.686
 21
0.00616455
  0
LINE
  8
0
 10
307.686
 20
0.00616455
 11
308
 21
0
  0
LINE
  8
0
 10
308
 20
0
 11
331
 21
0
  0
LINE
  8
0
 10
331
 20
0
 11
331.078
 21
0.00308228
  0
LINE
  8
0
 10
331.078
 20
0.00308228
 11
331.156
 21
0.0122986
  0
LINE
  8
0
 10
331.156
 20
0.0122986
 11
331.233
 21
0.0276184
  0
LINE
  8
0
 10
331.233
 20
0.0276184
 11
331.309
 21
0.0489349
  0
LINE
  8
0
 10
331.309
 20
0.0489349
 11
331.383
 21
0.0761108
  0
LINE
  8
0
 10
331.383
 20
0.0761108
 11
331.454
 21
0.108978
  0
LINE
  8
0
 10
331.454
 20
0.108978
 11
331.522
 21
0.147354
  0
LINE
  8
0
 10
331.522
 20
0.147354
 11
331.588
 21
0.190979
  0
LINE
  8
0
 10
331.588
 20
0.190979
 11
331.649
 21
0.239594
  0
LINE
  8
0
 10
331.649
 20
0.239594
 11
331.707
 21
0.292892
  0
LINE
  8
0
 10
331.707
 20
0.292892
 11
331.76
 21
0.35054
  0
LINE
  8
0
 10
331.76
 20
0.35054
 11
331.809
 21
0.412201
  0
LINE
  8
0
 10
331.809
 20
0.412201
 11
331.853
 21
0.477493
  0
LINE
  8
0
 10
331.853
 20
0.477493
 11
331.891
 21
0.546005
  0
LINE
  8
0
 10
331.891
 20
0.546005
 11
331.924
 21
0.61731
  0
LINE
  8
0
 10
331.924
 20
0.61731
 11
331.951
 21
0.690979
  0
LINE
  8
0
 10
331.951
 20
0.690979
 11
331.972
 21
0.766541
  0
LINE
  8
0
 10
331.972
 20
0.766541
 11
331.988
 21
0.843552
  0
LINE
  8
0
 10
331.988
 20
0.843552
 11
331.997
 21
0.921539
  0
LINE
  8
0
 10
331.997
 20
0.921539
 11
332
 21
1
  0
LINE
  8
0
 10
332
 20
1
 11
332
 21
21.8889
  0
LINE
  8
0
 10
332
 20
21.8889
 11
332.003
 21
21.9673
  0
LINE
  8
0
 10
332.003
 20
21.9673
 11
332.012
 21
22.0453
  0
LINE
  8
0
 10
332.012
 20
22.0453
 11
332.028
 21
22.1223
  0
LINE
  8
0
 10
332.028
 20
22.1223
 11
332.049
 21
22.1979
  0
LINE
  8
0
 10
332.049
 20
22.1979
 11
332.076
 21
22.2716
  0
LINE
  8
0
 10
332.076
 20
22.2716
 11
332.109
 21
22.3429
  0
LINE
  8
0
 10
332.109
 20
22.3429
 11
332.147
 21
22.4114
  0
LINE
  8
0
 10
332.147
 20
22.4114
 11
332.191
 21
22.4767
  0
LINE
  8
0
 10
332.191
 20
22.4767
 11
332.24
 21
22.5383
  0
LINE
  8
0
 10
332.24
 20
22.5383
 11
332.293
 21
22.596
  0
LINE
  8
0
 10
332.293
 20
22.596
 11
332.351
 21
22.6493
  0
LINE
  8
0
 10
332.351
 20
22.6493
 11
332.412
 21
22.6979
  0
LINE
  8
0
 10
332.412
 20
22.6979
 11
332.477
 21
22.7415
  0
LINE
  8
0
 10
332.477
 20
22.7415
 11
332.546
 21
22.7799
  0
LINE
  8
0
 10
332.546
 20
22.7799
 11
332.617
 21
22.8128
  0
LINE
  8
0
 10
332.617
 20
22.8128
 11
332.691
 21
22.8399
  0
LINE
  8
0
 10
332.691
 20
22.8399
 11
332.767
 21
22.8613
  0
LINE
  8
0
 10
332.767
 20
22.8613
 11
332.844
 21
22.8766
  0
LINE
  8
0
 10
332.844
 20
22.8766
 11
332.922
 21
22.8858
  0
LINE
  8
0
 10
332.922
 20
22.8858
 11
333
 21
22.8889
  0
LINE
  8
0
 10
333
 20
22.8889
 11
338
 21
22.8889
  0
LINE
  8
0
 10
338
 20
22.8889
 11
338
 21
32.8889
  0
LINE
  8
0
 10
338
 20
32.8889
 11
333
 21
32.8889
  0
LINE
  8
0
 10
333
 20
32.8889
 11
332.922
 21
32.892
  0
LINE
  8
0
 10
332.922
 20
32.892
 11
332.844
 21
32.9012
  0
LINE
  8
0
 10
332.844
 20
32.9012
 11
332.767
 21
32.9165
  0
LINE
  8
0
 10
332.767
 20
32.9165
 11
332.691
 21
32.9378
  0
LINE
  8
0
 10
332.691
 20
32.9378
 11
332.617
 21
32.965
  0
LINE
  8
0
 10
332.617
 20
32.965
 11
332.546
 21
32.9979
  0
LINE
  8
0
 10
332.546
 20
32.9979
 11
332.477
 21
33.0362
  0
LINE
  8
0
 10
332.477
 20
33.0362
 11
332.412
 21
33.0799
  0
LINE
  8
0
 10
332.412
 20
33.0799
 11
332.351
 21
33.1285
  0
LINE
  8
0
 10
332.351
 20
33.1285
 11
332.293
 21
33.1818
  0
LINE
  8
0
 10
332.293
 20
33.1818
 11
332.24
 21
33.2394
  0
LINE
  8
0
 10
332.24
 20
33.2394
 11
332.191
 21
33.3011
  0
LINE
  8
0
 10
332.191
 20
33.3011
 11
332.147
 21
33.3664
  0
LINE
  8
0
 10
332.147
 20
33.3664
 11
332.109
 21
33.4349
  0
LINE
  8
0
 10
332.109
 20
33.4349
 11
332.076
 21
33.5062
  0
LINE
  8
0
 10
332.076
 20
33.5062
 11
332.049
 21
33.5799
  0
LINE
  8
0
 10
332.049
 20
33.5799
 11
332.028
 21
33.6554
  0
LINE
  8
0
 10
332.028
 20
33.6554
 11
332.012
 21
33.7325
  0
LINE
  8
0
 10
332.012
 20
33.7325
 11
332.003
 21
33.8104
  0
LINE
  8
0
 10
332.003
 20
33.8104
 11
332
 21
33.8889
  0
LINE
  8
0
 10
332
 20
33.8889
 11
332
 21
76.6667
  0
LINE
  8
0
 10
332
 20
76.6667
 11
332.003
 21
76.7451
  0
LINE
  8
0
 10
332.003
 20
76.7451
 11
332.012
 21
76.8231
  0
LINE
  8
0
 10
332.012
 20
76.8231
 11
332.028
 21
76.9001
  0
LINE
  8
0
 10
332.028
 20
76.9001
 11
332.049
 21
76.9757
  0
LINE
  8
0
 10
332.049
 20
76.9757
 11
332.076
 21
77.0493
  0
LINE
  8
0
 10
332.076
 20
77.0493
 11
332.109
 21
77.1207
  0
LINE
  8
0
 10
332.109
 20
77.1207
 11
332.147
 21
77.1892
  0
LINE
  8
0
 10
332.147
 20
77.1892
 11
332.191
 21
77.2544
  0
LINE
  8
0
 10
332.191
 20
77.2544
 11
332.24
 21
77.3161
  0
LINE
  8
0
 10
332.24
 20
77.3161
 11
332.293
 21
77.3738
  0
LINE
  8
0
 10
332.293
 20
77.3738
 11
332.351
 21
77.4271
  0
LINE
  8
0
 10
332.351
 20
77.4271
 11
332.412
 21
77.4757
  0
LINE
  8
0
 10
332.412
 20
77.4757
 11
332.477
 21
77.5193
  0
LINE
  8
0
 10
332.477
 20
77.5193
 11
332.546
 21
77.5577
  0
LINE
  8
0
 10
332.546
 20
77.5577
 11
332.617
 21
77.5905
  0
LINE
  8
0
 10
332.617
 20
77.5905
 11
332.691
 21
77.6177
  0
LINE
  8
0
 10
332.691
 20
77.6177
 11
332.767
 21
77.639
  0
LINE
  8
0
 10
332.767
 20
77.639
 11
332.844
 21
77.6543
  0
LINE
  8
0
 10
332.844
 20
77.6543
 11
332.922
 21
77.6636
  0
LINE
  8
0
 10
332.922
 20
77.6636
 11
333
 21
77.6667
  0
LINE
  8
0
 10
333
 20
77.6667
 11
338
 21
77.6667
  0
LINE
  8
0
 10
338
 20
77.6667
 11
338
 21
87.6667
  0
LINE
  8
0
 10
338
 20
87.6667
 11
333
 21
87.6667
  0
LINE
  8
0
 10
333
 20
87.6667
 11
332.922
 21
87.6697
  0
LINE
  8
0
 10
332.922
 20
87.6697
 11
332.844
 21
87.679
  0
LINE
  8
0
 10
332.844
 20
87.679
 11
332.767
 21
87.6943
  0
LINE
  8
0
 10
332.767
 20
87.6943
 11
332.691
 21
87.7156
  0
LINE
  8
0
 10
332.691
 20
87.7156
 11
332.617
 21
87.7428
  0
LINE
  8
0
 10
332.617
 20
87.7428
 11
332.546
 21
87.7757
  0
LINE
  8
0
 10
332.546
 20
87.7757
 11
332.477
 21
87.814
  0
LINE
  8
0
 10
332.477
 20
87.814
 11
332.412
 21
87.8576
  0
LINE
  8
0
 10
332.412
 20
87.8576
 11
332.351
 21
87.9062
  0
LINE
  8
0
 10
332.351
 20
87.9062
 11
332.293
 21
87.9595
  0
LINE
  8
0
 10
332.293
 20
87.9595
 11
332.24
 21
88.0172
  0
LINE
  8
0
 10
332.24
 20
88.0172
 11
332.191
 21
88.0789
  0
LINE
  8
0
 10
332.191
 20
88.0789
 11
332.147
 21
88.1442
  0
LINE
  8
0
 10
332.147
 20
88.1442
 11
332.109
 21
88.2127
  0
LINE
  8
0
 10
332.109
 20
88.2127
 11
332.076
 21
88.284
  0
LINE
  8
0
 10
332.076
 20
88.284
 11
332.049
 21
88.3576
  0
LINE
  8
0
 10
332.049
 20
88.3576
 11
332.028
 21
88.4332
  0
LINE
  8
0
 10
332.028
 20
88.4332
 11
332.012
 21
88.5102
  0
LINE
  8
0
 10
332.012
 20
88.5102
 11
332.003
 21
88.5882
  0
LINE
  8
0
 10
332.003
 20
88.5882
 11
332
 21
88.6667
  0
LINE
  8
0
 10
332
 20
88.6667
 11
332
 21
131.444
  0
LINE
  8
0
 10
332
 20
131.444
 11
332.003
 21
131.523
  0
LINE
  8
0
 10
332.003
 20
131.523
 11
332.012
 21
131.601
  0
LINE
  8
0
 10
332.012
 20
131.601
 11
332.028
 21
131.678
  0
LINE
  8
0
 10
332.028
 20
131.678
 11
332.049
 21
131.753
  0
LINE
  8
0
 10
332.049
 20
131.753
 11
332.076
 21
131.827
  0
LINE
  8
0
 10
332.076
 20
131.827
 11
332.109
 21
131.898
  0
LINE
  8
0
 10
332.109
 20
131.898
 11
332.147
 21
131.967
  0
LINE
  8
0
 10
332.147
 20
131.967
 11
332.191
 21
132.032
  0
LINE
  8
0
 10
332.191
 20
132.032
 11
332.24
 21
132.094
  0
LINE
  8
0
 10
332.24
 20
132.094
 11
332.293
 21
132.152
  0
LINE
  8
0
 10
332.293
 20
132.152
 11
332.351
 21
132.205
  0
LINE
  8
0
 10
332.351
 20
132.205
 11
332.412
 21
132.253
  0
LINE
  8
0
 10
332.412
 20
132.253
 11
332.477
 21
132.297
  0
LINE
  8
0
 10
332.477
 20
132.297
 11
332.546
 21
132.335
  0
LINE
  8
0
 10
332.546
 20
132.335
 11
332.617
 21
132.368
  0
LINE
  8
0
 10
332.617
 20
132.368
 11
332.691
 21
132.395
  0
LINE
  8
0
 10
332.691
 20
132.395
 11
332.767
 21
132.417
  0
LINE
  8
0
 10
332.767
 20
132.417
 11
332.844
 21
132.432
  0
LINE
  8
0
 10
332.844
 20
132.432
 11
332.922
 21
132.441
  0
LINE
  8
0
 10
332.922
 20
132.441
 11
333
 21
132.444
  0
LINE
  8
0
 10
333
 20
132.444
 11
338
 21
132.444
  0
LINE
  8
0
 10
338
 20
132.444
 11
338
 21
142.444
  0
LINE
  8
0
 10
338
 20
142.444
 11
333
 21
142.444
  0
LINE
  8
0
 10
333
 20
142.444
 11
332.922
 21
142.448
  0
LINE
  8
0
 10
332.922
 20
142.448
 11
332.844
 21
142.457
  0
LINE
  8
0
 10
332.844
 20
142.457
 11
332.767
 21
142.472
  0
LINE
  8
0
 10
332.767
 20
142.472
 11
332.691
 21
142.493
  0
LINE
  8
0
 10
332.691
 20
142.493
 11
332.617
 21
142.521
  0
LINE
  8
0
 10
332.617
 20
142.521
 11
332.546
 21
142.553
  0
LINE
  8
0
 10
332.546
 20
142.553
 11
332.477
 21
142.592
  0
LINE
  8
0
 10
332.477
 20
142.592
 11
332.412
 21
142.635
  0
LINE
  8
0
 10
332.412
 20
142.635
 11
332.351
 21
142.684
  0
LINE
  8
0
 10
332.351
 20
142.684
 11
332.293
 21
142.737
  0
LINE
  8
0
 10
332.293
 20
142.737
 11
332.24
 21
142.795
  0
LINE
  8
0
 10
332.24
 20
142.795
 11
332.191
 21
142.857
  0
LINE
  8
0
 10
332.191
 20
142.857
 11
332.147
 21
142.922
  0
LINE
  8
0
 10
332.147
 20
142.922
 11
332.109
 21
142.99
  0
LINE
  8
0
 10
332.109
 20
142.99
 11
332.076
 21
143.062
  0
LINE
  8
0
 10
332.076
 20
143.062
 11
332.049
 21
143.135
  0
LINE
  8
0
 10
332.049
 20
143.135
 11
332.028
 21
143.211
  0
LINE
  8
0
 10
332.028
 20
143.211
 11
332.012
 21
143.288
  0
LINE
  8
0
 10
332.012
 20
143.288
 11
332.003
 21
143.366
  0
LINE
  8
0
 10
332.003
 20
143.366
 11
332
 21
143.444
  0
LINE
  8
0
 10
332
 20
143.444
 11
332
 21
186.222
  0
LINE
  8
0
 10
332
 20
186.222
 11
332.003
 21
186.301
  0
LINE
  8
0
 10
332.003
 20
186.301
 11
332.012
 21
186.379
  0
LINE
  8
0
 10
332.012
 20
186.379
 11
332.028
 21
186.456
  0
LINE
  8
0
 10
332.028
 20
186.456
 11
332.049
 21
186.531
  0
LINE
  8
0
 10
332.049
 20
186.531
 11
332.076
 21
186.605
  0
LINE
  8
0
 10
332.076
 20
186.605
 11
332.109
 21
186.676
  0
LINE
  8
0
 10
332.109
 20
186.676
 11
332.147
 21
186.745
  0
LINE
  8
0
 10
332.147
 20
186.745
 11
332.191
 21
186.81
  0
LINE
  8
0
 10
332.191
 20
186.81
 11
332.24
 21
186.872
  0
LINE
  8
0
 10
332.24
 20
186.872
 11
332.293
 21
186.929
  0
LINE
  8
0
 10
332.293
 20
186.929
 11
332.351
 21
186.983
  0
LINE
  8
0
 10
332.351
 20
186.983
 11
332.412
 21
187.031
  0
LINE
  8
0
 10
332.412
 20
187.031
 11
332.477
 21
187.075
  0
LINE
  8
0
 10
332.477
 20
187.075
 11
332.546
 21
187.113
  0
LINE
  8
0
 10
332.546
 20
187.113
 11
332.617
 21
187.146
  0
LINE
  8
0
 10
332.617
 20
187.146
 11
332.691
 21
187.173
  0
LINE
  8
0
 10
332.691
 20
187.173
 11
332.767
 21
187.195
  0
LINE
  8
0
 10
332.767
 20
187.195
 11
332.844
 21
187.21
  0
LINE
  8
0
 10
332.844
 20
187.21
 11
332.922
 21
187.219
  0
LINE
  8
0
 10
332.922
 20
187.219
 11
333
 21
187.222
  0
LINE
  8
0
 10
333
 20
187.222
 11
338
 21
187.222
  0
LINE
  8
0
 10
338
 20
187.222
 11
338
 21
197.222
  0
LINE
  8
0
 10
338
 20
197.222
 11
333
 21
197.222
  0
LINE
  8
0
 10
333
 20
197.222
 11
332.922
 21
197.225
  0
LINE
  8
0
 10
332.922
 20
197.225
 11
332.844
 21
197.235
  0
LINE
  8
0
 10
332.844
 20
197.235
 11
332.767
 21
197.25
  0
LINE
  8
0
 10
332.767
 20
197.25
 11
332.691
 21
197.271
  0
LINE
  8
0
 10
332.691
 20
197.271
 11
332.617
 21
197.298
  0
LINE
  8
0
 10
332.617
 20
197.298
 11
332.546
 21
197.331
  0
LINE
  8
0
 10
332.546
 20
197.331
 11
332.477
 21
197.37
  0
LINE
  8
0
 10
332.477
 20
197.37
 11
332.412
 21
197.413
  0
LINE
  8
0
 10
332.412
 20
197.413
 11
332.351
 21
197.462
  0
LINE
  8
0
 10
332.351
 20
197.462
 11
332.293
 21
197.515
  0
LINE
  8
0
 10
332.293
 20
197.515
 11
332.24
 21
197.573
  0
LINE
  8
0
 10
332.24
 20
197.573
 11
332.191
 21
197.634
  0
LINE
  8
0
 10
332.191
 20
197.634
 11
332.147
 21
197.7
  0
LINE
  8
0
 10
332.147
 20
197.7
 11
332.109
 21
197.768
  0
LINE
  8
0
 10
332.109
 20
197.768
 11
332.076
 21
197.84
  0
LINE
  8
0
 10
332.076
 20
197.84
 11
332.049
 21
197.913
  0
LINE
  8
0
 10
332.049
 20
197.913
 11
332.028
 21
197.989
  0
LINE
  8
0
 10
332.028
 20
197.989
 11
332.012
 21
198.066
  0
LINE
  8
0
 10
332.012
 20
198.066
 11
332.003
 21
198.144
  0
LINE
  8
0
 10
332.003
 20
198.144
 11
332
 21
198.222
  0
LINE
  8
0
 10
332
 20
198.222
 11
332
 21
241
  0
LINE
  8
0
 10
332
 20
241
 11
332.003
 21
241.078
  0
LINE
  8
0
 10
332.003
 20
241.078
 11
332.012
 21
241.156
  0
LINE
  8
0
 10
332.012
 20
241.156
 11
332.028
 21
241.233
  0
LINE
  8
0
 10
332.028
 20
241.233
 11
332.049
 21
241.309
  0
LINE
  8
0
 10
332.049
 20
241.309
 11
332.076
 21
241.383
  0
LINE
  8
0
 10
332.076
 20
241.383
 11
332.109
 21
241.454
  0
LINE
  8
0
 10
332.109
 20
241.454
 11
332.147
 21
241.522
  0
LINE
  8
0
 10
332.147
 20
241.522
 11
332.191
 21
241.588
  0
LINE
  8
0
 10
332.191
 20
241.588
 11
332.24
 21
241.649
  0
LINE
  8
0
 10
332.24
 20
241.649
 11
332.293
 21
241.707
  0
LINE
  8
0
 10
332.293
 20
241.707
 11
332.351
 21
241.76
  0
LINE
  8
0
 10
332.351
 20
241.76
 11
332.412
 21
241.809
  0
LINE
  8
0
 10
332.412
 20
241.809
 11
332.477
 21
241.853
  0
LINE
  8
0
 10
332.477
 20
241.853
 11
332.546
 21
241.891
  0
LINE
  8
0
 10
332.546
 20
241.891
 11
332.617
 21
241.924
  0
LINE
  8
0
 10
332.617
 20
241.924
 11
332.691
 21
241.951
  0
LINE
  8
0
 10
332.691
 20
241.951
 11
332.767
 21
241.972
  0
LINE
  8
0
 10
332.767
 20
241.972
 11
332.844
 21
241.988
  0
LINE
  8
0
 10
332.844
 20
241.988
 11
332.922
 21
241.997
  0
LINE
  8
0
 10
332.922
 20
241.997
 11
333
 21
242
  0
LINE
  8
0
 10
333
 20
242
 11
338
 21
242
  0
LINE
  8
0
 10
338
 20
242
 11
338
 21
252
  0
LINE
  8
0
 10
338
 20
252
 11
333
 21
252
  0
LINE
  8
0
 10
333
 20
252
 11
332.922
 21
252.003
  0
LINE
  8
0
 10
332.922
 20
252.003
 11
332.844
 21
252.012
  0
LINE
  8
0
 10
332.844
 20
252.012
 11
332.767
 21
252.028
  0
LINE
  8
0
 10
332.767
 20
252.028
 11
332.691
 21
252.049
  0
LINE
  8
0
 10
332.691
 20
252.049
 11
332.617
 21
252.076
  0
LINE
  8
0
 10
332.617
 20
252.076
 11
332.546
 21
252.109
  0
LINE
  8
0
 10
332.546
 20
252.109
 11
332.477
 21
252.147
  0
LINE
  8
0
 10
332.477
 20
252.147
 11
332.412
 21
252.191
  0
LINE
  8
0
 10
332.412
 20
252.191
 11
332.351
 21
252.24
  0
LINE
  8
0
 10
332.351
 20
252.24
 11
332.293
 21
252.293
  0
LINE
  8
0
 10
332.293
 20
252.293
 11
332.24
 21
252.351
  0
LINE
  8
0
 10
332.24
 20
252.351
 11
332.191
 21
252.412
  0
LINE
  8
0
 10
332.191
 20
252.412
 11
332.147
 21
252.477
  0
LINE
  8
0
 10
332.147
 20
252.477
 11
332.109
 21
252.546
  0
LINE
  8
0
 10
332.109
 20
252.546
 11
332.076
 21
252.617
  0
LINE
  8
0
 10
332.076
 20
252.617
 11
332.049
 21
252.691
  0
LINE
  8
0
 10
332.049
 20
252.691
 11
332.028
 21
252.767
  0
LINE
  8
0
 10
332.028
 20
252.767
 11
332.012
 21
252.844
  0
LINE
  8
0
 10
332.012
 20
252.844
 11
332.003
 21
252.922
  0
LINE
  8
0
 10
332.003
 20
252.922
 11
332
 21
253
  0
LINE
  8
0
 10
332
 20
253
 11
332
 21
295.778
  0
LINE
  8
0
 10
332
 20
295.778
 11
332.003
 21
295.856
  0
LINE
  8
0
 10
332.003
 20
295.856
 11
332.012
 21
295.934
  0
LINE
  8
0
 10
332.012
 20
295.934
 11
332.028
 21
296.011
  0
LINE
  8
0
 10
332.028
 20
296.011
 11
332.049
 21
296.087
  0
LINE
  8
0
 10
332.049
 20
296.087
 11
332.076
 21
296.16
  0
LINE
  8
0
 10
332.076
 20
296.16
 11
332.109
 21
296.232
  0
LINE
  8
0
 10
332.109
 20
296.232
 11
332.147
 21
296.3
  0
LINE
  8
0
 10
332.147
 20
296.3
 11
332.191
 21
296.366
  0
LINE
  8
0
 10
332.191
 20
296.366
 11
332.24
 21
296.427
  0
LINE
  8
0
 10
332.24
 20
296.427
 11
332.293
 21
296.485
  0
LINE
  8
0
 10
332.293
 20
296.485
 11
332.351
 21
296.538
  0
LINE
  8
0
 10
332.351
 20
296.538
 11
332.412
 21
296.587
  0
LINE
  8
0
 10
332.412
 20
296.587
 11
332.477
 21
296.63
  0
LINE
  8
0
 10
332.477
 20
296.63
 11
332.546
 21
296.669
  0
LINE
  8
0
 10
332.546
 20
296.669
 11
332.617
 21
296.702
  0
LINE
  8
0
 10
332.617
 20
296.702
 11
332.691
 21
296.729
  0
LINE
  8
0
 10
332.691
 20
296.729
 11
332.767
 21
296.75
  0
LINE
  8
0
 10
332.767
 20
296.75
 11
332.844
 21
296.765
  0
LINE
  8
0
 10
332.844
 20
296.765
 11
332.922
 21
296.775
  0
LINE
  8
0
 10
332.922
 20
296.775
 11
333
 21
296.778
  0
LINE
  8
0
 10
333
 20
296.778
 11
338
 21
296.778
  0
LINE
  8
0
 10
338
 20
296.778
 11
338
 21
306.778
  0
LINE
  8
0
 10
338
 20
306.778
 11
333
 21
306.778
  0
LINE
  8
0
 10
333
 20
306.778
 11
332.922
 21
306.781
  0
LINE
  8
0
 10
332.922
 20
306.781
 11
332.844
 21
306.79
  0
LINE
  8
0
 10
332.844
 20
306.79
 11
332.767
 21
306.805
  0
LINE
  8
0
 10
332.767
 20
306.805
 11
332.691
 21
306.827
  0
LINE
  8
0
 10
332.691
 20
306.827
 11
332.617
 21
306.854
  0
LINE
  8
0
 10
332.617
 20
306.854
 11
332.546
 21
306.887
  0
LINE
  8
0
 10
332.546
 20
306.887
 11
332.477
 21
306.925
  0
LINE
  8
0
 10
332.477
 20
306.925
 11
332.412
 21
306.969
  0
LINE
  8
0
 10
332.412
 20
306.969
 11
332.351
 21
307.017
  0
LINE
  8
0
 10
332.351
 20
307.017
 11
332.293
 21
307.071
  0
LINE
  8
0
 10
332.293
 20
307.071
 11
332.24
 21
307.128
  0
LINE
  8
0
 10
332.24
 20
307.128
 11
332.191
 21
307.19
  0
LINE
  8
0
 10
332.191
 20
307.19
 11
332.147
 21
307.255
  0
LINE
  8
0
 10
332.147
 20
307.255
 11
332.109
 21
307.324
  0
LINE
  8
0
 10
332.109
 20
307.324
 11
332.076
 21
307.395
  0
LINE
  8
0
 10
332.076
 20
307.395
 11
332.049
 21
307.469
  0
LINE
  8
0
 10
332.049
 20
307.469
 11
332.028
 21
307.544
  0
LINE
  8
0
 10
332.028
 20
307.544
 11
332.012
 21
307.621
  0
LINE
  8
0
 10
332.012
 20
307.621
 11
332.003
 21
307.699
  0
LINE
  8
0
 10
332.003
 20
307.699
 11
332
 21
307.778
  0
LINE
  8
0
 10
332
 20
307.778
 11
332
 21
350.556
  0
LINE
  8
0
 10
332
 20
350.556
 11
332.003
 21
350.634
  0
LINE
  8
0
 10
332.003
 20
350.634
 11
332.012
 21
350.712
  0
LINE
  8
0
 10
332.012
 20
350.712
 11
332.028
 21
350.789
  0
LINE
  8
0
 10
332.028
 20
350.789
 11
332.049
 21
350.865
  0
LINE
  8
0
 10
332.049
 20
350.865
 11
332.076
 21
350.938
  0
LINE
  8
0
 10
332.076
 20
350.938
 11
332.109
 21
351.01
  0
LINE
  8
0
 10
332.109
 20
351.01
 11
332.147
 21
351.078
  0
LINE
  8
0
 10
332.147
 20
351.078
 11
332.191
 21
351.143
  0
LINE
  8
0
 10
332.191
 20
351.143
 11
332.24
 21
351.205
  0
LINE
  8
0
 10
332.24
 20
351.205
 11
332.293
 21
351.263
  0
LINE
  8
0
 10
332.293
 20
351.263
 11
332.351
 21
351.316
  0
LINE
  8
0
 10
332.351
 20
351.316
 11
332.412
 21
351.365
  0
LINE
  8
0
 10
332.412
 20
351.365
 11
332.477
 21
351.408
  0
LINE
  8
0
 10
332.477
 20
351.408
 11
332.546
 21
351.447
  0
LINE
  8
0
 10
332.546
 20
351.447
 11
332.617
 21
351.479
  0
LINE
  8
0
 10
332.617
 20
351.479
 11
332.691
 21
351.507
  0
LINE
  8
0
 10
332.691
 20
351.507
 11
332.767
 21
351.528
  0
LINE
  8
0
 10
332.767
 20
351.528
 11
332.844
 21
351.543
  0
LINE
  8
0
 10
332.844
 20
351.543
 11
332.922
 21
351.552
  0
LINE
  8
0
 10
332.922
 20
351.552
 11
333
 21
351.556
  0
LINE
  8
0
 10
333
 20
351.556
 11
338
 21
351.556
  0
LINE
  8
0
 10
338
 20
351.556
 11
338
 21
361.556
  0
LINE
  8
0
 10
338
 20
361.556
 11
333
 21
361.556
  0
LINE
  8
0
 10
333
 20
361.556
 11
332.922
 21
361.559
  0
LINE
  8
0
 10
332.922
 20
361.559
 11
332.844
 21
361.568
  0
LINE
  8
0
 10
332.844
 20
361.568
 11
332.767
 21
361.583
  0
LINE
  8
0
 10
332.767
 20
361.583
 11
332.691
 21
361.604
  0
LINE
  8
0
 10
332.691
 20
361.604
 11
332.617
 21
361.632
  0
LINE
  8
0
 10
332.617
 20
361.632
 11
332.546
 21
361.665
  0
LINE
  8
0
 10
332.546
 20
361.665
 11
332.477
 21
361.703
  0
LINE
  8
0
 10
332.477
 20
361.703
 11
332.412
 21
361.747
  0
LINE
  8
0
 10
332.412
 20
361.747
 11
332.351
 21
361.795
  0
LINE
  8
0
 10
332.351
 20
361.795
 11
332.293
 21
361.848
  0
LINE
  8
0
 10
332.293
 20
361.848
 11
332.24
 21
361.906
  0
LINE
  8
0
 10
332.24
 20
361.906
 11
332.191
 21
361.968
  0
LINE
  8
0
 10
332.191
 20
361.968
 11
332.147
 21
362.033
  0
LINE
  8
0
 10
332.147
 20
362.033
 11
332.109
 21
362.102
  0
LINE
  8
0
 10
332.109
 20
362.102
 11
332.076
 21
362.173
  0
LINE
  8
0
 10
332.076
 20
362.173
 11
332.049
 21
362.247
  0
LINE
  8
0
 10
332.049
 20
362.247
 11
332.028
 21
362.322
  0
LINE
  8
0
 10
332.028
 20
362.322
 11
332.012
 21
362.399
  0
LINE
  8
0
 10
332.012
 20
362.399
 11
332.003
 21
362.477
  0
LINE
  8
0
 10
332.003
 20
362.477
 11
332
 21
362.556
  0
LINE
  8
0
 10
332
 20
362.556
 11
332
 21
405.333
  0
LINE
  8
0
 10
332
 20
405.333
 11
332.003
 21
405.412
  0
LINE
  8
0
 10
332.003
 20
405.412
 11
332.012
 21
405.49
  0
LINE
  8
0
 10
332.012
 20
405.49
 11
332.028
 21
405.567
  0
LINE
  8
0
 10
332.028
 20
405.567
 11
332.049
 21
405.642
  0
LINE
  8
0
 10
332.049
 20
405.642
 11
332.076
 21
405.716
  0
LINE
  8
0
 10
332.076
 20
405.716
 11
332.109
 21
405.787
  0
LINE
  8
0
 10
332.109
 20
405.787
 11
332.147
 21
405.856
  0
LINE
  8
0
 10
332.147
 20
405.856
 11
332.191
 21
405.921
  0
LINE
  8
0
 10
332.191
 20
405.921
 11
332.24
 21
405.983
  0
LINE
  8
0
 10
332.24
 20
405.983
 11
332.293
 21
406.04
  0
LINE
  8
0
 10
332.293
 20
406.04
 11
332.351
 21
406.094
  0
LINE
  8
0
 10
332.351
 20
406.094
 11
332.412
 21
406.142
  0
LINE
  8
0
 10
332.412
 20
406.142
 11
332.477
 21
406.186
  0
LINE
  8
0
 10
332.477
 20
406.186
 11
332.546
 21
406.224
  0
LINE
  8
0
 10
332.546
 20
406.224
 11
332.617
 21
406.257
  0
LINE
  8
0
 10
332.617
 20
406.257
 11
332.691
 21
406.284
  0
LINE
  8
0
 10
332.691
 20
406.284
 11
332.767
 21
406.306
  0
LINE
  8
0
 10
332.767
 20
406.306
 11
332.844
 21
406.321
  0
LINE
  8
0
 10
332.844
 20
406.321
 11
332.922
 21
406.33
  0
LINE
  8
0
 10
332.922
 20
406.33
 11
333
 21
406.333
  0
LINE
  8
0
 10
333
 20
406.333
 11
338
 21
406.333
  0
LINE
  8
0
 10
338
 20
406.333
 11
338
 21
416.333
  0
LINE
  8
0
 10
338
 20
416.333
 11
333
 21
416.333
  0
LINE
  8
0
 10
333
 20
416.333
 11
332.922
 21
416.336
  0
LINE
  8
0
 10
332.922
 20
416.336
 11
332.844
 21
416.346
  0
LINE
  8
0
 10
332.844
 20
416.346
 11
332.767
 21
416.361
  0
LINE
  8
0
 10
332.767
 20
416.361
 11
332.691
 21
416.382
  0
LINE
  8
0
 10
332.691
 20
416.382
 11
332.617
 21
416.409
  0
LINE
  8
0
 10
332.617
 20
416.409
 11
332.546
 21
416.442
  0
LINE
  8
0
 10
332.546
 20
416.442
 11
332.477
 21
416.481
  0
LINE
  8
0
 10
332.477
 20
416.481
 11
332.412
 21
416.524
  0
LINE
  8
0
 10
332.412
 20
416.524
 11
332.351
 21
416.573
  0
LINE
  8
0
 10
332.351
 20
416.573
 11
332.293
 21
416.626
  0
LINE
  8
0
 10
332.293
 20
416.626
 11
332.24
 21
416.684
  0
LINE
  8
0
 10
332.24
 20
416.684
 11
332.191
 21
416.746
  0
LINE
  8
0
 10
332.191
 20
416.746
 11
332.147
 21
416.811
  0
LINE
  8
0
 10
332.147
 20
416.811
 11
332.109
 21
416.879
  0
LINE
  8
0
 10
332.109
 20
416.879
 11
332.076
 21
416.951
  0
LINE
  8
0
 10
332.076
 20
416.951
 11
332.049
 21
417.024
  0
LINE
  8
0
 10
332.049
 20
417.024
 11
332.028
 21
417.1
  0
LINE
  8
0
 10
332.028
 20
417.1
 11
332.012
 21
417.177
  0
LINE
  8
0
 10
332.012
 20
417.177
 11
332.003
 21
417.255
  0
LINE
  8
0
 10
332.003
 20
417.255
 11
332
 21
417.333
  0
LINE
  8
0
 10
332
 20
417.333
 11
332
 21
460.111
  0
LINE
  8
0
 10
332
 20
460.111
 11
332.003
 21
460.19
  0
LINE
  8
0
 10
332.003
 20
460.19
 11
332.012
 21
460.268
  0
LINE
  8
0
 10
332.012
 20
460.268
 11
332.028
 21
460.345
  0
LINE
  8
0
 10
332.028
 20
460.345
 11
332.049
 21
460.42
  0
LINE
  8
0
 10
332.049
 20
460.42
 11
332.076
 21
460.494
  0
LINE
  8
0
 10
332.076
 20
460.494
 11
332.109
 21
460.565
  0
LINE
  8
0
 10
332.109
 20
460.565
 11
332.147
 21
460.634
  0
LINE
  8
0
 10
332.147
 20
460.634
 11
332.191
 21
460.699
  0
LINE
  8
0
 10
332.191
 20
460.699
 11
332.24
 21
460.761
  0
LINE
  8
0
 10
332.24
 20
460.761
 11
332.293
 21
460.818
  0
LINE
  8
0
 10
332.293
 20
460.818
 11
332.351
 21
460.872
  0
LINE
  8
0
 10
332.351
 20
460.872
 11
332.412
 21
460.92
  0
LINE
  8
0
 10
332.412
 20
460.92
 11
332.477
 21
460.964
  0
LINE
  8
0
 10
332.477
 20
460.964
 11
332.546
 21
461.002
  0
LINE
  8
0
 10
332.546
 20
461.002
 11
332.617
 21
461.035
  0
LINE
  8
0
 10
332.617
 20
461.035
 11
332.691
 21
461.062
  0
LINE
  8
0
 10
332.691
 20
461.062
 11
332.767
 21
461.083
  0
LINE
  8
0
 10
332.767
 20
461.083
 11
332.844
 21
461.099
  0
LINE
  8
0
 10
332.844
 20
461.099
 11
332.922
 21
461.108
  0
LINE
  8
0
 10
332.922
 20
461.108
 11
333
 21
461.111
  0
LINE
  8
0
 10
333
 20
461.111
 11
338
 21
461.111
  0
LINE
  8
0
 10
338
 20
461.111
 11
338
 21
471.111
  0
LINE
  8
0
 10
338
 20
471.111
 11
333
 21
471.111
  0
LINE
  8
0
 10
333
 20
471.111
 11
332.922
 21
471.114
  0
LINE
  8
0
 10
332.922
 20
471.114
 11
332.844
 21
471.123
  0
LINE
  8
0
 10
332.844
 20
471.123
 11
332.767
 21
471.139
  0
LINE
  8
0
 10
332.767
 20
471.139
 11
332.691
 21
471.16
  0
LINE
  8
0
 10
332.691
 20
471.16
 11
332.617
 21
471.187
  0
LINE
  8
0
 10
332.617
 20
471.187
 11
332.546
 21
471.22
  0
LINE
  8
0
 10
332.546
 20
471.22
 11
332.477
 21
471.258
  0
LINE
  8
0
 10
332.477
 20
471.258
 11
332.412
 21
471.302
  0
LINE
  8
0
 10
332.412
 20
471.302
 11
332.351
 21
471.351
  0
LINE
  8
0
 10
332.351
 20
471.351
 11
332.293
 21
471.404
  0
LINE
  8
0
 10
332.293
 20
471.404
 11
332.24
 21
471.462
  0
LINE
  8
0
 10
332.24
 20
471.462
 11
332.191
 21
471.523
  0
LINE
  8
0
 10
332.191
 20
471.523
 11
332.147
 21
471.589
  0
LINE
  8
0
 10
332.147
 20
471.589
 11
332.109
 21
471.657
  0
LINE
  8
0
 10
332.109
 20
471.657
 11
332.076
 21
471.728
  0
LINE
  8
0
 10
332.076
 20
471.728
 11
332.049
 21
471.802
  0
LINE
  8
0
 10
332.049
 20
471.802
 11
332.028
 21
471.878
  0
LINE
  8
0
 10
332.028
 20
471.878
 11
332.012
 21
471.955
  0
LINE
  8
0
 10
332.012
 20
471.955
 11
332.003
 21
472.033
  0
LINE
  8
0
 10
332.003
 20
472.033
 11
332
 21
472.111
  0
LINE
  8
0
 10
332
 20
472.111
 11
332
 21
492
  0
LINE
  8
0
 10
332
 20
492
 11
331.997
 21
492.078
  0
LINE
  8
0
 10
331.997
 20
492.078
 11
331.988
 21
492.156
  0
LINE
  8
0
 10
331.988
 20
492.156
 11
331.972
 21
492.233
  0
LINE
  8
0
 10
331.972
 20
492.233
 11
331.951
 21
492.309
  0
LINE
  8
0
 10
331.951
 20
492.309
 11
331.924
 21
492.383
  0
LINE
  8
0
 10
331.924
 20
492.383
 11
331.891
 21
492.454
  0
LINE
  8
0
 10
331.891
 20
492.454
 11
331.853
 21
492.522
  0
LINE
  8
0
 10
331.853
 20
492.522
 11
331.809
 21
492.588
  0
LINE
  8
0
 10
331.809
 20
492.588
 11
331.76
 21
492.649
  0
LINE
  8
0
 10
331.76
 20
492.649
 11
331.707
 21
492.707
  0
LINE
  8
0
 10
331.707
 20
492.707
 11
331.649
 21
492.76
  0
LINE
  8
0
 10
331.649
 20
492.76
 11
331.588
 21
492.809
  0
LINE
  8
0
 10
331.588
 20
492.809
 11
331.522
 21
492.853
  0
LINE
  8
0
 10
331.522
 20
492.853
 11
331.454
 21
492.891
  0
LINE
  8
0
 10
331.454
 20
492.891
 11
331.383
 21
492.924
  0
LINE
  8
0
 10
331.383
 20
492.924
 11
331.309
 21
492.951
  0
LINE
  8
0
 10
331.309
 20
492.951
 11
331.233
 21
492.972
  0
LINE
  8
0
 10
331.233
 20
492.972
 11
331.156
 21
492.988
  0
LINE
  8
0
 10
331.156
 20
492.988
 11
331.078
 21
492.997
  0
LINE
  8
0
 10
331.078
 20
492.997
 11
331
 21
493
  0
LINE
  8
0
 10
331
 20
493
 11
308
 21
493
  0
LINE
  8
0
 10
308
 20
493
 11
307.686
 21
493.006
  0
LINE
  8
0
 10
307.686
 20
493.006
 11
307.372
 21
493.025
  0
LINE
  8
0
 10
307.372
 20
493.025
 11
307.06
 21
493.055
  0
LINE
  8
0
 10
307.06
 20
493.055
 11
306.749
 21
493.098
  0
LINE
  8
0
 10
306.749
 20
493.098
 11
306.439
 21
493.154
  0
LINE
  8
0
 10
306.439
 20
493.154
 11
306.132
 21
493.221
  0
LINE
  8
0
 10
306.132
 20
493.221
 11
305.828
 21
493.3
  0
LINE
  8
0
 10
305.828
 20
493.3
 11
305.528
 21
493.392
  0
LINE
  8
0
 10
305.528
 20
493.392
 11
305.231
 21
493.494
  0
LINE
  8
0
 10
305.231
 20
493.494
 11
304.939
 21
493.609
  0
LINE
  8
0
 10
304.939
 20
493.609
 11
304.651
 21
493.735
  0
LINE
  8
0
 10
304.651
 20
493.735
 11
304.368
 21
493.872
  0
LINE
  8
0
 10
304.368
 20
493.872
 11
304.091
 21
494.02
  0
LINE
  8
0
 10
304.091
 20
494.02
 11
303.82
 21
494.179
  0
LINE
  8
0
 10
303.82
 20
494.179
 11
303.555
 21
494.348
  0
LINE
  8
0
 10
303.555
 20
494.348
 11
303.298
 21
494.528
  0
LINE
  8
0
 10
303.298
 20
494.528
 11
303.047
 21
494.717
  0
LINE
  8
0
 10
303.047
 20
494.717
 11
302.804
 21
494.917
  0
LINE
  8
0
 10
302.804
 20
494.917
 11
302.57
 21
495.125
  0
LINE
  8
0
 10
302.57
 20
495.125
 11
302.343
 21
495.343
  0
LINE
  8
0
 10
302.343
 20
495.343
 11
297.657
 21
500.657
  0
LINE
  8
0
 10
297.657
 20
500.657
 11
297.43
 21
500.875
  0
LINE
  8
0
 10
297.43
 20
500.875
 11
297.196
 21
501.083
  0
LINE
  8
0
 10
297.196
 20
501.083
 11
296.953
 21
501.283
  0
LINE
  8
0
 10
296.953
 20
501.283
 11
296.702
 21
501.472
  0
LINE
  8
0
 10
296.702
 20
501.472
 11
296.445
 21
501.652
  0
LINE
  8
0
 10
296.445
 20
501.652
 11
296.18
 21
501.821
  0
LINE
  8
0
 10
296.18
 20
501.821
 11
295.909
 21
501.98
  0
LINE
  8
0
 10
295.909
 20
501.98
 11
295.632
 21
502.128
  0
LINE
  8
0
 10
295.632
 20
502.128
 11
295.349
 21
502.265
  0
LINE
  8
0
 10
295.349
 20
502.265
 11
295.061
 21
502.391
  0
LINE
  8
0
 10
295.061
 20
502.391
 11
294.769
 21
502.506
  0
LINE
  8
0
 10
294.769
 20
502.506
 11
294.472
 21
502.608
  0
LINE
  8
0
 10
294.472
 20
502.608
 11
294.172
 21
502.7
  0
LINE
  8
0
 10
294.172
 20
502.7
 11
293.868
 21
502.779
  0
LINE
  8
0
 10
293.868
 20
502.779
 11
293.561
 21
502.846
  0
LINE
  8
0
 10
293.561
 20
502.846
 11
293.251
 21
502.902
  0
LINE
  8
0
 10
293.251
 20
502.902
 11
292.94
 21
502.945
  0
LINE
  8
0
 10
292.94
 20
502.945
 11
292.628
 21
502.975
  0
LINE
  8
0
 10
292.628
 20
502.975
 11
292.314
 21
502.994
  0
LINE
  8
0
 10
292.314
 20
502.994
 11
292
 21
503
  0
LINE
  8
0
 10
292
 20
503
 11
46
 21
503
  0
LINE
  8
0
 10
46
 20
503
 11
45.6859
 21
502.994
  0
LINE
  8
0
 10
45.6859
 20
502.994
 11
45.3723
 21
502.975
  0
LINE
  8
0
 10
45.3723
 20
502.975
 11
45.0597
 21
502.945
  0
LINE
  8
0
 10
45.0597
 20
502.945
 11
44.7485
 21
502.902
  0
LINE
  8
0
 10
44.7485
 20
502.902
 11
44.4393
 21
502.846
  0
LINE
  8
0
 10
44.4393
 20
502.846
 11
44.1324
 21
502.779
  0
LINE
  8
0
 10
44.1324
 20
502.779
 11
43.8285
 21
502.7
  0
LINE
  8
0
 10
43.8285
 20
502.7
 11
43.5279
 21
502.608
  0
LINE
  8
0
 10
43.5279
 20
502.608
 11
43.231
 21
502.506
  0
LINE
  8
0
 10
43.231
 20
502.506
 11
42.9385
 21
502.391
  0
LINE
  8
0
 10
42.9385
 20
502.391
 11
42.6507
 21
502.265
  0
LINE
  8
0
 10
42.6507
 20
502.265
 11
42.3681
 21
502.128
  0
LINE
  8
0
 10
42.3681
 20
502.128
 11
42.091
 21
501.98
  0
LINE
  8
0
 10
42.091
 20
501.98
 11
41.82
 21
501.821
  0
LINE
  8
0
 10
41.82
 20
501.821
 11
41.5554
 21
501.652
  0
LINE
  8
0
 10
41.5554
 20
501.652
 11
41.2977
 21
501.472
  0
LINE
  8
0
 10
41.2977
 20
501.472
 11
41.0472
 21
501.283
  0
LINE
  8
0
 10
41.0472
 20
501.283
 11
40.8044
 21
501.083
  0
LINE
  8
0
 10
40.8044
 20
501.083
 11
40.5696
 21
500.875
  0
LINE
  8
0
 10
40.5696
 20
500.875
 11
40.3431
 21
500.657
  0
LINE
  8
0
 10
40.3431
 20
500.657
 11
35.6568
 21
495.343
  0
LINE
  8
0
 10
35.6568
 20
495.343
 11
35.4304
 21
495.125
  0
LINE
  8
0
 10
35.4304
 20
495.125
 11
35.1956
 21
494.917
  0
LINE
  8
0
 10
35.1956
 20
494.917
 11
34.9527
 21
494.717
  0
LINE
  8
0
 10
34.9527
 20
494.717
 11
34.7023
 21
494.528
  0
LINE
  8
0
 10
34.7023
 20
494.528
 11
34.4445
 21
494.348
  0
LINE
  8
0
 10
34.4445
 20
494.348
 11
34.18
 21
494.179
  0
LINE
  8
0
 10
34.18
 20
494.179
 11
33.909
 21
494.02
  0
LINE
  8
0
 10
33.909
 20
494.02
 11
33.6319
 21
493.872
  0
LINE
  8
0
 10
33.6319
 20
493.872
 11
33.3493
 21
493.735
  0
LINE
  8
0
 10
33.3493
 20
493.735
 11
33.0615
 21
493.609
  0
LINE
  8
0
 10
33.0615
 20
493.609
 11
32.7689
 21
493.494
  0
LINE
  8
0
 10
32.7689
 20
493.494
 11
32.4721
 21
493.392
  0
LINE
  8
0
 10
32.4721
 20
493.392
 11
32.1715
 21
493.3
  0
LINE
  8
0
 10
32.1715
 20
493.3
 11
31.8676
 21
493.221
  0
LINE
  8
0
 10
31.8676
 20
493.221
 11
31.5607
 21
493.154
  0
LINE
  8
0
 10
31.5607
 20
493.154
 11
31.2515
 21
493.098
  0
LINE
  8
0
 10
31.2515
 20
493.098
 11
30.9403
 21
493.055
  0
LINE
  8
0
 10
30.9403
 20
493.055
 11
30.6277
 21
493.025
  0
LINE
  8
0
 10
30.6277
 20
493.025
 11
30.3141
 21
493.006
  0
LINE
  8
0
 10
30.3141
 20
493.006
 11
30
 21
493
  0
LINE
  8
0
 10
30
 20
493
 11
7
 21
493
  0
LINE
  8
0
 10
7
 20
493
 11
6.92154
 21
492.997
  0
LINE
  8
0
 10
6.92154
 20
492.997
 11
6.84355
 21
492.988
  0
LINE
  8
0
 10
6.84355
 20
492.988
 11
6.76654
 21
492.972
  0
LINE
  8
0
 10
6.76654
 20
492.972
 11
6.69098
 21
492.951
  0
LINE
  8
0
 10
6.69098
 20
492.951
 11
6.61731
 21
492.924
  0
LINE
  8
0
 10
6.61731
 20
492.924
 11
6.54601
 21
492.891
  0
LINE
  8
0
 10
6.54601
 20
492.891
 11
6.47749
 21
492.853
  0
LINE
  8
0
 10
6.47749
 20
492.853
 11
6.4122
 21
492.809
  0
LINE
  8
0
 10
6.4122
 20
492.809
 11
6.35054
 21
492.76
  0
LINE
  8
0
 10
6.35054
 20
492.76
 11
6.29289
 21
492.707
  0
LINE
  8
0
 10
6.29289
 20
492.707
 11
6.23959
 21
492.649
  0
LINE
  8
0
 10
6.23959
 20
492.649
 11
6.19098
 21
492.588
  0
LINE
  8
0
 10
6.19098
 20
492.588
 11
6.14735
 21
492.522
  0
LINE
  8
0
 10
6.14735
 20
492.522
 11
6.10898
 21
492.454
  0
LINE
  8
0
 10
6.10898
 20
492.454
 11
6.07611
 21
492.383
  0
LINE
  8
0
 10
6.07611
 20
492.383
 11
6.04893
 21
492.309
  0
LINE
  8
0
 10
6.04893
 20
492.309
 11
6.02762
 21
492.233
  0
LINE
  8
0
 10
6.02762
 20
492.233
 11
6.0123
 21
492.156
  0
LINE
  8
0
 10
6.0123
 20
492.156
 11
6.00308
 21
492.078
  0
LINE
  8
0
 10
6.00308
 20
492.078
 11
6
 21
492
  0
LINE
  8
0
 10
6
 20
492
 11
6
 21
472.111
  0
LINE
  8
0
 10
6
 20
472.111
 11
5.9969
 21
472.033
  0
LINE
  8
0
 10
5.9969
 20
472.033
 11
5.98769
 21
471.955
  0
LINE
  8
0
 10
5.98769
 20
471.955
 11
5.97237
 21
471.878
  0
LINE
  8
0
 10
5.97237
 20
471.878
 11
5.95105
 21
471.802
  0
LINE
  8
0
 10
5.95105
 20
471.802
 11
5.92387
 21
471.728
  0
LINE
  8
0
 10
5.92387
 20
471.728
 11
5.89101
 21
471.657
  0
LINE
  8
0
 10
5.89101
 20
471.657
 11
5.85263
 21
471.589
  0
LINE
  8
0
 10
5.85263
 20
471.589
 11
5.80901
 21
471.523
  0
LINE
  8
0
 10
5.80901
 20
471.523
 11
5.76039
 21
471.462
  0
LINE
  8
0
 10
5.76039
 20
471.462
 11
5.70709
 21
471.404
  0
LINE
  8
0
 10
5.70709
 20
471.404
 11
5.64944
 21
471.351
  0
LINE
  8
0
 10
5.64944
 20
471.351
 11
5.58778
 21
471.302
  0
LINE
  8
0
 10
5.58778
 20
471.302
 11
5.52249
 21
471.258
  0
LINE
  8
0
 10
5.52249
 20
471.258
 11
5.45398
 21
471.22
  0
LINE
  8
0
 10
5.45398
 20
471.22
 11
5.38268
 21
471.187
  0
LINE
  8
0
 10
5.38268
 20
471.187
 11
5.30901
 21
471.16
  0
LINE
  8
0
 10
5.30901
 20
471.16
 11
5.23344
 21
471.139
  0
LINE
  8
0
 10
5.23344
 20
471.139
 11
5.15643
 21
471.123
  0
LINE
  8
0
 10
5.15643
 20
471.123
 11
5.07845
 21
471.114
  0
LINE
  8
0
 10
5.07845
 20
471.114
 11
5
 21
471.111
  0
LINE
  8
0
 10
5
 20
471.111
 11
0
 21
471.111
  0
LINE
  8
0
 10
0
 20
471.111
 11
0
 21
461.111
  0
LINE
  8
0
 10
0
 20
461.111
 11
5
 21
461.111
  0
LINE
  8
0
 10
5
 20
461.111
 11
5.07845
 21
461.108
  0
LINE
  8
0
 10
5.07845
 20
461.108
 11
5.15643
 21
461.099
  0
LINE
  8
0
 10
5.15643
 20
461.099
 11
5.23344
 21
461.083
  0
LINE
  8
0
 10
5.23344
 20
461.083
 11
5.30901
 21
461.062
  0
LINE
  8
0
 10
5.30901
 20
461.062
 11
5.38268
 21
461.035
  0
LINE
  8
0
 10
5.38268
 20
461.035
 11
5.45398
 21
461.002
  0
LINE
  8
0
 10
5.45398
 20
461.002
 11
5.52249
 21
460.964
  0
LINE
  8
0
 10
5.52249
 20
460.964
 11
5.58778
 21
460.92
  0
LINE
  8
0
 10
5.58778
 20
460.92
 11
5.64944
 21
460.872
  0
LINE
  8
0
 10
5.64944
 20
460.872
 11
5.70709
 21
460.818
  0
LINE
  8
0
 10
5.70709
 20
460.818
 11
5.76039
 21
460.761
  0
LINE
  8
0
 10
5.76039
 20
460.761
 11
5.80901
 21
460.699
  0
LINE
  8
0
 10
5.80901
 20
460.699
 11
5.85263
 21
460.634
  0
LINE
  8
0
 10
5.85263
 20
460.634
 11
5.89101
 21
460.565
  0
LINE
  8
0
 10
5.89101
 20
460.565
 11
5.92387
 21
460.494
  0
LINE
  8
0
 10
5.92387
 20
460.494
 11
5.95105
 21
460.42
  0
LINE
  8
0
 10
5.95105
 20
460.42
 11
5.97237
 21
460.345
  0
LINE
  8
0
 10
5.97237
 20
460.345
 11
5.98769
 21
460.268
  0
LINE
  8
0
 10
5.98769
 20
460.268
 11
5.9969
 21
460.19
  0
LINE
  8
0
 10
5.9969
 20
460.19
 11
6
 21
460.111
  0
LINE
  8
0
 10
6
 20
460.111
 11
6
 21
417.333
  0
LINE
  8
0
 10
6
 20
417.333
 11
5.9969
 21
417.255
  0
LINE
  8
0
 10
5.9969
 20
417.255
 11
5.98769
 21
417.177
  0
LINE
  8
0
 10
5.98769
 20
417.177
 11
5.97237
 21
417.1
  0
LINE
  8
0
 10
5.97237
 20
417.1
 11
5.95105
 21
417.024
  0
LINE
  8
0
 10
5.95105
 20
417.024
 11
5.92387
 21
416.951
  0
LINE
  8
0
 10
5.92387
 20
416.951
 11
5.89101
 21
416.879
  0
LINE
  8
0
 10
5.89101
 20
416.879
 11
5.85263
 21
416.811
  0
LINE
  8
0
 10
5.85263
 20
416.811
 11
5.80901
 21
416.746
  0
LINE
  8
0
 10
5.80901
 20
416.746
 11
5.76039
 21
416.684
  0
LINE
  8
0
 10
5.76039
 20
416.684
 11
5.70709
 21
416.626
  0
LINE
  8
0
 10
5.70709
 20
416.626
 11
5.64944
 21
416.573
  0
LINE
  8
0
 10
5.64944
 20
416.573
 11
5.58778
 21
416.524
  0
LINE
  8
0
 10
5.58778
 20
416.524
 11
5.52249
 21
416.481
  0
LINE
  8
0
 10
5.52249
 20
416.481
 11
5.45398
 21
416.442
  0
LINE
  8
0
 10
5.45398
 20
416.442
 11
5.38268
 21
416.409
  0
LINE
  8
0
 10
5.38268
 20
416.409
 11
5.30901
 21
416.382
  0
LINE
  8
0
 10
5.30901
 20
416.382
 11
5.23344
 21
416.361
  0
LINE
  8
0
 10
5.23344
 20
416.361
 11
5.15643
 21
416.346
  0
LINE
  8
0
 10
5.15643
 20
416.346
 11
5.07845
 21
416.336
  0
LINE
  8
0
 10
5.07845
 20
416.336
 11
5
 21
416.333
  0
LINE
  8
0
 10
5
 20
416.333
 11
0
 21
416.333
  0
LINE
  8
0
 10
0
 20
416.333
 11
0
 21
406.333
  0
LINE
  8
0
 10
0
 20
406.333
 11
5
 21
406.333
  0
LINE
  8
0
 10
5
 20
406.333
 11
5.07845
 21
406.33
  0
LINE
  8
0
 10
5.07845
 20
406.33
 11
5.15643
 21
406.321
  0
LINE
  8
0
 10
5.15643
 20
406.321
 11
5.23344
 21
406.306
  0
LINE
  8
0
 10
5.23344
 20
406.306
 11
5.30901
 21
406.284
  0
LINE
  8
0
 10
5.30901
 20
406.284
 11
5.38268
 21
406.257
  0
LINE
  8
0
 10
5.38268
 20
406.257
 11
5.45398
 21
406.224
  0
LINE
  8
0
 10
5.45398
 20
406.224
 11
5.52249
 21
406.186
  0
LINE
  8
0
 10
5.52249
 20
406.186
 11
5.58778
 21
406.142
  0
LINE
  8
0
 10
5.58778
 20
406.142
 11
5.64944
 21
406.094
  0
LINE
  8
0
 10
5.64944
 20
406.094
 11
5.70709
 21
406.04
  0
LINE
  8
0
 10
5.70709
 20
406.04
 11
5.76039
 21
405.983
  0
LINE
  8
0
 10
5.76039
 20
405.983
 11
5.80901
 21
405.921
  0
LINE
  8
0
 10
5.80901
 20
405.921
 11
5.85263
 21
405.856
  0
LINE
  8
0
 10
5.85263
 20
405.856
 11
5.89101
 21
405.787
  0
LINE
  8
0
 10
5.89101
 20
405.787
 11
5.92387
 21
405.716
  0
LINE
  8
0
 10
5.92387
 20
405.716
 11
5.95105
 21
405.642
  0
LINE
  8
0
 10
5.95105
 20
405.642
 11
5.97237
 21
405.567
  0
LINE
  8
0
 10
5.97237
 20
405.567
 11
5.98769
 21
405.49
  0
LINE
  8
0
 10
5.98769
 20
405.49
 11
5.9969
 21
405.412
  0
LINE
  8
0
 10
5.9969
 20
405.412
 11
6
 21
405.333
  0
LINE
  8
0
 10
6
 20
405.333
 11
6
 21
362.556
  0
LINE
  8
0
 10
6
 20
362.556
 11
5.9969
 21
362.477
  0
LINE
  8
0
 10
5.9969
 20
362.477
 11
5.98769
 21
362.399
  0
LINE
  8
0
 10
5.98769
 20
362.399
 11
5.97237
 21
362.322
  0
LINE
  8
0
 10
5.97237
 20
362.322
 11
5.95105
 21
362.247
  0
LINE
  8
0
 10
5.95105
 20
362.247
 11
5.92387
 21
362.173
  0
LINE
  8
0
 10
5.92387
 20
362.173
 11
5.89101
 21
362.102
  0
LINE
  8
0
 10
5.89101
 20
362.102
 11
5.85263
 21
362.033
  0
LINE
  8
0
 10
5.85263
 20
362.033
 11
5.80901
 21
361.968
  0
LINE
  8
0
 10
5.80901
 20
361.968
 11
5.76039
 21
361.906
  0
LINE
  8
0
 10
5.76039
 20
361.906
 11
5.70709
 21
361.848
  0
LINE
  8
0
 10
5.70709
 20
361.848
 11
5.64944
 21
361.795
  0
LINE
  8
0
 10
5.64944
 20
361.795
 11
5.58778
 21
361.747
  0
LINE
  8
0
 10
5.58778
 20
361.747
 11
5.52249
 21
361.703
  0
LINE
  8
0
 10
5.52249
 20
361.703
 11
5.45398
 21
361.665
  0
LINE
  8
0
 10
5.45398
 20
361.665
 11
5.38268
 21
361.632
  0
LINE
  8
0
 10
5.38268
 20
361.632
 11
5.30901
 21
361.604
  0
LINE
  8
0
 10
5.30901
 20
361.604
 11
5.23344
 21
361.583
  0
LINE
  8
0
 10
5.23344
 20
361.583
 11
5.15643
 21
361.568
  0
LINE
  8
0
 10
5.15643
 20
361.568
 11
5.07845
 21
361.559
  0
LINE
  8
0
 10
5.07845
 20
361.559
 11
5
 21
361.556
  0
LINE
  8
0
 10
5
 20
361.556
 11
0
 21
361.556
  0
LINE
  8
0
 10
0
 20
361.556
 11
0
 21
351.556
  0
LINE
  8
0
 10
0
 20
351.556
 11
5
 21
351.556
  0
LINE
  8
0
 10
5
 20
351.556
 11
5.07845
 21
351.552
  0
LINE
  8
0
 10
5.07845
 20
351.552
 11
5.15643
 21
351.543
  0
LINE
  8
0
 10
5.15643
 20
351.543
 11
5.23344
 21
351.528
  0
LINE
  8
0
 10
5.23344
 20
351.528
 11
5.30901
 21
351.507
  0
LINE
  8
0
 10
5.30901
 20
351.507
 11
5.38268
 21
351.479
  0
LINE
  8
0
 10
5.38268
 20
351.479
 11
5.45398
 21
351.447
  0
LINE
  8
0
 10
5.45398
 20
351.447
 11
5.52249
 21
351.408
  0
LINE
  8
0
 10
5.52249
 20
351.408
 11
5.58778
 21
351.365
  0
LINE
  8
0
 10
5.58778
 20
351.365
 11
5.64944
 21
351.316
  0
LINE
  8
0
 10
5.64944
 20
351.316
 11
5.70709
 21
351.263
  0
LINE
  8
0
 10
5.70709
 20
351.263
 11
5.76039
 21
351.205
  0
LINE
  8
0
 10
5.76039
 20
351.205
 11
5.80901
 21
351.143
  0
LINE
  8
0
 10
5.80901
 20
351.143
 11
5.85263
 21
351.078
  0
LINE
  8
0
 10
5.85263
 20
351.078
 11
5.89101
 21
351.01
  0
LINE
  8
0
 10
5.89101
 20
351.01
 11
5.92387
 21
350.938
  0
LINE
  8
0
 10
5.92387
 20
350.938
 11
5.95105
 21
350.865
  0
LINE
  8
0
 10
5.95105
 20
350.865
 11
5.97237
 21
350.789
  0
LINE
  8
0
 10
5.97237
 20
350.789
 11
5.98769
 21
350.712
  0
LINE
  8
0
 10
5.98769
 20
350.712
 11
5.9969
 21
350.634
  0
LINE
  8
0
 10
5.9969
 20
350.634
 11
6
 21
350.556
  0
LINE
  8
0
 10
6
 20
350.556
 11
6
 21
307.778
  0
LINE
  8
0
 10
6
 20
307.778
 11
5.9969
 21
307.699
  0
LINE
  8
0
 10
5.9969
 20
307.699
 11
5.98769
 21
307.621
  0
LINE
  8
0
 10
5.98769
 20
307.621
 11
5.97237
 21
307.544
  0
LINE
  8
0
 10
5.97237
 20
307.544
 11
5.95105
 21
307.469
  0
LINE
  8
0
 10
5.95105
 20
307.469
 11
5.92387
 21
307.395
  0
LINE
  8
0
 10
5.92387
 20
307.395
 11
5.89101
 21
307.324
  0
LINE
  8
0
 10
5.89101
 20
307.324
 11
5.85263
 21
307.255
  0
LINE
  8
0
 10
5.85263
 20
307.255
 11
5.80901
 21
307.19
  0
LINE
  8
0
 10
5.80901
 20
307.19
 11
5.76039
 21
307.128
  0
LINE
  8
0
 10
5.76039
 20
307.128
 11
5.70709
 21
307.071
  0
LINE
  8
0
 10
5.70709
 20
307.071
 11
5.64944
 21
307.017
  0
LINE
  8
0
 10
5.64944
 20
307.017
 11
5.58778
 21
306.969
  0
LINE
  8
0
 10
5.58778
 20
306.969
 11
5.52249
 21
306.925
  0
LINE
  8
0
 10
5.52249
 20
306.925
 11
5.45398
 21
306.887
  0
LINE
  8
0
 10
5.45398
 20
306.887
 11
5.38268
 21
306.854
  0
LINE
  8
0
 10
5.38268
 20
306.854
 11
5.30901
 21
306.827
  0
LINE
  8
0
 10
5.30901
 20
306.827
 11
5.23344
 21
306.805
  0
LINE
  8
0
 10
5.23344
 20
306.805
 11
5.15643
 21
306.79
  0
LINE
  8
0
 10
5.15643
 20
306.79
 11
5.07845
 21
306.781
  0
LINE
  8
0
 10
5.07845
 20
306.781
 11
5
 21
306.778
  0
LINE
  8
0
 10
5
 20
306.778
 11
0
 21
306.778
  0
LINE
  8
0
 10
0
 20
306.778
 11
0
 21
296.778
  0
LINE
  8
0
 10
0
 20
296.778
 11
5
 21
296.778
  0
LINE
  8
0
 10
5
 20
296.778
 11
5.07845
 21
296.775
  0
LINE
  8
0
 10
5.07845
 20
296.775
 11
5.15643
 21
296.765
  0
LINE
  8
0
 10
5.15643
 20
296.765
 11
5.23344
 21
296.75
  0
LINE
  8
0
 10
5.23344
 20
296.75
 11
5.30901
 21
296.729
  0
LINE
  8
0
 10
5.30901
 20
296.729
 11
5.38268
 21
296.702
  0
LINE
  8
0
 10
5.38268
 20
296.702
 11
5.45398
 21
296.669
  0
LINE
  8
0
 10
5.45398
 20
296.669
 11
5.52249
 21
296.63
  0
LINE
  8
0
 10
5.52249
 20
296.63
 11
5.58778
 21
296.587
  0
LINE
  8
0
 10
5.58778
 20
296.587
 11
5.64944
 21
296.538
  0
LINE
  8
0
 10
5.64944
 20
296.538
 11
5.70709
 21
296.485
  0
LINE
  8
0
 10
5.70709
 20
296.485
 11
5.76039
 21
296.427
  0
LINE
  8
0
 10
5.76039
 20
296.427
 11
5.80901
 21
296.366
  0
LINE
  8
0
 10
5.80901
 20
296.366
 11
5.85263
 21
296.3
  0
LINE
  8
0
 10
5.85263
 20
296.3
 11
5.89101
 21
296.232
  0
LINE
  8
0
 10
5.89101
 20
296.232
 11
5.92387
 21
296.16
  0
LINE
  8
0
 10
5.92387
 20
296.16
 11
5.95105
 21
296.087
  0
LINE
  8
0
 10
5.95105
 20
296.087
 11
5.97237
 21
296.011
  0
LINE
  8
0
 10
5.97237
 20
296.011
 11
5.98769
 21
295.934
  0
LINE
  8
0
 10
5.98769
 20
295.934
 11
5.9969
 21
295.856
  0
LINE
  8
0
 10
5.9969
 20
295.856
 11
6
 21
295.778
  0
LINE
  8
0
 10
6
 20
295.778
 11
6
 21
253
  0
LINE
  8
0
 10
6
 20
253
 11
5.9969
 21
252.922
  0
LINE
  8
0
 10
5.9969
 20
252.922
 11
5.98769
 21
252.844
  0
LINE
  8
0
 10
5.98769
 20
252.844
 11
5.97237
 21
252.767
  0
LINE
  8
0
 10
5.97237
 20
252.767
 11
5.95105
 21
252.691
  0
LINE
  8
0
 10
5.95105
 20
252.691
 11
5.92387
 21
252.617
  0
LINE
  8
0
 10
5.92387
 20
252.617
 11
5.89101
 21
252.546
  0
LINE
  8
0
 10
5.89101
 20
252.546
 11
5.85263
 21
252.477
  0
LINE
  8
0
 10
5.85263
 20
252.477
 11
5.80901
 21
252.412
  0
LINE
  8
0
 10
5.80901
 20
252.412
 11
5.76039
 21
252.351
  0
LINE
  8
0
 10
5.76039
 20
252.351
 11
5.70709
 21
252.293
  0
LINE
  8
0
 10
5.70709
 20
252.293
 11
5.64944
 21
252.24
  0
LINE
  8
0
 10
5.64944
 20
252.24
 11
5.58778
 21
252.191
  0
LINE
  8
0
 10
5.58778
 20
252.191
 11
5.52249
 21
252.147
  0
LINE
  8
0
 10
5.52249
 20
252.147
 11
5.45398
 21
252.109
  0
LINE
  8
0
 10
5.45398
 20
252.109
 11
5.38268
 21
252.076
  0
LINE
  8
0
 10
5.38268
 20
252.076
 11
5.30901
 21
252.049
  0
LINE
  8
0
 10
5.30901
 20
252.049
 11
5.23344
 21
252.028
  0
LINE
  8
0
 10
5.23344
 20
252.028
 11
5.15643
 21
252.012
  0
LINE
  8
0
 10
5.15643
 20
252.012
 11
5.07845
 21
252.003
  0
LINE
  8
0
 10
5.07845
 20
252.003
 11
5
 21
252
  0
LINE
  8
0
 10
5
 20
252
 11
0
 21
252
  0
LINE
  8
0
 10
0
 20
252
 11
0
 21
242
  0
LINE
  8
0
 10
0
 20
242
 11
5
 21
242
  0
LINE
  8
0
 10
5
 20
242
 11
5.07845
 21
241.997
  0
LINE
  8
0
 10
5.07845
 20
241.997
 11
5.15643
 21
241.988
  0
LINE
  8
0
 10
5.15643
 20
241.988
 11
5.23344
 21
241.972
  0
LINE
  8
0
 10
5.23344
 20
241.972
 11
5.30901
 21
241.951
  0
LINE
  8
0
 10
5.30901
 20
241.951
 11
5.38268
 21
241.924
  0
LINE
  8
0
 10
5.38268
 20
241.924
 11
5.45398
 21
241.891
  0
LINE
  8
0
 10
5.45398
 20
241.891
 11
5.52249
 21
241.853
  0
LINE
  8
0
 10
5.52249
 20
241.853
 11
5.58778
 21
241.809
  0
LINE
  8
0
 10
5.58778
 20
241.809
 11
5.64944
 21
241.76
  0
LINE
  8
0
 10
5.64944
 20
241.76
 11
5.70709
 21
241.707
  0
LINE
  8
0
 10
5.70709
 20
241.707
 11
5.76039
 21
241.649
  0
LINE
  8
0
 10
5.76039
 20
241.649
 11
5.80901
 21
241.588
  0
LINE
  8
0
 10
5.80901
 20
241.588
 11
5.85263
 21
241.522
  0
LINE
  8
0
 10
5.85263
 20
241.522
 11
5.89101
 21
241.454
  0
LINE
  8
0
 10
5.89101
 20
241.454
 11
5.92387
 21
241.383
  0
LINE
  8
0
 10
5.92387
 20
241.383
 11
5.95105
 21
241.309
  0
LINE
  8
0
 10
5.95105
 20
241.309
 11
5.97237
 21
241.233
  0
LINE
  8
0
 10
5.97237
 20
241.233
 11
5.98769
 21
241.156
  0
LINE
  8
0
 10
5.98769
 20
241.156
 11
5.9969
 21
241.078
  0
LINE
  8
0
 10
5.9969
 20
241.078
 11
6
 21
241
  0
LINE
  8
0
 10
6
 20
241
 11
6
 21
198.222
  0
LINE
  8
0
 10
6
 20
198.222
 11
5.9969
 21
198.144
  0
LINE
  8
0
 10
5.9969
 20
198.144
 11
5.98769
 21
198.066
  0
LINE
  8
0
 10
5.98769
 20
198.066
 11
5.97237
 21
197.989
  0
LINE
  8
0
 10
5.97237
 20
197.989
 11
5.95105
 21
197.913
  0
LINE
  8
0
 10
5.95105
 20
197.913
 11
5.92387
 21
197.84
  0
LINE
  8
0
 10
5.92387
 20
197.84
 11
5.89101
 21
197.768
  0
LINE
  8
0
 10
5.89101
 20
197.768
 11
5.85263
 21
197.7
  0
LINE
  8
0
 10
5.85263
 20
197.7
 11
5.80901
 21
197.634
  0
LINE
  8
0
 10
5.80901
 20
197.634
 11
5.76039
 21
197.573
  0
LINE
  8
0
 10
5.76039
 20
197.573
 11
5.70709
 21
197.515
  0
LINE
  8
0
 10
5.70709
 20
197.515
 11
5.64944
 21
197.462
  0
LINE
  8
0
 10
5.64944
 20
197.462
 11
5.58778
 21
197.413
  0
LINE
  8
0
 10
5.58778
 20
197.413
 11
5.52249
 21
197.37
  0
LINE
  8
0
 10
5.52249
 20
197.37
 11
5.45398
 21
197.331
  0
LINE
  8
0
 10
5.45398
 20
197.331
 11
5.38268
 21
197.298
  0
LINE
  8
0
 10
5.38268
 20
197.298
 11
5.30901
 21
197.271
  0
LINE
  8
0
 10
5.30901
 20
197.271
 11
5.23344
 21
197.25
  0
LINE
  8
0
 10
5.23344
 20
197.25
 11
5.15643
 21
197.235
  0
LINE
  8
0
 10
5.15643
 20
197.235
 11
5.07845
 21
197.225
  0
LINE
  8
0
 10
5.07845
 20
197.225
 11
5
 21
197.222
  0
LINE
  8
0
 10
5
 20
197.222
 11
0
 21
197.222
  0
LINE
  8
0
 10
0
 20
197.222
 11
0
 21
187.222
  0
LINE
  8
0
 10
0
 20
187.222
 11
5
 21
187.222
  0
LINE
  8
0
 10
5
 20
187.222
 11
5.07845
 21
187.219
  0
LINE
  8
0
 10
5.07845
 20
187.219
 11
5.15643
 21
187.21
  0
LINE
  8
0
 10
5.15643
 20
187.21
 11
5.23344
 21
187.195
  0
LINE
  8
0
 10
5.23344
 20
187.195
 11
5.30901
 21
187.173
  0
LINE
  8
0
 10
5.30901
 20
187.173
 11
5.38268
 21
187.146
  0
LINE
  8
0
 10
5.38268
 20
187.146
 11
5.45398
 21
187.113
  0
LINE
  8
0
 10
5.45398
 20
187.113
 11
5.52249
 21
187.075
  0
LINE
  8
0
 10
5.52249
 20
187.075
 11
5.58778
 21
187.031
  0
LINE
  8
0
 10
5.58778
 20
187.031
 11
5.64944
 21
186.983
  0
LINE
  8
0
 10
5.64944
 20
186.983
 11
5.70709
 21
186.929
  0
LINE
  8
0
 10
5.70709
 20
186.929
 11
5.76039
 21
186.872
  0
LINE
  8
0
 10
5.76039
 20
186.872
 11
5.80901
 21
186.81
  0
LINE
  8
0
 10
5.80901
 20
186.81
 11
5.85263
 21
186.745
  0
LINE
  8
0
 10
5.85263
 20
186.745
 11
5.89101
 21
186.676
  0
LINE
  8
0
 10
5.89101
 20
186.676
 11
5.92387
 21
186.605
  0
LINE
  8
0
 10
5.92387
 20
186.605
 11
5.95105
 21
186.531
  0
LINE
  8
0
 10
5.95105
 20
186.531
 11
5.97237
 21
186.456
  0
LINE
  8
0
 10
5.97237
 20
186.456
 11
5.98769
 21
186.379
  0
LINE
  8
0
 10
5.98769
 20
186.379
 11
5.9969
 21
186.301
  0
LINE
  8
0
 10
5.9969
 20
186.301
 11
6
 21
186.222
  0
LINE
  8
0
 10
6
 20
186.222
 11
6
 21
143.444
  0
LINE
  8
0
 10
6
 20
143.444
 11
5.9969
 21
143.366
  0
LINE
  8
0
 10
5.9969
 20
143.366
 11
5.98769
 21
143.288
  0
LINE
  8
0
 10
5.98769
 20
143.288
 11
5.97237
 21
143.211
  0
LINE
  8
0
 10
5.97237
 20
143.211
 11
5.95105
 21
143.135
  0
LINE
  8
0
 10
5.95105
 20
143.135
 11
5.92387
 21
143.062
  0
LINE
  8
0
 10
5.92387
 20
143.062
 11
5.89101
 21
142.99
  0
LINE
  8
0
 10
5.89101
 20
142.99
 11
5.85263
 21
142.922
  0
LINE
  8
0
 10
5.85263
 20
142.922
 11
5.80901
 21
142.857
  0
LINE
  8
0
 10
5.80901
 20
142.857
 11
5.76039
 21
142.795
  0
LINE
  8
0
 10
5.76039
 20
142.795
 11
5.70709
 21
142.737
  0
LINE
  8
0
 10
5.70709
 20
142.737
 11
5.64944
 21
142.684
  0
LINE
  8
0
 10
5.64944
 20
142.684
 11
5.58778
 21
142.635
  0
LINE
  8
0
 10
5.58778
 20
142.635
 11
5.52249
 21
142.592
  0
LINE
  8
0
 10
5.52249
 20
142.592
 11
5.45398
 21
142.553
  0
LINE
  8
0
 10
5.45398
 20
142.553
 11
5.38268
 21
142.521
  0
LINE
  8
0
 10
5.38268
 20
142.521
 11
5.30901
 21
142.493
  0
LINE
  8
0
 10
5.30901
 20
142.493
 11
5.23344
 21
142.472
  0
LINE
  8
0
 10
5.23344
 20
142.472
 11
5.15643
 21
142.457
  0
LINE
  8
0
 10
5.15643
 20
142.457
 11
5.07845
 21
142.448
  0
LINE
  8
0
 10
5.07845
 20
142.448
 11
5
 21
142.444
  0
LINE
  8
0
 10
5
 20
142.444
 11
0
 21
142.444
  0
LINE
  8
0
 10
0
 20
142.444
 11
0
 21
132.444
  0
LINE
  8
0
 10
0
 20
132.444
 11
5
 21
132.444
  0
LINE
  8
0
 10
5
 20
132.444
 11
5.07845
 21
132.441
  0
LINE
  8
0
 10
5.07845
 20
132.441
 11
5.15643
 21
132.432
  0
LINE
  8
0
 10
5.15643
 20
132.432
 11
5.23344
 21
132.417
  0
LINE
  8
0
 10
5.23344
 20
132.417
 11
5.30901
 21
132.395
  0
LINE
  8
0
 10
5.30901
 20
132.395
 11
5.38268
 21
132.368
  0
LINE
  8
0
 10
5.38268
 20
132.368
 11
5.45398
 21
132.335
  0
LINE
  8
0
 10
5.45398
 20
132.335
 11
5.52249
 21
132.297
  0
LINE
  8
0
 10
5.52249
 20
132.297
 11
5.58778
 21
132.253
  0
LINE
  8
0
 10
5.58778
 20
132.253
 11
5.64944
 21
132.205
  0
LINE
  8
0
 10
5.64944
 20
132.205
 11
5.70709
 21
132.152
  0
LINE
  8
0
 10
5.70709
 20
132.152
 11
5.76039
 21
132.094
  0
LINE
  8
0
 10
5.76039
 20
132.094
 11
5.80901
 21
132.032
  0
LINE
  8
0
 10
5.80901
 20
132.032
 11
5.85263
 21
131.967
  0
LINE
  8
0
 10
5.85263
 20
131.967
 11
5.89101
 21
131.898
  0
LINE
  8
0
 10
5.89101
 20
131.898
 11
5.92387
 21
131.827
  0
LINE
  8
0
 10
5.92387
 20
131.827
 11
5.95105
 21
131.753
  0
LINE
  8
0
 10
5.95105
 20
131.753
 11
5.97237
 21
131.678
  0
LINE
  8
0
 10
5.97237
 20
131.678
 11
5.98769
 21
131.601
  0
LINE
  8
0
 10
5.98769
 20
131.601
 11
5.9969
 21
131.523
  0
LINE
  8
0
 10
5.9969
 20
131.523
 11
6
 21
131.444
  0
LINE
  8
0
 10
6
 20
131.444
 11
6
 21
88.6667
  0
LINE
  8
0
 10
6
 20
88.6667
 11
5.9969
 21
88.5882
  0
LINE
  8
0
 10
5.9969
 20
88.5882
 11
5.98769
 21
88.5102
  0
LINE
  8
0
 10
5.98769
 20
88.5102
 11
5.97237
 21
88.4332
  0
LINE
  8
0
 10
5.97237
 20
88.4332
 11
5.95105
 21
88.3576
  0
LINE
  8
0
 10
5.95105
 20
88.3576
 11
5.92387
 21
88.284
  0
LINE
  8
0
 10
5.92387
 20
88.284
 11
5.89101
 21
88.2127
  0
LINE
  8
0
 10
5.89101
 20
88.2127
 11
5.85263
 21
88.1442
  0
LINE
  8
0
 10
5.85263
 20
88.1442
 11
5.80901
 21
88.0789
  0
LINE
  8
0
 10
5.80901
 20
88.0789
 11
5.76039
 21
88.0172
  0
LINE
  8
0
 10
5.76039
 20
88.0172
 11
5.70709
 21
87.9595
  0
LINE
  8
0
 10
5.70709
 20
87.9595
 11
5.64944
 21
87.9062
  0
LINE
  8
0
 10
5.64944
 20
87.9062
 11
5.58778
 21
87.8576
  0
LINE
  8
0
 10
5.58778
 20
87.8576
 11
5.52249
 21
87.814
  0
LINE
  8
0
 10
5.52249
 20
87.814
 11
5.45398
 21
87.7757
  0
LINE
  8
0
 10
5.45398
 20
87.7757
 11
5.38268
 21
87.7428
  0
LINE
  8
0
 10
5.38268
 20
87.7428
 11
5.30901
 21
87.7156
  0
LINE
  8
0
 10
5.30901
 20
87.7156
 11
5.23344
 21
87.6943
  0
LINE
  8
0
 10
5.23344
 20
87.6943
 11
5.15643
 21
87.679
  0
LINE
  8
0
 10
5.15643
 20
87.679
 11
5.07845
 21
87.6697
  0
LINE
  8
0
 10
5.07845
 20
87.6697
 11
5
 21
87.6667
  0
LINE
  8
0
 10
5
 20
87.6667
 11
0
 21
87.6667
  0
LINE
  8
0
 10
0
 20
87.6667
 11
0
 21
77.6667
  0
LINE
  8
0
 10
0
 20
77.6667
 11
5
 21
77.6667
  0
LINE
  8
0
 10
5
 20
77.6667
 11
5.07845
 21
77.6636
  0
LINE
  8
0
 10
5.07845
 20
77.6636
 11
5.15643
 21
77.6543
  0
LINE
  8
0
 10
5.15643
 20
77.6543
 11
5.23344
 21
77.639
  0
LINE
  8
0
 10
5.23344
 20
77.639
 11
5.30901
 21
77.6177
  0
LINE
  8
0
 10
5.30901
 20
77.6177
 11
5.38268
 21
77.5905
  0
LINE
  8
0
 10
5.38268
 20
77.5905
 11
5.45398
 21
77.5577
  0
LINE
  8
0
 10
5.45398
 20
77.5577
 11
5.52249
 21
77.5193
  0
LINE
  8
0
 10
5.52249
 20
77.5193
 11
5.58778
 21
77.4757
  0
LINE
  8
0
 10
5.58778
 20
77.4757
 11
5.64944
 21
77.4271
  0
LINE
  8
0
 10
5.64944
 20
77.4271
 11
5.70709
 21
77.3738
  0
LINE
  8
0
 10
5.70709
 20
77.3738
 11
5.76039
 21
77.3161
  0
LINE
  8
0
 10
5.76039
 20
77.3161
 11
5.80901
 21
77.2544
  0
LINE
  8
0
 10
5.80901
 20
77.2544
 11
5.85263
 21
77.1892
  0
LINE
  8
0
 10
5.85263
 20
77.1892
 11
5.89101
 21
77.1207
  0
LINE
  8
0
 10
5.89101
 20
77.1207
 11
5.92387
 21
77.0493
  0
LINE
  8
0
 10
5.92387
 20
77.0493
 11
5.95105
 21
76.9757
  0
LINE
  8
0
 10
5.95105
 20
76.9757
 11
5.97237
 21
76.9001
  0
LINE
  8
0
 10
5.97237
 20
76.9001
 11
5.98769
 21
76.8231
  0
LINE
  8
0
 10
5.98769
 20
76.8231
 11
5.9969
 21
76.7451
  0
LINE
  8
0
 10
5.9969
 20
76.7451
 11
6
 21
76.6667
  0
LINE
  8
0
 10
6
 20
76.6667
 11
6
 21
33.8889
  0
LINE
  8
0
 10
6
 20
33.8889
 11
5.9969
 21
33.8104
  0
LINE
  8
0
 10
5.9969
 20
33.8104
 11
5.98769
 21
33.7325
  0
LINE
  8
0
 10
5.98769
 20
33.7325
 11
5.97237
 21
33.6554
  0
LINE
  8
0
 10
5.97237
 20
33.6554
 11
5.95105
 21
33.5799
  0
LINE
  8
0
 10
5.95105
 20
33.5799
 11
5.92387
 21
33.5062
  0
LINE
  8
0
 10
5.92387
 20
33.5062
 11
5.89101
 21
33.4349
  0
LINE
  8
0
 10
5.89101
 20
33.4349
 11
5.85263
 21
33.3664
  0
LINE
  8
0
 10
5.85263
 20
33.3664
 11
5.80901
 21
33.3011
  0
LINE
  8
0
 10
5.80901
 20
33.3011
 11
5.76039
 21
33.2394
  0
LINE
  8
0
 10
5.76039
 20
33.2394
 11
5.70709
 21
33.1818
  0
LINE
  8
0
 10
5.70709
 20
33.1818
 11
5.64944
 21
33.1285
  0
LINE
  8
0
 10
5.64944
 20
33.1285
 11
5.58778
 21
33.0799
  0
LINE
  8
0
 10
5.58778
 20
33.0799
 11
5.52249
 21
33.0362
  0
LINE
  8
0
 10
5.52249
 20
33.0362
 11
5.45398
 21
32.9979
  0
LINE
  8
0
 10
5.45398
 20
32.9979
 11
5.38268
 21
32.965
  0
LINE
  8
0
 10
5.38268
 20
32.965
 11
5.30901
 21
32.9378
  0
LINE
  8
0
 10
5.30901
 20
32.9378
 11
5.23344
 21
32.9165
  0
LINE
  8
0
 10
5.23344
 20
32.9165
 11
5.15643
 21
32.9012
  0
LINE
  8
0
 10
5.15643
 20
32.9012
 11
5.07845
 21
32.892
  0
LINE
  8
0
 10
5.07845
 20
32.892
 11
5
 21
32.8889
  0
LINE
  8
0
 10
5
 20
32.8889
 11
0
 21
32.8889
  0
LINE
  8
0
 10
0
 20
32.8889
 11
0
 21
22.8889
  0
LINE
  8
0
 10
0
 20
22.8889
 11
5
 21
22.8889
  0
LINE
  8
0
 10
5
 20
22.8889
 11
5.07845
 21
22.8858
  0
LINE
  8
0
 10
5.07845
 20
22.8858
 11
5.15643
 21
22.8766
  0
LINE
  8
0
 10
5.15643
 20
22.8766
 11
5.23344
 21
22.8613
  0
LINE
  8
0
 10
5.23344
 20
22.8613
 11
5.30901
 21
22.8399
  0
LINE
  8
0
 10
5.30901
 20
22.8399
 11
5.38268
 21
22.8128
  0
LINE
  8
0
 10
5.38268
 20
22.8128
 11
5.45398
 21
22.7799
  0
LINE
  8
0
 10
5.45398
 20
22.7799
 11
5.52249
 21
22.7415
  0
LINE
  8
0
 10
5.52249
 20
22.7415
 11
5.58778
 21
22.6979
  0
LINE
  8
0
 10
5.58778
 20
22.6979
 11
5.64944
 21
22.6493
  0
LINE
  8
0
 10
5.64944
 20
22.6493
 11
5.70709
 21
22.596
  0
LINE
  8
0
 10
5.70709
 20
22.596
 11
5.76039
 21
22.5383
  0
LINE
  8
0
 10
5.76039
 20
22.5383
 11
5.80901
 21
22.4767
  0
LINE
  8
0
 10
5.80901
 20
22.4767
 11
5.85263
 21
22.4114
  0
LINE
  8
0
 10
5.85263
 20
22.4114
 11
5.89101
 21
22.3429
  0
LINE
  8
0
 10
5.89101
 20
22.3429
 11
5.92387
 21
22.2716
  0
LINE
  8
0
 10
5.92387
 20
22.2716
 11
5.95105
 21
22.1979
  0
LINE
  8
0
 10
5.95105
 20
22.1979
 11
5.97237
 21
22.1223
  0
LINE
  8
0
 10
5.97237
 20
22.1223
 11
5.98769
 21
22.0453
  0
LINE
  8
0
 10
5.98769
 20
22.0453
 11
5.9969
 21
21.9673
  0
LINE
  8
0
 10
5.9969
 20
21.9673
 11
6
 21
21.8889
  0
LINE
  8
0
 10
6
 20
21.8889
 11
6
 21
1
  0
LINE
  8
0
 10
6
 20
1
 11
6.00308
 21
0.921539
  0
LINE
  8
0
 10
6.00308
 20
0.921539
 11
6.0123
 21
0.843552
  0
LINE
  8
0
 10
6.0123
 20
0.843552
 11
6.02762
 21
0.766541
  0
LINE
  8
0
 10
6.02762
 20
0.766541
 11
6.04893
 21
0.690979
  0
LINE
  8
0
 10
6.04893
 20
0.690979
 11
6.07611
 21
0.61731
  0
LINE
  8
0
 10
6.07611
 20
0.61731
 11
6.10898
 21
0.546005
  0
LINE
  8
0
 10
6.10898
 20
0.546005
 11
6.14735
 21
0.477493
  0
LINE
  8
0
 10
6.14735
 20
0.477493
 11
6.19098
 21
0.412201
  0
LINE
  8
0
 10
6.19098
 20
0.412201
 11
6.23959
 21
0.35054
  0
LINE
  8
0
 10
6.23959
 20
0.35054
 11
6.29289
 21
0.292892
  0
LINE
  8
0
 10
6.29289
 20
0.292892
 11
6.35054
 21
0.239594
  0
LINE
  8
0
 10
6.35054
 20
0.239594
 11
6.4122
 21
0.190979
  0
LINE
  8
0
 10
6.4122
 20
0.190979
 11
6.47749
 21
0.147354
  0
LINE
  8
0
 10
6.47749
 20
0.147354
 11
6.54601
 21
0.108978
  0
LINE
  8
0
 10
6.54601
 20
0.108978
 11
6.61731
 21
0.0761108
  0
LINE
  8
0
 10
6.61731
 20
0.0761108
 11
6.69098
 21
0.0489349
  0
LINE
  8
0
 10
6.69098
 20
0.0489349
 11
6.76654
 21
0.0276184
  0
LINE
  8
0
 10
6.76654
 20
0.0276184
 11
6.84355
 21
0.0122986
  0
LINE
  8
0
 10
6.84355
 20
0.0122986
 11
6.92154
 21
0.00308228
  0
LINE
  8
0
 10
6.92154
 20
0.00308228
 11
7
 21
0
  0
LINE
  8
0
 10
7
 20
0
 11
30
 21
0
  0
LINE
  8
0
 10
30
 20
0
 11
30.3141
 21
0.00616455
  0
ENDSEC
  0
SECTION
  2
OBJECTS
  0
DICTIONARY
  0
ENDSEC
  0
EOF
