  0
SECTION
  2
BLOCKS
  0
ENDSEC
  0
SECTION
  2
ENTITIES
  0
LINE
  8
0
 10
-147.186
 20
-271.494
 11
-146.872
 21
-271.475
  0
LINE
  8
0
 10
-146.872
 20
-271.475
 11
-146.56
 21
-271.445
  0
LINE
  8
0
 10
-146.56
 20
-271.445
 11
-146.249
 21
-271.402
  0
LINE
  8
0
 10
-146.249
 20
-271.402
 11
-145.939
 21
-271.346
  0
LINE
  8
0
 10
-145.939
 20
-271.346
 11
-145.632
 21
-271.279
  0
LINE
  8
0
 10
-145.632
 20
-271.279
 11
-145.328
 21
-271.2
  0
LINE
  8
0
 10
-145.328
 20
-271.2
 11
-145.028
 21
-271.108
  0
LINE
  8
0
 10
-145.028
 20
-271.108
 11
-144.731
 21
-271.006
  0
LINE
  8
0
 10
-144.731
 20
-271.006
 11
-144.439
 21
-270.891
  0
LINE
  8
0
 10
-144.439
 20
-270.891
 11
-144.151
 21
-270.765
  0
LINE
  8
0
 10
-144.151
 20
-270.765
 11
-143.868
 21
-270.628
  0
LINE
  8
0
 10
-143.868
 20
-270.628
 11
-143.591
 21
-270.48
  0
LINE
  8
0
 10
-143.591
 20
-270.48
 11
-143.32
 21
-270.321
  0
LINE
  8
0
 10
-143.32
 20
-270.321
 11
-143.055
 21
-270.152
  0
LINE
  8
0
 10
-143.055
 20
-270.152
 11
-142.798
 21
-269.972
  0
LINE
  8
0
 10
-142.798
 20
-269.972
 11
-142.547
 21
-269.783
  0
LINE
  8
0
 10
-142.547
 20
-269.783
 11
-142.304
 21
-269.583
  0
LINE
  8
0
 10
-142.304
 20
-269.583
 11
-142.07
 21
-269.375
  0
LINE
  8
0
 10
-142.07
 20
-269.375
 11
-141.843
 21
-269.157
  0
LINE
  8
0
 10
-141.843
 20
-269.157
 11
-137.157
 21
-263.843
  0
LINE
  8
0
 10
-137.157
 20
-263.843
 11
-136.93
 21
-263.625
  0
LINE
  8
0
 10
-136.93
 20
-263.625
 11
-136.696
 21
-263.417
  0
LINE
  8
0
 10
-136.696
 20
-263.417
 11
-136.453
 21
-263.217
  0
LINE
  8
0
 10
-136.453
 20
-263.217
 11
-136.202
 21
-263.028
  0
LINE
  8
0
 10
-136.202
 20
-263.028
 11
-135.945
 21
-262.848
  0
LINE
  8
0
 10
-135.945
 20
-262.848
 11
-135.68
 21
-262.679
  0
LINE
  8
0
 10
-135.68
 20
-262.679
 11
-135.409
 21
-262.52
  0
LINE
  8
0
 10
-135.409
 20
-262.52
 11
-135.132
 21
-262.372
  0
LINE
  8
0
 10
-135.132
 20
-262.372
 11
-134.849
 21
-262.235
  0
LINE
  8
0
 10
-134.849
 20
-262.235
 11
-134.561
 21
-262.109
  0
LINE
  8
0
 10
-134.561
 20
-262.109
 11
-134.269
 21
-261.994
  0
LINE
  8
0
 10
-134.269
 20
-261.994
 11
-133.972
 21
-261.892
  0
LINE
  8
0
 10
-133.972
 20
-261.892
 11
-133.672
 21
-261.8
  0
LINE
  8
0
 10
-133.672
 20
-261.8
 11
-133.368
 21
-261.721
  0
LINE
  8
0
 10
-133.368
 20
-261.721
 11
-133.061
 21
-261.654
  0
LINE
  8
0
 10
-133.061
 20
-261.654
 11
-132.751
 21
-261.598
  0
LINE
  8
0
 10
-132.751
 20
-261.598
 11
-132.44
 21
-261.555
  0
LINE
  8
0
 10
-132.44
 20
-261.555
 11
-132.128
 21
-261.525
  0
LINE
  8
0
 10
-132.128
 20
-261.525
 11
-131.814
 21
-261.506
  0
LINE
  8
0
 10
-131.814
 20
-261.506
 11
-131.5
 21
-261.5
  0
LINE
  8
0
 10
-131.5
 20
-261.5
 11
119.5
 21
-261.5
  0
LINE
  8
0
 10
119.5
 20
-261.5
 11
119.814
 21
-261.506
  0
LINE
  8
0
 10
119.814
 20
-261.506
 11
120.128
 21
-261.525
  0
LINE
  8
0
 10
120.128
 20
-261.525
 11
120.44
 21
-261.555
  0
LINE
  8
0
 10
120.44
 20
-261.555
 11
120.751
 21
-261.598
  0
LINE
  8
0
 10
120.751
 20
-261.598
 11
121.061
 21
-261.654
  0
LINE
  8
0
 10
121.061
 20
-261.654
 11
121.368
 21
-261.721
  0
LINE
  8
0
 10
121.368
 20
-261.721
 11
121.672
 21
-261.8
  0
LINE
  8
0
 10
121.672
 20
-261.8
 11
121.972
 21
-261.892
  0
LINE
  8
0
 10
121.972
 20
-261.892
 11
122.269
 21
-261.994
  0
LINE
  8
0
 10
122.269
 20
-261.994
 11
122.561
 21
-262.109
  0
LINE
  8
0
 10
122.561
 20
-262.109
 11
122.849
 21
-262.235
  0
LINE
  8
0
 10
122.849
 20
-262.235
 11
123.132
 21
-262.372
  0
LINE
  8
0
 10
123.132
 20
-262.372
 11
123.409
 21
-262.52
  0
LINE
  8
0
 10
123.409
 20
-262.52
 11
123.68
 21
-262.679
  0
LINE
  8
0
 10
123.68
 20
-262.679
 11
123.945
 21
-262.848
  0
LINE
  8
0
 10
123.945
 20
-262.848
 11
124.202
 21
-263.028
  0
LINE
  8
0
 10
124.202
 20
-263.028
 11
124.453
 21
-263.217
  0
LINE
  8
0
 10
124.453
 20
-263.217
 11
124.696
 21
-263.417
  0
LINE
  8
0
 10
124.696
 20
-263.417
 11
124.93
 21
-263.625
  0
LINE
  8
0
 10
124.93
 20
-263.625
 11
125.157
 21
-263.843
  0
LINE
  8
0
 10
125.157
 20
-263.843
 11
129.843
 21
-269.157
  0
LINE
  8
0
 10
129.843
 20
-269.157
 11
130.07
 21
-269.375
  0
LINE
  8
0
 10
130.07
 20
-269.375
 11
130.304
 21
-269.583
  0
LINE
  8
0
 10
130.304
 20
-269.583
 11
130.547
 21
-269.783
  0
LINE
  8
0
 10
130.547
 20
-269.783
 11
130.798
 21
-269.972
  0
LINE
  8
0
 10
130.798
 20
-269.972
 11
131.055
 21
-270.152
  0
LINE
  8
0
 10
131.055
 20
-270.152
 11
131.32
 21
-270.321
  0
LINE
  8
0
 10
131.32
 20
-270.321
 11
131.591
 21
-270.48
  0
LINE
  8
0
 10
131.591
 20
-270.48
 11
131.868
 21
-270.628
  0
LINE
  8
0
 10
131.868
 20
-270.628
 11
132.151
 21
-270.765
  0
LINE
  8
0
 10
132.151
 20
-270.765
 11
132.439
 21
-270.891
  0
LINE
  8
0
 10
132.439
 20
-270.891
 11
132.731
 21
-271.006
  0
LINE
  8
0
 10
132.731
 20
-271.006
 11
133.028
 21
-271.108
  0
LINE
  8
0
 10
133.028
 20
-271.108
 11
133.328
 21
-271.2
  0
LINE
  8
0
 10
133.328
 20
-271.2
 11
133.632
 21
-271.279
  0
LINE
  8
0
 10
133.632
 20
-271.279
 11
133.939
 21
-271.346
  0
LINE
  8
0
 10
133.939
 20
-271.346
 11
134.249
 21
-271.402
  0
LINE
  8
0
 10
134.249
 20
-271.402
 11
134.56
 21
-271.445
  0
LINE
  8
0
 10
134.56
 20
-271.445
 11
134.872
 21
-271.475
  0
LINE
  8
0
 10
134.872
 20
-271.475
 11
135.186
 21
-271.494
  0
LINE
  8
0
 10
135.186
 20
-271.494
 11
135.5
 21
-271.5
  0
LINE
  8
0
 10
135.5
 20
-271.5
 11
162.5
 21
-271.5
  0
LINE
  8
0
 10
162.5
 20
-271.5
 11
162.735
 21
-271.491
  0
LINE
  8
0
 10
162.735
 20
-271.491
 11
162.969
 21
-271.463
  0
LINE
  8
0
 10
162.969
 20
-271.463
 11
163.2
 21
-271.417
  0
LINE
  8
0
 10
163.2
 20
-271.417
 11
163.427
 21
-271.353
  0
LINE
  8
0
 10
163.427
 20
-271.353
 11
163.648
 21
-271.272
  0
LINE
  8
0
 10
163.648
 20
-271.272
 11
163.862
 21
-271.173
  0
LINE
  8
0
 10
163.862
 20
-271.173
 11
164.067
 21
-271.058
  0
LINE
  8
0
 10
164.067
 20
-271.058
 11
164.263
 21
-270.927
  0
LINE
  8
0
 10
164.263
 20
-270.927
 11
164.448
 21
-270.781
  0
LINE
  8
0
 10
164.448
 20
-270.781
 11
164.621
 21
-270.621
  0
LINE
  8
0
 10
164.621
 20
-270.621
 11
164.781
 21
-270.448
  0
LINE
  8
0
 10
164.781
 20
-270.448
 11
164.927
 21
-270.263
  0
LINE
  8
0
 10
164.927
 20
-270.263
 11
165.058
 21
-270.068
  0
LINE
  8
0
 10
165.058
 20
-270.068
 11
165.173
 21
-269.862
  0
LINE
  8
0
 10
165.173
 20
-269.862
 11
165.272
 21
-269.648
  0
LINE
  8
0
 10
165.272
 20
-269.648
 11
165.353
 21
-269.427
  0
LINE
  8
0
 10
165.353
 20
-269.427
 11
165.417
 21
-269.2
  0
LINE
  8
0
 10
165.417
 20
-269.2
 11
165.463
 21
-268.969
  0
LINE
  8
0
 10
165.463
 20
-268.969
 11
165.491
 21
-268.735
  0
LINE
  8
0
 10
165.491
 20
-268.735
 11
165.5
 21
-268.5
  0
LINE
  8
0
 10
165.5
 20
-268.5
 11
165.5
 21
258.5
  0
LINE
  8
0
 10
165.5
 20
258.5
 11
165.491
 21
258.735
  0
LINE
  8
0
 10
165.491
 20
258.735
 11
165.463
 21
258.969
  0
LINE
  8
0
 10
165.463
 20
258.969
 11
165.417
 21
259.2
  0
LINE
  8
0
 10
165.417
 20
259.2
 11
165.353
 21
259.427
  0
LINE
  8
0
 10
165.353
 20
259.427
 11
165.272
 21
259.648
  0
LINE
  8
0
 10
165.272
 20
259.648
 11
165.173
 21
259.862
  0
LINE
  8
0
 10
165.173
 20
259.862
 11
165.058
 21
260.067
  0
LINE
  8
0
 10
165.058
 20
260.067
 11
164.927
 21
260.263
  0
LINE
  8
0
 10
164.927
 20
260.263
 11
164.781
 21
260.448
  0
LINE
  8
0
 10
164.781
 20
260.448
 11
164.621
 21
260.621
  0
LINE
  8
0
 10
164.621
 20
260.621
 11
164.448
 21
260.781
  0
LINE
  8
0
 10
164.448
 20
260.781
 11
164.263
 21
260.927
  0
LINE
  8
0
 10
164.263
 20
260.927
 11
164.067
 21
261.058
  0
LINE
  8
0
 10
164.067
 20
261.058
 11
163.862
 21
261.173
  0
LINE
  8
0
 10
163.862
 20
261.173
 11
163.648
 21
261.272
  0
LINE
  8
0
 10
163.648
 20
261.272
 11
163.427
 21
261.353
  0
LINE
  8
0
 10
163.427
 20
261.353
 11
163.2
 21
261.417
  0
LINE
  8
0
 10
163.2
 20
261.417
 11
162.969
 21
261.463
  0
LINE
  8
0
 10
162.969
 20
261.463
 11
162.735
 21
261.491
  0
LINE
  8
0
 10
162.735
 20
261.491
 11
162.5
 21
261.5
  0
LINE
  8
0
 10
162.5
 20
261.5
 11
135.5
 21
261.5
  0
LINE
  8
0
 10
135.5
 20
261.5
 11
135.186
 21
261.506
  0
LINE
  8
0
 10
135.186
 20
261.506
 11
134.872
 21
261.525
  0
LINE
  8
0
 10
134.872
 20
261.525
 11
134.56
 21
261.555
  0
LINE
  8
0
 10
134.56
 20
261.555
 11
134.249
 21
261.598
  0
LINE
  8
0
 10
134.249
 20
261.598
 11
133.939
 21
261.654
  0
LINE
  8
0
 10
133.939
 20
261.654
 11
133.632
 21
261.721
  0
LINE
  8
0
 10
133.632
 20
261.721
 11
133.328
 21
261.8
  0
LINE
  8
0
 10
133.328
 20
261.8
 11
133.028
 21
261.892
  0
LINE
  8
0
 10
133.028
 20
261.892
 11
132.731
 21
261.994
  0
LINE
  8
0
 10
132.731
 20
261.994
 11
132.439
 21
262.109
  0
LINE
  8
0
 10
132.439
 20
262.109
 11
132.151
 21
262.235
  0
LINE
  8
0
 10
132.151
 20
262.235
 11
131.868
 21
262.372
  0
LINE
  8
0
 10
131.868
 20
262.372
 11
131.591
 21
262.52
  0
LINE
  8
0
 10
131.591
 20
262.52
 11
131.32
 21
262.679
  0
LINE
  8
0
 10
131.32
 20
262.679
 11
131.055
 21
262.848
  0
LINE
  8
0
 10
131.055
 20
262.848
 11
130.798
 21
263.028
  0
LINE
  8
0
 10
130.798
 20
263.028
 11
130.547
 21
263.217
  0
LINE
  8
0
 10
130.547
 20
263.217
 11
130.304
 21
263.417
  0
LINE
  8
0
 10
130.304
 20
263.417
 11
130.07
 21
263.625
  0
LINE
  8
0
 10
130.07
 20
263.625
 11
129.843
 21
263.843
  0
LINE
  8
0
 10
129.843
 20
263.843
 11
125.157
 21
269.157
  0
LINE
  8
0
 10
125.157
 20
269.157
 11
124.93
 21
269.375
  0
LINE
  8
0
 10
124.93
 20
269.375
 11
124.696
 21
269.583
  0
LINE
  8
0
 10
124.696
 20
269.583
 11
124.453
 21
269.783
  0
LINE
  8
0
 10
124.453
 20
269.783
 11
124.202
 21
269.972
  0
LINE
  8
0
 10
124.202
 20
269.972
 11
123.945
 21
270.152
  0
LINE
  8
0
 10
123.945
 20
270.152
 11
123.68
 21
270.321
  0
LINE
  8
0
 10
123.68
 20
270.321
 11
123.409
 21
270.48
  0
LINE
  8
0
 10
123.409
 20
270.48
 11
123.132
 21
270.628
  0
LINE
  8
0
 10
123.132
 20
270.628
 11
122.849
 21
270.765
  0
LINE
  8
0
 10
122.849
 20
270.765
 11
122.561
 21
270.891
  0
LINE
  8
0
 10
122.561
 20
270.891
 11
122.269
 21
271.006
  0
LINE
  8
0
 10
122.269
 20
271.006
 11
121.972
 21
271.108
  0
LINE
  8
0
 10
121.972
 20
271.108
 11
121.672
 21
271.2
  0
LINE
  8
0
 10
121.672
 20
271.2
 11
121.368
 21
271.279
  0
LINE
  8
0
 10
121.368
 20
271.279
 11
121.061
 21
271.346
  0
LINE
  8
0
 10
121.061
 20
271.346
 11
120.751
 21
271.402
  0
LINE
  8
0
 10
120.751
 20
271.402
 11
120.44
 21
271.445
  0
LINE
  8
0
 10
120.44
 20
271.445
 11
120.128
 21
271.475
  0
LINE
  8
0
 10
120.128
 20
271.475
 11
119.814
 21
271.494
  0
LINE
  8
0
 10
119.814
 20
271.494
 11
119.5
 21
271.5
  0
LINE
  8
0
 10
119.5
 20
271.5
 11
-131.5
 21
271.5
  0
LINE
  8
0
 10
-131.5
 20
271.5
 11
-131.814
 21
271.494
  0
LINE
  8
0
 10
-131.814
 20
271.494
 11
-132.128
 21
271.475
  0
LINE
  8
0
 10
-132.128
 20
271.475
 11
-132.44
 21
271.445
  0
LINE
  8
0
 10
-132.44
 20
271.445
 11
-132.751
 21
271.402
  0
LINE
  8
0
 10
-132.751
 20
271.402
 11
-133.061
 21
271.346
  0
LINE
  8
0
 10
-133.061
 20
271.346
 11
-133.368
 21
271.279
  0
LINE
  8
0
 10
-133.368
 20
271.279
 11
-133.672
 21
271.2
  0
LINE
  8
0
 10
-133.672
 20
271.2
 11
-133.972
 21
271.108
  0
LINE
  8
0
 10
-133.972
 20
271.108
 11
-134.269
 21
271.006
  0
LINE
  8
0
 10
-134.269
 20
271.006
 11
-134.561
 21
270.891
  0
LINE
  8
0
 10
-134.561
 20
270.891
 11
-134.849
 21
270.765
  0
LINE
  8
0
 10
-134.849
 20
270.765
 11
-135.132
 21
270.628
  0
LINE
  8
0
 10
-135.132
 20
270.628
 11
-135.409
 21
270.48
  0
LINE
  8
0
 10
-135.409
 20
270.48
 11
-135.68
 21
270.321
  0
LINE
  8
0
 10
-135.68
 20
270.321
 11
-135.945
 21
270.152
  0
LINE
  8
0
 10
-135.945
 20
270.152
 11
-136.202
 21
269.972
  0
LINE
  8
0
 10
-136.202
 20
269.972
 11
-136.453
 21
269.783
  0
LINE
  8
0
 10
-136.453
 20
269.783
 11
-136.696
 21
269.583
  0
LINE
  8
0
 10
-136.696
 20
269.583
 11
-136.93
 21
269.375
  0
LINE
  8
0
 10
-136.93
 20
269.375
 11
-137.157
 21
269.157
  0
LINE
  8
0
 10
-137.157
 20
269.157
 11
-141.843
 21
263.843
  0
LINE
  8
0
 10
-141.843
 20
263.843
 11
-142.07
 21
263.625
  0
LINE
  8
0
 10
-142.07
 20
263.625
 11
-142.304
 21
263.417
  0
LINE
  8
0
 10
-142.304
 20
263.417
 11
-142.547
 21
263.217
  0
LINE
  8
0
 10
-142.547
 20
263.217
 11
-142.798
 21
263.028
  0
LINE
  8
0
 10
-142.798
 20
263.028
 11
-143.055
 21
262.848
  0
LINE
  8
0
 10
-143.055
 20
262.848
 11
-143.32
 21
262.679
  0
LINE
  8
0
 10
-143.32
 20
262.679
 11
-143.591
 21
262.52
  0
LINE
  8
0
 10
-143.591
 20
262.52
 11
-143.868
 21
262.372
  0
LINE
  8
0
 10
-143.868
 20
262.372
 11
-144.151
 21
262.235
  0
LINE
  8
0
 10
-144.151
 20
262.235
 11
-144.439
 21
262.109
  0
LINE
  8
0
 10
-144.439
 20
262.109
 11
-144.731
 21
261.994
  0
LINE
  8
0
 10
-144.731
 20
261.994
 11
-145.028
 21
261.892
  0
LINE
  8
0
 10
-145.028
 20
261.892
 11
-145.328
 21
261.8
  0
LINE
  8
0
 10
-145.328
 20
261.8
 11
-145.632
 21
261.721
  0
LINE
  8
0
 10
-145.632
 20
261.721
 11
-145.939
 21
261.654
  0
LINE
  8
0
 10
-145.939
 20
261.654
 11
-146.249
 21
261.598
  0
LINE
  8
0
 10
-146.249
 20
261.598
 11
-146.56
 21
261.555
  0
LINE
  8
0
 10
-146.56
 20
261.555
 11
-146.872
 21
261.525
  0
LINE
  8
0
 10
-146.872
 20
261.525
 11
-147.186
 21
261.506
  0
LINE
  8
0
 10
-147.186
 20
261.506
 11
-147.5
 21
261.5
  0
LINE
  8
0
 10
-147.5
 20
261.5
 11
-174.5
 21
261.5
  0
LINE
  8
0
 10
-174.5
 20
261.5
 11
-174.735
 21
261.491
  0
LINE
  8
0
 10
-174.735
 20
261.491
 11
-174.969
 21
261.463
  0
LINE
  8
0
 10
-174.969
 20
261.463
 11
-175.2
 21
261.417
  0
LINE
  8
0
 10
-175.2
 20
261.417
 11
-175.427
 21
261.353
  0
LINE
  8
0
 10
-175.427
 20
261.353
 11
-175.648
 21
261.272
  0
LINE
  8
0
 10
-175.648
 20
261.272
 11
-175.862
 21
261.173
  0
LINE
  8
0
 10
-175.862
 20
261.173
 11
-176.068
 21
261.058
  0
LINE
  8
0
 10
-176.068
 20
261.058
 11
-176.263
 21
260.927
  0
LINE
  8
0
 10
-176.263
 20
260.927
 11
-176.448
 21
260.781
  0
LINE
  8
0
 10
-176.448
 20
260.781
 11
-176.621
 21
260.621
  0
LINE
  8
0
 10
-176.621
 20
260.621
 11
-176.781
 21
260.448
  0
LINE
  8
0
 10
-176.781
 20
260.448
 11
-176.927
 21
260.263
  0
LINE
  8
0
 10
-176.927
 20
260.263
 11
-177.058
 21
260.067
  0
LINE
  8
0
 10
-177.058
 20
260.067
 11
-177.173
 21
259.862
  0
LINE
  8
0
 10
-177.173
 20
259.862
 11
-177.272
 21
259.648
  0
LINE
  8
0
 10
-177.272
 20
259.648
 11
-177.353
 21
259.427
  0
LINE
  8
0
 10
-177.353
 20
259.427
 11
-177.417
 21
259.2
  0
LINE
  8
0
 10
-177.417
 20
259.2
 11
-177.463
 21
258.969
  0
LINE
  8
0
 10
-177.463
 20
258.969
 11
-177.491
 21
258.735
  0
LINE
  8
0
 10
-177.491
 20
258.735
 11
-177.5
 21
258.5
  0
LINE
  8
0
 10
-177.5
 20
258.5
 11
-177.5
 21
-268.5
  0
LINE
  8
0
 10
-177.5
 20
-268.5
 11
-177.491
 21
-268.735
  0
LINE
  8
0
 10
-177.491
 20
-268.735
 11
-177.463
 21
-268.969
  0
LINE
  8
0
 10
-177.463
 20
-268.969
 11
-177.417
 21
-269.2
  0
LINE
  8
0
 10
-177.417
 20
-269.2
 11
-177.353
 21
-269.427
  0
LINE
  8
0
 10
-177.353
 20
-269.427
 11
-177.272
 21
-269.648
  0
LINE
  8
0
 10
-177.272
 20
-269.648
 11
-177.173
 21
-269.862
  0
LINE
  8
0
 10
-177.173
 20
-269.862
 11
-177.058
 21
-270.068
  0
LINE
  8
0
 10
-177.058
 20
-270.068
 11
-176.927
 21
-270.263
  0
LINE
  8
0
 10
-176.927
 20
-270.263
 11
-176.781
 21
-270.448
  0
LINE
  8
0
 10
-176.781
 20
-270.448
 11
-176.621
 21
-270.621
  0
LINE
  8
0
 10
-176.621
 20
-270.621
 11
-176.448
 21
-270.781
  0
LINE
  8
0
 10
-176.448
 20
-270.781
 11
-176.263
 21
-270.927
  0
LINE
  8
0
 10
-176.263
 20
-270.927
 11
-176.068
 21
-271.058
  0
LINE
  8
0
 10
-176.068
 20
-271.058
 11
-175.862
 21
-271.173
  0
LINE
  8
0
 10
-175.862
 20
-271.173
 11
-175.648
 21
-271.272
  0
LINE
  8
0
 10
-175.648
 20
-271.272
 11
-175.427
 21
-271.353
  0
LINE
  8
0
 10
-175.427
 20
-271.353
 11
-175.2
 21
-271.417
  0
LINE
  8
0
 10
-175.2
 20
-271.417
 11
-174.969
 21
-271.463
  0
LINE
  8
0
 10
-174.969
 20
-271.463
 11
-174.735
 21
-271.491
  0
LINE
  8
0
 10
-174.735
 20
-271.491
 11
-174.5
 21
-271.5
  0
LINE
  8
0
 10
-174.5
 20
-271.5
 11
-147.5
 21
-271.5
  0
LINE
  8
0
 10
-147.5
 20
-271.5
 11
-147.186
 21
-271.494
  0
LINE
  8
0
 10
105.625
 20
261.5
 11
105.625
 21
267.5
  0
LINE
  8
0
 10
105.625
 20
267.5
 11
115.625
 21
267.5
  0
LINE
  8
0
 10
115.625
 20
267.5
 11
115.625
 21
261.5
  0
LINE
  8
0
 10
115.625
 20
261.5
 11
105.625
 21
261.5
  0
LINE
  8
0
 10
31.875
 20
261.5
 11
31.875
 21
267.5
  0
LINE
  8
0
 10
31.875
 20
267.5
 11
41.875
 21
267.5
  0
LINE
  8
0
 10
41.875
 20
267.5
 11
41.875
 21
261.5
  0
LINE
  8
0
 10
41.875
 20
261.5
 11
31.875
 21
261.5
  0
LINE
  8
0
 10
-41.875
 20
261.5
 11
-41.875
 21
267.5
  0
LINE
  8
0
 10
-41.875
 20
267.5
 11
-31.875
 21
267.5
  0
LINE
  8
0
 10
-31.875
 20
267.5
 11
-31.875
 21
261.5
  0
LINE
  8
0
 10
-31.875
 20
261.5
 11
-41.875
 21
261.5
  0
LINE
  8
0
 10
-115.625
 20
261.5
 11
-115.625
 21
267.5
  0
LINE
  8
0
 10
-115.625
 20
267.5
 11
-105.625
 21
267.5
  0
LINE
  8
0
 10
-105.625
 20
267.5
 11
-105.625
 21
261.5
  0
LINE
  8
0
 10
-105.625
 20
261.5
 11
-115.625
 21
261.5
  0
LINE
  8
0
 10
73.7238
 20
263
 11
73.6977
 21
263.001
  0
LINE
  8
0
 10
73.6977
 20
263.001
 11
73.6715
 21
263.002
  0
LINE
  8
0
 10
73.6715
 20
263.002
 11
73.6454
 21
263.004
  0
LINE
  8
0
 10
73.6454
 20
263.004
 11
73.6193
 21
263.006
  0
LINE
  8
0
 10
73.6193
 20
263.006
 11
73.5932
 21
263.008
  0
LINE
  8
0
 10
73.5932
 20
263.008
 11
73.5672
 21
263.011
  0
LINE
  8
0
 10
73.5672
 20
263.011
 11
73.5412
 21
263.015
  0
LINE
  8
0
 10
73.5412
 20
263.015
 11
73.5154
 21
263.018
  0
LINE
  8
0
 10
73.5154
 20
263.018
 11
73.4895
 21
263.023
  0
LINE
  8
0
 10
73.4895
 20
263.023
 11
73.4638
 21
263.028
  0
LINE
  8
0
 10
73.4638
 20
263.028
 11
73.4381
 21
263.033
  0
LINE
  8
0
 10
73.4381
 20
263.033
 11
73.4126
 21
263.038
  0
LINE
  8
0
 10
73.4126
 20
263.038
 11
73.3871
 21
263.045
  0
LINE
  8
0
 10
73.3871
 20
263.045
 11
73.3618
 21
263.051
  0
LINE
  8
0
 10
73.3618
 20
263.051
 11
73.3365
 21
263.058
  0
LINE
  8
0
 10
73.3365
 20
263.058
 11
73.3114
 21
263.066
  0
LINE
  8
0
 10
73.3114
 20
263.066
 11
73.2865
 21
263.073
  0
LINE
  8
0
 10
73.2865
 20
263.073
 11
73.2617
 21
263.082
  0
LINE
  8
0
 10
73.2617
 20
263.082
 11
73.237
 21
263.09
  0
LINE
  8
0
 10
73.237
 20
263.09
 11
73.2124
 21
263.1
  0
LINE
  8
0
 10
73.2124
 20
263.1
 11
73.1881
 21
263.109
  0
LINE
  8
0
 10
73.1881
 20
263.109
 11
73.1639
 21
263.119
  0
LINE
  8
0
 10
73.1639
 20
263.119
 11
73.1399
 21
263.13
  0
LINE
  8
0
 10
73.1399
 20
263.13
 11
73.1161
 21
263.141
  0
LINE
  8
0
 10
73.1161
 20
263.141
 11
73.0925
 21
263.152
  0
LINE
  8
0
 10
73.0925
 20
263.152
 11
73.069
 21
263.163
  0
LINE
  8
0
 10
73.069
 20
263.163
 11
73.0458
 21
263.176
  0
LINE
  8
0
 10
73.0458
 20
263.176
 11
73.0228
 21
263.188
  0
LINE
  8
0
 10
73.0228
 20
263.188
 11
73
 21
263.201
  0
LINE
  8
0
 10
73
 20
263.201
 11
72.9774
 21
263.214
  0
LINE
  8
0
 10
72.9774
 20
263.214
 11
72.9551
 21
263.228
  0
LINE
  8
0
 10
72.9551
 20
263.228
 11
72.933
 21
263.242
  0
LINE
  8
0
 10
72.933
 20
263.242
 11
72.9112
 21
263.256
  0
LINE
  8
0
 10
72.9112
 20
263.256
 11
72.8896
 21
263.271
  0
LINE
  8
0
 10
72.8896
 20
263.271
 11
72.8683
 21
263.286
  0
LINE
  8
0
 10
72.8683
 20
263.286
 11
72.8473
 21
263.302
  0
LINE
  8
0
 10
72.8473
 20
263.302
 11
72.8265
 21
263.318
  0
LINE
  8
0
 10
72.8265
 20
263.318
 11
72.806
 21
263.334
  0
LINE
  8
0
 10
72.806
 20
263.334
 11
72.7858
 21
263.351
  0
LINE
  8
0
 10
72.7858
 20
263.351
 11
72.7659
 21
263.368
  0
LINE
  8
0
 10
72.7659
 20
263.368
 11
72.7463
 21
263.385
  0
LINE
  8
0
 10
72.7463
 20
263.385
 11
72.727
 21
263.403
  0
LINE
  8
0
 10
72.727
 20
263.403
 11
72.708
 21
263.421
  0
LINE
  8
0
 10
72.708
 20
263.421
 11
72.6893
 21
263.439
  0
LINE
  8
0
 10
72.6893
 20
263.439
 11
72.671
 21
263.458
  0
LINE
  8
0
 10
72.671
 20
263.458
 11
72.653
 21
263.477
  0
LINE
  8
0
 10
72.653
 20
263.477
 11
72.6353
 21
263.496
  0
LINE
  8
0
 10
72.6353
 20
263.496
 11
72.618
 21
263.516
  0
LINE
  8
0
 10
72.618
 20
263.516
 11
72.6009
 21
263.536
  0
LINE
  8
0
 10
72.6009
 20
263.536
 11
72.5843
 21
263.556
  0
LINE
  8
0
 10
72.5843
 20
263.556
 11
72.568
 21
263.577
  0
LINE
  8
0
 10
72.568
 20
263.577
 11
72.552
 21
263.597
  0
LINE
  8
0
 10
72.552
 20
263.597
 11
72.5365
 21
263.618
  0
LINE
  8
0
 10
72.5365
 20
263.618
 11
72.5213
 21
263.64
  0
LINE
  8
0
 10
72.5213
 20
263.64
 11
72.5065
 21
263.661
  0
LINE
  8
0
 10
72.5065
 20
263.661
 11
72.492
 21
263.683
  0
LINE
  8
0
 10
72.492
 20
263.683
 11
72.4779
 21
263.705
  0
LINE
  8
0
 10
72.4779
 20
263.705
 11
72.4643
 21
263.727
  0
LINE
  8
0
 10
72.4643
 20
263.727
 11
72.451
 21
263.75
  0
LINE
  8
0
 10
72.451
 20
263.75
 11
72.4381
 21
263.773
  0
LINE
  8
0
 10
72.4381
 20
263.773
 11
72.4256
 21
263.796
  0
LINE
  8
0
 10
72.4256
 20
263.796
 11
72.4135
 21
263.819
  0
LINE
  8
0
 10
72.4135
 20
263.819
 11
72.4018
 21
263.842
  0
LINE
  8
0
 10
72.4018
 20
263.842
 11
72.3905
 21
263.866
  0
LINE
  8
0
 10
72.3905
 20
263.866
 11
72.3797
 21
263.89
  0
LINE
  8
0
 10
72.3797
 20
263.89
 11
72.3692
 21
263.914
  0
LINE
  8
0
 10
72.3692
 20
263.914
 11
72.3592
 21
263.938
  0
LINE
  8
0
 10
72.3592
 20
263.938
 11
72.3496
 21
263.962
  0
LINE
  8
0
 10
72.3496
 20
263.962
 11
72.3405
 21
263.987
  0
LINE
  8
0
 10
72.3405
 20
263.987
 11
72.3317
 21
264.012
  0
LINE
  8
0
 10
72.3317
 20
264.012
 11
72.3234
 21
264.036
  0
LINE
  8
0
 10
72.3234
 20
264.036
 11
72.3156
 21
264.061
  0
LINE
  8
0
 10
72.3156
 20
264.061
 11
72.3081
 21
264.087
  0
LINE
  8
0
 10
72.3081
 20
264.087
 11
72.3011
 21
264.112
  0
LINE
  8
0
 10
72.3011
 20
264.112
 11
72.2946
 21
264.137
  0
LINE
  8
0
 10
72.2946
 20
264.137
 11
72.2885
 21
264.163
  0
LINE
  8
0
 10
72.2885
 20
264.163
 11
72.2828
 21
264.188
  0
LINE
  8
0
 10
72.2828
 20
264.188
 11
72.2776
 21
264.214
  0
LINE
  8
0
 10
72.2776
 20
264.214
 11
72.2728
 21
264.24
  0
LINE
  8
0
 10
72.2728
 20
264.24
 11
72.2685
 21
264.265
  0
LINE
  8
0
 10
72.2685
 20
264.265
 11
72.2646
 21
264.291
  0
LINE
  8
0
 10
72.2646
 20
264.291
 11
72.2612
 21
264.317
  0
LINE
  8
0
 10
72.2612
 20
264.317
 11
72.2582
 21
264.343
  0
LINE
  8
0
 10
72.2582
 20
264.343
 11
72.2557
 21
264.369
  0
LINE
  8
0
 10
72.2557
 20
264.369
 11
72.2537
 21
264.395
  0
LINE
  8
0
 10
72.2537
 20
264.395
 11
72.2521
 21
264.421
  0
LINE
  8
0
 10
72.2521
 20
264.421
 11
72.2509
 21
264.448
  0
LINE
  8
0
 10
72.2509
 20
264.448
 11
72.2502
 21
264.474
  0
LINE
  8
0
 10
72.2502
 20
264.474
 11
72.25
 21
264.5
  0
LINE
  8
0
 10
72.25
 20
264.5
 11
72.2502
 21
264.526
  0
LINE
  8
0
 10
72.2502
 20
264.526
 11
72.2509
 21
264.552
  0
LINE
  8
0
 10
72.2509
 20
264.552
 11
72.2521
 21
264.578
  0
LINE
  8
0
 10
72.2521
 20
264.578
 11
72.2537
 21
264.605
  0
LINE
  8
0
 10
72.2537
 20
264.605
 11
72.2557
 21
264.631
  0
LINE
  8
0
 10
72.2557
 20
264.631
 11
72.2582
 21
264.657
  0
LINE
  8
0
 10
72.2582
 20
264.657
 11
72.2612
 21
264.683
  0
LINE
  8
0
 10
72.2612
 20
264.683
 11
72.2646
 21
264.709
  0
LINE
  8
0
 10
72.2646
 20
264.709
 11
72.2685
 21
264.735
  0
LINE
  8
0
 10
72.2685
 20
264.735
 11
72.2728
 21
264.76
  0
LINE
  8
0
 10
72.2728
 20
264.76
 11
72.2776
 21
264.786
  0
LINE
  8
0
 10
72.2776
 20
264.786
 11
72.2828
 21
264.812
  0
LINE
  8
0
 10
72.2828
 20
264.812
 11
72.2885
 21
264.837
  0
LINE
  8
0
 10
72.2885
 20
264.837
 11
72.2946
 21
264.863
  0
LINE
  8
0
 10
72.2946
 20
264.863
 11
72.3011
 21
264.888
  0
LINE
  8
0
 10
72.3011
 20
264.888
 11
72.3081
 21
264.913
  0
LINE
  8
0
 10
72.3081
 20
264.913
 11
72.3156
 21
264.939
  0
LINE
  8
0
 10
72.3156
 20
264.939
 11
72.3234
 21
264.964
  0
LINE
  8
0
 10
72.3234
 20
264.964
 11
72.3317
 21
264.988
  0
LINE
  8
0
 10
72.3317
 20
264.988
 11
72.3405
 21
265.013
  0
LINE
  8
0
 10
72.3405
 20
265.013
 11
72.3496
 21
265.038
  0
LINE
  8
0
 10
72.3496
 20
265.038
 11
72.3592
 21
265.062
  0
LINE
  8
0
 10
72.3592
 20
265.062
 11
72.3692
 21
265.086
  0
LINE
  8
0
 10
72.3692
 20
265.086
 11
72.3797
 21
265.11
  0
LINE
  8
0
 10
72.3797
 20
265.11
 11
72.3905
 21
265.134
  0
LINE
  8
0
 10
72.3905
 20
265.134
 11
72.4018
 21
265.158
  0
LINE
  8
0
 10
72.4018
 20
265.158
 11
72.4135
 21
265.181
  0
LINE
  8
0
 10
72.4135
 20
265.181
 11
72.4256
 21
265.204
  0
LINE
  8
0
 10
72.4256
 20
265.204
 11
72.4381
 21
265.227
  0
LINE
  8
0
 10
72.4381
 20
265.227
 11
72.451
 21
265.25
  0
LINE
  8
0
 10
72.451
 20
265.25
 11
72.4643
 21
265.273
  0
LINE
  8
0
 10
72.4643
 20
265.273
 11
72.4779
 21
265.295
  0
LINE
  8
0
 10
72.4779
 20
265.295
 11
72.492
 21
265.317
  0
LINE
  8
0
 10
72.492
 20
265.317
 11
72.5065
 21
265.339
  0
LINE
  8
0
 10
72.5065
 20
265.339
 11
72.5213
 21
265.36
  0
LINE
  8
0
 10
72.5213
 20
265.36
 11
72.5365
 21
265.382
  0
LINE
  8
0
 10
72.5365
 20
265.382
 11
72.552
 21
265.403
  0
LINE
  8
0
 10
72.552
 20
265.403
 11
72.568
 21
265.423
  0
LINE
  8
0
 10
72.568
 20
265.423
 11
72.5843
 21
265.444
  0
LINE
  8
0
 10
72.5843
 20
265.444
 11
72.6009
 21
265.464
  0
LINE
  8
0
 10
72.6009
 20
265.464
 11
72.618
 21
265.484
  0
LINE
  8
0
 10
72.618
 20
265.484
 11
72.6353
 21
265.504
  0
LINE
  8
0
 10
72.6353
 20
265.504
 11
72.653
 21
265.523
  0
LINE
  8
0
 10
72.653
 20
265.523
 11
72.671
 21
265.542
  0
LINE
  8
0
 10
72.671
 20
265.542
 11
72.6893
 21
265.561
  0
LINE
  8
0
 10
72.6893
 20
265.561
 11
72.708
 21
265.579
  0
LINE
  8
0
 10
72.708
 20
265.579
 11
72.727
 21
265.597
  0
LINE
  8
0
 10
72.727
 20
265.597
 11
72.7463
 21
265.615
  0
LINE
  8
0
 10
72.7463
 20
265.615
 11
72.7659
 21
265.632
  0
LINE
  8
0
 10
72.7659
 20
265.632
 11
72.7858
 21
265.649
  0
LINE
  8
0
 10
72.7858
 20
265.649
 11
72.806
 21
265.666
  0
LINE
  8
0
 10
72.806
 20
265.666
 11
72.8265
 21
265.682
  0
LINE
  8
0
 10
72.8265
 20
265.682
 11
72.8473
 21
265.698
  0
LINE
  8
0
 10
72.8473
 20
265.698
 11
72.8683
 21
265.714
  0
LINE
  8
0
 10
72.8683
 20
265.714
 11
72.8896
 21
265.729
  0
LINE
  8
0
 10
72.8896
 20
265.729
 11
72.9112
 21
265.744
  0
LINE
  8
0
 10
72.9112
 20
265.744
 11
72.933
 21
265.758
  0
LINE
  8
0
 10
72.933
 20
265.758
 11
72.9551
 21
265.772
  0
LINE
  8
0
 10
72.9551
 20
265.772
 11
72.9774
 21
265.786
  0
LINE
  8
0
 10
72.9774
 20
265.786
 11
73
 21
265.799
  0
LINE
  8
0
 10
73
 20
265.799
 11
73.0228
 21
265.812
  0
LINE
  8
0
 10
73.0228
 20
265.812
 11
73.0458
 21
265.824
  0
LINE
  8
0
 10
73.0458
 20
265.824
 11
73.069
 21
265.837
  0
LINE
  8
0
 10
73.069
 20
265.837
 11
73.0925
 21
265.848
  0
LINE
  8
0
 10
73.0925
 20
265.848
 11
73.1161
 21
265.859
  0
LINE
  8
0
 10
73.1161
 20
265.859
 11
73.1399
 21
265.87
  0
LINE
  8
0
 10
73.1399
 20
265.87
 11
73.1639
 21
265.881
  0
LINE
  8
0
 10
73.1639
 20
265.881
 11
73.1881
 21
265.891
  0
LINE
  8
0
 10
73.1881
 20
265.891
 11
73.2124
 21
265.9
  0
LINE
  8
0
 10
73.2124
 20
265.9
 11
73.237
 21
265.91
  0
LINE
  8
0
 10
73.237
 20
265.91
 11
73.2617
 21
265.918
  0
LINE
  8
0
 10
73.2617
 20
265.918
 11
73.2865
 21
265.927
  0
LINE
  8
0
 10
73.2865
 20
265.927
 11
73.3114
 21
265.934
  0
LINE
  8
0
 10
73.3114
 20
265.934
 11
73.3365
 21
265.942
  0
LINE
  8
0
 10
73.3365
 20
265.942
 11
73.3618
 21
265.949
  0
LINE
  8
0
 10
73.3618
 20
265.949
 11
73.3871
 21
265.955
  0
LINE
  8
0
 10
73.3871
 20
265.955
 11
73.4126
 21
265.962
  0
LINE
  8
0
 10
73.4126
 20
265.962
 11
73.4381
 21
265.967
  0
LINE
  8
0
 10
73.4381
 20
265.967
 11
73.4638
 21
265.972
  0
LINE
  8
0
 10
73.4638
 20
265.972
 11
73.4895
 21
265.977
  0
LINE
  8
0
 10
73.4895
 20
265.977
 11
73.5154
 21
265.982
  0
LINE
  8
0
 10
73.5154
 20
265.982
 11
73.5412
 21
265.985
  0
LINE
  8
0
 10
73.5412
 20
265.985
 11
73.5672
 21
265.989
  0
LINE
  8
0
 10
73.5672
 20
265.989
 11
73.5932
 21
265.992
  0
LINE
  8
0
 10
73.5932
 20
265.992
 11
73.6193
 21
265.994
  0
LINE
  8
0
 10
73.6193
 20
265.994
 11
73.6454
 21
265.996
  0
LINE
  8
0
 10
73.6454
 20
265.996
 11
73.6715
 21
265.998
  0
LINE
  8
0
 10
73.6715
 20
265.998
 11
73.6977
 21
265.999
  0
LINE
  8
0
 10
73.6977
 20
265.999
 11
73.7238
 21
266
  0
LINE
  8
0
 10
73.7238
 20
266
 11
73.75
 21
266
  0
LINE
  8
0
 10
73.75
 20
266
 11
73.7762
 21
266
  0
LINE
  8
0
 10
73.7762
 20
266
 11
73.8024
 21
265.999
  0
LINE
  8
0
 10
73.8024
 20
265.999
 11
73.8285
 21
265.998
  0
LINE
  8
0
 10
73.8285
 20
265.998
 11
73.8546
 21
265.996
  0
LINE
  8
0
 10
73.8546
 20
265.996
 11
73.8807
 21
265.994
  0
LINE
  8
0
 10
73.8807
 20
265.994
 11
73.9068
 21
265.992
  0
LINE
  8
0
 10
73.9068
 20
265.992
 11
73.9328
 21
265.989
  0
LINE
  8
0
 10
73.9328
 20
265.989
 11
73.9588
 21
265.985
  0
LINE
  8
0
 10
73.9588
 20
265.985
 11
73.9847
 21
265.982
  0
LINE
  8
0
 10
73.9847
 20
265.982
 11
74.0105
 21
265.977
  0
LINE
  8
0
 10
74.0105
 20
265.977
 11
74.0362
 21
265.972
  0
LINE
  8
0
 10
74.0362
 20
265.972
 11
74.0619
 21
265.967
  0
LINE
  8
0
 10
74.0619
 20
265.967
 11
74.0874
 21
265.962
  0
LINE
  8
0
 10
74.0874
 20
265.962
 11
74.1129
 21
265.955
  0
LINE
  8
0
 10
74.1129
 20
265.955
 11
74.1382
 21
265.949
  0
LINE
  8
0
 10
74.1382
 20
265.949
 11
74.1635
 21
265.942
  0
LINE
  8
0
 10
74.1635
 20
265.942
 11
74.1886
 21
265.934
  0
LINE
  8
0
 10
74.1886
 20
265.934
 11
74.2135
 21
265.927
  0
LINE
  8
0
 10
74.2135
 20
265.927
 11
74.2384
 21
265.918
  0
LINE
  8
0
 10
74.2384
 20
265.918
 11
74.263
 21
265.91
  0
LINE
  8
0
 10
74.263
 20
265.91
 11
74.2876
 21
265.9
  0
LINE
  8
0
 10
74.2876
 20
265.9
 11
74.3119
 21
265.891
  0
LINE
  8
0
 10
74.3119
 20
265.891
 11
74.3361
 21
265.881
  0
LINE
  8
0
 10
74.3361
 20
265.881
 11
74.3601
 21
265.87
  0
LINE
  8
0
 10
74.3601
 20
265.87
 11
74.3839
 21
265.859
  0
LINE
  8
0
 10
74.3839
 20
265.859
 11
74.4076
 21
265.848
  0
LINE
  8
0
 10
74.4076
 20
265.848
 11
74.431
 21
265.837
  0
LINE
  8
0
 10
74.431
 20
265.837
 11
74.4542
 21
265.824
  0
LINE
  8
0
 10
74.4542
 20
265.824
 11
74.4772
 21
265.812
  0
LINE
  8
0
 10
74.4772
 20
265.812
 11
74.5
 21
265.799
  0
LINE
  8
0
 10
74.5
 20
265.799
 11
74.5226
 21
265.786
  0
LINE
  8
0
 10
74.5226
 20
265.786
 11
74.5449
 21
265.772
  0
LINE
  8
0
 10
74.5449
 20
265.772
 11
74.567
 21
265.758
  0
LINE
  8
0
 10
74.567
 20
265.758
 11
74.5888
 21
265.744
  0
LINE
  8
0
 10
74.5888
 20
265.744
 11
74.6104
 21
265.729
  0
LINE
  8
0
 10
74.6104
 20
265.729
 11
74.6317
 21
265.714
  0
LINE
  8
0
 10
74.6317
 20
265.714
 11
74.6527
 21
265.698
  0
LINE
  8
0
 10
74.6527
 20
265.698
 11
74.6735
 21
265.682
  0
LINE
  8
0
 10
74.6735
 20
265.682
 11
74.694
 21
265.666
  0
LINE
  8
0
 10
74.694
 20
265.666
 11
74.7142
 21
265.649
  0
LINE
  8
0
 10
74.7142
 20
265.649
 11
74.7341
 21
265.632
  0
LINE
  8
0
 10
74.7341
 20
265.632
 11
74.7537
 21
265.615
  0
LINE
  8
0
 10
74.7537
 20
265.615
 11
74.773
 21
265.597
  0
LINE
  8
0
 10
74.773
 20
265.597
 11
74.792
 21
265.579
  0
LINE
  8
0
 10
74.792
 20
265.579
 11
74.8107
 21
265.561
  0
LINE
  8
0
 10
74.8107
 20
265.561
 11
74.829
 21
265.542
  0
LINE
  8
0
 10
74.829
 20
265.542
 11
74.847
 21
265.523
  0
LINE
  8
0
 10
74.847
 20
265.523
 11
74.8647
 21
265.504
  0
LINE
  8
0
 10
74.8647
 20
265.504
 11
74.8821
 21
265.484
  0
LINE
  8
0
 10
74.8821
 20
265.484
 11
74.8991
 21
265.464
  0
LINE
  8
0
 10
74.8991
 20
265.464
 11
74.9157
 21
265.444
  0
LINE
  8
0
 10
74.9157
 20
265.444
 11
74.932
 21
265.423
  0
LINE
  8
0
 10
74.932
 20
265.423
 11
74.948
 21
265.403
  0
LINE
  8
0
 10
74.948
 20
265.403
 11
74.9635
 21
265.382
  0
LINE
  8
0
 10
74.9635
 20
265.382
 11
74.9787
 21
265.36
  0
LINE
  8
0
 10
74.9787
 20
265.36
 11
74.9936
 21
265.339
  0
LINE
  8
0
 10
74.9936
 20
265.339
 11
75.008
 21
265.317
  0
LINE
  8
0
 10
75.008
 20
265.317
 11
75.0221
 21
265.295
  0
LINE
  8
0
 10
75.0221
 20
265.295
 11
75.0358
 21
265.273
  0
LINE
  8
0
 10
75.0358
 20
265.273
 11
75.049
 21
265.25
  0
LINE
  8
0
 10
75.049
 20
265.25
 11
75.0619
 21
265.227
  0
LINE
  8
0
 10
75.0619
 20
265.227
 11
75.0744
 21
265.204
  0
LINE
  8
0
 10
75.0744
 20
265.204
 11
75.0865
 21
265.181
  0
LINE
  8
0
 10
75.0865
 20
265.181
 11
75.0982
 21
265.158
  0
LINE
  8
0
 10
75.0982
 20
265.158
 11
75.1095
 21
265.134
  0
LINE
  8
0
 10
75.1095
 20
265.134
 11
75.1203
 21
265.11
  0
LINE
  8
0
 10
75.1203
 20
265.11
 11
75.1308
 21
265.086
  0
LINE
  8
0
 10
75.1308
 20
265.086
 11
75.1408
 21
265.062
  0
LINE
  8
0
 10
75.1408
 20
265.062
 11
75.1504
 21
265.038
  0
LINE
  8
0
 10
75.1504
 20
265.038
 11
75.1595
 21
265.013
  0
LINE
  8
0
 10
75.1595
 20
265.013
 11
75.1683
 21
264.988
  0
LINE
  8
0
 10
75.1683
 20
264.988
 11
75.1766
 21
264.964
  0
LINE
  8
0
 10
75.1766
 20
264.964
 11
75.1845
 21
264.939
  0
LINE
  8
0
 10
75.1845
 20
264.939
 11
75.1919
 21
264.913
  0
LINE
  8
0
 10
75.1919
 20
264.913
 11
75.1989
 21
264.888
  0
LINE
  8
0
 10
75.1989
 20
264.888
 11
75.2054
 21
264.863
  0
LINE
  8
0
 10
75.2054
 20
264.863
 11
75.2116
 21
264.837
  0
LINE
  8
0
 10
75.2116
 20
264.837
 11
75.2172
 21
264.812
  0
LINE
  8
0
 10
75.2172
 20
264.812
 11
75.2224
 21
264.786
  0
LINE
  8
0
 10
75.2224
 20
264.786
 11
75.2272
 21
264.76
  0
LINE
  8
0
 10
75.2272
 20
264.76
 11
75.2315
 21
264.735
  0
LINE
  8
0
 10
75.2315
 20
264.735
 11
75.2354
 21
264.709
  0
LINE
  8
0
 10
75.2354
 20
264.709
 11
75.2388
 21
264.683
  0
LINE
  8
0
 10
75.2388
 20
264.683
 11
75.2418
 21
264.657
  0
LINE
  8
0
 10
75.2418
 20
264.657
 11
75.2443
 21
264.631
  0
LINE
  8
0
 10
75.2443
 20
264.631
 11
75.2464
 21
264.605
  0
LINE
  8
0
 10
75.2464
 20
264.605
 11
75.248
 21
264.578
  0
LINE
  8
0
 10
75.248
 20
264.578
 11
75.2491
 21
264.552
  0
LINE
  8
0
 10
75.2491
 20
264.552
 11
75.2498
 21
264.526
  0
LINE
  8
0
 10
75.2498
 20
264.526
 11
75.25
 21
264.5
  0
LINE
  8
0
 10
75.25
 20
264.5
 11
75.2498
 21
264.474
  0
LINE
  8
0
 10
75.2498
 20
264.474
 11
75.2491
 21
264.448
  0
LINE
  8
0
 10
75.2491
 20
264.448
 11
75.248
 21
264.421
  0
LINE
  8
0
 10
75.248
 20
264.421
 11
75.2464
 21
264.395
  0
LINE
  8
0
 10
75.2464
 20
264.395
 11
75.2443
 21
264.369
  0
LINE
  8
0
 10
75.2443
 20
264.369
 11
75.2418
 21
264.343
  0
LINE
  8
0
 10
75.2418
 20
264.343
 11
75.2388
 21
264.317
  0
LINE
  8
0
 10
75.2388
 20
264.317
 11
75.2354
 21
264.291
  0
LINE
  8
0
 10
75.2354
 20
264.291
 11
75.2315
 21
264.265
  0
LINE
  8
0
 10
75.2315
 20
264.265
 11
75.2272
 21
264.24
  0
LINE
  8
0
 10
75.2272
 20
264.24
 11
75.2224
 21
264.214
  0
LINE
  8
0
 10
75.2224
 20
264.214
 11
75.2172
 21
264.188
  0
LINE
  8
0
 10
75.2172
 20
264.188
 11
75.2116
 21
264.163
  0
LINE
  8
0
 10
75.2116
 20
264.163
 11
75.2054
 21
264.137
  0
LINE
  8
0
 10
75.2054
 20
264.137
 11
75.1989
 21
264.112
  0
LINE
  8
0
 10
75.1989
 20
264.112
 11
75.1919
 21
264.087
  0
LINE
  8
0
 10
75.1919
 20
264.087
 11
75.1845
 21
264.061
  0
LINE
  8
0
 10
75.1845
 20
264.061
 11
75.1766
 21
264.036
  0
LINE
  8
0
 10
75.1766
 20
264.036
 11
75.1683
 21
264.012
  0
LINE
  8
0
 10
75.1683
 20
264.012
 11
75.1595
 21
263.987
  0
LINE
  8
0
 10
75.1595
 20
263.987
 11
75.1504
 21
263.962
  0
LINE
  8
0
 10
75.1504
 20
263.962
 11
75.1408
 21
263.938
  0
LINE
  8
0
 10
75.1408
 20
263.938
 11
75.1308
 21
263.914
  0
LINE
  8
0
 10
75.1308
 20
263.914
 11
75.1203
 21
263.89
  0
LINE
  8
0
 10
75.1203
 20
263.89
 11
75.1095
 21
263.866
  0
LINE
  8
0
 10
75.1095
 20
263.866
 11
75.0982
 21
263.842
  0
LINE
  8
0
 10
75.0982
 20
263.842
 11
75.0865
 21
263.819
  0
LINE
  8
0
 10
75.0865
 20
263.819
 11
75.0744
 21
263.796
  0
LINE
  8
0
 10
75.0744
 20
263.796
 11
75.0619
 21
263.773
  0
LINE
  8
0
 10
75.0619
 20
263.773
 11
75.049
 21
263.75
  0
LINE
  8
0
 10
75.049
 20
263.75
 11
75.0358
 21
263.727
  0
LINE
  8
0
 10
75.0358
 20
263.727
 11
75.0221
 21
263.705
  0
LINE
  8
0
 10
75.0221
 20
263.705
 11
75.008
 21
263.683
  0
LINE
  8
0
 10
75.008
 20
263.683
 11
74.9936
 21
263.661
  0
LINE
  8
0
 10
74.9936
 20
263.661
 11
74.9787
 21
263.64
  0
LINE
  8
0
 10
74.9787
 20
263.64
 11
74.9635
 21
263.618
  0
LINE
  8
0
 10
74.9635
 20
263.618
 11
74.948
 21
263.597
  0
LINE
  8
0
 10
74.948
 20
263.597
 11
74.932
 21
263.577
  0
LINE
  8
0
 10
74.932
 20
263.577
 11
74.9157
 21
263.556
  0
LINE
  8
0
 10
74.9157
 20
263.556
 11
74.8991
 21
263.536
  0
LINE
  8
0
 10
74.8991
 20
263.536
 11
74.8821
 21
263.516
  0
LINE
  8
0
 10
74.8821
 20
263.516
 11
74.8647
 21
263.496
  0
LINE
  8
0
 10
74.8647
 20
263.496
 11
74.847
 21
263.477
  0
LINE
  8
0
 10
74.847
 20
263.477
 11
74.829
 21
263.458
  0
LINE
  8
0
 10
74.829
 20
263.458
 11
74.8107
 21
263.439
  0
LINE
  8
0
 10
74.8107
 20
263.439
 11
74.792
 21
263.421
  0
LINE
  8
0
 10
74.792
 20
263.421
 11
74.773
 21
263.403
  0
LINE
  8
0
 10
74.773
 20
263.403
 11
74.7537
 21
263.385
  0
LINE
  8
0
 10
74.7537
 20
263.385
 11
74.7341
 21
263.368
  0
LINE
  8
0
 10
74.7341
 20
263.368
 11
74.7142
 21
263.351
  0
LINE
  8
0
 10
74.7142
 20
263.351
 11
74.694
 21
263.334
  0
LINE
  8
0
 10
74.694
 20
263.334
 11
74.6735
 21
263.318
  0
LINE
  8
0
 10
74.6735
 20
263.318
 11
74.6527
 21
263.302
  0
LINE
  8
0
 10
74.6527
 20
263.302
 11
74.6317
 21
263.286
  0
LINE
  8
0
 10
74.6317
 20
263.286
 11
74.6104
 21
263.271
  0
LINE
  8
0
 10
74.6104
 20
263.271
 11
74.5888
 21
263.256
  0
LINE
  8
0
 10
74.5888
 20
263.256
 11
74.567
 21
263.242
  0
LINE
  8
0
 10
74.567
 20
263.242
 11
74.5449
 21
263.228
  0
LINE
  8
0
 10
74.5449
 20
263.228
 11
74.5226
 21
263.214
  0
LINE
  8
0
 10
74.5226
 20
263.214
 11
74.5
 21
263.201
  0
LINE
  8
0
 10
74.5
 20
263.201
 11
74.4772
 21
263.188
  0
LINE
  8
0
 10
74.4772
 20
263.188
 11
74.4542
 21
263.176
  0
LINE
  8
0
 10
74.4542
 20
263.176
 11
74.431
 21
263.163
  0
LINE
  8
0
 10
74.431
 20
263.163
 11
74.4076
 21
263.152
  0
LINE
  8
0
 10
74.4076
 20
263.152
 11
74.3839
 21
263.141
  0
LINE
  8
0
 10
74.3839
 20
263.141
 11
74.3601
 21
263.13
  0
LINE
  8
0
 10
74.3601
 20
263.13
 11
74.3361
 21
263.119
  0
LINE
  8
0
 10
74.3361
 20
263.119
 11
74.3119
 21
263.109
  0
LINE
  8
0
 10
74.3119
 20
263.109
 11
74.2876
 21
263.1
  0
LINE
  8
0
 10
74.2876
 20
263.1
 11
74.263
 21
263.09
  0
LINE
  8
0
 10
74.263
 20
263.09
 11
74.2384
 21
263.082
  0
LINE
  8
0
 10
74.2384
 20
263.082
 11
74.2135
 21
263.073
  0
LINE
  8
0
 10
74.2135
 20
263.073
 11
74.1886
 21
263.066
  0
LINE
  8
0
 10
74.1886
 20
263.066
 11
74.1635
 21
263.058
  0
LINE
  8
0
 10
74.1635
 20
263.058
 11
74.1382
 21
263.051
  0
LINE
  8
0
 10
74.1382
 20
263.051
 11
74.1129
 21
263.045
  0
LINE
  8
0
 10
74.1129
 20
263.045
 11
74.0874
 21
263.038
  0
LINE
  8
0
 10
74.0874
 20
263.038
 11
74.0619
 21
263.033
  0
LINE
  8
0
 10
74.0619
 20
263.033
 11
74.0362
 21
263.028
  0
LINE
  8
0
 10
74.0362
 20
263.028
 11
74.0105
 21
263.023
  0
LINE
  8
0
 10
74.0105
 20
263.023
 11
73.9847
 21
263.018
  0
LINE
  8
0
 10
73.9847
 20
263.018
 11
73.9588
 21
263.015
  0
LINE
  8
0
 10
73.9588
 20
263.015
 11
73.9328
 21
263.011
  0
LINE
  8
0
 10
73.9328
 20
263.011
 11
73.9068
 21
263.008
  0
LINE
  8
0
 10
73.9068
 20
263.008
 11
73.8807
 21
263.006
  0
LINE
  8
0
 10
73.8807
 20
263.006
 11
73.8546
 21
263.004
  0
LINE
  8
0
 10
73.8546
 20
263.004
 11
73.8285
 21
263.002
  0
LINE
  8
0
 10
73.8285
 20
263.002
 11
73.8024
 21
263.001
  0
LINE
  8
0
 10
73.8024
 20
263.001
 11
73.7762
 21
263
  0
LINE
  8
0
 10
73.7762
 20
263
 11
73.75
 21
263
  0
LINE
  8
0
 10
73.75
 20
263
 11
73.7238
 21
263
  0
LINE
  8
0
 10
-0.0261688
 20
263
 11
-0.0523376
 21
263.001
  0
LINE
  8
0
 10
-0.0523376
 20
263.001
 11
-0.0784912
 21
263.002
  0
LINE
  8
0
 10
-0.0784912
 20
263.002
 11
-0.10463
 21
263.004
  0
LINE
  8
0
 10
-0.10463
 20
263.004
 11
-0.130722
 21
263.006
  0
LINE
  8
0
 10
-0.130722
 20
263.006
 11
-0.156784
 21
263.008
  0
LINE
  8
0
 10
-0.156784
 20
263.008
 11
-0.1828
 21
263.011
  0
LINE
  8
0
 10
-0.1828
 20
263.011
 11
-0.208755
 21
263.015
  0
LINE
  8
0
 10
-0.208755
 20
263.015
 11
-0.23465
 21
263.018
  0
LINE
  8
0
 10
-0.23465
 20
263.018
 11
-0.260468
 21
263.023
  0
LINE
  8
0
 10
-0.260468
 20
263.023
 11
-0.286209
 21
263.028
  0
LINE
  8
0
 10
-0.286209
 20
263.028
 11
-0.311859
 21
263.033
  0
LINE
  8
0
 10
-0.311859
 20
263.033
 11
-0.337418
 21
263.038
  0
LINE
  8
0
 10
-0.337418
 20
263.038
 11
-0.362869
 21
263.045
  0
LINE
  8
0
 10
-0.362869
 20
263.045
 11
-0.388214
 21
263.051
  0
LINE
  8
0
 10
-0.388214
 20
263.051
 11
-0.413452
 21
263.058
  0
LINE
  8
0
 10
-0.413452
 20
263.058
 11
-0.438553
 21
263.066
  0
LINE
  8
0
 10
-0.438553
 20
263.066
 11
-0.463516
 21
263.073
  0
LINE
  8
0
 10
-0.463516
 20
263.073
 11
-0.488342
 21
263.082
  0
LINE
  8
0
 10
-0.488342
 20
263.082
 11
-0.513016
 21
263.09
  0
LINE
  8
0
 10
-0.513016
 20
263.09
 11
-0.537552
 21
263.1
  0
LINE
  8
0
 10
-0.537552
 20
263.1
 11
-0.561905
 21
263.109
  0
LINE
  8
0
 10
-0.561905
 20
263.109
 11
-0.58609
 21
263.119
  0
LINE
  8
0
 10
-0.58609
 20
263.119
 11
-0.610092
 21
263.13
  0
LINE
  8
0
 10
-0.610092
 20
263.13
 11
-0.633926
 21
263.141
  0
LINE
  8
0
 10
-0.633926
 20
263.141
 11
-0.657547
 21
263.152
  0
LINE
  8
0
 10
-0.657547
 20
263.152
 11
-0.680984
 21
263.163
  0
LINE
  8
0
 10
-0.680984
 20
263.163
 11
-0.704193
 21
263.176
  0
LINE
  8
0
 10
-0.704193
 20
263.176
 11
-0.727203
 21
263.188
  0
LINE
  8
0
 10
-0.727203
 20
263.188
 11
-0.75
 21
263.201
  0
LINE
  8
0
 10
-0.75
 20
263.201
 11
-0.772552
 21
263.214
  0
LINE
  8
0
 10
-0.772552
 20
263.214
 11
-0.794876
 21
263.228
  0
LINE
  8
0
 10
-0.794876
 20
263.228
 11
-0.816956
 21
263.242
  0
LINE
  8
0
 10
-0.816956
 20
263.242
 11
-0.838776
 21
263.256
  0
LINE
  8
0
 10
-0.838776
 20
263.256
 11
-0.860352
 21
263.271
  0
LINE
  8
0
 10
-0.860352
 20
263.271
 11
-0.881668
 21
263.286
  0
LINE
  8
0
 10
-0.881668
 20
263.286
 11
-0.90271
 21
263.302
  0
LINE
  8
0
 10
-0.90271
 20
263.302
 11
-0.923477
 21
263.318
  0
LINE
  8
0
 10
-0.923477
 20
263.318
 11
-0.94397
 21
263.334
  0
LINE
  8
0
 10
-0.94397
 20
263.334
 11
-0.964172
 21
263.351
  0
LINE
  8
0
 10
-0.964172
 20
263.351
 11
-0.984085
 21
263.368
  0
LINE
  8
0
 10
-0.984085
 20
263.368
 11
-1.00369
 21
263.385
  0
LINE
  8
0
 10
-1.00369
 20
263.385
 11
-1.02299
 21
263.403
  0
LINE
  8
0
 10
-1.02299
 20
263.403
 11
-1.04198
 21
263.421
  0
LINE
  8
0
 10
-1.04198
 20
263.421
 11
-1.06065
 21
263.439
  0
LINE
  8
0
 10
-1.06065
 20
263.439
 11
-1.07899
 21
263.458
  0
LINE
  8
0
 10
-1.07899
 20
263.458
 11
-1.09702
 21
263.477
  0
LINE
  8
0
 10
-1.09702
 20
263.477
 11
-1.11472
 21
263.496
  0
LINE
  8
0
 10
-1.11472
 20
263.496
 11
-1.13205
 21
263.516
  0
LINE
  8
0
 10
-1.13205
 20
263.516
 11
-1.14906
 21
263.536
  0
LINE
  8
0
 10
-1.14906
 20
263.536
 11
-1.16571
 21
263.556
  0
LINE
  8
0
 10
-1.16571
 20
263.556
 11
-1.18201
 21
263.577
  0
LINE
  8
0
 10
-1.18201
 20
263.577
 11
-1.19795
 21
263.597
  0
LINE
  8
0
 10
-1.19795
 20
263.597
 11
-1.21352
 21
263.618
  0
LINE
  8
0
 10
-1.21352
 20
263.618
 11
-1.22871
 21
263.64
  0
LINE
  8
0
 10
-1.22871
 20
263.64
 11
-1.24355
 21
263.661
  0
LINE
  8
0
 10
-1.24355
 20
263.661
 11
-1.258
 21
263.683
  0
LINE
  8
0
 10
-1.258
 20
263.683
 11
-1.27206
 21
263.705
  0
LINE
  8
0
 10
-1.27206
 20
263.705
 11
-1.28574
 21
263.727
  0
LINE
  8
0
 10
-1.28574
 20
263.727
 11
-1.29903
 21
263.75
  0
LINE
  8
0
 10
-1.29903
 20
263.75
 11
-1.31192
 21
263.773
  0
LINE
  8
0
 10
-1.31192
 20
263.773
 11
-1.32442
 21
263.796
  0
LINE
  8
0
 10
-1.32442
 20
263.796
 11
-1.3365
 21
263.819
  0
LINE
  8
0
 10
-1.3365
 20
263.819
 11
-1.34819
 21
263.842
  0
LINE
  8
0
 10
-1.34819
 20
263.842
 11
-1.35945
 21
263.866
  0
LINE
  8
0
 10
-1.35945
 20
263.866
 11
-1.37032
 21
263.89
  0
LINE
  8
0
 10
-1.37032
 20
263.89
 11
-1.38075
 21
263.914
  0
LINE
  8
0
 10
-1.38075
 20
263.914
 11
-1.39076
 21
263.938
  0
LINE
  8
0
 10
-1.39076
 20
263.938
 11
-1.40036
 21
263.962
  0
LINE
  8
0
 10
-1.40036
 20
263.962
 11
-1.40953
 21
263.987
  0
LINE
  8
0
 10
-1.40953
 20
263.987
 11
-1.41827
 21
264.012
  0
LINE
  8
0
 10
-1.41827
 20
264.012
 11
-1.42657
 21
264.036
  0
LINE
  8
0
 10
-1.42657
 20
264.036
 11
-1.43445
 21
264.061
  0
LINE
  8
0
 10
-1.43445
 20
264.061
 11
-1.44188
 21
264.087
  0
LINE
  8
0
 10
-1.44188
 20
264.087
 11
-1.44888
 21
264.112
  0
LINE
  8
0
 10
-1.44888
 20
264.112
 11
-1.45543
 21
264.137
  0
LINE
  8
0
 10
-1.45543
 20
264.137
 11
-1.46155
 21
264.163
  0
LINE
  8
0
 10
-1.46155
 20
264.163
 11
-1.46721
 21
264.188
  0
LINE
  8
0
 10
-1.46721
 20
264.188
 11
-1.47243
 21
264.214
  0
LINE
  8
0
 10
-1.47243
 20
264.214
 11
-1.4772
 21
264.24
  0
LINE
  8
0
 10
-1.4772
 20
264.24
 11
-1.48152
 21
264.265
  0
LINE
  8
0
 10
-1.48152
 20
264.265
 11
-1.4854
 21
264.291
  0
LINE
  8
0
 10
-1.4854
 20
264.291
 11
-1.48882
 21
264.317
  0
LINE
  8
0
 10
-1.48882
 20
264.317
 11
-1.49178
 21
264.343
  0
LINE
  8
0
 10
-1.49178
 20
264.343
 11
-1.49428
 21
264.369
  0
LINE
  8
0
 10
-1.49428
 20
264.369
 11
-1.49634
 21
264.395
  0
LINE
  8
0
 10
-1.49634
 20
264.395
 11
-1.49794
 21
264.421
  0
LINE
  8
0
 10
-1.49794
 20
264.421
 11
-1.49908
 21
264.448
  0
LINE
  8
0
 10
-1.49908
 20
264.448
 11
-1.49977
 21
264.474
  0
LINE
  8
0
 10
-1.49977
 20
264.474
 11
-1.5
 21
264.5
  0
LINE
  8
0
 10
-1.5
 20
264.5
 11
-1.49977
 21
264.526
  0
LINE
  8
0
 10
-1.49977
 20
264.526
 11
-1.49908
 21
264.552
  0
LINE
  8
0
 10
-1.49908
 20
264.552
 11
-1.49794
 21
264.578
  0
LINE
  8
0
 10
-1.49794
 20
264.578
 11
-1.49634
 21
264.605
  0
LINE
  8
0
 10
-1.49634
 20
264.605
 11
-1.49428
 21
264.631
  0
LINE
  8
0
 10
-1.49428
 20
264.631
 11
-1.49178
 21
264.657
  0
LINE
  8
0
 10
-1.49178
 20
264.657
 11
-1.48882
 21
264.683
  0
LINE
  8
0
 10
-1.48882
 20
264.683
 11
-1.4854
 21
264.709
  0
LINE
  8
0
 10
-1.4854
 20
264.709
 11
-1.48152
 21
264.735
  0
LINE
  8
0
 10
-1.48152
 20
264.735
 11
-1.4772
 21
264.76
  0
LINE
  8
0
 10
-1.4772
 20
264.76
 11
-1.47243
 21
264.786
  0
LINE
  8
0
 10
-1.47243
 20
264.786
 11
-1.46721
 21
264.812
  0
LINE
  8
0
 10
-1.46721
 20
264.812
 11
-1.46155
 21
264.837
  0
LINE
  8
0
 10
-1.46155
 20
264.837
 11
-1.45543
 21
264.863
  0
LINE
  8
0
 10
-1.45543
 20
264.863
 11
-1.44888
 21
264.888
  0
LINE
  8
0
 10
-1.44888
 20
264.888
 11
-1.44188
 21
264.913
  0
LINE
  8
0
 10
-1.44188
 20
264.913
 11
-1.43445
 21
264.939
  0
LINE
  8
0
 10
-1.43445
 20
264.939
 11
-1.42657
 21
264.964
  0
LINE
  8
0
 10
-1.42657
 20
264.964
 11
-1.41827
 21
264.988
  0
LINE
  8
0
 10
-1.41827
 20
264.988
 11
-1.40953
 21
265.013
  0
LINE
  8
0
 10
-1.40953
 20
265.013
 11
-1.40036
 21
265.038
  0
LINE
  8
0
 10
-1.40036
 20
265.038
 11
-1.39076
 21
265.062
  0
LINE
  8
0
 10
-1.39076
 20
265.062
 11
-1.38075
 21
265.086
  0
LINE
  8
0
 10
-1.38075
 20
265.086
 11
-1.37032
 21
265.11
  0
LINE
  8
0
 10
-1.37032
 20
265.11
 11
-1.35945
 21
265.134
  0
LINE
  8
0
 10
-1.35945
 20
265.134
 11
-1.34819
 21
265.158
  0
LINE
  8
0
 10
-1.34819
 20
265.158
 11
-1.3365
 21
265.181
  0
LINE
  8
0
 10
-1.3365
 20
265.181
 11
-1.32442
 21
265.204
  0
LINE
  8
0
 10
-1.32442
 20
265.204
 11
-1.31192
 21
265.227
  0
LINE
  8
0
 10
-1.31192
 20
265.227
 11
-1.29903
 21
265.25
  0
LINE
  8
0
 10
-1.29903
 20
265.25
 11
-1.28574
 21
265.273
  0
LINE
  8
0
 10
-1.28574
 20
265.273
 11
-1.27206
 21
265.295
  0
LINE
  8
0
 10
-1.27206
 20
265.295
 11
-1.258
 21
265.317
  0
LINE
  8
0
 10
-1.258
 20
265.317
 11
-1.24355
 21
265.339
  0
LINE
  8
0
 10
-1.24355
 20
265.339
 11
-1.22871
 21
265.36
  0
LINE
  8
0
 10
-1.22871
 20
265.36
 11
-1.21352
 21
265.382
  0
LINE
  8
0
 10
-1.21352
 20
265.382
 11
-1.19795
 21
265.403
  0
LINE
  8
0
 10
-1.19795
 20
265.403
 11
-1.18201
 21
265.423
  0
LINE
  8
0
 10
-1.18201
 20
265.423
 11
-1.16571
 21
265.444
  0
LINE
  8
0
 10
-1.16571
 20
265.444
 11
-1.14906
 21
265.464
  0
LINE
  8
0
 10
-1.14906
 20
265.464
 11
-1.13205
 21
265.484
  0
LINE
  8
0
 10
-1.13205
 20
265.484
 11
-1.11472
 21
265.504
  0
LINE
  8
0
 10
-1.11472
 20
265.504
 11
-1.09702
 21
265.523
  0
LINE
  8
0
 10
-1.09702
 20
265.523
 11
-1.07899
 21
265.542
  0
LINE
  8
0
 10
-1.07899
 20
265.542
 11
-1.06065
 21
265.561
  0
LINE
  8
0
 10
-1.06065
 20
265.561
 11
-1.04198
 21
265.579
  0
LINE
  8
0
 10
-1.04198
 20
265.579
 11
-1.02299
 21
265.597
  0
LINE
  8
0
 10
-1.02299
 20
265.597
 11
-1.00369
 21
265.615
  0
LINE
  8
0
 10
-1.00369
 20
265.615
 11
-0.984085
 21
265.632
  0
LINE
  8
0
 10
-0.984085
 20
265.632
 11
-0.964172
 21
265.649
  0
LINE
  8
0
 10
-0.964172
 20
265.649
 11
-0.94397
 21
265.666
  0
LINE
  8
0
 10
-0.94397
 20
265.666
 11
-0.923477
 21
265.682
  0
LINE
  8
0
 10
-0.923477
 20
265.682
 11
-0.90271
 21
265.698
  0
LINE
  8
0
 10
-0.90271
 20
265.698
 11
-0.881668
 21
265.714
  0
LINE
  8
0
 10
-0.881668
 20
265.714
 11
-0.860352
 21
265.729
  0
LINE
  8
0
 10
-0.860352
 20
265.729
 11
-0.838776
 21
265.744
  0
LINE
  8
0
 10
-0.838776
 20
265.744
 11
-0.816956
 21
265.758
  0
LINE
  8
0
 10
-0.816956
 20
265.758
 11
-0.794876
 21
265.772
  0
LINE
  8
0
 10
-0.794876
 20
265.772
 11
-0.772552
 21
265.786
  0
LINE
  8
0
 10
-0.772552
 20
265.786
 11
-0.75
 21
265.799
  0
LINE
  8
0
 10
-0.75
 20
265.799
 11
-0.727203
 21
265.812
  0
LINE
  8
0
 10
-0.727203
 20
265.812
 11
-0.704193
 21
265.824
  0
LINE
  8
0
 10
-0.704193
 20
265.824
 11
-0.680984
 21
265.837
  0
LINE
  8
0
 10
-0.680984
 20
265.837
 11
-0.657547
 21
265.848
  0
LINE
  8
0
 10
-0.657547
 20
265.848
 11
-0.633926
 21
265.859
  0
LINE
  8
0
 10
-0.633926
 20
265.859
 11
-0.610092
 21
265.87
  0
LINE
  8
0
 10
-0.610092
 20
265.87
 11
-0.58609
 21
265.881
  0
LINE
  8
0
 10
-0.58609
 20
265.881
 11
-0.561905
 21
265.891
  0
LINE
  8
0
 10
-0.561905
 20
265.891
 11
-0.537552
 21
265.9
  0
LINE
  8
0
 10
-0.537552
 20
265.9
 11
-0.513016
 21
265.91
  0
LINE
  8
0
 10
-0.513016
 20
265.91
 11
-0.488342
 21
265.918
  0
LINE
  8
0
 10
-0.488342
 20
265.918
 11
-0.463516
 21
265.927
  0
LINE
  8
0
 10
-0.463516
 20
265.927
 11
-0.438553
 21
265.934
  0
LINE
  8
0
 10
-0.438553
 20
265.934
 11
-0.413452
 21
265.942
  0
LINE
  8
0
 10
-0.413452
 20
265.942
 11
-0.388214
 21
265.949
  0
LINE
  8
0
 10
-0.388214
 20
265.949
 11
-0.362869
 21
265.955
  0
LINE
  8
0
 10
-0.362869
 20
265.955
 11
-0.337418
 21
265.962
  0
LINE
  8
0
 10
-0.337418
 20
265.962
 11
-0.311859
 21
265.967
  0
LINE
  8
0
 10
-0.311859
 20
265.967
 11
-0.286209
 21
265.972
  0
LINE
  8
0
 10
-0.286209
 20
265.972
 11
-0.260468
 21
265.977
  0
LINE
  8
0
 10
-0.260468
 20
265.977
 11
-0.23465
 21
265.982
  0
LINE
  8
0
 10
-0.23465
 20
265.982
 11
-0.208755
 21
265.985
  0
LINE
  8
0
 10
-0.208755
 20
265.985
 11
-0.1828
 21
265.989
  0
LINE
  8
0
 10
-0.1828
 20
265.989
 11
-0.156784
 21
265.992
  0
LINE
  8
0
 10
-0.156784
 20
265.992
 11
-0.130722
 21
265.994
  0
LINE
  8
0
 10
-0.130722
 20
265.994
 11
-0.10463
 21
265.996
  0
LINE
  8
0
 10
-0.10463
 20
265.996
 11
-0.0784912
 21
265.998
  0
LINE
  8
0
 10
-0.0784912
 20
265.998
 11
-0.0523376
 21
265.999
  0
LINE
  8
0
 10
-0.0523376
 20
265.999
 11
-0.0261688
 21
266
  0
LINE
  8
0
 10
-0.0261688
 20
266
 11
0
 21
266
  0
LINE
  8
0
 10
0
 20
266
 11
0.0261841
 21
266
  0
LINE
  8
0
 10
0.0261841
 20
266
 11
0.0523529
 21
265.999
  0
LINE
  8
0
 10
0.0523529
 20
265.999
 11
0.0785065
 21
265.998
  0
LINE
  8
0
 10
0.0785065
 20
265.998
 11
0.104645
 21
265.996
  0
LINE
  8
0
 10
0.104645
 20
265.996
 11
0.130737
 21
265.994
  0
LINE
  8
0
 10
0.130737
 20
265.994
 11
0.156799
 21
265.992
  0
LINE
  8
0
 10
0.156799
 20
265.992
 11
0.182816
 21
265.989
  0
LINE
  8
0
 10
0.182816
 20
265.989
 11
0.208771
 21
265.985
  0
LINE
  8
0
 10
0.208771
 20
265.985
 11
0.234665
 21
265.982
  0
LINE
  8
0
 10
0.234665
 20
265.982
 11
0.260483
 21
265.977
  0
LINE
  8
0
 10
0.260483
 20
265.977
 11
0.286224
 21
265.972
  0
LINE
  8
0
 10
0.286224
 20
265.972
 11
0.311874
 21
265.967
  0
LINE
  8
0
 10
0.311874
 20
265.967
 11
0.337433
 21
265.962
  0
LINE
  8
0
 10
0.337433
 20
265.962
 11
0.362885
 21
265.955
  0
LINE
  8
0
 10
0.362885
 20
265.955
 11
0.388229
 21
265.949
  0
LINE
  8
0
 10
0.388229
 20
265.949
 11
0.413467
 21
265.942
  0
LINE
  8
0
 10
0.413467
 20
265.942
 11
0.438568
 21
265.934
  0
LINE
  8
0
 10
0.438568
 20
265.934
 11
0.463531
 21
265.927
  0
LINE
  8
0
 10
0.463531
 20
265.927
 11
0.488358
 21
265.918
  0
LINE
  8
0
 10
0.488358
 20
265.918
 11
0.513031
 21
265.91
  0
LINE
  8
0
 10
0.513031
 20
265.91
 11
0.537567
 21
265.9
  0
LINE
  8
0
 10
0.537567
 20
265.9
 11
0.56192
 21
265.891
  0
LINE
  8
0
 10
0.56192
 20
265.891
 11
0.586105
 21
265.881
  0
LINE
  8
0
 10
0.586105
 20
265.881
 11
0.610107
 21
265.87
  0
LINE
  8
0
 10
0.610107
 20
265.87
 11
0.633942
 21
265.859
  0
LINE
  8
0
 10
0.633942
 20
265.859
 11
0.657562
 21
265.848
  0
LINE
  8
0
 10
0.657562
 20
265.848
 11
0.681
 21
265.837
  0
LINE
  8
0
 10
0.681
 20
265.837
 11
0.704208
 21
265.824
  0
LINE
  8
0
 10
0.704208
 20
265.824
 11
0.727219
 21
265.812
  0
LINE
  8
0
 10
0.727219
 20
265.812
 11
0.75
 21
265.799
  0
LINE
  8
0
 10
0.75
 20
265.799
 11
0.772568
 21
265.786
  0
LINE
  8
0
 10
0.772568
 20
265.786
 11
0.794891
 21
265.772
  0
LINE
  8
0
 10
0.794891
 20
265.772
 11
0.816971
 21
265.758
  0
LINE
  8
0
 10
0.816971
 20
265.758
 11
0.838791
 21
265.744
  0
LINE
  8
0
 10
0.838791
 20
265.744
 11
0.860367
 21
265.729
  0
LINE
  8
0
 10
0.860367
 20
265.729
 11
0.881683
 21
265.714
  0
LINE
  8
0
 10
0.881683
 20
265.714
 11
0.902725
 21
265.698
  0
LINE
  8
0
 10
0.902725
 20
265.698
 11
0.923492
 21
265.682
  0
LINE
  8
0
 10
0.923492
 20
265.682
 11
0.943985
 21
265.666
  0
LINE
  8
0
 10
0.943985
 20
265.666
 11
0.964188
 21
265.649
  0
LINE
  8
0
 10
0.964188
 20
265.649
 11
0.9841
 21
265.632
  0
LINE
  8
0
 10
0.9841
 20
265.632
 11
1.00371
 21
265.615
  0
LINE
  8
0
 10
1.00371
 20
265.615
 11
1.02301
 21
265.597
  0
LINE
  8
0
 10
1.02301
 20
265.597
 11
1.04199
 21
265.579
  0
LINE
  8
0
 10
1.04199
 20
265.579
 11
1.06067
 21
265.561
  0
LINE
  8
0
 10
1.06067
 20
265.561
 11
1.07901
 21
265.542
  0
LINE
  8
0
 10
1.07901
 20
265.542
 11
1.09703
 21
265.523
  0
LINE
  8
0
 10
1.09703
 20
265.523
 11
1.11473
 21
265.504
  0
LINE
  8
0
 10
1.11473
 20
265.504
 11
1.13206
 21
265.484
  0
LINE
  8
0
 10
1.13206
 20
265.484
 11
1.14908
 21
265.464
  0
LINE
  8
0
 10
1.14908
 20
265.464
 11
1.16573
 21
265.444
  0
LINE
  8
0
 10
1.16573
 20
265.444
 11
1.18202
 21
265.423
  0
LINE
  8
0
 10
1.18202
 20
265.423
 11
1.19797
 21
265.403
  0
LINE
  8
0
 10
1.19797
 20
265.403
 11
1.21353
 21
265.382
  0
LINE
  8
0
 10
1.21353
 20
265.382
 11
1.22873
 21
265.36
  0
LINE
  8
0
 10
1.22873
 20
265.36
 11
1.24356
 21
265.339
  0
LINE
  8
0
 10
1.24356
 20
265.339
 11
1.25801
 21
265.317
  0
LINE
  8
0
 10
1.25801
 20
265.317
 11
1.27208
 21
265.295
  0
LINE
  8
0
 10
1.27208
 20
265.295
 11
1.28575
 21
265.273
  0
LINE
  8
0
 10
1.28575
 20
265.273
 11
1.29904
 21
265.25
  0
LINE
  8
0
 10
1.29904
 20
265.25
 11
1.31194
 21
265.227
  0
LINE
  8
0
 10
1.31194
 20
265.227
 11
1.32443
 21
265.204
  0
LINE
  8
0
 10
1.32443
 20
265.204
 11
1.33652
 21
265.181
  0
LINE
  8
0
 10
1.33652
 20
265.181
 11
1.34821
 21
265.158
  0
LINE
  8
0
 10
1.34821
 20
265.158
 11
1.35947
 21
265.134
  0
LINE
  8
0
 10
1.35947
 20
265.134
 11
1.37033
 21
265.11
  0
LINE
  8
0
 10
1.37033
 20
265.11
 11
1.38077
 21
265.086
  0
LINE
  8
0
 10
1.38077
 20
265.086
 11
1.39078
 21
265.062
  0
LINE
  8
0
 10
1.39078
 20
265.062
 11
1.40038
 21
265.038
  0
LINE
  8
0
 10
1.40038
 20
265.038
 11
1.40955
 21
265.013
  0
LINE
  8
0
 10
1.40955
 20
265.013
 11
1.41829
 21
264.988
  0
LINE
  8
0
 10
1.41829
 20
264.988
 11
1.42659
 21
264.964
  0
LINE
  8
0
 10
1.42659
 20
264.964
 11
1.43446
 21
264.939
  0
LINE
  8
0
 10
1.43446
 20
264.939
 11
1.44189
 21
264.913
  0
LINE
  8
0
 10
1.44189
 20
264.913
 11
1.4489
 21
264.888
  0
LINE
  8
0
 10
1.4489
 20
264.888
 11
1.45544
 21
264.863
  0
LINE
  8
0
 10
1.45544
 20
264.863
 11
1.46156
 21
264.837
  0
LINE
  8
0
 10
1.46156
 20
264.837
 11
1.46722
 21
264.812
  0
LINE
  8
0
 10
1.46722
 20
264.812
 11
1.47244
 21
264.786
  0
LINE
  8
0
 10
1.47244
 20
264.786
 11
1.47722
 21
264.76
  0
LINE
  8
0
 10
1.47722
 20
264.76
 11
1.48154
 21
264.735
  0
LINE
  8
0
 10
1.48154
 20
264.735
 11
1.48541
 21
264.709
  0
LINE
  8
0
 10
1.48541
 20
264.709
 11
1.48883
 21
264.683
  0
LINE
  8
0
 10
1.48883
 20
264.683
 11
1.49179
 21
264.657
  0
LINE
  8
0
 10
1.49179
 20
264.657
 11
1.49429
 21
264.631
  0
LINE
  8
0
 10
1.49429
 20
264.631
 11
1.49635
 21
264.605
  0
LINE
  8
0
 10
1.49635
 20
264.605
 11
1.49796
 21
264.578
  0
LINE
  8
0
 10
1.49796
 20
264.578
 11
1.4991
 21
264.552
  0
LINE
  8
0
 10
1.4991
 20
264.552
 11
1.49979
 21
264.526
  0
LINE
  8
0
 10
1.49979
 20
264.526
 11
1.5
 21
264.5
  0
LINE
  8
0
 10
1.5
 20
264.5
 11
1.49979
 21
264.474
  0
LINE
  8
0
 10
1.49979
 20
264.474
 11
1.4991
 21
264.448
  0
LINE
  8
0
 10
1.4991
 20
264.448
 11
1.49796
 21
264.421
  0
LINE
  8
0
 10
1.49796
 20
264.421
 11
1.49635
 21
264.395
  0
LINE
  8
0
 10
1.49635
 20
264.395
 11
1.49429
 21
264.369
  0
LINE
  8
0
 10
1.49429
 20
264.369
 11
1.49179
 21
264.343
  0
LINE
  8
0
 10
1.49179
 20
264.343
 11
1.48883
 21
264.317
  0
LINE
  8
0
 10
1.48883
 20
264.317
 11
1.48541
 21
264.291
  0
LINE
  8
0
 10
1.48541
 20
264.291
 11
1.48154
 21
264.265
  0
LINE
  8
0
 10
1.48154
 20
264.265
 11
1.47722
 21
264.24
  0
LINE
  8
0
 10
1.47722
 20
264.24
 11
1.47244
 21
264.214
  0
LINE
  8
0
 10
1.47244
 20
264.214
 11
1.46722
 21
264.188
  0
LINE
  8
0
 10
1.46722
 20
264.188
 11
1.46156
 21
264.163
  0
LINE
  8
0
 10
1.46156
 20
264.163
 11
1.45544
 21
264.137
  0
LINE
  8
0
 10
1.45544
 20
264.137
 11
1.4489
 21
264.112
  0
LINE
  8
0
 10
1.4489
 20
264.112
 11
1.44189
 21
264.087
  0
LINE
  8
0
 10
1.44189
 20
264.087
 11
1.43446
 21
264.061
  0
LINE
  8
0
 10
1.43446
 20
264.061
 11
1.42659
 21
264.036
  0
LINE
  8
0
 10
1.42659
 20
264.036
 11
1.41829
 21
264.012
  0
LINE
  8
0
 10
1.41829
 20
264.012
 11
1.40955
 21
263.987
  0
LINE
  8
0
 10
1.40955
 20
263.987
 11
1.40038
 21
263.962
  0
LINE
  8
0
 10
1.40038
 20
263.962
 11
1.39078
 21
263.938
  0
LINE
  8
0
 10
1.39078
 20
263.938
 11
1.38077
 21
263.914
  0
LINE
  8
0
 10
1.38077
 20
263.914
 11
1.37033
 21
263.89
  0
LINE
  8
0
 10
1.37033
 20
263.89
 11
1.35947
 21
263.866
  0
LINE
  8
0
 10
1.35947
 20
263.866
 11
1.34821
 21
263.842
  0
LINE
  8
0
 10
1.34821
 20
263.842
 11
1.33652
 21
263.819
  0
LINE
  8
0
 10
1.33652
 20
263.819
 11
1.32443
 21
263.796
  0
LINE
  8
0
 10
1.32443
 20
263.796
 11
1.31194
 21
263.773
  0
LINE
  8
0
 10
1.31194
 20
263.773
 11
1.29904
 21
263.75
  0
LINE
  8
0
 10
1.29904
 20
263.75
 11
1.28575
 21
263.727
  0
LINE
  8
0
 10
1.28575
 20
263.727
 11
1.27208
 21
263.705
  0
LINE
  8
0
 10
1.27208
 20
263.705
 11
1.25801
 21
263.683
  0
LINE
  8
0
 10
1.25801
 20
263.683
 11
1.24356
 21
263.661
  0
LINE
  8
0
 10
1.24356
 20
263.661
 11
1.22873
 21
263.64
  0
LINE
  8
0
 10
1.22873
 20
263.64
 11
1.21353
 21
263.618
  0
LINE
  8
0
 10
1.21353
 20
263.618
 11
1.19797
 21
263.597
  0
LINE
  8
0
 10
1.19797
 20
263.597
 11
1.18202
 21
263.577
  0
LINE
  8
0
 10
1.18202
 20
263.577
 11
1.16573
 21
263.556
  0
LINE
  8
0
 10
1.16573
 20
263.556
 11
1.14908
 21
263.536
  0
LINE
  8
0
 10
1.14908
 20
263.536
 11
1.13206
 21
263.516
  0
LINE
  8
0
 10
1.13206
 20
263.516
 11
1.11473
 21
263.496
  0
LINE
  8
0
 10
1.11473
 20
263.496
 11
1.09703
 21
263.477
  0
LINE
  8
0
 10
1.09703
 20
263.477
 11
1.07901
 21
263.458
  0
LINE
  8
0
 10
1.07901
 20
263.458
 11
1.06067
 21
263.439
  0
LINE
  8
0
 10
1.06067
 20
263.439
 11
1.04199
 21
263.421
  0
LINE
  8
0
 10
1.04199
 20
263.421
 11
1.02301
 21
263.403
  0
LINE
  8
0
 10
1.02301
 20
263.403
 11
1.00371
 21
263.385
  0
LINE
  8
0
 10
1.00371
 20
263.385
 11
0.9841
 21
263.368
  0
LINE
  8
0
 10
0.9841
 20
263.368
 11
0.964188
 21
263.351
  0
LINE
  8
0
 10
0.964188
 20
263.351
 11
0.943985
 21
263.334
  0
LINE
  8
0
 10
0.943985
 20
263.334
 11
0.923492
 21
263.318
  0
LINE
  8
0
 10
0.923492
 20
263.318
 11
0.902725
 21
263.302
  0
LINE
  8
0
 10
0.902725
 20
263.302
 11
0.881683
 21
263.286
  0
LINE
  8
0
 10
0.881683
 20
263.286
 11
0.860367
 21
263.271
  0
LINE
  8
0
 10
0.860367
 20
263.271
 11
0.838791
 21
263.256
  0
LINE
  8
0
 10
0.838791
 20
263.256
 11
0.816971
 21
263.242
  0
LINE
  8
0
 10
0.816971
 20
263.242
 11
0.794891
 21
263.228
  0
LINE
  8
0
 10
0.794891
 20
263.228
 11
0.772568
 21
263.214
  0
LINE
  8
0
 10
0.772568
 20
263.214
 11
0.75
 21
263.201
  0
LINE
  8
0
 10
0.75
 20
263.201
 11
0.727219
 21
263.188
  0
LINE
  8
0
 10
0.727219
 20
263.188
 11
0.704208
 21
263.176
  0
LINE
  8
0
 10
0.704208
 20
263.176
 11
0.681
 21
263.163
  0
LINE
  8
0
 10
0.681
 20
263.163
 11
0.657562
 21
263.152
  0
LINE
  8
0
 10
0.657562
 20
263.152
 11
0.633942
 21
263.141
  0
LINE
  8
0
 10
0.633942
 20
263.141
 11
0.610107
 21
263.13
  0
LINE
  8
0
 10
0.610107
 20
263.13
 11
0.586105
 21
263.119
  0
LINE
  8
0
 10
0.586105
 20
263.119
 11
0.56192
 21
263.109
  0
LINE
  8
0
 10
0.56192
 20
263.109
 11
0.537567
 21
263.1
  0
LINE
  8
0
 10
0.537567
 20
263.1
 11
0.513031
 21
263.09
  0
LINE
  8
0
 10
0.513031
 20
263.09
 11
0.488358
 21
263.082
  0
LINE
  8
0
 10
0.488358
 20
263.082
 11
0.463531
 21
263.073
  0
LINE
  8
0
 10
0.463531
 20
263.073
 11
0.438568
 21
263.066
  0
LINE
  8
0
 10
0.438568
 20
263.066
 11
0.413467
 21
263.058
  0
LINE
  8
0
 10
0.413467
 20
263.058
 11
0.388229
 21
263.051
  0
LINE
  8
0
 10
0.388229
 20
263.051
 11
0.362885
 21
263.045
  0
LINE
  8
0
 10
0.362885
 20
263.045
 11
0.337433
 21
263.038
  0
LINE
  8
0
 10
0.337433
 20
263.038
 11
0.311874
 21
263.033
  0
LINE
  8
0
 10
0.311874
 20
263.033
 11
0.286224
 21
263.028
  0
LINE
  8
0
 10
0.286224
 20
263.028
 11
0.260483
 21
263.023
  0
LINE
  8
0
 10
0.260483
 20
263.023
 11
0.234665
 21
263.018
  0
LINE
  8
0
 10
0.234665
 20
263.018
 11
0.208771
 21
263.015
  0
LINE
  8
0
 10
0.208771
 20
263.015
 11
0.182816
 21
263.011
  0
LINE
  8
0
 10
0.182816
 20
263.011
 11
0.156799
 21
263.008
  0
LINE
  8
0
 10
0.156799
 20
263.008
 11
0.130737
 21
263.006
  0
LINE
  8
0
 10
0.130737
 20
263.006
 11
0.104645
 21
263.004
  0
LINE
  8
0
 10
0.104645
 20
263.004
 11
0.0785065
 21
263.002
  0
LINE
  8
0
 10
0.0785065
 20
263.002
 11
0.0523529
 21
263.001
  0
LINE
  8
0
 10
0.0523529
 20
263.001
 11
0.0261841
 21
263
  0
LINE
  8
0
 10
0.0261841
 20
263
 11
0
 21
263
  0
LINE
  8
0
 10
0
 20
263
 11
-0.0261688
 21
263
  0
LINE
  8
0
 10
-73.7762
 20
263
 11
-73.8023
 21
263.001
  0
LINE
  8
0
 10
-73.8023
 20
263.001
 11
-73.8285
 21
263.002
  0
LINE
  8
0
 10
-73.8285
 20
263.002
 11
-73.8546
 21
263.004
  0
LINE
  8
0
 10
-73.8546
 20
263.004
 11
-73.8807
 21
263.006
  0
LINE
  8
0
 10
-73.8807
 20
263.006
 11
-73.9068
 21
263.008
  0
LINE
  8
0
 10
-73.9068
 20
263.008
 11
-73.9328
 21
263.011
  0
LINE
  8
0
 10
-73.9328
 20
263.011
 11
-73.9588
 21
263.015
  0
LINE
  8
0
 10
-73.9588
 20
263.015
 11
-73.9846
 21
263.018
  0
LINE
  8
0
 10
-73.9846
 20
263.018
 11
-74.0105
 21
263.023
  0
LINE
  8
0
 10
-74.0105
 20
263.023
 11
-74.0362
 21
263.028
  0
LINE
  8
0
 10
-74.0362
 20
263.028
 11
-74.0619
 21
263.033
  0
LINE
  8
0
 10
-74.0619
 20
263.033
 11
-74.0874
 21
263.038
  0
LINE
  8
0
 10
-74.0874
 20
263.038
 11
-74.1129
 21
263.045
  0
LINE
  8
0
 10
-74.1129
 20
263.045
 11
-74.1382
 21
263.051
  0
LINE
  8
0
 10
-74.1382
 20
263.051
 11
-74.1635
 21
263.058
  0
LINE
  8
0
 10
-74.1635
 20
263.058
 11
-74.1886
 21
263.066
  0
LINE
  8
0
 10
-74.1886
 20
263.066
 11
-74.2135
 21
263.073
  0
LINE
  8
0
 10
-74.2135
 20
263.073
 11
-74.2383
 21
263.082
  0
LINE
  8
0
 10
-74.2383
 20
263.082
 11
-74.263
 21
263.09
  0
LINE
  8
0
 10
-74.263
 20
263.09
 11
-74.2876
 21
263.1
  0
LINE
  8
0
 10
-74.2876
 20
263.1
 11
-74.3119
 21
263.109
  0
LINE
  8
0
 10
-74.3119
 20
263.109
 11
-74.3361
 21
263.119
  0
LINE
  8
0
 10
-74.3361
 20
263.119
 11
-74.3601
 21
263.13
  0
LINE
  8
0
 10
-74.3601
 20
263.13
 11
-74.3839
 21
263.141
  0
LINE
  8
0
 10
-74.3839
 20
263.141
 11
-74.4075
 21
263.152
  0
LINE
  8
0
 10
-74.4075
 20
263.152
 11
-74.431
 21
263.163
  0
LINE
  8
0
 10
-74.431
 20
263.163
 11
-74.4542
 21
263.176
  0
LINE
  8
0
 10
-74.4542
 20
263.176
 11
-74.4772
 21
263.188
  0
LINE
  8
0
 10
-74.4772
 20
263.188
 11
-74.5
 21
263.201
  0
LINE
  8
0
 10
-74.5
 20
263.201
 11
-74.5226
 21
263.214
  0
LINE
  8
0
 10
-74.5226
 20
263.214
 11
-74.5449
 21
263.228
  0
LINE
  8
0
 10
-74.5449
 20
263.228
 11
-74.567
 21
263.242
  0
LINE
  8
0
 10
-74.567
 20
263.242
 11
-74.5888
 21
263.256
  0
LINE
  8
0
 10
-74.5888
 20
263.256
 11
-74.6104
 21
263.271
  0
LINE
  8
0
 10
-74.6104
 20
263.271
 11
-74.6317
 21
263.286
  0
LINE
  8
0
 10
-74.6317
 20
263.286
 11
-74.6527
 21
263.302
  0
LINE
  8
0
 10
-74.6527
 20
263.302
 11
-74.6735
 21
263.318
  0
LINE
  8
0
 10
-74.6735
 20
263.318
 11
-74.694
 21
263.334
  0
LINE
  8
0
 10
-74.694
 20
263.334
 11
-74.7142
 21
263.351
  0
LINE
  8
0
 10
-74.7142
 20
263.351
 11
-74.7341
 21
263.368
  0
LINE
  8
0
 10
-74.7341
 20
263.368
 11
-74.7537
 21
263.385
  0
LINE
  8
0
 10
-74.7537
 20
263.385
 11
-74.773
 21
263.403
  0
LINE
  8
0
 10
-74.773
 20
263.403
 11
-74.792
 21
263.421
  0
LINE
  8
0
 10
-74.792
 20
263.421
 11
-74.8107
 21
263.439
  0
LINE
  8
0
 10
-74.8107
 20
263.439
 11
-74.829
 21
263.458
  0
LINE
  8
0
 10
-74.829
 20
263.458
 11
-74.847
 21
263.477
  0
LINE
  8
0
 10
-74.847
 20
263.477
 11
-74.8647
 21
263.496
  0
LINE
  8
0
 10
-74.8647
 20
263.496
 11
-74.882
 21
263.516
  0
LINE
  8
0
 10
-74.882
 20
263.516
 11
-74.8991
 21
263.536
  0
LINE
  8
0
 10
-74.8991
 20
263.536
 11
-74.9157
 21
263.556
  0
LINE
  8
0
 10
-74.9157
 20
263.556
 11
-74.932
 21
263.577
  0
LINE
  8
0
 10
-74.932
 20
263.577
 11
-74.948
 21
263.597
  0
LINE
  8
0
 10
-74.948
 20
263.597
 11
-74.9635
 21
263.618
  0
LINE
  8
0
 10
-74.9635
 20
263.618
 11
-74.9787
 21
263.64
  0
LINE
  8
0
 10
-74.9787
 20
263.64
 11
-74.9935
 21
263.661
  0
LINE
  8
0
 10
-74.9935
 20
263.661
 11
-75.008
 21
263.683
  0
LINE
  8
0
 10
-75.008
 20
263.683
 11
-75.0221
 21
263.705
  0
LINE
  8
0
 10
-75.0221
 20
263.705
 11
-75.0357
 21
263.727
  0
LINE
  8
0
 10
-75.0357
 20
263.727
 11
-75.049
 21
263.75
  0
LINE
  8
0
 10
-75.049
 20
263.75
 11
-75.0619
 21
263.773
  0
LINE
  8
0
 10
-75.0619
 20
263.773
 11
-75.0744
 21
263.796
  0
LINE
  8
0
 10
-75.0744
 20
263.796
 11
-75.0865
 21
263.819
  0
LINE
  8
0
 10
-75.0865
 20
263.819
 11
-75.0982
 21
263.842
  0
LINE
  8
0
 10
-75.0982
 20
263.842
 11
-75.1095
 21
263.866
  0
LINE
  8
0
 10
-75.1095
 20
263.866
 11
-75.1203
 21
263.89
  0
LINE
  8
0
 10
-75.1203
 20
263.89
 11
-75.1308
 21
263.914
  0
LINE
  8
0
 10
-75.1308
 20
263.914
 11
-75.1408
 21
263.938
  0
LINE
  8
0
 10
-75.1408
 20
263.938
 11
-75.1504
 21
263.962
  0
LINE
  8
0
 10
-75.1504
 20
263.962
 11
-75.1595
 21
263.987
  0
LINE
  8
0
 10
-75.1595
 20
263.987
 11
-75.1683
 21
264.012
  0
LINE
  8
0
 10
-75.1683
 20
264.012
 11
-75.1766
 21
264.036
  0
LINE
  8
0
 10
-75.1766
 20
264.036
 11
-75.1844
 21
264.061
  0
LINE
  8
0
 10
-75.1844
 20
264.061
 11
-75.1919
 21
264.087
  0
LINE
  8
0
 10
-75.1919
 20
264.087
 11
-75.1989
 21
264.112
  0
LINE
  8
0
 10
-75.1989
 20
264.112
 11
-75.2054
 21
264.137
  0
LINE
  8
0
 10
-75.2054
 20
264.137
 11
-75.2115
 21
264.163
  0
LINE
  8
0
 10
-75.2115
 20
264.163
 11
-75.2172
 21
264.188
  0
LINE
  8
0
 10
-75.2172
 20
264.188
 11
-75.2224
 21
264.214
  0
LINE
  8
0
 10
-75.2224
 20
264.214
 11
-75.2272
 21
264.24
  0
LINE
  8
0
 10
-75.2272
 20
264.24
 11
-75.2315
 21
264.265
  0
LINE
  8
0
 10
-75.2315
 20
264.265
 11
-75.2354
 21
264.291
  0
LINE
  8
0
 10
-75.2354
 20
264.291
 11
-75.2388
 21
264.317
  0
LINE
  8
0
 10
-75.2388
 20
264.317
 11
-75.2418
 21
264.343
  0
LINE
  8
0
 10
-75.2418
 20
264.343
 11
-75.2443
 21
264.369
  0
LINE
  8
0
 10
-75.2443
 20
264.369
 11
-75.2463
 21
264.395
  0
LINE
  8
0
 10
-75.2463
 20
264.395
 11
-75.2479
 21
264.421
  0
LINE
  8
0
 10
-75.2479
 20
264.421
 11
-75.2491
 21
264.448
  0
LINE
  8
0
 10
-75.2491
 20
264.448
 11
-75.2498
 21
264.474
  0
LINE
  8
0
 10
-75.2498
 20
264.474
 11
-75.25
 21
264.5
  0
LINE
  8
0
 10
-75.25
 20
264.5
 11
-75.2498
 21
264.526
  0
LINE
  8
0
 10
-75.2498
 20
264.526
 11
-75.2491
 21
264.552
  0
LINE
  8
0
 10
-75.2491
 20
264.552
 11
-75.2479
 21
264.578
  0
LINE
  8
0
 10
-75.2479
 20
264.578
 11
-75.2463
 21
264.605
  0
LINE
  8
0
 10
-75.2463
 20
264.605
 11
-75.2443
 21
264.631
  0
LINE
  8
0
 10
-75.2443
 20
264.631
 11
-75.2418
 21
264.657
  0
LINE
  8
0
 10
-75.2418
 20
264.657
 11
-75.2388
 21
264.683
  0
LINE
  8
0
 10
-75.2388
 20
264.683
 11
-75.2354
 21
264.709
  0
LINE
  8
0
 10
-75.2354
 20
264.709
 11
-75.2315
 21
264.735
  0
LINE
  8
0
 10
-75.2315
 20
264.735
 11
-75.2272
 21
264.76
  0
LINE
  8
0
 10
-75.2272
 20
264.76
 11
-75.2224
 21
264.786
  0
LINE
  8
0
 10
-75.2224
 20
264.786
 11
-75.2172
 21
264.812
  0
LINE
  8
0
 10
-75.2172
 20
264.812
 11
-75.2115
 21
264.837
  0
LINE
  8
0
 10
-75.2115
 20
264.837
 11
-75.2054
 21
264.863
  0
LINE
  8
0
 10
-75.2054
 20
264.863
 11
-75.1989
 21
264.888
  0
LINE
  8
0
 10
-75.1989
 20
264.888
 11
-75.1919
 21
264.913
  0
LINE
  8
0
 10
-75.1919
 20
264.913
 11
-75.1844
 21
264.939
  0
LINE
  8
0
 10
-75.1844
 20
264.939
 11
-75.1766
 21
264.964
  0
LINE
  8
0
 10
-75.1766
 20
264.964
 11
-75.1683
 21
264.988
  0
LINE
  8
0
 10
-75.1683
 20
264.988
 11
-75.1595
 21
265.013
  0
LINE
  8
0
 10
-75.1595
 20
265.013
 11
-75.1504
 21
265.038
  0
LINE
  8
0
 10
-75.1504
 20
265.038
 11
-75.1408
 21
265.062
  0
LINE
  8
0
 10
-75.1408
 20
265.062
 11
-75.1308
 21
265.086
  0
LINE
  8
0
 10
-75.1308
 20
265.086
 11
-75.1203
 21
265.11
  0
LINE
  8
0
 10
-75.1203
 20
265.11
 11
-75.1095
 21
265.134
  0
LINE
  8
0
 10
-75.1095
 20
265.134
 11
-75.0982
 21
265.158
  0
LINE
  8
0
 10
-75.0982
 20
265.158
 11
-75.0865
 21
265.181
  0
LINE
  8
0
 10
-75.0865
 20
265.181
 11
-75.0744
 21
265.204
  0
LINE
  8
0
 10
-75.0744
 20
265.204
 11
-75.0619
 21
265.227
  0
LINE
  8
0
 10
-75.0619
 20
265.227
 11
-75.049
 21
265.25
  0
LINE
  8
0
 10
-75.049
 20
265.25
 11
-75.0357
 21
265.273
  0
LINE
  8
0
 10
-75.0357
 20
265.273
 11
-75.0221
 21
265.295
  0
LINE
  8
0
 10
-75.0221
 20
265.295
 11
-75.008
 21
265.317
  0
LINE
  8
0
 10
-75.008
 20
265.317
 11
-74.9935
 21
265.339
  0
LINE
  8
0
 10
-74.9935
 20
265.339
 11
-74.9787
 21
265.36
  0
LINE
  8
0
 10
-74.9787
 20
265.36
 11
-74.9635
 21
265.382
  0
LINE
  8
0
 10
-74.9635
 20
265.382
 11
-74.948
 21
265.403
  0
LINE
  8
0
 10
-74.948
 20
265.403
 11
-74.932
 21
265.423
  0
LINE
  8
0
 10
-74.932
 20
265.423
 11
-74.9157
 21
265.444
  0
LINE
  8
0
 10
-74.9157
 20
265.444
 11
-74.8991
 21
265.464
  0
LINE
  8
0
 10
-74.8991
 20
265.464
 11
-74.882
 21
265.484
  0
LINE
  8
0
 10
-74.882
 20
265.484
 11
-74.8647
 21
265.504
  0
LINE
  8
0
 10
-74.8647
 20
265.504
 11
-74.847
 21
265.523
  0
LINE
  8
0
 10
-74.847
 20
265.523
 11
-74.829
 21
265.542
  0
LINE
  8
0
 10
-74.829
 20
265.542
 11
-74.8107
 21
265.561
  0
LINE
  8
0
 10
-74.8107
 20
265.561
 11
-74.792
 21
265.579
  0
LINE
  8
0
 10
-74.792
 20
265.579
 11
-74.773
 21
265.597
  0
LINE
  8
0
 10
-74.773
 20
265.597
 11
-74.7537
 21
265.615
  0
LINE
  8
0
 10
-74.7537
 20
265.615
 11
-74.7341
 21
265.632
  0
LINE
  8
0
 10
-74.7341
 20
265.632
 11
-74.7142
 21
265.649
  0
LINE
  8
0
 10
-74.7142
 20
265.649
 11
-74.694
 21
265.666
  0
LINE
  8
0
 10
-74.694
 20
265.666
 11
-74.6735
 21
265.682
  0
LINE
  8
0
 10
-74.6735
 20
265.682
 11
-74.6527
 21
265.698
  0
LINE
  8
0
 10
-74.6527
 20
265.698
 11
-74.6317
 21
265.714
  0
LINE
  8
0
 10
-74.6317
 20
265.714
 11
-74.6104
 21
265.729
  0
LINE
  8
0
 10
-74.6104
 20
265.729
 11
-74.5888
 21
265.744
  0
LINE
  8
0
 10
-74.5888
 20
265.744
 11
-74.567
 21
265.758
  0
LINE
  8
0
 10
-74.567
 20
265.758
 11
-74.5449
 21
265.772
  0
LINE
  8
0
 10
-74.5449
 20
265.772
 11
-74.5226
 21
265.786
  0
LINE
  8
0
 10
-74.5226
 20
265.786
 11
-74.5
 21
265.799
  0
LINE
  8
0
 10
-74.5
 20
265.799
 11
-74.4772
 21
265.812
  0
LINE
  8
0
 10
-74.4772
 20
265.812
 11
-74.4542
 21
265.824
  0
LINE
  8
0
 10
-74.4542
 20
265.824
 11
-74.431
 21
265.837
  0
LINE
  8
0
 10
-74.431
 20
265.837
 11
-74.4075
 21
265.848
  0
LINE
  8
0
 10
-74.4075
 20
265.848
 11
-74.3839
 21
265.859
  0
LINE
  8
0
 10
-74.3839
 20
265.859
 11
-74.3601
 21
265.87
  0
LINE
  8
0
 10
-74.3601
 20
265.87
 11
-74.3361
 21
265.881
  0
LINE
  8
0
 10
-74.3361
 20
265.881
 11
-74.3119
 21
265.891
  0
LINE
  8
0
 10
-74.3119
 20
265.891
 11
-74.2876
 21
265.9
  0
LINE
  8
0
 10
-74.2876
 20
265.9
 11
-74.263
 21
265.91
  0
LINE
  8
0
 10
-74.263
 20
265.91
 11
-74.2383
 21
265.918
  0
LINE
  8
0
 10
-74.2383
 20
265.918
 11
-74.2135
 21
265.927
  0
LINE
  8
0
 10
-74.2135
 20
265.927
 11
-74.1886
 21
265.934
  0
LINE
  8
0
 10
-74.1886
 20
265.934
 11
-74.1635
 21
265.942
  0
LINE
  8
0
 10
-74.1635
 20
265.942
 11
-74.1382
 21
265.949
  0
LINE
  8
0
 10
-74.1382
 20
265.949
 11
-74.1129
 21
265.955
  0
LINE
  8
0
 10
-74.1129
 20
265.955
 11
-74.0874
 21
265.962
  0
LINE
  8
0
 10
-74.0874
 20
265.962
 11
-74.0619
 21
265.967
  0
LINE
  8
0
 10
-74.0619
 20
265.967
 11
-74.0362
 21
265.972
  0
LINE
  8
0
 10
-74.0362
 20
265.972
 11
-74.0105
 21
265.977
  0
LINE
  8
0
 10
-74.0105
 20
265.977
 11
-73.9846
 21
265.982
  0
LINE
  8
0
 10
-73.9846
 20
265.982
 11
-73.9588
 21
265.985
  0
LINE
  8
0
 10
-73.9588
 20
265.985
 11
-73.9328
 21
265.989
  0
LINE
  8
0
 10
-73.9328
 20
265.989
 11
-73.9068
 21
265.992
  0
LINE
  8
0
 10
-73.9068
 20
265.992
 11
-73.8807
 21
265.994
  0
LINE
  8
0
 10
-73.8807
 20
265.994
 11
-73.8546
 21
265.996
  0
LINE
  8
0
 10
-73.8546
 20
265.996
 11
-73.8285
 21
265.998
  0
LINE
  8
0
 10
-73.8285
 20
265.998
 11
-73.8023
 21
265.999
  0
LINE
  8
0
 10
-73.8023
 20
265.999
 11
-73.7762
 21
266
  0
LINE
  8
0
 10
-73.7762
 20
266
 11
-73.75
 21
266
  0
LINE
  8
0
 10
-73.75
 20
266
 11
-73.7238
 21
266
  0
LINE
  8
0
 10
-73.7238
 20
266
 11
-73.6976
 21
265.999
  0
LINE
  8
0
 10
-73.6976
 20
265.999
 11
-73.6715
 21
265.998
  0
LINE
  8
0
 10
-73.6715
 20
265.998
 11
-73.6454
 21
265.996
  0
LINE
  8
0
 10
-73.6454
 20
265.996
 11
-73.6193
 21
265.994
  0
LINE
  8
0
 10
-73.6193
 20
265.994
 11
-73.5932
 21
265.992
  0
LINE
  8
0
 10
-73.5932
 20
265.992
 11
-73.5672
 21
265.989
  0
LINE
  8
0
 10
-73.5672
 20
265.989
 11
-73.5412
 21
265.985
  0
LINE
  8
0
 10
-73.5412
 20
265.985
 11
-73.5153
 21
265.982
  0
LINE
  8
0
 10
-73.5153
 20
265.982
 11
-73.4895
 21
265.977
  0
LINE
  8
0
 10
-73.4895
 20
265.977
 11
-73.4638
 21
265.972
  0
LINE
  8
0
 10
-73.4638
 20
265.972
 11
-73.4381
 21
265.967
  0
LINE
  8
0
 10
-73.4381
 20
265.967
 11
-73.4126
 21
265.962
  0
LINE
  8
0
 10
-73.4126
 20
265.962
 11
-73.3871
 21
265.955
  0
LINE
  8
0
 10
-73.3871
 20
265.955
 11
-73.3618
 21
265.949
  0
LINE
  8
0
 10
-73.3618
 20
265.949
 11
-73.3365
 21
265.942
  0
LINE
  8
0
 10
-73.3365
 20
265.942
 11
-73.3114
 21
265.934
  0
LINE
  8
0
 10
-73.3114
 20
265.934
 11
-73.2865
 21
265.927
  0
LINE
  8
0
 10
-73.2865
 20
265.927
 11
-73.2616
 21
265.918
  0
LINE
  8
0
 10
-73.2616
 20
265.918
 11
-73.237
 21
265.91
  0
LINE
  8
0
 10
-73.237
 20
265.91
 11
-73.2124
 21
265.9
  0
LINE
  8
0
 10
-73.2124
 20
265.9
 11
-73.1881
 21
265.891
  0
LINE
  8
0
 10
-73.1881
 20
265.891
 11
-73.1639
 21
265.881
  0
LINE
  8
0
 10
-73.1639
 20
265.881
 11
-73.1399
 21
265.87
  0
LINE
  8
0
 10
-73.1399
 20
265.87
 11
-73.1161
 21
265.859
  0
LINE
  8
0
 10
-73.1161
 20
265.859
 11
-73.0924
 21
265.848
  0
LINE
  8
0
 10
-73.0924
 20
265.848
 11
-73.069
 21
265.837
  0
LINE
  8
0
 10
-73.069
 20
265.837
 11
-73.0458
 21
265.824
  0
LINE
  8
0
 10
-73.0458
 20
265.824
 11
-73.0228
 21
265.812
  0
LINE
  8
0
 10
-73.0228
 20
265.812
 11
-73
 21
265.799
  0
LINE
  8
0
 10
-73
 20
265.799
 11
-72.9774
 21
265.786
  0
LINE
  8
0
 10
-72.9774
 20
265.786
 11
-72.9551
 21
265.772
  0
LINE
  8
0
 10
-72.9551
 20
265.772
 11
-72.933
 21
265.758
  0
LINE
  8
0
 10
-72.933
 20
265.758
 11
-72.9112
 21
265.744
  0
LINE
  8
0
 10
-72.9112
 20
265.744
 11
-72.8896
 21
265.729
  0
LINE
  8
0
 10
-72.8896
 20
265.729
 11
-72.8683
 21
265.714
  0
LINE
  8
0
 10
-72.8683
 20
265.714
 11
-72.8473
 21
265.698
  0
LINE
  8
0
 10
-72.8473
 20
265.698
 11
-72.8265
 21
265.682
  0
LINE
  8
0
 10
-72.8265
 20
265.682
 11
-72.806
 21
265.666
  0
LINE
  8
0
 10
-72.806
 20
265.666
 11
-72.7858
 21
265.649
  0
LINE
  8
0
 10
-72.7858
 20
265.649
 11
-72.7659
 21
265.632
  0
LINE
  8
0
 10
-72.7659
 20
265.632
 11
-72.7463
 21
265.615
  0
LINE
  8
0
 10
-72.7463
 20
265.615
 11
-72.727
 21
265.597
  0
LINE
  8
0
 10
-72.727
 20
265.597
 11
-72.708
 21
265.579
  0
LINE
  8
0
 10
-72.708
 20
265.579
 11
-72.6893
 21
265.561
  0
LINE
  8
0
 10
-72.6893
 20
265.561
 11
-72.671
 21
265.542
  0
LINE
  8
0
 10
-72.671
 20
265.542
 11
-72.653
 21
265.523
  0
LINE
  8
0
 10
-72.653
 20
265.523
 11
-72.6353
 21
265.504
  0
LINE
  8
0
 10
-72.6353
 20
265.504
 11
-72.6179
 21
265.484
  0
LINE
  8
0
 10
-72.6179
 20
265.484
 11
-72.6009
 21
265.464
  0
LINE
  8
0
 10
-72.6009
 20
265.464
 11
-72.5843
 21
265.444
  0
LINE
  8
0
 10
-72.5843
 20
265.444
 11
-72.568
 21
265.423
  0
LINE
  8
0
 10
-72.568
 20
265.423
 11
-72.552
 21
265.403
  0
LINE
  8
0
 10
-72.552
 20
265.403
 11
-72.5365
 21
265.382
  0
LINE
  8
0
 10
-72.5365
 20
265.382
 11
-72.5213
 21
265.36
  0
LINE
  8
0
 10
-72.5213
 20
265.36
 11
-72.5064
 21
265.339
  0
LINE
  8
0
 10
-72.5064
 20
265.339
 11
-72.492
 21
265.317
  0
LINE
  8
0
 10
-72.492
 20
265.317
 11
-72.4779
 21
265.295
  0
LINE
  8
0
 10
-72.4779
 20
265.295
 11
-72.4642
 21
265.273
  0
LINE
  8
0
 10
-72.4642
 20
265.273
 11
-72.451
 21
265.25
  0
LINE
  8
0
 10
-72.451
 20
265.25
 11
-72.4381
 21
265.227
  0
LINE
  8
0
 10
-72.4381
 20
265.227
 11
-72.4256
 21
265.204
  0
LINE
  8
0
 10
-72.4256
 20
265.204
 11
-72.4135
 21
265.181
  0
LINE
  8
0
 10
-72.4135
 20
265.181
 11
-72.4018
 21
265.158
  0
LINE
  8
0
 10
-72.4018
 20
265.158
 11
-72.3905
 21
265.134
  0
LINE
  8
0
 10
-72.3905
 20
265.134
 11
-72.3797
 21
265.11
  0
LINE
  8
0
 10
-72.3797
 20
265.11
 11
-72.3692
 21
265.086
  0
LINE
  8
0
 10
-72.3692
 20
265.086
 11
-72.3592
 21
265.062
  0
LINE
  8
0
 10
-72.3592
 20
265.062
 11
-72.3496
 21
265.038
  0
LINE
  8
0
 10
-72.3496
 20
265.038
 11
-72.3405
 21
265.013
  0
LINE
  8
0
 10
-72.3405
 20
265.013
 11
-72.3317
 21
264.988
  0
LINE
  8
0
 10
-72.3317
 20
264.988
 11
-72.3234
 21
264.964
  0
LINE
  8
0
 10
-72.3234
 20
264.964
 11
-72.3155
 21
264.939
  0
LINE
  8
0
 10
-72.3155
 20
264.939
 11
-72.3081
 21
264.913
  0
LINE
  8
0
 10
-72.3081
 20
264.913
 11
-72.3011
 21
264.888
  0
LINE
  8
0
 10
-72.3011
 20
264.888
 11
-72.2946
 21
264.863
  0
LINE
  8
0
 10
-72.2946
 20
264.863
 11
-72.2884
 21
264.837
  0
LINE
  8
0
 10
-72.2884
 20
264.837
 11
-72.2828
 21
264.812
  0
LINE
  8
0
 10
-72.2828
 20
264.812
 11
-72.2776
 21
264.786
  0
LINE
  8
0
 10
-72.2776
 20
264.786
 11
-72.2728
 21
264.76
  0
LINE
  8
0
 10
-72.2728
 20
264.76
 11
-72.2685
 21
264.735
  0
LINE
  8
0
 10
-72.2685
 20
264.735
 11
-72.2646
 21
264.709
  0
LINE
  8
0
 10
-72.2646
 20
264.709
 11
-72.2612
 21
264.683
  0
LINE
  8
0
 10
-72.2612
 20
264.683
 11
-72.2582
 21
264.657
  0
LINE
  8
0
 10
-72.2582
 20
264.657
 11
-72.2557
 21
264.631
  0
LINE
  8
0
 10
-72.2557
 20
264.631
 11
-72.2536
 21
264.605
  0
LINE
  8
0
 10
-72.2536
 20
264.605
 11
-72.252
 21
264.578
  0
LINE
  8
0
 10
-72.252
 20
264.578
 11
-72.2509
 21
264.552
  0
LINE
  8
0
 10
-72.2509
 20
264.552
 11
-72.2502
 21
264.526
  0
LINE
  8
0
 10
-72.2502
 20
264.526
 11
-72.25
 21
264.5
  0
LINE
  8
0
 10
-72.25
 20
264.5
 11
-72.2502
 21
264.474
  0
LINE
  8
0
 10
-72.2502
 20
264.474
 11
-72.2509
 21
264.448
  0
LINE
  8
0
 10
-72.2509
 20
264.448
 11
-72.252
 21
264.421
  0
LINE
  8
0
 10
-72.252
 20
264.421
 11
-72.2536
 21
264.395
  0
LINE
  8
0
 10
-72.2536
 20
264.395
 11
-72.2557
 21
264.369
  0
LINE
  8
0
 10
-72.2557
 20
264.369
 11
-72.2582
 21
264.343
  0
LINE
  8
0
 10
-72.2582
 20
264.343
 11
-72.2612
 21
264.317
  0
LINE
  8
0
 10
-72.2612
 20
264.317
 11
-72.2646
 21
264.291
  0
LINE
  8
0
 10
-72.2646
 20
264.291
 11
-72.2685
 21
264.265
  0
LINE
  8
0
 10
-72.2685
 20
264.265
 11
-72.2728
 21
264.24
  0
LINE
  8
0
 10
-72.2728
 20
264.24
 11
-72.2776
 21
264.214
  0
LINE
  8
0
 10
-72.2776
 20
264.214
 11
-72.2828
 21
264.188
  0
LINE
  8
0
 10
-72.2828
 20
264.188
 11
-72.2884
 21
264.163
  0
LINE
  8
0
 10
-72.2884
 20
264.163
 11
-72.2946
 21
264.137
  0
LINE
  8
0
 10
-72.2946
 20
264.137
 11
-72.3011
 21
264.112
  0
LINE
  8
0
 10
-72.3011
 20
264.112
 11
-72.3081
 21
264.087
  0
LINE
  8
0
 10
-72.3081
 20
264.087
 11
-72.3155
 21
264.061
  0
LINE
  8
0
 10
-72.3155
 20
264.061
 11
-72.3234
 21
264.036
  0
LINE
  8
0
 10
-72.3234
 20
264.036
 11
-72.3317
 21
264.012
  0
LINE
  8
0
 10
-72.3317
 20
264.012
 11
-72.3405
 21
263.987
  0
LINE
  8
0
 10
-72.3405
 20
263.987
 11
-72.3496
 21
263.962
  0
LINE
  8
0
 10
-72.3496
 20
263.962
 11
-72.3592
 21
263.938
  0
LINE
  8
0
 10
-72.3592
 20
263.938
 11
-72.3692
 21
263.914
  0
LINE
  8
0
 10
-72.3692
 20
263.914
 11
-72.3797
 21
263.89
  0
LINE
  8
0
 10
-72.3797
 20
263.89
 11
-72.3905
 21
263.866
  0
LINE
  8
0
 10
-72.3905
 20
263.866
 11
-72.4018
 21
263.842
  0
LINE
  8
0
 10
-72.4018
 20
263.842
 11
-72.4135
 21
263.819
  0
LINE
  8
0
 10
-72.4135
 20
263.819
 11
-72.4256
 21
263.796
  0
LINE
  8
0
 10
-72.4256
 20
263.796
 11
-72.4381
 21
263.773
  0
LINE
  8
0
 10
-72.4381
 20
263.773
 11
-72.451
 21
263.75
  0
LINE
  8
0
 10
-72.451
 20
263.75
 11
-72.4642
 21
263.727
  0
LINE
  8
0
 10
-72.4642
 20
263.727
 11
-72.4779
 21
263.705
  0
LINE
  8
0
 10
-72.4779
 20
263.705
 11
-72.492
 21
263.683
  0
LINE
  8
0
 10
-72.492
 20
263.683
 11
-72.5064
 21
263.661
  0
LINE
  8
0
 10
-72.5064
 20
263.661
 11
-72.5213
 21
263.64
  0
LINE
  8
0
 10
-72.5213
 20
263.64
 11
-72.5365
 21
263.618
  0
LINE
  8
0
 10
-72.5365
 20
263.618
 11
-72.552
 21
263.597
  0
LINE
  8
0
 10
-72.552
 20
263.597
 11
-72.568
 21
263.577
  0
LINE
  8
0
 10
-72.568
 20
263.577
 11
-72.5843
 21
263.556
  0
LINE
  8
0
 10
-72.5843
 20
263.556
 11
-72.6009
 21
263.536
  0
LINE
  8
0
 10
-72.6009
 20
263.536
 11
-72.6179
 21
263.516
  0
LINE
  8
0
 10
-72.6179
 20
263.516
 11
-72.6353
 21
263.496
  0
LINE
  8
0
 10
-72.6353
 20
263.496
 11
-72.653
 21
263.477
  0
LINE
  8
0
 10
-72.653
 20
263.477
 11
-72.671
 21
263.458
  0
LINE
  8
0
 10
-72.671
 20
263.458
 11
-72.6893
 21
263.439
  0
LINE
  8
0
 10
-72.6893
 20
263.439
 11
-72.708
 21
263.421
  0
LINE
  8
0
 10
-72.708
 20
263.421
 11
-72.727
 21
263.403
  0
LINE
  8
0
 10
-72.727
 20
263.403
 11
-72.7463
 21
263.385
  0
LINE
  8
0
 10
-72.7463
 20
263.385
 11
-72.7659
 21
263.368
  0
LINE
  8
0
 10
-72.7659
 20
263.368
 11
-72.7858
 21
263.351
  0
LINE
  8
0
 10
-72.7858
 20
263.351
 11
-72.806
 21
263.334
  0
LINE
  8
0
 10
-72.806
 20
263.334
 11
-72.8265
 21
263.318
  0
LINE
  8
0
 10
-72.8265
 20
263.318
 11
-72.8473
 21
263.302
  0
LINE
  8
0
 10
-72.8473
 20
263.302
 11
-72.8683
 21
263.286
  0
LINE
  8
0
 10
-72.8683
 20
263.286
 11
-72.8896
 21
263.271
  0
LINE
  8
0
 10
-72.8896
 20
263.271
 11
-72.9112
 21
263.256
  0
LINE
  8
0
 10
-72.9112
 20
263.256
 11
-72.933
 21
263.242
  0
LINE
  8
0
 10
-72.933
 20
263.242
 11
-72.9551
 21
263.228
  0
LINE
  8
0
 10
-72.9551
 20
263.228
 11
-72.9774
 21
263.214
  0
LINE
  8
0
 10
-72.9774
 20
263.214
 11
-73
 21
263.201
  0
LINE
  8
0
 10
-73
 20
263.201
 11
-73.0228
 21
263.188
  0
LINE
  8
0
 10
-73.0228
 20
263.188
 11
-73.0458
 21
263.176
  0
LINE
  8
0
 10
-73.0458
 20
263.176
 11
-73.069
 21
263.163
  0
LINE
  8
0
 10
-73.069
 20
263.163
 11
-73.0924
 21
263.152
  0
LINE
  8
0
 10
-73.0924
 20
263.152
 11
-73.1161
 21
263.141
  0
LINE
  8
0
 10
-73.1161
 20
263.141
 11
-73.1399
 21
263.13
  0
LINE
  8
0
 10
-73.1399
 20
263.13
 11
-73.1639
 21
263.119
  0
LINE
  8
0
 10
-73.1639
 20
263.119
 11
-73.1881
 21
263.109
  0
LINE
  8
0
 10
-73.1881
 20
263.109
 11
-73.2124
 21
263.1
  0
LINE
  8
0
 10
-73.2124
 20
263.1
 11
-73.237
 21
263.09
  0
LINE
  8
0
 10
-73.237
 20
263.09
 11
-73.2616
 21
263.082
  0
LINE
  8
0
 10
-73.2616
 20
263.082
 11
-73.2865
 21
263.073
  0
LINE
  8
0
 10
-73.2865
 20
263.073
 11
-73.3114
 21
263.066
  0
LINE
  8
0
 10
-73.3114
 20
263.066
 11
-73.3365
 21
263.058
  0
LINE
  8
0
 10
-73.3365
 20
263.058
 11
-73.3618
 21
263.051
  0
LINE
  8
0
 10
-73.3618
 20
263.051
 11
-73.3871
 21
263.045
  0
LINE
  8
0
 10
-73.3871
 20
263.045
 11
-73.4126
 21
263.038
  0
LINE
  8
0
 10
-73.4126
 20
263.038
 11
-73.4381
 21
263.033
  0
LINE
  8
0
 10
-73.4381
 20
263.033
 11
-73.4638
 21
263.028
  0
LINE
  8
0
 10
-73.4638
 20
263.028
 11
-73.4895
 21
263.023
  0
LINE
  8
0
 10
-73.4895
 20
263.023
 11
-73.5153
 21
263.018
  0
LINE
  8
0
 10
-73.5153
 20
263.018
 11
-73.5412
 21
263.015
  0
LINE
  8
0
 10
-73.5412
 20
263.015
 11
-73.5672
 21
263.011
  0
LINE
  8
0
 10
-73.5672
 20
263.011
 11
-73.5932
 21
263.008
  0
LINE
  8
0
 10
-73.5932
 20
263.008
 11
-73.6193
 21
263.006
  0
LINE
  8
0
 10
-73.6193
 20
263.006
 11
-73.6454
 21
263.004
  0
LINE
  8
0
 10
-73.6454
 20
263.004
 11
-73.6715
 21
263.002
  0
LINE
  8
0
 10
-73.6715
 20
263.002
 11
-73.6976
 21
263.001
  0
LINE
  8
0
 10
-73.6976
 20
263.001
 11
-73.7238
 21
263
  0
LINE
  8
0
 10
-73.7238
 20
263
 11
-73.75
 21
263
  0
LINE
  8
0
 10
-73.75
 20
263
 11
-73.7762
 21
263
  0
LINE
  8
0
 10
132.2
 20
-171.5
 11
132.2
 21
-165.5
  0
LINE
  8
0
 10
132.2
 20
-165.5
 11
142.2
 21
-165.5
  0
LINE
  8
0
 10
142.2
 20
-165.5
 11
142.2
 21
-171.5
  0
LINE
  8
0
 10
142.2
 20
-171.5
 11
132.2
 21
-171.5
  0
LINE
  8
0
 10
63.6
 20
-171.5
 11
63.6
 21
-165.5
  0
LINE
  8
0
 10
63.6
 20
-165.5
 11
73.6
 21
-165.5
  0
LINE
  8
0
 10
73.6
 20
-165.5
 11
73.6
 21
-171.5
  0
LINE
  8
0
 10
73.6
 20
-171.5
 11
63.6
 21
-171.5
  0
LINE
  8
0
 10
-5.00002
 20
-171.5
 11
-5.00002
 21
-165.5
  0
LINE
  8
0
 10
-5.00002
 20
-165.5
 11
4.99998
 21
-165.5
  0
LINE
  8
0
 10
4.99998
 20
-165.5
 11
4.99998
 21
-171.5
  0
LINE
  8
0
 10
4.99998
 20
-171.5
 11
-5.00002
 21
-171.5
  0
LINE
  8
0
 10
-73.6
 20
-171.5
 11
-73.6
 21
-165.5
  0
LINE
  8
0
 10
-73.6
 20
-165.5
 11
-63.6
 21
-165.5
  0
LINE
  8
0
 10
-63.6
 20
-165.5
 11
-63.6
 21
-171.5
  0
LINE
  8
0
 10
-63.6
 20
-171.5
 11
-73.6
 21
-171.5
  0
LINE
  8
0
 10
-142.2
 20
-171.5
 11
-142.2
 21
-165.5
  0
LINE
  8
0
 10
-142.2
 20
-165.5
 11
-132.2
 21
-165.5
  0
LINE
  8
0
 10
-132.2
 20
-165.5
 11
-132.2
 21
-171.5
  0
LINE
  8
0
 10
-132.2
 20
-171.5
 11
-142.2
 21
-171.5
  0
LINE
  8
0
 10
-34.3262
 20
-170
 11
-34.3524
 21
-169.999
  0
LINE
  8
0
 10
-34.3524
 20
-169.999
 11
-34.3785
 21
-169.998
  0
LINE
  8
0
 10
-34.3785
 20
-169.998
 11
-34.4046
 21
-169.996
  0
LINE
  8
0
 10
-34.4046
 20
-169.996
 11
-34.4307
 21
-169.994
  0
LINE
  8
0
 10
-34.4307
 20
-169.994
 11
-34.4568
 21
-169.992
  0
LINE
  8
0
 10
-34.4568
 20
-169.992
 11
-34.4828
 21
-169.989
  0
LINE
  8
0
 10
-34.4828
 20
-169.989
 11
-34.5088
 21
-169.985
  0
LINE
  8
0
 10
-34.5088
 20
-169.985
 11
-34.5347
 21
-169.982
  0
LINE
  8
0
 10
-34.5347
 20
-169.982
 11
-34.5605
 21
-169.977
  0
LINE
  8
0
 10
-34.5605
 20
-169.977
 11
-34.5862
 21
-169.972
  0
LINE
  8
0
 10
-34.5862
 20
-169.972
 11
-34.6119
 21
-169.967
  0
LINE
  8
0
 10
-34.6119
 20
-169.967
 11
-34.6374
 21
-169.962
  0
LINE
  8
0
 10
-34.6374
 20
-169.962
 11
-34.6629
 21
-169.955
  0
LINE
  8
0
 10
-34.6629
 20
-169.955
 11
-34.6882
 21
-169.949
  0
LINE
  8
0
 10
-34.6882
 20
-169.949
 11
-34.7135
 21
-169.942
  0
LINE
  8
0
 10
-34.7135
 20
-169.942
 11
-34.7386
 21
-169.934
  0
LINE
  8
0
 10
-34.7386
 20
-169.934
 11
-34.7635
 21
-169.927
  0
LINE
  8
0
 10
-34.7635
 20
-169.927
 11
-34.7884
 21
-169.918
  0
LINE
  8
0
 10
-34.7884
 20
-169.918
 11
-34.813
 21
-169.91
  0
LINE
  8
0
 10
-34.813
 20
-169.91
 11
-34.8376
 21
-169.9
  0
LINE
  8
0
 10
-34.8376
 20
-169.9
 11
-34.8619
 21
-169.891
  0
LINE
  8
0
 10
-34.8619
 20
-169.891
 11
-34.8861
 21
-169.881
  0
LINE
  8
0
 10
-34.8861
 20
-169.881
 11
-34.9101
 21
-169.87
  0
LINE
  8
0
 10
-34.9101
 20
-169.87
 11
-34.9339
 21
-169.859
  0
LINE
  8
0
 10
-34.9339
 20
-169.859
 11
-34.9576
 21
-169.848
  0
LINE
  8
0
 10
-34.9576
 20
-169.848
 11
-34.981
 21
-169.837
  0
LINE
  8
0
 10
-34.981
 20
-169.837
 11
-35.0042
 21
-169.824
  0
LINE
  8
0
 10
-35.0042
 20
-169.824
 11
-35.0272
 21
-169.812
  0
LINE
  8
0
 10
-35.0272
 20
-169.812
 11
-35.05
 21
-169.799
  0
LINE
  8
0
 10
-35.05
 20
-169.799
 11
-35.0726
 21
-169.786
  0
LINE
  8
0
 10
-35.0726
 20
-169.786
 11
-35.0949
 21
-169.772
  0
LINE
  8
0
 10
-35.0949
 20
-169.772
 11
-35.117
 21
-169.758
  0
LINE
  8
0
 10
-35.117
 20
-169.758
 11
-35.1388
 21
-169.744
  0
LINE
  8
0
 10
-35.1388
 20
-169.744
 11
-35.1604
 21
-169.729
  0
LINE
  8
0
 10
-35.1604
 20
-169.729
 11
-35.1817
 21
-169.714
  0
LINE
  8
0
 10
-35.1817
 20
-169.714
 11
-35.2027
 21
-169.698
  0
LINE
  8
0
 10
-35.2027
 20
-169.698
 11
-35.2235
 21
-169.682
  0
LINE
  8
0
 10
-35.2235
 20
-169.682
 11
-35.244
 21
-169.666
  0
LINE
  8
0
 10
-35.244
 20
-169.666
 11
-35.2642
 21
-169.649
  0
LINE
  8
0
 10
-35.2642
 20
-169.649
 11
-35.2841
 21
-169.632
  0
LINE
  8
0
 10
-35.2841
 20
-169.632
 11
-35.3037
 21
-169.615
  0
LINE
  8
0
 10
-35.3037
 20
-169.615
 11
-35.323
 21
-169.597
  0
LINE
  8
0
 10
-35.323
 20
-169.597
 11
-35.342
 21
-169.579
  0
LINE
  8
0
 10
-35.342
 20
-169.579
 11
-35.3607
 21
-169.561
  0
LINE
  8
0
 10
-35.3607
 20
-169.561
 11
-35.379
 21
-169.542
  0
LINE
  8
0
 10
-35.379
 20
-169.542
 11
-35.397
 21
-169.523
  0
LINE
  8
0
 10
-35.397
 20
-169.523
 11
-35.4147
 21
-169.504
  0
LINE
  8
0
 10
-35.4147
 20
-169.504
 11
-35.4321
 21
-169.484
  0
LINE
  8
0
 10
-35.4321
 20
-169.484
 11
-35.4491
 21
-169.464
  0
LINE
  8
0
 10
-35.4491
 20
-169.464
 11
-35.4657
 21
-169.444
  0
LINE
  8
0
 10
-35.4657
 20
-169.444
 11
-35.482
 21
-169.423
  0
LINE
  8
0
 10
-35.482
 20
-169.423
 11
-35.498
 21
-169.403
  0
LINE
  8
0
 10
-35.498
 20
-169.403
 11
-35.5135
 21
-169.382
  0
LINE
  8
0
 10
-35.5135
 20
-169.382
 11
-35.5287
 21
-169.36
  0
LINE
  8
0
 10
-35.5287
 20
-169.36
 11
-35.5436
 21
-169.339
  0
LINE
  8
0
 10
-35.5436
 20
-169.339
 11
-35.558
 21
-169.317
  0
LINE
  8
0
 10
-35.558
 20
-169.317
 11
-35.5721
 21
-169.295
  0
LINE
  8
0
 10
-35.5721
 20
-169.295
 11
-35.5858
 21
-169.273
  0
LINE
  8
0
 10
-35.5858
 20
-169.273
 11
-35.599
 21
-169.25
  0
LINE
  8
0
 10
-35.599
 20
-169.25
 11
-35.6119
 21
-169.227
  0
LINE
  8
0
 10
-35.6119
 20
-169.227
 11
-35.6244
 21
-169.204
  0
LINE
  8
0
 10
-35.6244
 20
-169.204
 11
-35.6365
 21
-169.181
  0
LINE
  8
0
 10
-35.6365
 20
-169.181
 11
-35.6482
 21
-169.158
  0
LINE
  8
0
 10
-35.6482
 20
-169.158
 11
-35.6595
 21
-169.134
  0
LINE
  8
0
 10
-35.6595
 20
-169.134
 11
-35.6703
 21
-169.11
  0
LINE
  8
0
 10
-35.6703
 20
-169.11
 11
-35.6808
 21
-169.086
  0
LINE
  8
0
 10
-35.6808
 20
-169.086
 11
-35.6908
 21
-169.062
  0
LINE
  8
0
 10
-35.6908
 20
-169.062
 11
-35.7004
 21
-169.038
  0
LINE
  8
0
 10
-35.7004
 20
-169.038
 11
-35.7095
 21
-169.013
  0
LINE
  8
0
 10
-35.7095
 20
-169.013
 11
-35.7183
 21
-168.988
  0
LINE
  8
0
 10
-35.7183
 20
-168.988
 11
-35.7266
 21
-168.964
  0
LINE
  8
0
 10
-35.7266
 20
-168.964
 11
-35.7345
 21
-168.939
  0
LINE
  8
0
 10
-35.7345
 20
-168.939
 11
-35.7419
 21
-168.913
  0
LINE
  8
0
 10
-35.7419
 20
-168.913
 11
-35.7489
 21
-168.888
  0
LINE
  8
0
 10
-35.7489
 20
-168.888
 11
-35.7554
 21
-168.863
  0
LINE
  8
0
 10
-35.7554
 20
-168.863
 11
-35.7616
 21
-168.837
  0
LINE
  8
0
 10
-35.7616
 20
-168.837
 11
-35.7672
 21
-168.812
  0
LINE
  8
0
 10
-35.7672
 20
-168.812
 11
-35.7724
 21
-168.786
  0
LINE
  8
0
 10
-35.7724
 20
-168.786
 11
-35.7772
 21
-168.76
  0
LINE
  8
0
 10
-35.7772
 20
-168.76
 11
-35.7815
 21
-168.735
  0
LINE
  8
0
 10
-35.7815
 20
-168.735
 11
-35.7854
 21
-168.709
  0
LINE
  8
0
 10
-35.7854
 20
-168.709
 11
-35.7888
 21
-168.683
  0
LINE
  8
0
 10
-35.7888
 20
-168.683
 11
-35.7918
 21
-168.657
  0
LINE
  8
0
 10
-35.7918
 20
-168.657
 11
-35.7943
 21
-168.631
  0
LINE
  8
0
 10
-35.7943
 20
-168.631
 11
-35.7964
 21
-168.605
  0
LINE
  8
0
 10
-35.7964
 20
-168.605
 11
-35.798
 21
-168.579
  0
LINE
  8
0
 10
-35.798
 20
-168.579
 11
-35.7991
 21
-168.552
  0
LINE
  8
0
 10
-35.7991
 20
-168.552
 11
-35.7998
 21
-168.526
  0
LINE
  8
0
 10
-35.7998
 20
-168.526
 11
-35.8
 21
-168.5
  0
LINE
  8
0
 10
-35.8
 20
-168.5
 11
-35.7998
 21
-168.474
  0
LINE
  8
0
 10
-35.7998
 20
-168.474
 11
-35.7991
 21
-168.448
  0
LINE
  8
0
 10
-35.7991
 20
-168.448
 11
-35.798
 21
-168.422
  0
LINE
  8
0
 10
-35.798
 20
-168.422
 11
-35.7964
 21
-168.395
  0
LINE
  8
0
 10
-35.7964
 20
-168.395
 11
-35.7943
 21
-168.369
  0
LINE
  8
0
 10
-35.7943
 20
-168.369
 11
-35.7918
 21
-168.343
  0
LINE
  8
0
 10
-35.7918
 20
-168.343
 11
-35.7888
 21
-168.317
  0
LINE
  8
0
 10
-35.7888
 20
-168.317
 11
-35.7854
 21
-168.291
  0
LINE
  8
0
 10
-35.7854
 20
-168.291
 11
-35.7815
 21
-168.265
  0
LINE
  8
0
 10
-35.7815
 20
-168.265
 11
-35.7772
 21
-168.24
  0
LINE
  8
0
 10
-35.7772
 20
-168.24
 11
-35.7724
 21
-168.214
  0
LINE
  8
0
 10
-35.7724
 20
-168.214
 11
-35.7672
 21
-168.188
  0
LINE
  8
0
 10
-35.7672
 20
-168.188
 11
-35.7616
 21
-168.163
  0
LINE
  8
0
 10
-35.7616
 20
-168.163
 11
-35.7554
 21
-168.137
  0
LINE
  8
0
 10
-35.7554
 20
-168.137
 11
-35.7489
 21
-168.112
  0
LINE
  8
0
 10
-35.7489
 20
-168.112
 11
-35.7419
 21
-168.087
  0
LINE
  8
0
 10
-35.7419
 20
-168.087
 11
-35.7345
 21
-168.061
  0
LINE
  8
0
 10
-35.7345
 20
-168.061
 11
-35.7266
 21
-168.036
  0
LINE
  8
0
 10
-35.7266
 20
-168.036
 11
-35.7183
 21
-168.012
  0
LINE
  8
0
 10
-35.7183
 20
-168.012
 11
-35.7095
 21
-167.987
  0
LINE
  8
0
 10
-35.7095
 20
-167.987
 11
-35.7004
 21
-167.962
  0
LINE
  8
0
 10
-35.7004
 20
-167.962
 11
-35.6908
 21
-167.938
  0
LINE
  8
0
 10
-35.6908
 20
-167.938
 11
-35.6808
 21
-167.914
  0
LINE
  8
0
 10
-35.6808
 20
-167.914
 11
-35.6703
 21
-167.89
  0
LINE
  8
0
 10
-35.6703
 20
-167.89
 11
-35.6595
 21
-167.866
  0
LINE
  8
0
 10
-35.6595
 20
-167.866
 11
-35.6482
 21
-167.842
  0
LINE
  8
0
 10
-35.6482
 20
-167.842
 11
-35.6365
 21
-167.819
  0
LINE
  8
0
 10
-35.6365
 20
-167.819
 11
-35.6244
 21
-167.796
  0
LINE
  8
0
 10
-35.6244
 20
-167.796
 11
-35.6119
 21
-167.773
  0
LINE
  8
0
 10
-35.6119
 20
-167.773
 11
-35.599
 21
-167.75
  0
LINE
  8
0
 10
-35.599
 20
-167.75
 11
-35.5858
 21
-167.727
  0
LINE
  8
0
 10
-35.5858
 20
-167.727
 11
-35.5721
 21
-167.705
  0
LINE
  8
0
 10
-35.5721
 20
-167.705
 11
-35.558
 21
-167.683
  0
LINE
  8
0
 10
-35.558
 20
-167.683
 11
-35.5436
 21
-167.661
  0
LINE
  8
0
 10
-35.5436
 20
-167.661
 11
-35.5287
 21
-167.64
  0
LINE
  8
0
 10
-35.5287
 20
-167.64
 11
-35.5135
 21
-167.618
  0
LINE
  8
0
 10
-35.5135
 20
-167.618
 11
-35.498
 21
-167.597
  0
LINE
  8
0
 10
-35.498
 20
-167.597
 11
-35.482
 21
-167.577
  0
LINE
  8
0
 10
-35.482
 20
-167.577
 11
-35.4657
 21
-167.556
  0
LINE
  8
0
 10
-35.4657
 20
-167.556
 11
-35.4491
 21
-167.536
  0
LINE
  8
0
 10
-35.4491
 20
-167.536
 11
-35.4321
 21
-167.516
  0
LINE
  8
0
 10
-35.4321
 20
-167.516
 11
-35.4147
 21
-167.496
  0
LINE
  8
0
 10
-35.4147
 20
-167.496
 11
-35.397
 21
-167.477
  0
LINE
  8
0
 10
-35.397
 20
-167.477
 11
-35.379
 21
-167.458
  0
LINE
  8
0
 10
-35.379
 20
-167.458
 11
-35.3607
 21
-167.439
  0
LINE
  8
0
 10
-35.3607
 20
-167.439
 11
-35.342
 21
-167.421
  0
LINE
  8
0
 10
-35.342
 20
-167.421
 11
-35.323
 21
-167.403
  0
LINE
  8
0
 10
-35.323
 20
-167.403
 11
-35.3037
 21
-167.385
  0
LINE
  8
0
 10
-35.3037
 20
-167.385
 11
-35.2841
 21
-167.368
  0
LINE
  8
0
 10
-35.2841
 20
-167.368
 11
-35.2642
 21
-167.351
  0
LINE
  8
0
 10
-35.2642
 20
-167.351
 11
-35.244
 21
-167.334
  0
LINE
  8
0
 10
-35.244
 20
-167.334
 11
-35.2235
 21
-167.318
  0
LINE
  8
0
 10
-35.2235
 20
-167.318
 11
-35.2027
 21
-167.302
  0
LINE
  8
0
 10
-35.2027
 20
-167.302
 11
-35.1817
 21
-167.286
  0
LINE
  8
0
 10
-35.1817
 20
-167.286
 11
-35.1604
 21
-167.271
  0
LINE
  8
0
 10
-35.1604
 20
-167.271
 11
-35.1388
 21
-167.256
  0
LINE
  8
0
 10
-35.1388
 20
-167.256
 11
-35.117
 21
-167.242
  0
LINE
  8
0
 10
-35.117
 20
-167.242
 11
-35.0949
 21
-167.228
  0
LINE
  8
0
 10
-35.0949
 20
-167.228
 11
-35.0726
 21
-167.214
  0
LINE
  8
0
 10
-35.0726
 20
-167.214
 11
-35.05
 21
-167.201
  0
LINE
  8
0
 10
-35.05
 20
-167.201
 11
-35.0272
 21
-167.188
  0
LINE
  8
0
 10
-35.0272
 20
-167.188
 11
-35.0042
 21
-167.176
  0
LINE
  8
0
 10
-35.0042
 20
-167.176
 11
-34.981
 21
-167.163
  0
LINE
  8
0
 10
-34.981
 20
-167.163
 11
-34.9576
 21
-167.152
  0
LINE
  8
0
 10
-34.9576
 20
-167.152
 11
-34.9339
 21
-167.141
  0
LINE
  8
0
 10
-34.9339
 20
-167.141
 11
-34.9101
 21
-167.13
  0
LINE
  8
0
 10
-34.9101
 20
-167.13
 11
-34.8861
 21
-167.119
  0
LINE
  8
0
 10
-34.8861
 20
-167.119
 11
-34.8619
 21
-167.109
  0
LINE
  8
0
 10
-34.8619
 20
-167.109
 11
-34.8376
 21
-167.1
  0
LINE
  8
0
 10
-34.8376
 20
-167.1
 11
-34.813
 21
-167.09
  0
LINE
  8
0
 10
-34.813
 20
-167.09
 11
-34.7884
 21
-167.082
  0
LINE
  8
0
 10
-34.7884
 20
-167.082
 11
-34.7635
 21
-167.073
  0
LINE
  8
0
 10
-34.7635
 20
-167.073
 11
-34.7386
 21
-167.066
  0
LINE
  8
0
 10
-34.7386
 20
-167.066
 11
-34.7135
 21
-167.058
  0
LINE
  8
0
 10
-34.7135
 20
-167.058
 11
-34.6882
 21
-167.051
  0
LINE
  8
0
 10
-34.6882
 20
-167.051
 11
-34.6629
 21
-167.045
  0
LINE
  8
0
 10
-34.6629
 20
-167.045
 11
-34.6374
 21
-167.038
  0
LINE
  8
0
 10
-34.6374
 20
-167.038
 11
-34.6119
 21
-167.033
  0
LINE
  8
0
 10
-34.6119
 20
-167.033
 11
-34.5862
 21
-167.028
  0
LINE
  8
0
 10
-34.5862
 20
-167.028
 11
-34.5605
 21
-167.023
  0
LINE
  8
0
 10
-34.5605
 20
-167.023
 11
-34.5347
 21
-167.018
  0
LINE
  8
0
 10
-34.5347
 20
-167.018
 11
-34.5088
 21
-167.015
  0
LINE
  8
0
 10
-34.5088
 20
-167.015
 11
-34.4828
 21
-167.011
  0
LINE
  8
0
 10
-34.4828
 20
-167.011
 11
-34.4568
 21
-167.008
  0
LINE
  8
0
 10
-34.4568
 20
-167.008
 11
-34.4307
 21
-167.006
  0
LINE
  8
0
 10
-34.4307
 20
-167.006
 11
-34.4046
 21
-167.004
  0
LINE
  8
0
 10
-34.4046
 20
-167.004
 11
-34.3785
 21
-167.002
  0
LINE
  8
0
 10
-34.3785
 20
-167.002
 11
-34.3524
 21
-167.001
  0
LINE
  8
0
 10
-34.3524
 20
-167.001
 11
-34.3262
 21
-167
  0
LINE
  8
0
 10
-34.3262
 20
-167
 11
-34.3
 21
-167
  0
LINE
  8
0
 10
-34.3
 20
-167
 11
-34.2738
 21
-167
  0
LINE
  8
0
 10
-34.2738
 20
-167
 11
-34.2477
 21
-167.001
  0
LINE
  8
0
 10
-34.2477
 20
-167.001
 11
-34.2215
 21
-167.002
  0
LINE
  8
0
 10
-34.2215
 20
-167.002
 11
-34.1954
 21
-167.004
  0
LINE
  8
0
 10
-34.1954
 20
-167.004
 11
-34.1693
 21
-167.006
  0
LINE
  8
0
 10
-34.1693
 20
-167.006
 11
-34.1432
 21
-167.008
  0
LINE
  8
0
 10
-34.1432
 20
-167.008
 11
-34.1172
 21
-167.011
  0
LINE
  8
0
 10
-34.1172
 20
-167.011
 11
-34.0912
 21
-167.015
  0
LINE
  8
0
 10
-34.0912
 20
-167.015
 11
-34.0654
 21
-167.018
  0
LINE
  8
0
 10
-34.0654
 20
-167.018
 11
-34.0395
 21
-167.023
  0
LINE
  8
0
 10
-34.0395
 20
-167.023
 11
-34.0138
 21
-167.028
  0
LINE
  8
0
 10
-34.0138
 20
-167.028
 11
-33.9881
 21
-167.033
  0
LINE
  8
0
 10
-33.9881
 20
-167.033
 11
-33.9626
 21
-167.038
  0
LINE
  8
0
 10
-33.9626
 20
-167.038
 11
-33.9371
 21
-167.045
  0
LINE
  8
0
 10
-33.9371
 20
-167.045
 11
-33.9118
 21
-167.051
  0
LINE
  8
0
 10
-33.9118
 20
-167.051
 11
-33.8866
 21
-167.058
  0
LINE
  8
0
 10
-33.8866
 20
-167.058
 11
-33.8615
 21
-167.066
  0
LINE
  8
0
 10
-33.8615
 20
-167.066
 11
-33.8365
 21
-167.073
  0
LINE
  8
0
 10
-33.8365
 20
-167.073
 11
-33.8117
 21
-167.082
  0
LINE
  8
0
 10
-33.8117
 20
-167.082
 11
-33.787
 21
-167.09
  0
LINE
  8
0
 10
-33.787
 20
-167.09
 11
-33.7625
 21
-167.1
  0
LINE
  8
0
 10
-33.7625
 20
-167.1
 11
-33.7381
 21
-167.109
  0
LINE
  8
0
 10
-33.7381
 20
-167.109
 11
-33.7139
 21
-167.119
  0
LINE
  8
0
 10
-33.7139
 20
-167.119
 11
-33.6899
 21
-167.13
  0
LINE
  8
0
 10
-33.6899
 20
-167.13
 11
-33.6661
 21
-167.141
  0
LINE
  8
0
 10
-33.6661
 20
-167.141
 11
-33.6425
 21
-167.152
  0
LINE
  8
0
 10
-33.6425
 20
-167.152
 11
-33.619
 21
-167.163
  0
LINE
  8
0
 10
-33.619
 20
-167.163
 11
-33.5958
 21
-167.176
  0
LINE
  8
0
 10
-33.5958
 20
-167.176
 11
-33.5728
 21
-167.188
  0
LINE
  8
0
 10
-33.5728
 20
-167.188
 11
-33.55
 21
-167.201
  0
LINE
  8
0
 10
-33.55
 20
-167.201
 11
-33.5275
 21
-167.214
  0
LINE
  8
0
 10
-33.5275
 20
-167.214
 11
-33.5051
 21
-167.228
  0
LINE
  8
0
 10
-33.5051
 20
-167.228
 11
-33.483
 21
-167.242
  0
LINE
  8
0
 10
-33.483
 20
-167.242
 11
-33.4612
 21
-167.256
  0
LINE
  8
0
 10
-33.4612
 20
-167.256
 11
-33.4396
 21
-167.271
  0
LINE
  8
0
 10
-33.4396
 20
-167.271
 11
-33.4183
 21
-167.286
  0
LINE
  8
0
 10
-33.4183
 20
-167.286
 11
-33.3973
 21
-167.302
  0
LINE
  8
0
 10
-33.3973
 20
-167.302
 11
-33.3765
 21
-167.318
  0
LINE
  8
0
 10
-33.3765
 20
-167.318
 11
-33.356
 21
-167.334
  0
LINE
  8
0
 10
-33.356
 20
-167.334
 11
-33.3358
 21
-167.351
  0
LINE
  8
0
 10
-33.3358
 20
-167.351
 11
-33.3159
 21
-167.368
  0
LINE
  8
0
 10
-33.3159
 20
-167.368
 11
-33.2963
 21
-167.385
  0
LINE
  8
0
 10
-33.2963
 20
-167.385
 11
-33.277
 21
-167.403
  0
LINE
  8
0
 10
-33.277
 20
-167.403
 11
-33.258
 21
-167.421
  0
LINE
  8
0
 10
-33.258
 20
-167.421
 11
-33.2393
 21
-167.439
  0
LINE
  8
0
 10
-33.2393
 20
-167.439
 11
-33.221
 21
-167.458
  0
LINE
  8
0
 10
-33.221
 20
-167.458
 11
-33.203
 21
-167.477
  0
LINE
  8
0
 10
-33.203
 20
-167.477
 11
-33.1853
 21
-167.496
  0
LINE
  8
0
 10
-33.1853
 20
-167.496
 11
-33.1679
 21
-167.516
  0
LINE
  8
0
 10
-33.1679
 20
-167.516
 11
-33.1509
 21
-167.536
  0
LINE
  8
0
 10
-33.1509
 20
-167.536
 11
-33.1343
 21
-167.556
  0
LINE
  8
0
 10
-33.1343
 20
-167.556
 11
-33.118
 21
-167.577
  0
LINE
  8
0
 10
-33.118
 20
-167.577
 11
-33.1021
 21
-167.597
  0
LINE
  8
0
 10
-33.1021
 20
-167.597
 11
-33.0865
 21
-167.618
  0
LINE
  8
0
 10
-33.0865
 20
-167.618
 11
-33.0713
 21
-167.64
  0
LINE
  8
0
 10
-33.0713
 20
-167.64
 11
-33.0565
 21
-167.661
  0
LINE
  8
0
 10
-33.0565
 20
-167.661
 11
-33.042
 21
-167.683
  0
LINE
  8
0
 10
-33.042
 20
-167.683
 11
-33.0279
 21
-167.705
  0
LINE
  8
0
 10
-33.0279
 20
-167.705
 11
-33.0143
 21
-167.727
  0
LINE
  8
0
 10
-33.0143
 20
-167.727
 11
-33.001
 21
-167.75
  0
LINE
  8
0
 10
-33.001
 20
-167.75
 11
-32.9881
 21
-167.773
  0
LINE
  8
0
 10
-32.9881
 20
-167.773
 11
-32.9756
 21
-167.796
  0
LINE
  8
0
 10
-32.9756
 20
-167.796
 11
-32.9635
 21
-167.819
  0
LINE
  8
0
 10
-32.9635
 20
-167.819
 11
-32.9518
 21
-167.842
  0
LINE
  8
0
 10
-32.9518
 20
-167.842
 11
-32.9406
 21
-167.866
  0
LINE
  8
0
 10
-32.9406
 20
-167.866
 11
-32.9297
 21
-167.89
  0
LINE
  8
0
 10
-32.9297
 20
-167.89
 11
-32.9193
 21
-167.914
  0
LINE
  8
0
 10
-32.9193
 20
-167.914
 11
-32.9092
 21
-167.938
  0
LINE
  8
0
 10
-32.9092
 20
-167.938
 11
-32.8996
 21
-167.962
  0
LINE
  8
0
 10
-32.8996
 20
-167.962
 11
-32.8905
 21
-167.987
  0
LINE
  8
0
 10
-32.8905
 20
-167.987
 11
-32.8817
 21
-168.012
  0
LINE
  8
0
 10
-32.8817
 20
-168.012
 11
-32.8734
 21
-168.036
  0
LINE
  8
0
 10
-32.8734
 20
-168.036
 11
-32.8656
 21
-168.061
  0
LINE
  8
0
 10
-32.8656
 20
-168.061
 11
-32.8581
 21
-168.087
  0
LINE
  8
0
 10
-32.8581
 20
-168.087
 11
-32.8511
 21
-168.112
  0
LINE
  8
0
 10
-32.8511
 20
-168.112
 11
-32.8446
 21
-168.137
  0
LINE
  8
0
 10
-32.8446
 20
-168.137
 11
-32.8385
 21
-168.163
  0
LINE
  8
0
 10
-32.8385
 20
-168.163
 11
-32.8328
 21
-168.188
  0
LINE
  8
0
 10
-32.8328
 20
-168.188
 11
-32.8276
 21
-168.214
  0
LINE
  8
0
 10
-32.8276
 20
-168.214
 11
-32.8228
 21
-168.24
  0
LINE
  8
0
 10
-32.8228
 20
-168.24
 11
-32.8185
 21
-168.265
  0
LINE
  8
0
 10
-32.8185
 20
-168.265
 11
-32.8146
 21
-168.291
  0
LINE
  8
0
 10
-32.8146
 20
-168.291
 11
-32.8112
 21
-168.317
  0
LINE
  8
0
 10
-32.8112
 20
-168.317
 11
-32.8082
 21
-168.343
  0
LINE
  8
0
 10
-32.8082
 20
-168.343
 11
-32.8057
 21
-168.369
  0
LINE
  8
0
 10
-32.8057
 20
-168.369
 11
-32.8037
 21
-168.395
  0
LINE
  8
0
 10
-32.8037
 20
-168.395
 11
-32.8021
 21
-168.422
  0
LINE
  8
0
 10
-32.8021
 20
-168.422
 11
-32.8009
 21
-168.448
  0
LINE
  8
0
 10
-32.8009
 20
-168.448
 11
-32.8002
 21
-168.474
  0
LINE
  8
0
 10
-32.8002
 20
-168.474
 11
-32.8
 21
-168.5
  0
LINE
  8
0
 10
-32.8
 20
-168.5
 11
-32.8002
 21
-168.526
  0
LINE
  8
0
 10
-32.8002
 20
-168.526
 11
-32.8009
 21
-168.552
  0
LINE
  8
0
 10
-32.8009
 20
-168.552
 11
-32.8021
 21
-168.579
  0
LINE
  8
0
 10
-32.8021
 20
-168.579
 11
-32.8037
 21
-168.605
  0
LINE
  8
0
 10
-32.8037
 20
-168.605
 11
-32.8057
 21
-168.631
  0
LINE
  8
0
 10
-32.8057
 20
-168.631
 11
-32.8082
 21
-168.657
  0
LINE
  8
0
 10
-32.8082
 20
-168.657
 11
-32.8112
 21
-168.683
  0
LINE
  8
0
 10
-32.8112
 20
-168.683
 11
-32.8146
 21
-168.709
  0
LINE
  8
0
 10
-32.8146
 20
-168.709
 11
-32.8185
 21
-168.735
  0
LINE
  8
0
 10
-32.8185
 20
-168.735
 11
-32.8228
 21
-168.76
  0
LINE
  8
0
 10
-32.8228
 20
-168.76
 11
-32.8276
 21
-168.786
  0
LINE
  8
0
 10
-32.8276
 20
-168.786
 11
-32.8328
 21
-168.812
  0
LINE
  8
0
 10
-32.8328
 20
-168.812
 11
-32.8385
 21
-168.837
  0
LINE
  8
0
 10
-32.8385
 20
-168.837
 11
-32.8446
 21
-168.863
  0
LINE
  8
0
 10
-32.8446
 20
-168.863
 11
-32.8511
 21
-168.888
  0
LINE
  8
0
 10
-32.8511
 20
-168.888
 11
-32.8581
 21
-168.913
  0
LINE
  8
0
 10
-32.8581
 20
-168.913
 11
-32.8656
 21
-168.939
  0
LINE
  8
0
 10
-32.8656
 20
-168.939
 11
-32.8734
 21
-168.964
  0
LINE
  8
0
 10
-32.8734
 20
-168.964
 11
-32.8817
 21
-168.988
  0
LINE
  8
0
 10
-32.8817
 20
-168.988
 11
-32.8905
 21
-169.013
  0
LINE
  8
0
 10
-32.8905
 20
-169.013
 11
-32.8996
 21
-169.038
  0
LINE
  8
0
 10
-32.8996
 20
-169.038
 11
-32.9092
 21
-169.062
  0
LINE
  8
0
 10
-32.9092
 20
-169.062
 11
-32.9193
 21
-169.086
  0
LINE
  8
0
 10
-32.9193
 20
-169.086
 11
-32.9297
 21
-169.11
  0
LINE
  8
0
 10
-32.9297
 20
-169.11
 11
-32.9406
 21
-169.134
  0
LINE
  8
0
 10
-32.9406
 20
-169.134
 11
-32.9518
 21
-169.158
  0
LINE
  8
0
 10
-32.9518
 20
-169.158
 11
-32.9635
 21
-169.181
  0
LINE
  8
0
 10
-32.9635
 20
-169.181
 11
-32.9756
 21
-169.204
  0
LINE
  8
0
 10
-32.9756
 20
-169.204
 11
-32.9881
 21
-169.227
  0
LINE
  8
0
 10
-32.9881
 20
-169.227
 11
-33.001
 21
-169.25
  0
LINE
  8
0
 10
-33.001
 20
-169.25
 11
-33.0143
 21
-169.273
  0
LINE
  8
0
 10
-33.0143
 20
-169.273
 11
-33.0279
 21
-169.295
  0
LINE
  8
0
 10
-33.0279
 20
-169.295
 11
-33.042
 21
-169.317
  0
LINE
  8
0
 10
-33.042
 20
-169.317
 11
-33.0565
 21
-169.339
  0
LINE
  8
0
 10
-33.0565
 20
-169.339
 11
-33.0713
 21
-169.36
  0
LINE
  8
0
 10
-33.0713
 20
-169.36
 11
-33.0865
 21
-169.382
  0
LINE
  8
0
 10
-33.0865
 20
-169.382
 11
-33.1021
 21
-169.403
  0
LINE
  8
0
 10
-33.1021
 20
-169.403
 11
-33.118
 21
-169.423
  0
LINE
  8
0
 10
-33.118
 20
-169.423
 11
-33.1343
 21
-169.444
  0
LINE
  8
0
 10
-33.1343
 20
-169.444
 11
-33.1509
 21
-169.464
  0
LINE
  8
0
 10
-33.1509
 20
-169.464
 11
-33.1679
 21
-169.484
  0
LINE
  8
0
 10
-33.1679
 20
-169.484
 11
-33.1853
 21
-169.504
  0
LINE
  8
0
 10
-33.1853
 20
-169.504
 11
-33.203
 21
-169.523
  0
LINE
  8
0
 10
-33.203
 20
-169.523
 11
-33.221
 21
-169.542
  0
LINE
  8
0
 10
-33.221
 20
-169.542
 11
-33.2393
 21
-169.561
  0
LINE
  8
0
 10
-33.2393
 20
-169.561
 11
-33.258
 21
-169.579
  0
LINE
  8
0
 10
-33.258
 20
-169.579
 11
-33.277
 21
-169.597
  0
LINE
  8
0
 10
-33.277
 20
-169.597
 11
-33.2963
 21
-169.615
  0
LINE
  8
0
 10
-33.2963
 20
-169.615
 11
-33.3159
 21
-169.632
  0
LINE
  8
0
 10
-33.3159
 20
-169.632
 11
-33.3358
 21
-169.649
  0
LINE
  8
0
 10
-33.3358
 20
-169.649
 11
-33.356
 21
-169.666
  0
LINE
  8
0
 10
-33.356
 20
-169.666
 11
-33.3765
 21
-169.682
  0
LINE
  8
0
 10
-33.3765
 20
-169.682
 11
-33.3973
 21
-169.698
  0
LINE
  8
0
 10
-33.3973
 20
-169.698
 11
-33.4183
 21
-169.714
  0
LINE
  8
0
 10
-33.4183
 20
-169.714
 11
-33.4396
 21
-169.729
  0
LINE
  8
0
 10
-33.4396
 20
-169.729
 11
-33.4612
 21
-169.744
  0
LINE
  8
0
 10
-33.4612
 20
-169.744
 11
-33.483
 21
-169.758
  0
LINE
  8
0
 10
-33.483
 20
-169.758
 11
-33.5051
 21
-169.772
  0
LINE
  8
0
 10
-33.5051
 20
-169.772
 11
-33.5275
 21
-169.786
  0
LINE
  8
0
 10
-33.5275
 20
-169.786
 11
-33.55
 21
-169.799
  0
LINE
  8
0
 10
-33.55
 20
-169.799
 11
-33.5728
 21
-169.812
  0
LINE
  8
0
 10
-33.5728
 20
-169.812
 11
-33.5958
 21
-169.824
  0
LINE
  8
0
 10
-33.5958
 20
-169.824
 11
-33.619
 21
-169.837
  0
LINE
  8
0
 10
-33.619
 20
-169.837
 11
-33.6425
 21
-169.848
  0
LINE
  8
0
 10
-33.6425
 20
-169.848
 11
-33.6661
 21
-169.859
  0
LINE
  8
0
 10
-33.6661
 20
-169.859
 11
-33.6899
 21
-169.87
  0
LINE
  8
0
 10
-33.6899
 20
-169.87
 11
-33.7139
 21
-169.881
  0
LINE
  8
0
 10
-33.7139
 20
-169.881
 11
-33.7381
 21
-169.891
  0
LINE
  8
0
 10
-33.7381
 20
-169.891
 11
-33.7625
 21
-169.9
  0
LINE
  8
0
 10
-33.7625
 20
-169.9
 11
-33.787
 21
-169.91
  0
LINE
  8
0
 10
-33.787
 20
-169.91
 11
-33.8117
 21
-169.918
  0
LINE
  8
0
 10
-33.8117
 20
-169.918
 11
-33.8365
 21
-169.927
  0
LINE
  8
0
 10
-33.8365
 20
-169.927
 11
-33.8615
 21
-169.934
  0
LINE
  8
0
 10
-33.8615
 20
-169.934
 11
-33.8866
 21
-169.942
  0
LINE
  8
0
 10
-33.8866
 20
-169.942
 11
-33.9118
 21
-169.949
  0
LINE
  8
0
 10
-33.9118
 20
-169.949
 11
-33.9371
 21
-169.955
  0
LINE
  8
0
 10
-33.9371
 20
-169.955
 11
-33.9626
 21
-169.962
  0
LINE
  8
0
 10
-33.9626
 20
-169.962
 11
-33.9881
 21
-169.967
  0
LINE
  8
0
 10
-33.9881
 20
-169.967
 11
-34.0138
 21
-169.972
  0
LINE
  8
0
 10
-34.0138
 20
-169.972
 11
-34.0395
 21
-169.977
  0
LINE
  8
0
 10
-34.0395
 20
-169.977
 11
-34.0654
 21
-169.982
  0
LINE
  8
0
 10
-34.0654
 20
-169.982
 11
-34.0912
 21
-169.985
  0
LINE
  8
0
 10
-34.0912
 20
-169.985
 11
-34.1172
 21
-169.989
  0
LINE
  8
0
 10
-34.1172
 20
-169.989
 11
-34.1432
 21
-169.992
  0
LINE
  8
0
 10
-34.1432
 20
-169.992
 11
-34.1693
 21
-169.994
  0
LINE
  8
0
 10
-34.1693
 20
-169.994
 11
-34.1954
 21
-169.996
  0
LINE
  8
0
 10
-34.1954
 20
-169.996
 11
-34.2215
 21
-169.998
  0
LINE
  8
0
 10
-34.2215
 20
-169.998
 11
-34.2477
 21
-169.999
  0
LINE
  8
0
 10
-34.2477
 20
-169.999
 11
-34.2738
 21
-170
  0
LINE
  8
0
 10
-34.2738
 20
-170
 11
-34.3
 21
-170
  0
LINE
  8
0
 10
-34.3
 20
-170
 11
-34.3262
 21
-170
  0
LINE
  8
0
 10
34.2738
 20
-170
 11
34.2476
 21
-169.999
  0
LINE
  8
0
 10
34.2476
 20
-169.999
 11
34.2215
 21
-169.998
  0
LINE
  8
0
 10
34.2215
 20
-169.998
 11
34.1953
 21
-169.996
  0
LINE
  8
0
 10
34.1953
 20
-169.996
 11
34.1693
 21
-169.994
  0
LINE
  8
0
 10
34.1693
 20
-169.994
 11
34.1432
 21
-169.992
  0
LINE
  8
0
 10
34.1432
 20
-169.992
 11
34.1172
 21
-169.989
  0
LINE
  8
0
 10
34.1172
 20
-169.989
 11
34.0912
 21
-169.985
  0
LINE
  8
0
 10
34.0912
 20
-169.985
 11
34.0653
 21
-169.982
  0
LINE
  8
0
 10
34.0653
 20
-169.982
 11
34.0395
 21
-169.977
  0
LINE
  8
0
 10
34.0395
 20
-169.977
 11
34.0138
 21
-169.972
  0
LINE
  8
0
 10
34.0138
 20
-169.972
 11
33.9881
 21
-169.967
  0
LINE
  8
0
 10
33.9881
 20
-169.967
 11
33.9626
 21
-169.962
  0
LINE
  8
0
 10
33.9626
 20
-169.962
 11
33.9371
 21
-169.955
  0
LINE
  8
0
 10
33.9371
 20
-169.955
 11
33.9118
 21
-169.949
  0
LINE
  8
0
 10
33.9118
 20
-169.949
 11
33.8865
 21
-169.942
  0
LINE
  8
0
 10
33.8865
 20
-169.942
 11
33.8614
 21
-169.934
  0
LINE
  8
0
 10
33.8614
 20
-169.934
 11
33.8365
 21
-169.927
  0
LINE
  8
0
 10
33.8365
 20
-169.927
 11
33.8116
 21
-169.918
  0
LINE
  8
0
 10
33.8116
 20
-169.918
 11
33.787
 21
-169.91
  0
LINE
  8
0
 10
33.787
 20
-169.91
 11
33.7624
 21
-169.9
  0
LINE
  8
0
 10
33.7624
 20
-169.9
 11
33.7381
 21
-169.891
  0
LINE
  8
0
 10
33.7381
 20
-169.891
 11
33.7139
 21
-169.881
  0
LINE
  8
0
 10
33.7139
 20
-169.881
 11
33.6899
 21
-169.87
  0
LINE
  8
0
 10
33.6899
 20
-169.87
 11
33.6661
 21
-169.859
  0
LINE
  8
0
 10
33.6661
 20
-169.859
 11
33.6424
 21
-169.848
  0
LINE
  8
0
 10
33.6424
 20
-169.848
 11
33.619
 21
-169.837
  0
LINE
  8
0
 10
33.619
 20
-169.837
 11
33.5958
 21
-169.824
  0
LINE
  8
0
 10
33.5958
 20
-169.824
 11
33.5728
 21
-169.812
  0
LINE
  8
0
 10
33.5728
 20
-169.812
 11
33.55
 21
-169.799
  0
LINE
  8
0
 10
33.55
 20
-169.799
 11
33.5274
 21
-169.786
  0
LINE
  8
0
 10
33.5274
 20
-169.786
 11
33.5051
 21
-169.772
  0
LINE
  8
0
 10
33.5051
 20
-169.772
 11
33.483
 21
-169.758
  0
LINE
  8
0
 10
33.483
 20
-169.758
 11
33.4612
 21
-169.744
  0
LINE
  8
0
 10
33.4612
 20
-169.744
 11
33.4396
 21
-169.729
  0
LINE
  8
0
 10
33.4396
 20
-169.729
 11
33.4183
 21
-169.714
  0
LINE
  8
0
 10
33.4183
 20
-169.714
 11
33.3973
 21
-169.698
  0
LINE
  8
0
 10
33.3973
 20
-169.698
 11
33.3765
 21
-169.682
  0
LINE
  8
0
 10
33.3765
 20
-169.682
 11
33.356
 21
-169.666
  0
LINE
  8
0
 10
33.356
 20
-169.666
 11
33.3358
 21
-169.649
  0
LINE
  8
0
 10
33.3358
 20
-169.649
 11
33.3159
 21
-169.632
  0
LINE
  8
0
 10
33.3159
 20
-169.632
 11
33.2963
 21
-169.615
  0
LINE
  8
0
 10
33.2963
 20
-169.615
 11
33.277
 21
-169.597
  0
LINE
  8
0
 10
33.277
 20
-169.597
 11
33.258
 21
-169.579
  0
LINE
  8
0
 10
33.258
 20
-169.579
 11
33.2393
 21
-169.561
  0
LINE
  8
0
 10
33.2393
 20
-169.561
 11
33.221
 21
-169.542
  0
LINE
  8
0
 10
33.221
 20
-169.542
 11
33.203
 21
-169.523
  0
LINE
  8
0
 10
33.203
 20
-169.523
 11
33.1853
 21
-169.504
  0
LINE
  8
0
 10
33.1853
 20
-169.504
 11
33.1679
 21
-169.484
  0
LINE
  8
0
 10
33.1679
 20
-169.484
 11
33.1509
 21
-169.464
  0
LINE
  8
0
 10
33.1509
 20
-169.464
 11
33.1343
 21
-169.444
  0
LINE
  8
0
 10
33.1343
 20
-169.444
 11
33.118
 21
-169.423
  0
LINE
  8
0
 10
33.118
 20
-169.423
 11
33.102
 21
-169.403
  0
LINE
  8
0
 10
33.102
 20
-169.403
 11
33.0865
 21
-169.382
  0
LINE
  8
0
 10
33.0865
 20
-169.382
 11
33.0713
 21
-169.36
  0
LINE
  8
0
 10
33.0713
 20
-169.36
 11
33.0564
 21
-169.339
  0
LINE
  8
0
 10
33.0564
 20
-169.339
 11
33.042
 21
-169.317
  0
LINE
  8
0
 10
33.042
 20
-169.317
 11
33.0279
 21
-169.295
  0
LINE
  8
0
 10
33.0279
 20
-169.295
 11
33.0142
 21
-169.273
  0
LINE
  8
0
 10
33.0142
 20
-169.273
 11
33.0009
 21
-169.25
  0
LINE
  8
0
 10
33.0009
 20
-169.25
 11
32.9881
 21
-169.227
  0
LINE
  8
0
 10
32.9881
 20
-169.227
 11
32.9756
 21
-169.204
  0
LINE
  8
0
 10
32.9756
 20
-169.204
 11
32.9635
 21
-169.181
  0
LINE
  8
0
 10
32.9635
 20
-169.181
 11
32.9518
 21
-169.158
  0
LINE
  8
0
 10
32.9518
 20
-169.158
 11
32.9405
 21
-169.134
  0
LINE
  8
0
 10
32.9405
 20
-169.134
 11
32.9297
 21
-169.11
  0
LINE
  8
0
 10
32.9297
 20
-169.11
 11
32.9192
 21
-169.086
  0
LINE
  8
0
 10
32.9192
 20
-169.086
 11
32.9092
 21
-169.062
  0
LINE
  8
0
 10
32.9092
 20
-169.062
 11
32.8996
 21
-169.038
  0
LINE
  8
0
 10
32.8996
 20
-169.038
 11
32.8904
 21
-169.013
  0
LINE
  8
0
 10
32.8904
 20
-169.013
 11
32.8817
 21
-168.988
  0
LINE
  8
0
 10
32.8817
 20
-168.988
 11
32.8734
 21
-168.964
  0
LINE
  8
0
 10
32.8734
 20
-168.964
 11
32.8655
 21
-168.939
  0
LINE
  8
0
 10
32.8655
 20
-168.939
 11
32.8581
 21
-168.913
  0
LINE
  8
0
 10
32.8581
 20
-168.913
 11
32.8511
 21
-168.888
  0
LINE
  8
0
 10
32.8511
 20
-168.888
 11
32.8445
 21
-168.863
  0
LINE
  8
0
 10
32.8445
 20
-168.863
 11
32.8384
 21
-168.837
  0
LINE
  8
0
 10
32.8384
 20
-168.837
 11
32.8328
 21
-168.812
  0
LINE
  8
0
 10
32.8328
 20
-168.812
 11
32.8275
 21
-168.786
  0
LINE
  8
0
 10
32.8275
 20
-168.786
 11
32.8228
 21
-168.76
  0
LINE
  8
0
 10
32.8228
 20
-168.76
 11
32.8185
 21
-168.735
  0
LINE
  8
0
 10
32.8185
 20
-168.735
 11
32.8146
 21
-168.709
  0
LINE
  8
0
 10
32.8146
 20
-168.709
 11
32.8112
 21
-168.683
  0
LINE
  8
0
 10
32.8112
 20
-168.683
 11
32.8082
 21
-168.657
  0
LINE
  8
0
 10
32.8082
 20
-168.657
 11
32.8057
 21
-168.631
  0
LINE
  8
0
 10
32.8057
 20
-168.631
 11
32.8036
 21
-168.605
  0
LINE
  8
0
 10
32.8036
 20
-168.605
 11
32.802
 21
-168.579
  0
LINE
  8
0
 10
32.802
 20
-168.579
 11
32.8009
 21
-168.552
  0
LINE
  8
0
 10
32.8009
 20
-168.552
 11
32.8002
 21
-168.526
  0
LINE
  8
0
 10
32.8002
 20
-168.526
 11
32.8
 21
-168.5
  0
LINE
  8
0
 10
32.8
 20
-168.5
 11
32.8002
 21
-168.474
  0
LINE
  8
0
 10
32.8002
 20
-168.474
 11
32.8009
 21
-168.448
  0
LINE
  8
0
 10
32.8009
 20
-168.448
 11
32.802
 21
-168.422
  0
LINE
  8
0
 10
32.802
 20
-168.422
 11
32.8036
 21
-168.395
  0
LINE
  8
0
 10
32.8036
 20
-168.395
 11
32.8057
 21
-168.369
  0
LINE
  8
0
 10
32.8057
 20
-168.369
 11
32.8082
 21
-168.343
  0
LINE
  8
0
 10
32.8082
 20
-168.343
 11
32.8112
 21
-168.317
  0
LINE
  8
0
 10
32.8112
 20
-168.317
 11
32.8146
 21
-168.291
  0
LINE
  8
0
 10
32.8146
 20
-168.291
 11
32.8185
 21
-168.265
  0
LINE
  8
0
 10
32.8185
 20
-168.265
 11
32.8228
 21
-168.24
  0
LINE
  8
0
 10
32.8228
 20
-168.24
 11
32.8275
 21
-168.214
  0
LINE
  8
0
 10
32.8275
 20
-168.214
 11
32.8328
 21
-168.188
  0
LINE
  8
0
 10
32.8328
 20
-168.188
 11
32.8384
 21
-168.163
  0
LINE
  8
0
 10
32.8384
 20
-168.163
 11
32.8445
 21
-168.137
  0
LINE
  8
0
 10
32.8445
 20
-168.137
 11
32.8511
 21
-168.112
  0
LINE
  8
0
 10
32.8511
 20
-168.112
 11
32.8581
 21
-168.087
  0
LINE
  8
0
 10
32.8581
 20
-168.087
 11
32.8655
 21
-168.061
  0
LINE
  8
0
 10
32.8655
 20
-168.061
 11
32.8734
 21
-168.036
  0
LINE
  8
0
 10
32.8734
 20
-168.036
 11
32.8817
 21
-168.012
  0
LINE
  8
0
 10
32.8817
 20
-168.012
 11
32.8904
 21
-167.987
  0
LINE
  8
0
 10
32.8904
 20
-167.987
 11
32.8996
 21
-167.962
  0
LINE
  8
0
 10
32.8996
 20
-167.962
 11
32.9092
 21
-167.938
  0
LINE
  8
0
 10
32.9092
 20
-167.938
 11
32.9192
 21
-167.914
  0
LINE
  8
0
 10
32.9192
 20
-167.914
 11
32.9297
 21
-167.89
  0
LINE
  8
0
 10
32.9297
 20
-167.89
 11
32.9405
 21
-167.866
  0
LINE
  8
0
 10
32.9405
 20
-167.866
 11
32.9518
 21
-167.842
  0
LINE
  8
0
 10
32.9518
 20
-167.842
 11
32.9635
 21
-167.819
  0
LINE
  8
0
 10
32.9635
 20
-167.819
 11
32.9756
 21
-167.796
  0
LINE
  8
0
 10
32.9756
 20
-167.796
 11
32.9881
 21
-167.773
  0
LINE
  8
0
 10
32.9881
 20
-167.773
 11
33.0009
 21
-167.75
  0
LINE
  8
0
 10
33.0009
 20
-167.75
 11
33.0142
 21
-167.727
  0
LINE
  8
0
 10
33.0142
 20
-167.727
 11
33.0279
 21
-167.705
  0
LINE
  8
0
 10
33.0279
 20
-167.705
 11
33.042
 21
-167.683
  0
LINE
  8
0
 10
33.042
 20
-167.683
 11
33.0564
 21
-167.661
  0
LINE
  8
0
 10
33.0564
 20
-167.661
 11
33.0713
 21
-167.64
  0
LINE
  8
0
 10
33.0713
 20
-167.64
 11
33.0865
 21
-167.618
  0
LINE
  8
0
 10
33.0865
 20
-167.618
 11
33.102
 21
-167.597
  0
LINE
  8
0
 10
33.102
 20
-167.597
 11
33.118
 21
-167.577
  0
LINE
  8
0
 10
33.118
 20
-167.577
 11
33.1343
 21
-167.556
  0
LINE
  8
0
 10
33.1343
 20
-167.556
 11
33.1509
 21
-167.536
  0
LINE
  8
0
 10
33.1509
 20
-167.536
 11
33.1679
 21
-167.516
  0
LINE
  8
0
 10
33.1679
 20
-167.516
 11
33.1853
 21
-167.496
  0
LINE
  8
0
 10
33.1853
 20
-167.496
 11
33.203
 21
-167.477
  0
LINE
  8
0
 10
33.203
 20
-167.477
 11
33.221
 21
-167.458
  0
LINE
  8
0
 10
33.221
 20
-167.458
 11
33.2393
 21
-167.439
  0
LINE
  8
0
 10
33.2393
 20
-167.439
 11
33.258
 21
-167.421
  0
LINE
  8
0
 10
33.258
 20
-167.421
 11
33.277
 21
-167.403
  0
LINE
  8
0
 10
33.277
 20
-167.403
 11
33.2963
 21
-167.385
  0
LINE
  8
0
 10
33.2963
 20
-167.385
 11
33.3159
 21
-167.368
  0
LINE
  8
0
 10
33.3159
 20
-167.368
 11
33.3358
 21
-167.351
  0
LINE
  8
0
 10
33.3358
 20
-167.351
 11
33.356
 21
-167.334
  0
LINE
  8
0
 10
33.356
 20
-167.334
 11
33.3765
 21
-167.318
  0
LINE
  8
0
 10
33.3765
 20
-167.318
 11
33.3973
 21
-167.302
  0
LINE
  8
0
 10
33.3973
 20
-167.302
 11
33.4183
 21
-167.286
  0
LINE
  8
0
 10
33.4183
 20
-167.286
 11
33.4396
 21
-167.271
  0
LINE
  8
0
 10
33.4396
 20
-167.271
 11
33.4612
 21
-167.256
  0
LINE
  8
0
 10
33.4612
 20
-167.256
 11
33.483
 21
-167.242
  0
LINE
  8
0
 10
33.483
 20
-167.242
 11
33.5051
 21
-167.228
  0
LINE
  8
0
 10
33.5051
 20
-167.228
 11
33.5274
 21
-167.214
  0
LINE
  8
0
 10
33.5274
 20
-167.214
 11
33.55
 21
-167.201
  0
LINE
  8
0
 10
33.55
 20
-167.201
 11
33.5728
 21
-167.188
  0
LINE
  8
0
 10
33.5728
 20
-167.188
 11
33.5958
 21
-167.176
  0
LINE
  8
0
 10
33.5958
 20
-167.176
 11
33.619
 21
-167.163
  0
LINE
  8
0
 10
33.619
 20
-167.163
 11
33.6424
 21
-167.152
  0
LINE
  8
0
 10
33.6424
 20
-167.152
 11
33.6661
 21
-167.141
  0
LINE
  8
0
 10
33.6661
 20
-167.141
 11
33.6899
 21
-167.13
  0
LINE
  8
0
 10
33.6899
 20
-167.13
 11
33.7139
 21
-167.119
  0
LINE
  8
0
 10
33.7139
 20
-167.119
 11
33.7381
 21
-167.109
  0
LINE
  8
0
 10
33.7381
 20
-167.109
 11
33.7624
 21
-167.1
  0
LINE
  8
0
 10
33.7624
 20
-167.1
 11
33.787
 21
-167.09
  0
LINE
  8
0
 10
33.787
 20
-167.09
 11
33.8116
 21
-167.082
  0
LINE
  8
0
 10
33.8116
 20
-167.082
 11
33.8365
 21
-167.073
  0
LINE
  8
0
 10
33.8365
 20
-167.073
 11
33.8614
 21
-167.066
  0
LINE
  8
0
 10
33.8614
 20
-167.066
 11
33.8865
 21
-167.058
  0
LINE
  8
0
 10
33.8865
 20
-167.058
 11
33.9118
 21
-167.051
  0
LINE
  8
0
 10
33.9118
 20
-167.051
 11
33.9371
 21
-167.045
  0
LINE
  8
0
 10
33.9371
 20
-167.045
 11
33.9626
 21
-167.038
  0
LINE
  8
0
 10
33.9626
 20
-167.038
 11
33.9881
 21
-167.033
  0
LINE
  8
0
 10
33.9881
 20
-167.033
 11
34.0138
 21
-167.028
  0
LINE
  8
0
 10
34.0138
 20
-167.028
 11
34.0395
 21
-167.023
  0
LINE
  8
0
 10
34.0395
 20
-167.023
 11
34.0653
 21
-167.018
  0
LINE
  8
0
 10
34.0653
 20
-167.018
 11
34.0912
 21
-167.015
  0
LINE
  8
0
 10
34.0912
 20
-167.015
 11
34.1172
 21
-167.011
  0
LINE
  8
0
 10
34.1172
 20
-167.011
 11
34.1432
 21
-167.008
  0
LINE
  8
0
 10
34.1432
 20
-167.008
 11
34.1693
 21
-167.006
  0
LINE
  8
0
 10
34.1693
 20
-167.006
 11
34.1953
 21
-167.004
  0
LINE
  8
0
 10
34.1953
 20
-167.004
 11
34.2215
 21
-167.002
  0
LINE
  8
0
 10
34.2215
 20
-167.002
 11
34.2476
 21
-167.001
  0
LINE
  8
0
 10
34.2476
 20
-167.001
 11
34.2738
 21
-167
  0
LINE
  8
0
 10
34.2738
 20
-167
 11
34.3
 21
-167
  0
LINE
  8
0
 10
34.3
 20
-167
 11
34.3262
 21
-167
  0
LINE
  8
0
 10
34.3262
 20
-167
 11
34.3523
 21
-167.001
  0
LINE
  8
0
 10
34.3523
 20
-167.001
 11
34.3785
 21
-167.002
  0
LINE
  8
0
 10
34.3785
 20
-167.002
 11
34.4046
 21
-167.004
  0
LINE
  8
0
 10
34.4046
 20
-167.004
 11
34.4307
 21
-167.006
  0
LINE
  8
0
 10
34.4307
 20
-167.006
 11
34.4568
 21
-167.008
  0
LINE
  8
0
 10
34.4568
 20
-167.008
 11
34.4828
 21
-167.011
  0
LINE
  8
0
 10
34.4828
 20
-167.011
 11
34.5087
 21
-167.015
  0
LINE
  8
0
 10
34.5087
 20
-167.015
 11
34.5346
 21
-167.018
  0
LINE
  8
0
 10
34.5346
 20
-167.018
 11
34.5605
 21
-167.023
  0
LINE
  8
0
 10
34.5605
 20
-167.023
 11
34.5862
 21
-167.028
  0
LINE
  8
0
 10
34.5862
 20
-167.028
 11
34.6118
 21
-167.033
  0
LINE
  8
0
 10
34.6118
 20
-167.033
 11
34.6374
 21
-167.038
  0
LINE
  8
0
 10
34.6374
 20
-167.038
 11
34.6629
 21
-167.045
  0
LINE
  8
0
 10
34.6629
 20
-167.045
 11
34.6882
 21
-167.051
  0
LINE
  8
0
 10
34.6882
 20
-167.051
 11
34.7134
 21
-167.058
  0
LINE
  8
0
 10
34.7134
 20
-167.058
 11
34.7385
 21
-167.066
  0
LINE
  8
0
 10
34.7385
 20
-167.066
 11
34.7635
 21
-167.073
  0
LINE
  8
0
 10
34.7635
 20
-167.073
 11
34.7883
 21
-167.082
  0
LINE
  8
0
 10
34.7883
 20
-167.082
 11
34.813
 21
-167.09
  0
LINE
  8
0
 10
34.813
 20
-167.09
 11
34.8375
 21
-167.1
  0
LINE
  8
0
 10
34.8375
 20
-167.1
 11
34.8619
 21
-167.109
  0
LINE
  8
0
 10
34.8619
 20
-167.109
 11
34.8861
 21
-167.119
  0
LINE
  8
0
 10
34.8861
 20
-167.119
 11
34.9101
 21
-167.13
  0
LINE
  8
0
 10
34.9101
 20
-167.13
 11
34.9339
 21
-167.141
  0
LINE
  8
0
 10
34.9339
 20
-167.141
 11
34.9575
 21
-167.152
  0
LINE
  8
0
 10
34.9575
 20
-167.152
 11
34.981
 21
-167.163
  0
LINE
  8
0
 10
34.981
 20
-167.163
 11
35.0042
 21
-167.176
  0
LINE
  8
0
 10
35.0042
 20
-167.176
 11
35.0272
 21
-167.188
  0
LINE
  8
0
 10
35.0272
 20
-167.188
 11
35.05
 21
-167.201
  0
LINE
  8
0
 10
35.05
 20
-167.201
 11
35.0725
 21
-167.214
  0
LINE
  8
0
 10
35.0725
 20
-167.214
 11
35.0949
 21
-167.228
  0
LINE
  8
0
 10
35.0949
 20
-167.228
 11
35.1169
 21
-167.242
  0
LINE
  8
0
 10
35.1169
 20
-167.242
 11
35.1388
 21
-167.256
  0
LINE
  8
0
 10
35.1388
 20
-167.256
 11
35.1604
 21
-167.271
  0
LINE
  8
0
 10
35.1604
 20
-167.271
 11
35.1817
 21
-167.286
  0
LINE
  8
0
 10
35.1817
 20
-167.286
 11
35.2027
 21
-167.302
  0
LINE
  8
0
 10
35.2027
 20
-167.302
 11
35.2235
 21
-167.318
  0
LINE
  8
0
 10
35.2235
 20
-167.318
 11
35.244
 21
-167.334
  0
LINE
  8
0
 10
35.244
 20
-167.334
 11
35.2642
 21
-167.351
  0
LINE
  8
0
 10
35.2642
 20
-167.351
 11
35.2841
 21
-167.368
  0
LINE
  8
0
 10
35.2841
 20
-167.368
 11
35.3037
 21
-167.385
  0
LINE
  8
0
 10
35.3037
 20
-167.385
 11
35.323
 21
-167.403
  0
LINE
  8
0
 10
35.323
 20
-167.403
 11
35.342
 21
-167.421
  0
LINE
  8
0
 10
35.342
 20
-167.421
 11
35.3606
 21
-167.439
  0
LINE
  8
0
 10
35.3606
 20
-167.439
 11
35.379
 21
-167.458
  0
LINE
  8
0
 10
35.379
 20
-167.458
 11
35.397
 21
-167.477
  0
LINE
  8
0
 10
35.397
 20
-167.477
 11
35.4147
 21
-167.496
  0
LINE
  8
0
 10
35.4147
 20
-167.496
 11
35.4321
 21
-167.516
  0
LINE
  8
0
 10
35.4321
 20
-167.516
 11
35.4491
 21
-167.536
  0
LINE
  8
0
 10
35.4491
 20
-167.536
 11
35.4657
 21
-167.556
  0
LINE
  8
0
 10
35.4657
 20
-167.556
 11
35.482
 21
-167.577
  0
LINE
  8
0
 10
35.482
 20
-167.577
 11
35.4979
 21
-167.597
  0
LINE
  8
0
 10
35.4979
 20
-167.597
 11
35.5135
 21
-167.618
  0
LINE
  8
0
 10
35.5135
 20
-167.618
 11
35.5287
 21
-167.64
  0
LINE
  8
0
 10
35.5287
 20
-167.64
 11
35.5435
 21
-167.661
  0
LINE
  8
0
 10
35.5435
 20
-167.661
 11
35.558
 21
-167.683
  0
LINE
  8
0
 10
35.558
 20
-167.683
 11
35.5721
 21
-167.705
  0
LINE
  8
0
 10
35.5721
 20
-167.705
 11
35.5857
 21
-167.727
  0
LINE
  8
0
 10
35.5857
 20
-167.727
 11
35.599
 21
-167.75
  0
LINE
  8
0
 10
35.599
 20
-167.75
 11
35.6119
 21
-167.773
  0
LINE
  8
0
 10
35.6119
 20
-167.773
 11
35.6244
 21
-167.796
  0
LINE
  8
0
 10
35.6244
 20
-167.796
 11
35.6365
 21
-167.819
  0
LINE
  8
0
 10
35.6365
 20
-167.819
 11
35.6482
 21
-167.842
  0
LINE
  8
0
 10
35.6482
 20
-167.842
 11
35.6594
 21
-167.866
  0
LINE
  8
0
 10
35.6594
 20
-167.866
 11
35.6703
 21
-167.89
  0
LINE
  8
0
 10
35.6703
 20
-167.89
 11
35.6807
 21
-167.914
  0
LINE
  8
0
 10
35.6807
 20
-167.914
 11
35.6908
 21
-167.938
  0
LINE
  8
0
 10
35.6908
 20
-167.938
 11
35.7003
 21
-167.962
  0
LINE
  8
0
 10
35.7003
 20
-167.962
 11
35.7095
 21
-167.987
  0
LINE
  8
0
 10
35.7095
 20
-167.987
 11
35.7183
 21
-168.012
  0
LINE
  8
0
 10
35.7183
 20
-168.012
 11
35.7266
 21
-168.036
  0
LINE
  8
0
 10
35.7266
 20
-168.036
 11
35.7344
 21
-168.061
  0
LINE
  8
0
 10
35.7344
 20
-168.061
 11
35.7419
 21
-168.087
  0
LINE
  8
0
 10
35.7419
 20
-168.087
 11
35.7489
 21
-168.112
  0
LINE
  8
0
 10
35.7489
 20
-168.112
 11
35.7554
 21
-168.137
  0
LINE
  8
0
 10
35.7554
 20
-168.137
 11
35.7615
 21
-168.163
  0
LINE
  8
0
 10
35.7615
 20
-168.163
 11
35.7672
 21
-168.188
  0
LINE
  8
0
 10
35.7672
 20
-168.188
 11
35.7724
 21
-168.214
  0
LINE
  8
0
 10
35.7724
 20
-168.214
 11
35.7772
 21
-168.24
  0
LINE
  8
0
 10
35.7772
 20
-168.24
 11
35.7815
 21
-168.265
  0
LINE
  8
0
 10
35.7815
 20
-168.265
 11
35.7854
 21
-168.291
  0
LINE
  8
0
 10
35.7854
 20
-168.291
 11
35.7888
 21
-168.317
  0
LINE
  8
0
 10
35.7888
 20
-168.317
 11
35.7918
 21
-168.343
  0
LINE
  8
0
 10
35.7918
 20
-168.343
 11
35.7943
 21
-168.369
  0
LINE
  8
0
 10
35.7943
 20
-168.369
 11
35.7963
 21
-168.395
  0
LINE
  8
0
 10
35.7963
 20
-168.395
 11
35.7979
 21
-168.422
  0
LINE
  8
0
 10
35.7979
 20
-168.422
 11
35.7991
 21
-168.448
  0
LINE
  8
0
 10
35.7991
 20
-168.448
 11
35.7998
 21
-168.474
  0
LINE
  8
0
 10
35.7998
 20
-168.474
 11
35.8
 21
-168.5
  0
LINE
  8
0
 10
35.8
 20
-168.5
 11
35.7998
 21
-168.526
  0
LINE
  8
0
 10
35.7998
 20
-168.526
 11
35.7991
 21
-168.552
  0
LINE
  8
0
 10
35.7991
 20
-168.552
 11
35.7979
 21
-168.579
  0
LINE
  8
0
 10
35.7979
 20
-168.579
 11
35.7963
 21
-168.605
  0
LINE
  8
0
 10
35.7963
 20
-168.605
 11
35.7943
 21
-168.631
  0
LINE
  8
0
 10
35.7943
 20
-168.631
 11
35.7918
 21
-168.657
  0
LINE
  8
0
 10
35.7918
 20
-168.657
 11
35.7888
 21
-168.683
  0
LINE
  8
0
 10
35.7888
 20
-168.683
 11
35.7854
 21
-168.709
  0
LINE
  8
0
 10
35.7854
 20
-168.709
 11
35.7815
 21
-168.735
  0
LINE
  8
0
 10
35.7815
 20
-168.735
 11
35.7772
 21
-168.76
  0
LINE
  8
0
 10
35.7772
 20
-168.76
 11
35.7724
 21
-168.786
  0
LINE
  8
0
 10
35.7724
 20
-168.786
 11
35.7672
 21
-168.812
  0
LINE
  8
0
 10
35.7672
 20
-168.812
 11
35.7615
 21
-168.837
  0
LINE
  8
0
 10
35.7615
 20
-168.837
 11
35.7554
 21
-168.863
  0
LINE
  8
0
 10
35.7554
 20
-168.863
 11
35.7489
 21
-168.888
  0
LINE
  8
0
 10
35.7489
 20
-168.888
 11
35.7419
 21
-168.913
  0
LINE
  8
0
 10
35.7419
 20
-168.913
 11
35.7344
 21
-168.939
  0
LINE
  8
0
 10
35.7344
 20
-168.939
 11
35.7266
 21
-168.964
  0
LINE
  8
0
 10
35.7266
 20
-168.964
 11
35.7183
 21
-168.988
  0
LINE
  8
0
 10
35.7183
 20
-168.988
 11
35.7095
 21
-169.013
  0
LINE
  8
0
 10
35.7095
 20
-169.013
 11
35.7003
 21
-169.038
  0
LINE
  8
0
 10
35.7003
 20
-169.038
 11
35.6908
 21
-169.062
  0
LINE
  8
0
 10
35.6908
 20
-169.062
 11
35.6807
 21
-169.086
  0
LINE
  8
0
 10
35.6807
 20
-169.086
 11
35.6703
 21
-169.11
  0
LINE
  8
0
 10
35.6703
 20
-169.11
 11
35.6594
 21
-169.134
  0
LINE
  8
0
 10
35.6594
 20
-169.134
 11
35.6482
 21
-169.158
  0
LINE
  8
0
 10
35.6482
 20
-169.158
 11
35.6365
 21
-169.181
  0
LINE
  8
0
 10
35.6365
 20
-169.181
 11
35.6244
 21
-169.204
  0
LINE
  8
0
 10
35.6244
 20
-169.204
 11
35.6119
 21
-169.227
  0
LINE
  8
0
 10
35.6119
 20
-169.227
 11
35.599
 21
-169.25
  0
LINE
  8
0
 10
35.599
 20
-169.25
 11
35.5857
 21
-169.273
  0
LINE
  8
0
 10
35.5857
 20
-169.273
 11
35.5721
 21
-169.295
  0
LINE
  8
0
 10
35.5721
 20
-169.295
 11
35.558
 21
-169.317
  0
LINE
  8
0
 10
35.558
 20
-169.317
 11
35.5435
 21
-169.339
  0
LINE
  8
0
 10
35.5435
 20
-169.339
 11
35.5287
 21
-169.36
  0
LINE
  8
0
 10
35.5287
 20
-169.36
 11
35.5135
 21
-169.382
  0
LINE
  8
0
 10
35.5135
 20
-169.382
 11
35.4979
 21
-169.403
  0
LINE
  8
0
 10
35.4979
 20
-169.403
 11
35.482
 21
-169.423
  0
LINE
  8
0
 10
35.482
 20
-169.423
 11
35.4657
 21
-169.444
  0
LINE
  8
0
 10
35.4657
 20
-169.444
 11
35.4491
 21
-169.464
  0
LINE
  8
0
 10
35.4491
 20
-169.464
 11
35.4321
 21
-169.484
  0
LINE
  8
0
 10
35.4321
 20
-169.484
 11
35.4147
 21
-169.504
  0
LINE
  8
0
 10
35.4147
 20
-169.504
 11
35.397
 21
-169.523
  0
LINE
  8
0
 10
35.397
 20
-169.523
 11
35.379
 21
-169.542
  0
LINE
  8
0
 10
35.379
 20
-169.542
 11
35.3606
 21
-169.561
  0
LINE
  8
0
 10
35.3606
 20
-169.561
 11
35.342
 21
-169.579
  0
LINE
  8
0
 10
35.342
 20
-169.579
 11
35.323
 21
-169.597
  0
LINE
  8
0
 10
35.323
 20
-169.597
 11
35.3037
 21
-169.615
  0
LINE
  8
0
 10
35.3037
 20
-169.615
 11
35.2841
 21
-169.632
  0
LINE
  8
0
 10
35.2841
 20
-169.632
 11
35.2642
 21
-169.649
  0
LINE
  8
0
 10
35.2642
 20
-169.649
 11
35.244
 21
-169.666
  0
LINE
  8
0
 10
35.244
 20
-169.666
 11
35.2235
 21
-169.682
  0
LINE
  8
0
 10
35.2235
 20
-169.682
 11
35.2027
 21
-169.698
  0
LINE
  8
0
 10
35.2027
 20
-169.698
 11
35.1817
 21
-169.714
  0
LINE
  8
0
 10
35.1817
 20
-169.714
 11
35.1604
 21
-169.729
  0
LINE
  8
0
 10
35.1604
 20
-169.729
 11
35.1388
 21
-169.744
  0
LINE
  8
0
 10
35.1388
 20
-169.744
 11
35.1169
 21
-169.758
  0
LINE
  8
0
 10
35.1169
 20
-169.758
 11
35.0949
 21
-169.772
  0
LINE
  8
0
 10
35.0949
 20
-169.772
 11
35.0725
 21
-169.786
  0
LINE
  8
0
 10
35.0725
 20
-169.786
 11
35.05
 21
-169.799
  0
LINE
  8
0
 10
35.05
 20
-169.799
 11
35.0272
 21
-169.812
  0
LINE
  8
0
 10
35.0272
 20
-169.812
 11
35.0042
 21
-169.824
  0
LINE
  8
0
 10
35.0042
 20
-169.824
 11
34.981
 21
-169.837
  0
LINE
  8
0
 10
34.981
 20
-169.837
 11
34.9575
 21
-169.848
  0
LINE
  8
0
 10
34.9575
 20
-169.848
 11
34.9339
 21
-169.859
  0
LINE
  8
0
 10
34.9339
 20
-169.859
 11
34.9101
 21
-169.87
  0
LINE
  8
0
 10
34.9101
 20
-169.87
 11
34.8861
 21
-169.881
  0
LINE
  8
0
 10
34.8861
 20
-169.881
 11
34.8619
 21
-169.891
  0
LINE
  8
0
 10
34.8619
 20
-169.891
 11
34.8375
 21
-169.9
  0
LINE
  8
0
 10
34.8375
 20
-169.9
 11
34.813
 21
-169.91
  0
LINE
  8
0
 10
34.813
 20
-169.91
 11
34.7883
 21
-169.918
  0
LINE
  8
0
 10
34.7883
 20
-169.918
 11
34.7635
 21
-169.927
  0
LINE
  8
0
 10
34.7635
 20
-169.927
 11
34.7385
 21
-169.934
  0
LINE
  8
0
 10
34.7385
 20
-169.934
 11
34.7134
 21
-169.942
  0
LINE
  8
0
 10
34.7134
 20
-169.942
 11
34.6882
 21
-169.949
  0
LINE
  8
0
 10
34.6882
 20
-169.949
 11
34.6629
 21
-169.955
  0
LINE
  8
0
 10
34.6629
 20
-169.955
 11
34.6374
 21
-169.962
  0
LINE
  8
0
 10
34.6374
 20
-169.962
 11
34.6118
 21
-169.967
  0
LINE
  8
0
 10
34.6118
 20
-169.967
 11
34.5862
 21
-169.972
  0
LINE
  8
0
 10
34.5862
 20
-169.972
 11
34.5605
 21
-169.977
  0
LINE
  8
0
 10
34.5605
 20
-169.977
 11
34.5346
 21
-169.982
  0
LINE
  8
0
 10
34.5346
 20
-169.982
 11
34.5087
 21
-169.985
  0
LINE
  8
0
 10
34.5087
 20
-169.985
 11
34.4828
 21
-169.989
  0
LINE
  8
0
 10
34.4828
 20
-169.989
 11
34.4568
 21
-169.992
  0
LINE
  8
0
 10
34.4568
 20
-169.992
 11
34.4307
 21
-169.994
  0
LINE
  8
0
 10
34.4307
 20
-169.994
 11
34.4046
 21
-169.996
  0
LINE
  8
0
 10
34.4046
 20
-169.996
 11
34.3785
 21
-169.998
  0
LINE
  8
0
 10
34.3785
 20
-169.998
 11
34.3523
 21
-169.999
  0
LINE
  8
0
 10
34.3523
 20
-169.999
 11
34.3262
 21
-170
  0
LINE
  8
0
 10
34.3262
 20
-170
 11
34.3
 21
-170
  0
LINE
  8
0
 10
34.3
 20
-170
 11
34.2738
 21
-170
  0
LINE
  8
0
 10
102.874
 20
-170
 11
102.848
 21
-169.999
  0
LINE
  8
0
 10
102.848
 20
-169.999
 11
102.821
 21
-169.998
  0
LINE
  8
0
 10
102.821
 20
-169.998
 11
102.795
 21
-169.996
  0
LINE
  8
0
 10
102.795
 20
-169.996
 11
102.769
 21
-169.994
  0
LINE
  8
0
 10
102.769
 20
-169.994
 11
102.743
 21
-169.992
  0
LINE
  8
0
 10
102.743
 20
-169.992
 11
102.717
 21
-169.989
  0
LINE
  8
0
 10
102.717
 20
-169.989
 11
102.691
 21
-169.985
  0
LINE
  8
0
 10
102.691
 20
-169.985
 11
102.665
 21
-169.982
  0
LINE
  8
0
 10
102.665
 20
-169.982
 11
102.64
 21
-169.977
  0
LINE
  8
0
 10
102.64
 20
-169.977
 11
102.614
 21
-169.972
  0
LINE
  8
0
 10
102.614
 20
-169.972
 11
102.588
 21
-169.967
  0
LINE
  8
0
 10
102.588
 20
-169.967
 11
102.563
 21
-169.962
  0
LINE
  8
0
 10
102.563
 20
-169.962
 11
102.537
 21
-169.955
  0
LINE
  8
0
 10
102.537
 20
-169.955
 11
102.512
 21
-169.949
  0
LINE
  8
0
 10
102.512
 20
-169.949
 11
102.487
 21
-169.942
  0
LINE
  8
0
 10
102.487
 20
-169.942
 11
102.461
 21
-169.934
  0
LINE
  8
0
 10
102.461
 20
-169.934
 11
102.436
 21
-169.927
  0
LINE
  8
0
 10
102.436
 20
-169.927
 11
102.412
 21
-169.918
  0
LINE
  8
0
 10
102.412
 20
-169.918
 11
102.387
 21
-169.91
  0
LINE
  8
0
 10
102.387
 20
-169.91
 11
102.362
 21
-169.9
  0
LINE
  8
0
 10
102.362
 20
-169.9
 11
102.338
 21
-169.891
  0
LINE
  8
0
 10
102.338
 20
-169.891
 11
102.314
 21
-169.881
  0
LINE
  8
0
 10
102.314
 20
-169.881
 11
102.29
 21
-169.87
  0
LINE
  8
0
 10
102.29
 20
-169.87
 11
102.266
 21
-169.859
  0
LINE
  8
0
 10
102.266
 20
-169.859
 11
102.242
 21
-169.848
  0
LINE
  8
0
 10
102.242
 20
-169.848
 11
102.219
 21
-169.837
  0
LINE
  8
0
 10
102.219
 20
-169.837
 11
102.196
 21
-169.824
  0
LINE
  8
0
 10
102.196
 20
-169.824
 11
102.173
 21
-169.812
  0
LINE
  8
0
 10
102.173
 20
-169.812
 11
102.15
 21
-169.799
  0
LINE
  8
0
 10
102.15
 20
-169.799
 11
102.127
 21
-169.786
  0
LINE
  8
0
 10
102.127
 20
-169.786
 11
102.105
 21
-169.772
  0
LINE
  8
0
 10
102.105
 20
-169.772
 11
102.083
 21
-169.758
  0
LINE
  8
0
 10
102.083
 20
-169.758
 11
102.061
 21
-169.744
  0
LINE
  8
0
 10
102.061
 20
-169.744
 11
102.04
 21
-169.729
  0
LINE
  8
0
 10
102.04
 20
-169.729
 11
102.018
 21
-169.714
  0
LINE
  8
0
 10
102.018
 20
-169.714
 11
101.997
 21
-169.698
  0
LINE
  8
0
 10
101.997
 20
-169.698
 11
101.977
 21
-169.682
  0
LINE
  8
0
 10
101.977
 20
-169.682
 11
101.956
 21
-169.666
  0
LINE
  8
0
 10
101.956
 20
-169.666
 11
101.936
 21
-169.649
  0
LINE
  8
0
 10
101.936
 20
-169.649
 11
101.916
 21
-169.632
  0
LINE
  8
0
 10
101.916
 20
-169.632
 11
101.896
 21
-169.615
  0
LINE
  8
0
 10
101.896
 20
-169.615
 11
101.877
 21
-169.597
  0
LINE
  8
0
 10
101.877
 20
-169.597
 11
101.858
 21
-169.579
  0
LINE
  8
0
 10
101.858
 20
-169.579
 11
101.839
 21
-169.561
  0
LINE
  8
0
 10
101.839
 20
-169.561
 11
101.821
 21
-169.542
  0
LINE
  8
0
 10
101.821
 20
-169.542
 11
101.803
 21
-169.523
  0
LINE
  8
0
 10
101.803
 20
-169.523
 11
101.785
 21
-169.504
  0
LINE
  8
0
 10
101.785
 20
-169.504
 11
101.768
 21
-169.484
  0
LINE
  8
0
 10
101.768
 20
-169.484
 11
101.751
 21
-169.464
  0
LINE
  8
0
 10
101.751
 20
-169.464
 11
101.734
 21
-169.444
  0
LINE
  8
0
 10
101.734
 20
-169.444
 11
101.718
 21
-169.423
  0
LINE
  8
0
 10
101.718
 20
-169.423
 11
101.702
 21
-169.403
  0
LINE
  8
0
 10
101.702
 20
-169.403
 11
101.686
 21
-169.382
  0
LINE
  8
0
 10
101.686
 20
-169.382
 11
101.671
 21
-169.36
  0
LINE
  8
0
 10
101.671
 20
-169.36
 11
101.656
 21
-169.339
  0
LINE
  8
0
 10
101.656
 20
-169.339
 11
101.642
 21
-169.317
  0
LINE
  8
0
 10
101.642
 20
-169.317
 11
101.628
 21
-169.295
  0
LINE
  8
0
 10
101.628
 20
-169.295
 11
101.614
 21
-169.273
  0
LINE
  8
0
 10
101.614
 20
-169.273
 11
101.601
 21
-169.25
  0
LINE
  8
0
 10
101.601
 20
-169.25
 11
101.588
 21
-169.227
  0
LINE
  8
0
 10
101.588
 20
-169.227
 11
101.576
 21
-169.204
  0
LINE
  8
0
 10
101.576
 20
-169.204
 11
101.563
 21
-169.181
  0
LINE
  8
0
 10
101.563
 20
-169.181
 11
101.552
 21
-169.158
  0
LINE
  8
0
 10
101.552
 20
-169.158
 11
101.541
 21
-169.134
  0
LINE
  8
0
 10
101.541
 20
-169.134
 11
101.53
 21
-169.11
  0
LINE
  8
0
 10
101.53
 20
-169.11
 11
101.519
 21
-169.086
  0
LINE
  8
0
 10
101.519
 20
-169.086
 11
101.509
 21
-169.062
  0
LINE
  8
0
 10
101.509
 20
-169.062
 11
101.5
 21
-169.038
  0
LINE
  8
0
 10
101.5
 20
-169.038
 11
101.49
 21
-169.013
  0
LINE
  8
0
 10
101.49
 20
-169.013
 11
101.482
 21
-168.988
  0
LINE
  8
0
 10
101.482
 20
-168.988
 11
101.473
 21
-168.964
  0
LINE
  8
0
 10
101.473
 20
-168.964
 11
101.466
 21
-168.939
  0
LINE
  8
0
 10
101.466
 20
-168.939
 11
101.458
 21
-168.913
  0
LINE
  8
0
 10
101.458
 20
-168.913
 11
101.451
 21
-168.888
  0
LINE
  8
0
 10
101.451
 20
-168.888
 11
101.445
 21
-168.863
  0
LINE
  8
0
 10
101.445
 20
-168.863
 11
101.438
 21
-168.837
  0
LINE
  8
0
 10
101.438
 20
-168.837
 11
101.433
 21
-168.812
  0
LINE
  8
0
 10
101.433
 20
-168.812
 11
101.428
 21
-168.786
  0
LINE
  8
0
 10
101.428
 20
-168.786
 11
101.423
 21
-168.76
  0
LINE
  8
0
 10
101.423
 20
-168.76
 11
101.418
 21
-168.735
  0
LINE
  8
0
 10
101.418
 20
-168.735
 11
101.415
 21
-168.709
  0
LINE
  8
0
 10
101.415
 20
-168.709
 11
101.411
 21
-168.683
  0
LINE
  8
0
 10
101.411
 20
-168.683
 11
101.408
 21
-168.657
  0
LINE
  8
0
 10
101.408
 20
-168.657
 11
101.406
 21
-168.631
  0
LINE
  8
0
 10
101.406
 20
-168.631
 11
101.404
 21
-168.605
  0
LINE
  8
0
 10
101.404
 20
-168.605
 11
101.402
 21
-168.579
  0
LINE
  8
0
 10
101.402
 20
-168.579
 11
101.401
 21
-168.552
  0
LINE
  8
0
 10
101.401
 20
-168.552
 11
101.4
 21
-168.526
  0
LINE
  8
0
 10
101.4
 20
-168.526
 11
101.4
 21
-168.5
  0
LINE
  8
0
 10
101.4
 20
-168.5
 11
101.4
 21
-168.474
  0
LINE
  8
0
 10
101.4
 20
-168.474
 11
101.401
 21
-168.448
  0
LINE
  8
0
 10
101.401
 20
-168.448
 11
101.402
 21
-168.422
  0
LINE
  8
0
 10
101.402
 20
-168.422
 11
101.404
 21
-168.395
  0
LINE
  8
0
 10
101.404
 20
-168.395
 11
101.406
 21
-168.369
  0
LINE
  8
0
 10
101.406
 20
-168.369
 11
101.408
 21
-168.343
  0
LINE
  8
0
 10
101.408
 20
-168.343
 11
101.411
 21
-168.317
  0
LINE
  8
0
 10
101.411
 20
-168.317
 11
101.415
 21
-168.291
  0
LINE
  8
0
 10
101.415
 20
-168.291
 11
101.418
 21
-168.265
  0
LINE
  8
0
 10
101.418
 20
-168.265
 11
101.423
 21
-168.24
  0
LINE
  8
0
 10
101.423
 20
-168.24
 11
101.428
 21
-168.214
  0
LINE
  8
0
 10
101.428
 20
-168.214
 11
101.433
 21
-168.188
  0
LINE
  8
0
 10
101.433
 20
-168.188
 11
101.438
 21
-168.163
  0
LINE
  8
0
 10
101.438
 20
-168.163
 11
101.445
 21
-168.137
  0
LINE
  8
0
 10
101.445
 20
-168.137
 11
101.451
 21
-168.112
  0
LINE
  8
0
 10
101.451
 20
-168.112
 11
101.458
 21
-168.087
  0
LINE
  8
0
 10
101.458
 20
-168.087
 11
101.466
 21
-168.061
  0
LINE
  8
0
 10
101.466
 20
-168.061
 11
101.473
 21
-168.036
  0
LINE
  8
0
 10
101.473
 20
-168.036
 11
101.482
 21
-168.012
  0
LINE
  8
0
 10
101.482
 20
-168.012
 11
101.49
 21
-167.987
  0
LINE
  8
0
 10
101.49
 20
-167.987
 11
101.5
 21
-167.962
  0
LINE
  8
0
 10
101.5
 20
-167.962
 11
101.509
 21
-167.938
  0
LINE
  8
0
 10
101.509
 20
-167.938
 11
101.519
 21
-167.914
  0
LINE
  8
0
 10
101.519
 20
-167.914
 11
101.53
 21
-167.89
  0
LINE
  8
0
 10
101.53
 20
-167.89
 11
101.541
 21
-167.866
  0
LINE
  8
0
 10
101.541
 20
-167.866
 11
101.552
 21
-167.842
  0
LINE
  8
0
 10
101.552
 20
-167.842
 11
101.563
 21
-167.819
  0
LINE
  8
0
 10
101.563
 20
-167.819
 11
101.576
 21
-167.796
  0
LINE
  8
0
 10
101.576
 20
-167.796
 11
101.588
 21
-167.773
  0
LINE
  8
0
 10
101.588
 20
-167.773
 11
101.601
 21
-167.75
  0
LINE
  8
0
 10
101.601
 20
-167.75
 11
101.614
 21
-167.727
  0
LINE
  8
0
 10
101.614
 20
-167.727
 11
101.628
 21
-167.705
  0
LINE
  8
0
 10
101.628
 20
-167.705
 11
101.642
 21
-167.683
  0
LINE
  8
0
 10
101.642
 20
-167.683
 11
101.656
 21
-167.661
  0
LINE
  8
0
 10
101.656
 20
-167.661
 11
101.671
 21
-167.64
  0
LINE
  8
0
 10
101.671
 20
-167.64
 11
101.686
 21
-167.618
  0
LINE
  8
0
 10
101.686
 20
-167.618
 11
101.702
 21
-167.597
  0
LINE
  8
0
 10
101.702
 20
-167.597
 11
101.718
 21
-167.577
  0
LINE
  8
0
 10
101.718
 20
-167.577
 11
101.734
 21
-167.556
  0
LINE
  8
0
 10
101.734
 20
-167.556
 11
101.751
 21
-167.536
  0
LINE
  8
0
 10
101.751
 20
-167.536
 11
101.768
 21
-167.516
  0
LINE
  8
0
 10
101.768
 20
-167.516
 11
101.785
 21
-167.496
  0
LINE
  8
0
 10
101.785
 20
-167.496
 11
101.803
 21
-167.477
  0
LINE
  8
0
 10
101.803
 20
-167.477
 11
101.821
 21
-167.458
  0
LINE
  8
0
 10
101.821
 20
-167.458
 11
101.839
 21
-167.439
  0
LINE
  8
0
 10
101.839
 20
-167.439
 11
101.858
 21
-167.421
  0
LINE
  8
0
 10
101.858
 20
-167.421
 11
101.877
 21
-167.403
  0
LINE
  8
0
 10
101.877
 20
-167.403
 11
101.896
 21
-167.385
  0
LINE
  8
0
 10
101.896
 20
-167.385
 11
101.916
 21
-167.368
  0
LINE
  8
0
 10
101.916
 20
-167.368
 11
101.936
 21
-167.351
  0
LINE
  8
0
 10
101.936
 20
-167.351
 11
101.956
 21
-167.334
  0
LINE
  8
0
 10
101.956
 20
-167.334
 11
101.977
 21
-167.318
  0
LINE
  8
0
 10
101.977
 20
-167.318
 11
101.997
 21
-167.302
  0
LINE
  8
0
 10
101.997
 20
-167.302
 11
102.018
 21
-167.286
  0
LINE
  8
0
 10
102.018
 20
-167.286
 11
102.04
 21
-167.271
  0
LINE
  8
0
 10
102.04
 20
-167.271
 11
102.061
 21
-167.256
  0
LINE
  8
0
 10
102.061
 20
-167.256
 11
102.083
 21
-167.242
  0
LINE
  8
0
 10
102.083
 20
-167.242
 11
102.105
 21
-167.228
  0
LINE
  8
0
 10
102.105
 20
-167.228
 11
102.127
 21
-167.214
  0
LINE
  8
0
 10
102.127
 20
-167.214
 11
102.15
 21
-167.201
  0
LINE
  8
0
 10
102.15
 20
-167.201
 11
102.173
 21
-167.188
  0
LINE
  8
0
 10
102.173
 20
-167.188
 11
102.196
 21
-167.176
  0
LINE
  8
0
 10
102.196
 20
-167.176
 11
102.219
 21
-167.163
  0
LINE
  8
0
 10
102.219
 20
-167.163
 11
102.242
 21
-167.152
  0
LINE
  8
0
 10
102.242
 20
-167.152
 11
102.266
 21
-167.141
  0
LINE
  8
0
 10
102.266
 20
-167.141
 11
102.29
 21
-167.13
  0
LINE
  8
0
 10
102.29
 20
-167.13
 11
102.314
 21
-167.119
  0
LINE
  8
0
 10
102.314
 20
-167.119
 11
102.338
 21
-167.109
  0
LINE
  8
0
 10
102.338
 20
-167.109
 11
102.362
 21
-167.1
  0
LINE
  8
0
 10
102.362
 20
-167.1
 11
102.387
 21
-167.09
  0
LINE
  8
0
 10
102.387
 20
-167.09
 11
102.412
 21
-167.082
  0
LINE
  8
0
 10
102.412
 20
-167.082
 11
102.436
 21
-167.073
  0
LINE
  8
0
 10
102.436
 20
-167.073
 11
102.461
 21
-167.066
  0
LINE
  8
0
 10
102.461
 20
-167.066
 11
102.487
 21
-167.058
  0
LINE
  8
0
 10
102.487
 20
-167.058
 11
102.512
 21
-167.051
  0
LINE
  8
0
 10
102.512
 20
-167.051
 11
102.537
 21
-167.045
  0
LINE
  8
0
 10
102.537
 20
-167.045
 11
102.563
 21
-167.038
  0
LINE
  8
0
 10
102.563
 20
-167.038
 11
102.588
 21
-167.033
  0
LINE
  8
0
 10
102.588
 20
-167.033
 11
102.614
 21
-167.028
  0
LINE
  8
0
 10
102.614
 20
-167.028
 11
102.64
 21
-167.023
  0
LINE
  8
0
 10
102.64
 20
-167.023
 11
102.665
 21
-167.018
  0
LINE
  8
0
 10
102.665
 20
-167.018
 11
102.691
 21
-167.015
  0
LINE
  8
0
 10
102.691
 20
-167.015
 11
102.717
 21
-167.011
  0
LINE
  8
0
 10
102.717
 20
-167.011
 11
102.743
 21
-167.008
  0
LINE
  8
0
 10
102.743
 20
-167.008
 11
102.769
 21
-167.006
  0
LINE
  8
0
 10
102.769
 20
-167.006
 11
102.795
 21
-167.004
  0
LINE
  8
0
 10
102.795
 20
-167.004
 11
102.821
 21
-167.002
  0
LINE
  8
0
 10
102.821
 20
-167.002
 11
102.848
 21
-167.001
  0
LINE
  8
0
 10
102.848
 20
-167.001
 11
102.874
 21
-167
  0
LINE
  8
0
 10
102.874
 20
-167
 11
102.9
 21
-167
  0
LINE
  8
0
 10
102.9
 20
-167
 11
102.926
 21
-167
  0
LINE
  8
0
 10
102.926
 20
-167
 11
102.952
 21
-167.001
  0
LINE
  8
0
 10
102.952
 20
-167.001
 11
102.979
 21
-167.002
  0
LINE
  8
0
 10
102.979
 20
-167.002
 11
103.005
 21
-167.004
  0
LINE
  8
0
 10
103.005
 20
-167.004
 11
103.031
 21
-167.006
  0
LINE
  8
0
 10
103.031
 20
-167.006
 11
103.057
 21
-167.008
  0
LINE
  8
0
 10
103.057
 20
-167.008
 11
103.083
 21
-167.011
  0
LINE
  8
0
 10
103.083
 20
-167.011
 11
103.109
 21
-167.015
  0
LINE
  8
0
 10
103.109
 20
-167.015
 11
103.135
 21
-167.018
  0
LINE
  8
0
 10
103.135
 20
-167.018
 11
103.16
 21
-167.023
  0
LINE
  8
0
 10
103.16
 20
-167.023
 11
103.186
 21
-167.028
  0
LINE
  8
0
 10
103.186
 20
-167.028
 11
103.212
 21
-167.033
  0
LINE
  8
0
 10
103.212
 20
-167.033
 11
103.237
 21
-167.038
  0
LINE
  8
0
 10
103.237
 20
-167.038
 11
103.263
 21
-167.045
  0
LINE
  8
0
 10
103.263
 20
-167.045
 11
103.288
 21
-167.051
  0
LINE
  8
0
 10
103.288
 20
-167.051
 11
103.313
 21
-167.058
  0
LINE
  8
0
 10
103.313
 20
-167.058
 11
103.339
 21
-167.066
  0
LINE
  8
0
 10
103.339
 20
-167.066
 11
103.364
 21
-167.073
  0
LINE
  8
0
 10
103.364
 20
-167.073
 11
103.388
 21
-167.082
  0
LINE
  8
0
 10
103.388
 20
-167.082
 11
103.413
 21
-167.09
  0
LINE
  8
0
 10
103.413
 20
-167.09
 11
103.438
 21
-167.1
  0
LINE
  8
0
 10
103.438
 20
-167.1
 11
103.462
 21
-167.109
  0
LINE
  8
0
 10
103.462
 20
-167.109
 11
103.486
 21
-167.119
  0
LINE
  8
0
 10
103.486
 20
-167.119
 11
103.51
 21
-167.13
  0
LINE
  8
0
 10
103.51
 20
-167.13
 11
103.534
 21
-167.141
  0
LINE
  8
0
 10
103.534
 20
-167.141
 11
103.558
 21
-167.152
  0
LINE
  8
0
 10
103.558
 20
-167.152
 11
103.581
 21
-167.163
  0
LINE
  8
0
 10
103.581
 20
-167.163
 11
103.604
 21
-167.176
  0
LINE
  8
0
 10
103.604
 20
-167.176
 11
103.627
 21
-167.188
  0
LINE
  8
0
 10
103.627
 20
-167.188
 11
103.65
 21
-167.201
  0
LINE
  8
0
 10
103.65
 20
-167.201
 11
103.673
 21
-167.214
  0
LINE
  8
0
 10
103.673
 20
-167.214
 11
103.695
 21
-167.228
  0
LINE
  8
0
 10
103.695
 20
-167.228
 11
103.717
 21
-167.242
  0
LINE
  8
0
 10
103.717
 20
-167.242
 11
103.739
 21
-167.256
  0
LINE
  8
0
 10
103.739
 20
-167.256
 11
103.76
 21
-167.271
  0
LINE
  8
0
 10
103.76
 20
-167.271
 11
103.782
 21
-167.286
  0
LINE
  8
0
 10
103.782
 20
-167.286
 11
103.803
 21
-167.302
  0
LINE
  8
0
 10
103.803
 20
-167.302
 11
103.823
 21
-167.318
  0
LINE
  8
0
 10
103.823
 20
-167.318
 11
103.844
 21
-167.334
  0
LINE
  8
0
 10
103.844
 20
-167.334
 11
103.864
 21
-167.351
  0
LINE
  8
0
 10
103.864
 20
-167.351
 11
103.884
 21
-167.368
  0
LINE
  8
0
 10
103.884
 20
-167.368
 11
103.904
 21
-167.385
  0
LINE
  8
0
 10
103.904
 20
-167.385
 11
103.923
 21
-167.403
  0
LINE
  8
0
 10
103.923
 20
-167.403
 11
103.942
 21
-167.421
  0
LINE
  8
0
 10
103.942
 20
-167.421
 11
103.961
 21
-167.439
  0
LINE
  8
0
 10
103.961
 20
-167.439
 11
103.979
 21
-167.458
  0
LINE
  8
0
 10
103.979
 20
-167.458
 11
103.997
 21
-167.477
  0
LINE
  8
0
 10
103.997
 20
-167.477
 11
104.015
 21
-167.496
  0
LINE
  8
0
 10
104.015
 20
-167.496
 11
104.032
 21
-167.516
  0
LINE
  8
0
 10
104.032
 20
-167.516
 11
104.049
 21
-167.536
  0
LINE
  8
0
 10
104.049
 20
-167.536
 11
104.066
 21
-167.556
  0
LINE
  8
0
 10
104.066
 20
-167.556
 11
104.082
 21
-167.577
  0
LINE
  8
0
 10
104.082
 20
-167.577
 11
104.098
 21
-167.597
  0
LINE
  8
0
 10
104.098
 20
-167.597
 11
104.114
 21
-167.618
  0
LINE
  8
0
 10
104.114
 20
-167.618
 11
104.129
 21
-167.64
  0
LINE
  8
0
 10
104.129
 20
-167.64
 11
104.144
 21
-167.661
  0
LINE
  8
0
 10
104.144
 20
-167.661
 11
104.158
 21
-167.683
  0
LINE
  8
0
 10
104.158
 20
-167.683
 11
104.172
 21
-167.705
  0
LINE
  8
0
 10
104.172
 20
-167.705
 11
104.186
 21
-167.727
  0
LINE
  8
0
 10
104.186
 20
-167.727
 11
104.199
 21
-167.75
  0
LINE
  8
0
 10
104.199
 20
-167.75
 11
104.212
 21
-167.773
  0
LINE
  8
0
 10
104.212
 20
-167.773
 11
104.224
 21
-167.796
  0
LINE
  8
0
 10
104.224
 20
-167.796
 11
104.236
 21
-167.819
  0
LINE
  8
0
 10
104.236
 20
-167.819
 11
104.248
 21
-167.842
  0
LINE
  8
0
 10
104.248
 20
-167.842
 11
104.259
 21
-167.866
  0
LINE
  8
0
 10
104.259
 20
-167.866
 11
104.27
 21
-167.89
  0
LINE
  8
0
 10
104.27
 20
-167.89
 11
104.281
 21
-167.914
  0
LINE
  8
0
 10
104.281
 20
-167.914
 11
104.291
 21
-167.938
  0
LINE
  8
0
 10
104.291
 20
-167.938
 11
104.3
 21
-167.962
  0
LINE
  8
0
 10
104.3
 20
-167.962
 11
104.31
 21
-167.987
  0
LINE
  8
0
 10
104.31
 20
-167.987
 11
104.318
 21
-168.012
  0
LINE
  8
0
 10
104.318
 20
-168.012
 11
104.327
 21
-168.036
  0
LINE
  8
0
 10
104.327
 20
-168.036
 11
104.334
 21
-168.061
  0
LINE
  8
0
 10
104.334
 20
-168.061
 11
104.342
 21
-168.087
  0
LINE
  8
0
 10
104.342
 20
-168.087
 11
104.349
 21
-168.112
  0
LINE
  8
0
 10
104.349
 20
-168.112
 11
104.355
 21
-168.137
  0
LINE
  8
0
 10
104.355
 20
-168.137
 11
104.362
 21
-168.163
  0
LINE
  8
0
 10
104.362
 20
-168.163
 11
104.367
 21
-168.188
  0
LINE
  8
0
 10
104.367
 20
-168.188
 11
104.372
 21
-168.214
  0
LINE
  8
0
 10
104.372
 20
-168.214
 11
104.377
 21
-168.24
  0
LINE
  8
0
 10
104.377
 20
-168.24
 11
104.382
 21
-168.265
  0
LINE
  8
0
 10
104.382
 20
-168.265
 11
104.385
 21
-168.291
  0
LINE
  8
0
 10
104.385
 20
-168.291
 11
104.389
 21
-168.317
  0
LINE
  8
0
 10
104.389
 20
-168.317
 11
104.392
 21
-168.343
  0
LINE
  8
0
 10
104.392
 20
-168.343
 11
104.394
 21
-168.369
  0
LINE
  8
0
 10
104.394
 20
-168.369
 11
104.396
 21
-168.395
  0
LINE
  8
0
 10
104.396
 20
-168.395
 11
104.398
 21
-168.422
  0
LINE
  8
0
 10
104.398
 20
-168.422
 11
104.399
 21
-168.448
  0
LINE
  8
0
 10
104.399
 20
-168.448
 11
104.4
 21
-168.474
  0
LINE
  8
0
 10
104.4
 20
-168.474
 11
104.4
 21
-168.5
  0
LINE
  8
0
 10
104.4
 20
-168.5
 11
104.4
 21
-168.526
  0
LINE
  8
0
 10
104.4
 20
-168.526
 11
104.399
 21
-168.552
  0
LINE
  8
0
 10
104.399
 20
-168.552
 11
104.398
 21
-168.579
  0
LINE
  8
0
 10
104.398
 20
-168.579
 11
104.396
 21
-168.605
  0
LINE
  8
0
 10
104.396
 20
-168.605
 11
104.394
 21
-168.631
  0
LINE
  8
0
 10
104.394
 20
-168.631
 11
104.392
 21
-168.657
  0
LINE
  8
0
 10
104.392
 20
-168.657
 11
104.389
 21
-168.683
  0
LINE
  8
0
 10
104.389
 20
-168.683
 11
104.385
 21
-168.709
  0
LINE
  8
0
 10
104.385
 20
-168.709
 11
104.382
 21
-168.735
  0
LINE
  8
0
 10
104.382
 20
-168.735
 11
104.377
 21
-168.76
  0
LINE
  8
0
 10
104.377
 20
-168.76
 11
104.372
 21
-168.786
  0
LINE
  8
0
 10
104.372
 20
-168.786
 11
104.367
 21
-168.812
  0
LINE
  8
0
 10
104.367
 20
-168.812
 11
104.362
 21
-168.837
  0
LINE
  8
0
 10
104.362
 20
-168.837
 11
104.355
 21
-168.863
  0
LINE
  8
0
 10
104.355
 20
-168.863
 11
104.349
 21
-168.888
  0
LINE
  8
0
 10
104.349
 20
-168.888
 11
104.342
 21
-168.913
  0
LINE
  8
0
 10
104.342
 20
-168.913
 11
104.334
 21
-168.939
  0
LINE
  8
0
 10
104.334
 20
-168.939
 11
104.327
 21
-168.964
  0
LINE
  8
0
 10
104.327
 20
-168.964
 11
104.318
 21
-168.988
  0
LINE
  8
0
 10
104.318
 20
-168.988
 11
104.31
 21
-169.013
  0
LINE
  8
0
 10
104.31
 20
-169.013
 11
104.3
 21
-169.038
  0
LINE
  8
0
 10
104.3
 20
-169.038
 11
104.291
 21
-169.062
  0
LINE
  8
0
 10
104.291
 20
-169.062
 11
104.281
 21
-169.086
  0
LINE
  8
0
 10
104.281
 20
-169.086
 11
104.27
 21
-169.11
  0
LINE
  8
0
 10
104.27
 20
-169.11
 11
104.259
 21
-169.134
  0
LINE
  8
0
 10
104.259
 20
-169.134
 11
104.248
 21
-169.158
  0
LINE
  8
0
 10
104.248
 20
-169.158
 11
104.236
 21
-169.181
  0
LINE
  8
0
 10
104.236
 20
-169.181
 11
104.224
 21
-169.204
  0
LINE
  8
0
 10
104.224
 20
-169.204
 11
104.212
 21
-169.227
  0
LINE
  8
0
 10
104.212
 20
-169.227
 11
104.199
 21
-169.25
  0
LINE
  8
0
 10
104.199
 20
-169.25
 11
104.186
 21
-169.273
  0
LINE
  8
0
 10
104.186
 20
-169.273
 11
104.172
 21
-169.295
  0
LINE
  8
0
 10
104.172
 20
-169.295
 11
104.158
 21
-169.317
  0
LINE
  8
0
 10
104.158
 20
-169.317
 11
104.144
 21
-169.339
  0
LINE
  8
0
 10
104.144
 20
-169.339
 11
104.129
 21
-169.36
  0
LINE
  8
0
 10
104.129
 20
-169.36
 11
104.114
 21
-169.382
  0
LINE
  8
0
 10
104.114
 20
-169.382
 11
104.098
 21
-169.403
  0
LINE
  8
0
 10
104.098
 20
-169.403
 11
104.082
 21
-169.423
  0
LINE
  8
0
 10
104.082
 20
-169.423
 11
104.066
 21
-169.444
  0
LINE
  8
0
 10
104.066
 20
-169.444
 11
104.049
 21
-169.464
  0
LINE
  8
0
 10
104.049
 20
-169.464
 11
104.032
 21
-169.484
  0
LINE
  8
0
 10
104.032
 20
-169.484
 11
104.015
 21
-169.504
  0
LINE
  8
0
 10
104.015
 20
-169.504
 11
103.997
 21
-169.523
  0
LINE
  8
0
 10
103.997
 20
-169.523
 11
103.979
 21
-169.542
  0
LINE
  8
0
 10
103.979
 20
-169.542
 11
103.961
 21
-169.561
  0
LINE
  8
0
 10
103.961
 20
-169.561
 11
103.942
 21
-169.579
  0
LINE
  8
0
 10
103.942
 20
-169.579
 11
103.923
 21
-169.597
  0
LINE
  8
0
 10
103.923
 20
-169.597
 11
103.904
 21
-169.615
  0
LINE
  8
0
 10
103.904
 20
-169.615
 11
103.884
 21
-169.632
  0
LINE
  8
0
 10
103.884
 20
-169.632
 11
103.864
 21
-169.649
  0
LINE
  8
0
 10
103.864
 20
-169.649
 11
103.844
 21
-169.666
  0
LINE
  8
0
 10
103.844
 20
-169.666
 11
103.823
 21
-169.682
  0
LINE
  8
0
 10
103.823
 20
-169.682
 11
103.803
 21
-169.698
  0
LINE
  8
0
 10
103.803
 20
-169.698
 11
103.782
 21
-169.714
  0
LINE
  8
0
 10
103.782
 20
-169.714
 11
103.76
 21
-169.729
  0
LINE
  8
0
 10
103.76
 20
-169.729
 11
103.739
 21
-169.744
  0
LINE
  8
0
 10
103.739
 20
-169.744
 11
103.717
 21
-169.758
  0
LINE
  8
0
 10
103.717
 20
-169.758
 11
103.695
 21
-169.772
  0
LINE
  8
0
 10
103.695
 20
-169.772
 11
103.673
 21
-169.786
  0
LINE
  8
0
 10
103.673
 20
-169.786
 11
103.65
 21
-169.799
  0
LINE
  8
0
 10
103.65
 20
-169.799
 11
103.627
 21
-169.812
  0
LINE
  8
0
 10
103.627
 20
-169.812
 11
103.604
 21
-169.824
  0
LINE
  8
0
 10
103.604
 20
-169.824
 11
103.581
 21
-169.837
  0
LINE
  8
0
 10
103.581
 20
-169.837
 11
103.558
 21
-169.848
  0
LINE
  8
0
 10
103.558
 20
-169.848
 11
103.534
 21
-169.859
  0
LINE
  8
0
 10
103.534
 20
-169.859
 11
103.51
 21
-169.87
  0
LINE
  8
0
 10
103.51
 20
-169.87
 11
103.486
 21
-169.881
  0
LINE
  8
0
 10
103.486
 20
-169.881
 11
103.462
 21
-169.891
  0
LINE
  8
0
 10
103.462
 20
-169.891
 11
103.438
 21
-169.9
  0
LINE
  8
0
 10
103.438
 20
-169.9
 11
103.413
 21
-169.91
  0
LINE
  8
0
 10
103.413
 20
-169.91
 11
103.388
 21
-169.918
  0
LINE
  8
0
 10
103.388
 20
-169.918
 11
103.364
 21
-169.927
  0
LINE
  8
0
 10
103.364
 20
-169.927
 11
103.339
 21
-169.934
  0
LINE
  8
0
 10
103.339
 20
-169.934
 11
103.313
 21
-169.942
  0
LINE
  8
0
 10
103.313
 20
-169.942
 11
103.288
 21
-169.949
  0
LINE
  8
0
 10
103.288
 20
-169.949
 11
103.263
 21
-169.955
  0
LINE
  8
0
 10
103.263
 20
-169.955
 11
103.237
 21
-169.962
  0
LINE
  8
0
 10
103.237
 20
-169.962
 11
103.212
 21
-169.967
  0
LINE
  8
0
 10
103.212
 20
-169.967
 11
103.186
 21
-169.972
  0
LINE
  8
0
 10
103.186
 20
-169.972
 11
103.16
 21
-169.977
  0
LINE
  8
0
 10
103.16
 20
-169.977
 11
103.135
 21
-169.982
  0
LINE
  8
0
 10
103.135
 20
-169.982
 11
103.109
 21
-169.985
  0
LINE
  8
0
 10
103.109
 20
-169.985
 11
103.083
 21
-169.989
  0
LINE
  8
0
 10
103.083
 20
-169.989
 11
103.057
 21
-169.992
  0
LINE
  8
0
 10
103.057
 20
-169.992
 11
103.031
 21
-169.994
  0
LINE
  8
0
 10
103.031
 20
-169.994
 11
103.005
 21
-169.996
  0
LINE
  8
0
 10
103.005
 20
-169.996
 11
102.979
 21
-169.998
  0
LINE
  8
0
 10
102.979
 20
-169.998
 11
102.952
 21
-169.999
  0
LINE
  8
0
 10
102.952
 20
-169.999
 11
102.926
 21
-170
  0
LINE
  8
0
 10
102.926
 20
-170
 11
102.9
 21
-170
  0
LINE
  8
0
 10
102.9
 20
-170
 11
102.874
 21
-170
  0
LINE
  8
0
 10
-102.926
 20
-170
 11
-102.952
 21
-169.999
  0
LINE
  8
0
 10
-102.952
 20
-169.999
 11
-102.979
 21
-169.998
  0
LINE
  8
0
 10
-102.979
 20
-169.998
 11
-103.005
 21
-169.996
  0
LINE
  8
0
 10
-103.005
 20
-169.996
 11
-103.031
 21
-169.994
  0
LINE
  8
0
 10
-103.031
 20
-169.994
 11
-103.057
 21
-169.992
  0
LINE
  8
0
 10
-103.057
 20
-169.992
 11
-103.083
 21
-169.989
  0
LINE
  8
0
 10
-103.083
 20
-169.989
 11
-103.109
 21
-169.985
  0
LINE
  8
0
 10
-103.109
 20
-169.985
 11
-103.135
 21
-169.982
  0
LINE
  8
0
 10
-103.135
 20
-169.982
 11
-103.16
 21
-169.977
  0
LINE
  8
0
 10
-103.16
 20
-169.977
 11
-103.186
 21
-169.972
  0
LINE
  8
0
 10
-103.186
 20
-169.972
 11
-103.212
 21
-169.967
  0
LINE
  8
0
 10
-103.212
 20
-169.967
 11
-103.237
 21
-169.962
  0
LINE
  8
0
 10
-103.237
 20
-169.962
 11
-103.263
 21
-169.955
  0
LINE
  8
0
 10
-103.263
 20
-169.955
 11
-103.288
 21
-169.949
  0
LINE
  8
0
 10
-103.288
 20
-169.949
 11
-103.313
 21
-169.942
  0
LINE
  8
0
 10
-103.313
 20
-169.942
 11
-103.339
 21
-169.934
  0
LINE
  8
0
 10
-103.339
 20
-169.934
 11
-103.364
 21
-169.927
  0
LINE
  8
0
 10
-103.364
 20
-169.927
 11
-103.388
 21
-169.918
  0
LINE
  8
0
 10
-103.388
 20
-169.918
 11
-103.413
 21
-169.91
  0
LINE
  8
0
 10
-103.413
 20
-169.91
 11
-103.438
 21
-169.9
  0
LINE
  8
0
 10
-103.438
 20
-169.9
 11
-103.462
 21
-169.891
  0
LINE
  8
0
 10
-103.462
 20
-169.891
 11
-103.486
 21
-169.881
  0
LINE
  8
0
 10
-103.486
 20
-169.881
 11
-103.51
 21
-169.87
  0
LINE
  8
0
 10
-103.51
 20
-169.87
 11
-103.534
 21
-169.859
  0
LINE
  8
0
 10
-103.534
 20
-169.859
 11
-103.558
 21
-169.848
  0
LINE
  8
0
 10
-103.558
 20
-169.848
 11
-103.581
 21
-169.837
  0
LINE
  8
0
 10
-103.581
 20
-169.837
 11
-103.604
 21
-169.824
  0
LINE
  8
0
 10
-103.604
 20
-169.824
 11
-103.627
 21
-169.812
  0
LINE
  8
0
 10
-103.627
 20
-169.812
 11
-103.65
 21
-169.799
  0
LINE
  8
0
 10
-103.65
 20
-169.799
 11
-103.673
 21
-169.786
  0
LINE
  8
0
 10
-103.673
 20
-169.786
 11
-103.695
 21
-169.772
  0
LINE
  8
0
 10
-103.695
 20
-169.772
 11
-103.717
 21
-169.758
  0
LINE
  8
0
 10
-103.717
 20
-169.758
 11
-103.739
 21
-169.744
  0
LINE
  8
0
 10
-103.739
 20
-169.744
 11
-103.76
 21
-169.729
  0
LINE
  8
0
 10
-103.76
 20
-169.729
 11
-103.782
 21
-169.714
  0
LINE
  8
0
 10
-103.782
 20
-169.714
 11
-103.803
 21
-169.698
  0
LINE
  8
0
 10
-103.803
 20
-169.698
 11
-103.824
 21
-169.682
  0
LINE
  8
0
 10
-103.824
 20
-169.682
 11
-103.844
 21
-169.666
  0
LINE
  8
0
 10
-103.844
 20
-169.666
 11
-103.864
 21
-169.649
  0
LINE
  8
0
 10
-103.864
 20
-169.649
 11
-103.884
 21
-169.632
  0
LINE
  8
0
 10
-103.884
 20
-169.632
 11
-103.904
 21
-169.615
  0
LINE
  8
0
 10
-103.904
 20
-169.615
 11
-103.923
 21
-169.597
  0
LINE
  8
0
 10
-103.923
 20
-169.597
 11
-103.942
 21
-169.579
  0
LINE
  8
0
 10
-103.942
 20
-169.579
 11
-103.961
 21
-169.561
  0
LINE
  8
0
 10
-103.961
 20
-169.561
 11
-103.979
 21
-169.542
  0
LINE
  8
0
 10
-103.979
 20
-169.542
 11
-103.997
 21
-169.523
  0
LINE
  8
0
 10
-103.997
 20
-169.523
 11
-104.015
 21
-169.504
  0
LINE
  8
0
 10
-104.015
 20
-169.504
 11
-104.032
 21
-169.484
  0
LINE
  8
0
 10
-104.032
 20
-169.484
 11
-104.049
 21
-169.464
  0
LINE
  8
0
 10
-104.049
 20
-169.464
 11
-104.066
 21
-169.444
  0
LINE
  8
0
 10
-104.066
 20
-169.444
 11
-104.082
 21
-169.423
  0
LINE
  8
0
 10
-104.082
 20
-169.423
 11
-104.098
 21
-169.403
  0
LINE
  8
0
 10
-104.098
 20
-169.403
 11
-104.114
 21
-169.382
  0
LINE
  8
0
 10
-104.114
 20
-169.382
 11
-104.129
 21
-169.36
  0
LINE
  8
0
 10
-104.129
 20
-169.36
 11
-104.144
 21
-169.339
  0
LINE
  8
0
 10
-104.144
 20
-169.339
 11
-104.158
 21
-169.317
  0
LINE
  8
0
 10
-104.158
 20
-169.317
 11
-104.172
 21
-169.295
  0
LINE
  8
0
 10
-104.172
 20
-169.295
 11
-104.186
 21
-169.273
  0
LINE
  8
0
 10
-104.186
 20
-169.273
 11
-104.199
 21
-169.25
  0
LINE
  8
0
 10
-104.199
 20
-169.25
 11
-104.212
 21
-169.227
  0
LINE
  8
0
 10
-104.212
 20
-169.227
 11
-104.224
 21
-169.204
  0
LINE
  8
0
 10
-104.224
 20
-169.204
 11
-104.237
 21
-169.181
  0
LINE
  8
0
 10
-104.237
 20
-169.181
 11
-104.248
 21
-169.158
  0
LINE
  8
0
 10
-104.248
 20
-169.158
 11
-104.259
 21
-169.134
  0
LINE
  8
0
 10
-104.259
 20
-169.134
 11
-104.27
 21
-169.11
  0
LINE
  8
0
 10
-104.27
 20
-169.11
 11
-104.281
 21
-169.086
  0
LINE
  8
0
 10
-104.281
 20
-169.086
 11
-104.291
 21
-169.062
  0
LINE
  8
0
 10
-104.291
 20
-169.062
 11
-104.3
 21
-169.038
  0
LINE
  8
0
 10
-104.3
 20
-169.038
 11
-104.31
 21
-169.013
  0
LINE
  8
0
 10
-104.31
 20
-169.013
 11
-104.318
 21
-168.988
  0
LINE
  8
0
 10
-104.318
 20
-168.988
 11
-104.327
 21
-168.964
  0
LINE
  8
0
 10
-104.327
 20
-168.964
 11
-104.334
 21
-168.939
  0
LINE
  8
0
 10
-104.334
 20
-168.939
 11
-104.342
 21
-168.913
  0
LINE
  8
0
 10
-104.342
 20
-168.913
 11
-104.349
 21
-168.888
  0
LINE
  8
0
 10
-104.349
 20
-168.888
 11
-104.355
 21
-168.863
  0
LINE
  8
0
 10
-104.355
 20
-168.863
 11
-104.362
 21
-168.837
  0
LINE
  8
0
 10
-104.362
 20
-168.837
 11
-104.367
 21
-168.812
  0
LINE
  8
0
 10
-104.367
 20
-168.812
 11
-104.372
 21
-168.786
  0
LINE
  8
0
 10
-104.372
 20
-168.786
 11
-104.377
 21
-168.76
  0
LINE
  8
0
 10
-104.377
 20
-168.76
 11
-104.382
 21
-168.735
  0
LINE
  8
0
 10
-104.382
 20
-168.735
 11
-104.385
 21
-168.709
  0
LINE
  8
0
 10
-104.385
 20
-168.709
 11
-104.389
 21
-168.683
  0
LINE
  8
0
 10
-104.389
 20
-168.683
 11
-104.392
 21
-168.657
  0
LINE
  8
0
 10
-104.392
 20
-168.657
 11
-104.394
 21
-168.631
  0
LINE
  8
0
 10
-104.394
 20
-168.631
 11
-104.396
 21
-168.605
  0
LINE
  8
0
 10
-104.396
 20
-168.605
 11
-104.398
 21
-168.579
  0
LINE
  8
0
 10
-104.398
 20
-168.579
 11
-104.399
 21
-168.552
  0
LINE
  8
0
 10
-104.399
 20
-168.552
 11
-104.4
 21
-168.526
  0
LINE
  8
0
 10
-104.4
 20
-168.526
 11
-104.4
 21
-168.5
  0
LINE
  8
0
 10
-104.4
 20
-168.5
 11
-104.4
 21
-168.474
  0
LINE
  8
0
 10
-104.4
 20
-168.474
 11
-104.399
 21
-168.448
  0
LINE
  8
0
 10
-104.399
 20
-168.448
 11
-104.398
 21
-168.422
  0
LINE
  8
0
 10
-104.398
 20
-168.422
 11
-104.396
 21
-168.395
  0
LINE
  8
0
 10
-104.396
 20
-168.395
 11
-104.394
 21
-168.369
  0
LINE
  8
0
 10
-104.394
 20
-168.369
 11
-104.392
 21
-168.343
  0
LINE
  8
0
 10
-104.392
 20
-168.343
 11
-104.389
 21
-168.317
  0
LINE
  8
0
 10
-104.389
 20
-168.317
 11
-104.385
 21
-168.291
  0
LINE
  8
0
 10
-104.385
 20
-168.291
 11
-104.382
 21
-168.265
  0
LINE
  8
0
 10
-104.382
 20
-168.265
 11
-104.377
 21
-168.24
  0
LINE
  8
0
 10
-104.377
 20
-168.24
 11
-104.372
 21
-168.214
  0
LINE
  8
0
 10
-104.372
 20
-168.214
 11
-104.367
 21
-168.188
  0
LINE
  8
0
 10
-104.367
 20
-168.188
 11
-104.362
 21
-168.163
  0
LINE
  8
0
 10
-104.362
 20
-168.163
 11
-104.355
 21
-168.137
  0
LINE
  8
0
 10
-104.355
 20
-168.137
 11
-104.349
 21
-168.112
  0
LINE
  8
0
 10
-104.349
 20
-168.112
 11
-104.342
 21
-168.087
  0
LINE
  8
0
 10
-104.342
 20
-168.087
 11
-104.334
 21
-168.061
  0
LINE
  8
0
 10
-104.334
 20
-168.061
 11
-104.327
 21
-168.036
  0
LINE
  8
0
 10
-104.327
 20
-168.036
 11
-104.318
 21
-168.012
  0
LINE
  8
0
 10
-104.318
 20
-168.012
 11
-104.31
 21
-167.987
  0
LINE
  8
0
 10
-104.31
 20
-167.987
 11
-104.3
 21
-167.962
  0
LINE
  8
0
 10
-104.3
 20
-167.962
 11
-104.291
 21
-167.938
  0
LINE
  8
0
 10
-104.291
 20
-167.938
 11
-104.281
 21
-167.914
  0
LINE
  8
0
 10
-104.281
 20
-167.914
 11
-104.27
 21
-167.89
  0
LINE
  8
0
 10
-104.27
 20
-167.89
 11
-104.259
 21
-167.866
  0
LINE
  8
0
 10
-104.259
 20
-167.866
 11
-104.248
 21
-167.842
  0
LINE
  8
0
 10
-104.248
 20
-167.842
 11
-104.237
 21
-167.819
  0
LINE
  8
0
 10
-104.237
 20
-167.819
 11
-104.224
 21
-167.796
  0
LINE
  8
0
 10
-104.224
 20
-167.796
 11
-104.212
 21
-167.773
  0
LINE
  8
0
 10
-104.212
 20
-167.773
 11
-104.199
 21
-167.75
  0
LINE
  8
0
 10
-104.199
 20
-167.75
 11
-104.186
 21
-167.727
  0
LINE
  8
0
 10
-104.186
 20
-167.727
 11
-104.172
 21
-167.705
  0
LINE
  8
0
 10
-104.172
 20
-167.705
 11
-104.158
 21
-167.683
  0
LINE
  8
0
 10
-104.158
 20
-167.683
 11
-104.144
 21
-167.661
  0
LINE
  8
0
 10
-104.144
 20
-167.661
 11
-104.129
 21
-167.64
  0
LINE
  8
0
 10
-104.129
 20
-167.64
 11
-104.114
 21
-167.618
  0
LINE
  8
0
 10
-104.114
 20
-167.618
 11
-104.098
 21
-167.597
  0
LINE
  8
0
 10
-104.098
 20
-167.597
 11
-104.082
 21
-167.577
  0
LINE
  8
0
 10
-104.082
 20
-167.577
 11
-104.066
 21
-167.556
  0
LINE
  8
0
 10
-104.066
 20
-167.556
 11
-104.049
 21
-167.536
  0
LINE
  8
0
 10
-104.049
 20
-167.536
 11
-104.032
 21
-167.516
  0
LINE
  8
0
 10
-104.032
 20
-167.516
 11
-104.015
 21
-167.496
  0
LINE
  8
0
 10
-104.015
 20
-167.496
 11
-103.997
 21
-167.477
  0
LINE
  8
0
 10
-103.997
 20
-167.477
 11
-103.979
 21
-167.458
  0
LINE
  8
0
 10
-103.979
 20
-167.458
 11
-103.961
 21
-167.439
  0
LINE
  8
0
 10
-103.961
 20
-167.439
 11
-103.942
 21
-167.421
  0
LINE
  8
0
 10
-103.942
 20
-167.421
 11
-103.923
 21
-167.403
  0
LINE
  8
0
 10
-103.923
 20
-167.403
 11
-103.904
 21
-167.385
  0
LINE
  8
0
 10
-103.904
 20
-167.385
 11
-103.884
 21
-167.368
  0
LINE
  8
0
 10
-103.884
 20
-167.368
 11
-103.864
 21
-167.351
  0
LINE
  8
0
 10
-103.864
 20
-167.351
 11
-103.844
 21
-167.334
  0
LINE
  8
0
 10
-103.844
 20
-167.334
 11
-103.824
 21
-167.318
  0
LINE
  8
0
 10
-103.824
 20
-167.318
 11
-103.803
 21
-167.302
  0
LINE
  8
0
 10
-103.803
 20
-167.302
 11
-103.782
 21
-167.286
  0
LINE
  8
0
 10
-103.782
 20
-167.286
 11
-103.76
 21
-167.271
  0
LINE
  8
0
 10
-103.76
 20
-167.271
 11
-103.739
 21
-167.256
  0
LINE
  8
0
 10
-103.739
 20
-167.256
 11
-103.717
 21
-167.242
  0
LINE
  8
0
 10
-103.717
 20
-167.242
 11
-103.695
 21
-167.228
  0
LINE
  8
0
 10
-103.695
 20
-167.228
 11
-103.673
 21
-167.214
  0
LINE
  8
0
 10
-103.673
 20
-167.214
 11
-103.65
 21
-167.201
  0
LINE
  8
0
 10
-103.65
 20
-167.201
 11
-103.627
 21
-167.188
  0
LINE
  8
0
 10
-103.627
 20
-167.188
 11
-103.604
 21
-167.176
  0
LINE
  8
0
 10
-103.604
 20
-167.176
 11
-103.581
 21
-167.163
  0
LINE
  8
0
 10
-103.581
 20
-167.163
 11
-103.558
 21
-167.152
  0
LINE
  8
0
 10
-103.558
 20
-167.152
 11
-103.534
 21
-167.141
  0
LINE
  8
0
 10
-103.534
 20
-167.141
 11
-103.51
 21
-167.13
  0
LINE
  8
0
 10
-103.51
 20
-167.13
 11
-103.486
 21
-167.119
  0
LINE
  8
0
 10
-103.486
 20
-167.119
 11
-103.462
 21
-167.109
  0
LINE
  8
0
 10
-103.462
 20
-167.109
 11
-103.438
 21
-167.1
  0
LINE
  8
0
 10
-103.438
 20
-167.1
 11
-103.413
 21
-167.09
  0
LINE
  8
0
 10
-103.413
 20
-167.09
 11
-103.388
 21
-167.082
  0
LINE
  8
0
 10
-103.388
 20
-167.082
 11
-103.364
 21
-167.073
  0
LINE
  8
0
 10
-103.364
 20
-167.073
 11
-103.339
 21
-167.066
  0
LINE
  8
0
 10
-103.339
 20
-167.066
 11
-103.313
 21
-167.058
  0
LINE
  8
0
 10
-103.313
 20
-167.058
 11
-103.288
 21
-167.051
  0
LINE
  8
0
 10
-103.288
 20
-167.051
 11
-103.263
 21
-167.045
  0
LINE
  8
0
 10
-103.263
 20
-167.045
 11
-103.237
 21
-167.038
  0
LINE
  8
0
 10
-103.237
 20
-167.038
 11
-103.212
 21
-167.033
  0
LINE
  8
0
 10
-103.212
 20
-167.033
 11
-103.186
 21
-167.028
  0
LINE
  8
0
 10
-103.186
 20
-167.028
 11
-103.16
 21
-167.023
  0
LINE
  8
0
 10
-103.16
 20
-167.023
 11
-103.135
 21
-167.018
  0
LINE
  8
0
 10
-103.135
 20
-167.018
 11
-103.109
 21
-167.015
  0
LINE
  8
0
 10
-103.109
 20
-167.015
 11
-103.083
 21
-167.011
  0
LINE
  8
0
 10
-103.083
 20
-167.011
 11
-103.057
 21
-167.008
  0
LINE
  8
0
 10
-103.057
 20
-167.008
 11
-103.031
 21
-167.006
  0
LINE
  8
0
 10
-103.031
 20
-167.006
 11
-103.005
 21
-167.004
  0
LINE
  8
0
 10
-103.005
 20
-167.004
 11
-102.979
 21
-167.002
  0
LINE
  8
0
 10
-102.979
 20
-167.002
 11
-102.952
 21
-167.001
  0
LINE
  8
0
 10
-102.952
 20
-167.001
 11
-102.926
 21
-167
  0
LINE
  8
0
 10
-102.926
 20
-167
 11
-102.9
 21
-167
  0
LINE
  8
0
 10
-102.9
 20
-167
 11
-102.874
 21
-167
  0
LINE
  8
0
 10
-102.874
 20
-167
 11
-102.848
 21
-167.001
  0
LINE
  8
0
 10
-102.848
 20
-167.001
 11
-102.822
 21
-167.002
  0
LINE
  8
0
 10
-102.822
 20
-167.002
 11
-102.795
 21
-167.004
  0
LINE
  8
0
 10
-102.795
 20
-167.004
 11
-102.769
 21
-167.006
  0
LINE
  8
0
 10
-102.769
 20
-167.006
 11
-102.743
 21
-167.008
  0
LINE
  8
0
 10
-102.743
 20
-167.008
 11
-102.717
 21
-167.011
  0
LINE
  8
0
 10
-102.717
 20
-167.011
 11
-102.691
 21
-167.015
  0
LINE
  8
0
 10
-102.691
 20
-167.015
 11
-102.665
 21
-167.018
  0
LINE
  8
0
 10
-102.665
 20
-167.018
 11
-102.64
 21
-167.023
  0
LINE
  8
0
 10
-102.64
 20
-167.023
 11
-102.614
 21
-167.028
  0
LINE
  8
0
 10
-102.614
 20
-167.028
 11
-102.588
 21
-167.033
  0
LINE
  8
0
 10
-102.588
 20
-167.033
 11
-102.563
 21
-167.038
  0
LINE
  8
0
 10
-102.563
 20
-167.038
 11
-102.537
 21
-167.045
  0
LINE
  8
0
 10
-102.537
 20
-167.045
 11
-102.512
 21
-167.051
  0
LINE
  8
0
 10
-102.512
 20
-167.051
 11
-102.487
 21
-167.058
  0
LINE
  8
0
 10
-102.487
 20
-167.058
 11
-102.461
 21
-167.066
  0
LINE
  8
0
 10
-102.461
 20
-167.066
 11
-102.436
 21
-167.073
  0
LINE
  8
0
 10
-102.436
 20
-167.073
 11
-102.412
 21
-167.082
  0
LINE
  8
0
 10
-102.412
 20
-167.082
 11
-102.387
 21
-167.09
  0
LINE
  8
0
 10
-102.387
 20
-167.09
 11
-102.362
 21
-167.1
  0
LINE
  8
0
 10
-102.362
 20
-167.1
 11
-102.338
 21
-167.109
  0
LINE
  8
0
 10
-102.338
 20
-167.109
 11
-102.314
 21
-167.119
  0
LINE
  8
0
 10
-102.314
 20
-167.119
 11
-102.29
 21
-167.13
  0
LINE
  8
0
 10
-102.29
 20
-167.13
 11
-102.266
 21
-167.141
  0
LINE
  8
0
 10
-102.266
 20
-167.141
 11
-102.242
 21
-167.152
  0
LINE
  8
0
 10
-102.242
 20
-167.152
 11
-102.219
 21
-167.163
  0
LINE
  8
0
 10
-102.219
 20
-167.163
 11
-102.196
 21
-167.176
  0
LINE
  8
0
 10
-102.196
 20
-167.176
 11
-102.173
 21
-167.188
  0
LINE
  8
0
 10
-102.173
 20
-167.188
 11
-102.15
 21
-167.201
  0
LINE
  8
0
 10
-102.15
 20
-167.201
 11
-102.127
 21
-167.214
  0
LINE
  8
0
 10
-102.127
 20
-167.214
 11
-102.105
 21
-167.228
  0
LINE
  8
0
 10
-102.105
 20
-167.228
 11
-102.083
 21
-167.242
  0
LINE
  8
0
 10
-102.083
 20
-167.242
 11
-102.061
 21
-167.256
  0
LINE
  8
0
 10
-102.061
 20
-167.256
 11
-102.04
 21
-167.271
  0
LINE
  8
0
 10
-102.04
 20
-167.271
 11
-102.018
 21
-167.286
  0
LINE
  8
0
 10
-102.018
 20
-167.286
 11
-101.997
 21
-167.302
  0
LINE
  8
0
 10
-101.997
 20
-167.302
 11
-101.977
 21
-167.318
  0
LINE
  8
0
 10
-101.977
 20
-167.318
 11
-101.956
 21
-167.334
  0
LINE
  8
0
 10
-101.956
 20
-167.334
 11
-101.936
 21
-167.351
  0
LINE
  8
0
 10
-101.936
 20
-167.351
 11
-101.916
 21
-167.368
  0
LINE
  8
0
 10
-101.916
 20
-167.368
 11
-101.896
 21
-167.385
  0
LINE
  8
0
 10
-101.896
 20
-167.385
 11
-101.877
 21
-167.403
  0
LINE
  8
0
 10
-101.877
 20
-167.403
 11
-101.858
 21
-167.421
  0
LINE
  8
0
 10
-101.858
 20
-167.421
 11
-101.839
 21
-167.439
  0
LINE
  8
0
 10
-101.839
 20
-167.439
 11
-101.821
 21
-167.458
  0
LINE
  8
0
 10
-101.821
 20
-167.458
 11
-101.803
 21
-167.477
  0
LINE
  8
0
 10
-101.803
 20
-167.477
 11
-101.785
 21
-167.496
  0
LINE
  8
0
 10
-101.785
 20
-167.496
 11
-101.768
 21
-167.516
  0
LINE
  8
0
 10
-101.768
 20
-167.516
 11
-101.751
 21
-167.536
  0
LINE
  8
0
 10
-101.751
 20
-167.536
 11
-101.734
 21
-167.556
  0
LINE
  8
0
 10
-101.734
 20
-167.556
 11
-101.718
 21
-167.577
  0
LINE
  8
0
 10
-101.718
 20
-167.577
 11
-101.702
 21
-167.597
  0
LINE
  8
0
 10
-101.702
 20
-167.597
 11
-101.686
 21
-167.618
  0
LINE
  8
0
 10
-101.686
 20
-167.618
 11
-101.671
 21
-167.64
  0
LINE
  8
0
 10
-101.671
 20
-167.64
 11
-101.656
 21
-167.661
  0
LINE
  8
0
 10
-101.656
 20
-167.661
 11
-101.642
 21
-167.683
  0
LINE
  8
0
 10
-101.642
 20
-167.683
 11
-101.628
 21
-167.705
  0
LINE
  8
0
 10
-101.628
 20
-167.705
 11
-101.614
 21
-167.727
  0
LINE
  8
0
 10
-101.614
 20
-167.727
 11
-101.601
 21
-167.75
  0
LINE
  8
0
 10
-101.601
 20
-167.75
 11
-101.588
 21
-167.773
  0
LINE
  8
0
 10
-101.588
 20
-167.773
 11
-101.576
 21
-167.796
  0
LINE
  8
0
 10
-101.576
 20
-167.796
 11
-101.564
 21
-167.819
  0
LINE
  8
0
 10
-101.564
 20
-167.819
 11
-101.552
 21
-167.842
  0
LINE
  8
0
 10
-101.552
 20
-167.842
 11
-101.541
 21
-167.866
  0
LINE
  8
0
 10
-101.541
 20
-167.866
 11
-101.53
 21
-167.89
  0
LINE
  8
0
 10
-101.53
 20
-167.89
 11
-101.519
 21
-167.914
  0
LINE
  8
0
 10
-101.519
 20
-167.914
 11
-101.509
 21
-167.938
  0
LINE
  8
0
 10
-101.509
 20
-167.938
 11
-101.5
 21
-167.962
  0
LINE
  8
0
 10
-101.5
 20
-167.962
 11
-101.49
 21
-167.987
  0
LINE
  8
0
 10
-101.49
 20
-167.987
 11
-101.482
 21
-168.012
  0
LINE
  8
0
 10
-101.482
 20
-168.012
 11
-101.473
 21
-168.036
  0
LINE
  8
0
 10
-101.473
 20
-168.036
 11
-101.466
 21
-168.061
  0
LINE
  8
0
 10
-101.466
 20
-168.061
 11
-101.458
 21
-168.087
  0
LINE
  8
0
 10
-101.458
 20
-168.087
 11
-101.451
 21
-168.112
  0
LINE
  8
0
 10
-101.451
 20
-168.112
 11
-101.445
 21
-168.137
  0
LINE
  8
0
 10
-101.445
 20
-168.137
 11
-101.438
 21
-168.163
  0
LINE
  8
0
 10
-101.438
 20
-168.163
 11
-101.433
 21
-168.188
  0
LINE
  8
0
 10
-101.433
 20
-168.188
 11
-101.428
 21
-168.214
  0
LINE
  8
0
 10
-101.428
 20
-168.214
 11
-101.423
 21
-168.24
  0
LINE
  8
0
 10
-101.423
 20
-168.24
 11
-101.418
 21
-168.265
  0
LINE
  8
0
 10
-101.418
 20
-168.265
 11
-101.415
 21
-168.291
  0
LINE
  8
0
 10
-101.415
 20
-168.291
 11
-101.411
 21
-168.317
  0
LINE
  8
0
 10
-101.411
 20
-168.317
 11
-101.408
 21
-168.343
  0
LINE
  8
0
 10
-101.408
 20
-168.343
 11
-101.406
 21
-168.369
  0
LINE
  8
0
 10
-101.406
 20
-168.369
 11
-101.404
 21
-168.395
  0
LINE
  8
0
 10
-101.404
 20
-168.395
 11
-101.402
 21
-168.422
  0
LINE
  8
0
 10
-101.402
 20
-168.422
 11
-101.401
 21
-168.448
  0
LINE
  8
0
 10
-101.401
 20
-168.448
 11
-101.4
 21
-168.474
  0
LINE
  8
0
 10
-101.4
 20
-168.474
 11
-101.4
 21
-168.5
  0
LINE
  8
0
 10
-101.4
 20
-168.5
 11
-101.4
 21
-168.526
  0
LINE
  8
0
 10
-101.4
 20
-168.526
 11
-101.401
 21
-168.552
  0
LINE
  8
0
 10
-101.401
 20
-168.552
 11
-101.402
 21
-168.579
  0
LINE
  8
0
 10
-101.402
 20
-168.579
 11
-101.404
 21
-168.605
  0
LINE
  8
0
 10
-101.404
 20
-168.605
 11
-101.406
 21
-168.631
  0
LINE
  8
0
 10
-101.406
 20
-168.631
 11
-101.408
 21
-168.657
  0
LINE
  8
0
 10
-101.408
 20
-168.657
 11
-101.411
 21
-168.683
  0
LINE
  8
0
 10
-101.411
 20
-168.683
 11
-101.415
 21
-168.709
  0
LINE
  8
0
 10
-101.415
 20
-168.709
 11
-101.418
 21
-168.735
  0
LINE
  8
0
 10
-101.418
 20
-168.735
 11
-101.423
 21
-168.76
  0
LINE
  8
0
 10
-101.423
 20
-168.76
 11
-101.428
 21
-168.786
  0
LINE
  8
0
 10
-101.428
 20
-168.786
 11
-101.433
 21
-168.812
  0
LINE
  8
0
 10
-101.433
 20
-168.812
 11
-101.438
 21
-168.837
  0
LINE
  8
0
 10
-101.438
 20
-168.837
 11
-101.445
 21
-168.863
  0
LINE
  8
0
 10
-101.445
 20
-168.863
 11
-101.451
 21
-168.888
  0
LINE
  8
0
 10
-101.451
 20
-168.888
 11
-101.458
 21
-168.913
  0
LINE
  8
0
 10
-101.458
 20
-168.913
 11
-101.466
 21
-168.939
  0
LINE
  8
0
 10
-101.466
 20
-168.939
 11
-101.473
 21
-168.964
  0
LINE
  8
0
 10
-101.473
 20
-168.964
 11
-101.482
 21
-168.988
  0
LINE
  8
0
 10
-101.482
 20
-168.988
 11
-101.49
 21
-169.013
  0
LINE
  8
0
 10
-101.49
 20
-169.013
 11
-101.5
 21
-169.038
  0
LINE
  8
0
 10
-101.5
 20
-169.038
 11
-101.509
 21
-169.062
  0
LINE
  8
0
 10
-101.509
 20
-169.062
 11
-101.519
 21
-169.086
  0
LINE
  8
0
 10
-101.519
 20
-169.086
 11
-101.53
 21
-169.11
  0
LINE
  8
0
 10
-101.53
 20
-169.11
 11
-101.541
 21
-169.134
  0
LINE
  8
0
 10
-101.541
 20
-169.134
 11
-101.552
 21
-169.158
  0
LINE
  8
0
 10
-101.552
 20
-169.158
 11
-101.564
 21
-169.181
  0
LINE
  8
0
 10
-101.564
 20
-169.181
 11
-101.576
 21
-169.204
  0
LINE
  8
0
 10
-101.576
 20
-169.204
 11
-101.588
 21
-169.227
  0
LINE
  8
0
 10
-101.588
 20
-169.227
 11
-101.601
 21
-169.25
  0
LINE
  8
0
 10
-101.601
 20
-169.25
 11
-101.614
 21
-169.273
  0
LINE
  8
0
 10
-101.614
 20
-169.273
 11
-101.628
 21
-169.295
  0
LINE
  8
0
 10
-101.628
 20
-169.295
 11
-101.642
 21
-169.317
  0
LINE
  8
0
 10
-101.642
 20
-169.317
 11
-101.656
 21
-169.339
  0
LINE
  8
0
 10
-101.656
 20
-169.339
 11
-101.671
 21
-169.36
  0
LINE
  8
0
 10
-101.671
 20
-169.36
 11
-101.686
 21
-169.382
  0
LINE
  8
0
 10
-101.686
 20
-169.382
 11
-101.702
 21
-169.403
  0
LINE
  8
0
 10
-101.702
 20
-169.403
 11
-101.718
 21
-169.423
  0
LINE
  8
0
 10
-101.718
 20
-169.423
 11
-101.734
 21
-169.444
  0
LINE
  8
0
 10
-101.734
 20
-169.444
 11
-101.751
 21
-169.464
  0
LINE
  8
0
 10
-101.751
 20
-169.464
 11
-101.768
 21
-169.484
  0
LINE
  8
0
 10
-101.768
 20
-169.484
 11
-101.785
 21
-169.504
  0
LINE
  8
0
 10
-101.785
 20
-169.504
 11
-101.803
 21
-169.523
  0
LINE
  8
0
 10
-101.803
 20
-169.523
 11
-101.821
 21
-169.542
  0
LINE
  8
0
 10
-101.821
 20
-169.542
 11
-101.839
 21
-169.561
  0
LINE
  8
0
 10
-101.839
 20
-169.561
 11
-101.858
 21
-169.579
  0
LINE
  8
0
 10
-101.858
 20
-169.579
 11
-101.877
 21
-169.597
  0
LINE
  8
0
 10
-101.877
 20
-169.597
 11
-101.896
 21
-169.615
  0
LINE
  8
0
 10
-101.896
 20
-169.615
 11
-101.916
 21
-169.632
  0
LINE
  8
0
 10
-101.916
 20
-169.632
 11
-101.936
 21
-169.649
  0
LINE
  8
0
 10
-101.936
 20
-169.649
 11
-101.956
 21
-169.666
  0
LINE
  8
0
 10
-101.956
 20
-169.666
 11
-101.977
 21
-169.682
  0
LINE
  8
0
 10
-101.977
 20
-169.682
 11
-101.997
 21
-169.698
  0
LINE
  8
0
 10
-101.997
 20
-169.698
 11
-102.018
 21
-169.714
  0
LINE
  8
0
 10
-102.018
 20
-169.714
 11
-102.04
 21
-169.729
  0
LINE
  8
0
 10
-102.04
 20
-169.729
 11
-102.061
 21
-169.744
  0
LINE
  8
0
 10
-102.061
 20
-169.744
 11
-102.083
 21
-169.758
  0
LINE
  8
0
 10
-102.083
 20
-169.758
 11
-102.105
 21
-169.772
  0
LINE
  8
0
 10
-102.105
 20
-169.772
 11
-102.127
 21
-169.786
  0
LINE
  8
0
 10
-102.127
 20
-169.786
 11
-102.15
 21
-169.799
  0
LINE
  8
0
 10
-102.15
 20
-169.799
 11
-102.173
 21
-169.812
  0
LINE
  8
0
 10
-102.173
 20
-169.812
 11
-102.196
 21
-169.824
  0
LINE
  8
0
 10
-102.196
 20
-169.824
 11
-102.219
 21
-169.837
  0
LINE
  8
0
 10
-102.219
 20
-169.837
 11
-102.242
 21
-169.848
  0
LINE
  8
0
 10
-102.242
 20
-169.848
 11
-102.266
 21
-169.859
  0
LINE
  8
0
 10
-102.266
 20
-169.859
 11
-102.29
 21
-169.87
  0
LINE
  8
0
 10
-102.29
 20
-169.87
 11
-102.314
 21
-169.881
  0
LINE
  8
0
 10
-102.314
 20
-169.881
 11
-102.338
 21
-169.891
  0
LINE
  8
0
 10
-102.338
 20
-169.891
 11
-102.362
 21
-169.9
  0
LINE
  8
0
 10
-102.362
 20
-169.9
 11
-102.387
 21
-169.91
  0
LINE
  8
0
 10
-102.387
 20
-169.91
 11
-102.412
 21
-169.918
  0
LINE
  8
0
 10
-102.412
 20
-169.918
 11
-102.436
 21
-169.927
  0
LINE
  8
0
 10
-102.436
 20
-169.927
 11
-102.461
 21
-169.934
  0
LINE
  8
0
 10
-102.461
 20
-169.934
 11
-102.487
 21
-169.942
  0
LINE
  8
0
 10
-102.487
 20
-169.942
 11
-102.512
 21
-169.949
  0
LINE
  8
0
 10
-102.512
 20
-169.949
 11
-102.537
 21
-169.955
  0
LINE
  8
0
 10
-102.537
 20
-169.955
 11
-102.563
 21
-169.962
  0
LINE
  8
0
 10
-102.563
 20
-169.962
 11
-102.588
 21
-169.967
  0
LINE
  8
0
 10
-102.588
 20
-169.967
 11
-102.614
 21
-169.972
  0
LINE
  8
0
 10
-102.614
 20
-169.972
 11
-102.64
 21
-169.977
  0
LINE
  8
0
 10
-102.64
 20
-169.977
 11
-102.665
 21
-169.982
  0
LINE
  8
0
 10
-102.665
 20
-169.982
 11
-102.691
 21
-169.985
  0
LINE
  8
0
 10
-102.691
 20
-169.985
 11
-102.717
 21
-169.989
  0
LINE
  8
0
 10
-102.717
 20
-169.989
 11
-102.743
 21
-169.992
  0
LINE
  8
0
 10
-102.743
 20
-169.992
 11
-102.769
 21
-169.994
  0
LINE
  8
0
 10
-102.769
 20
-169.994
 11
-102.795
 21
-169.996
  0
LINE
  8
0
 10
-102.795
 20
-169.996
 11
-102.822
 21
-169.998
  0
LINE
  8
0
 10
-102.822
 20
-169.998
 11
-102.848
 21
-169.999
  0
LINE
  8
0
 10
-102.848
 20
-169.999
 11
-102.874
 21
-170
  0
LINE
  8
0
 10
-102.874
 20
-170
 11
-102.9
 21
-170
  0
LINE
  8
0
 10
-102.9
 20
-170
 11
-102.926
 21
-170
  0
ENDSEC
  0
SECTION
  2
OBJECTS
  0
DICTIONARY
  0
ENDSEC
  0
EOF
